<svg width="72" height="72" viewBox="0 0 72 72" fill="none" xmlns="http://www.w3.org/2000/svg">
<rect width="72" height="72" rx="8" fill="white"/>
<g clip-path="url(#clip0_18_1011)">
<path d="M37.1825 39.0497H42.7328C44.3113 39.0497 45.3101 38.1812 45.3101 36.7856C45.3101 35.4697 44.3113 34.5216 42.7328 34.5216H37.1825C36.9986 34.5216 36.8413 34.679 36.8413 34.8382V38.7331C36.8661 38.917 36.9969 39.0497 37.1825 39.0497ZM37.1825 48.0244H42.9167C44.679 48.0244 45.7308 47.1294 45.7308 45.5499C45.7308 44.1809 44.732 43.0754 42.9167 43.0754H37.1825C36.9986 43.0754 36.8413 43.2328 36.8413 43.392V47.683C36.8661 47.8935 36.9969 48.0244 37.1825 48.0244Z" fill="#34313F"/>
<path d="M57.4891 14.0979L41.0748 30.4696H43.7581C47.9403 30.4696 50.4133 33.1015 50.4133 35.9705C50.4133 38.2345 48.8878 39.8919 47.2563 40.6294C46.9929 40.7356 46.9929 41.1035 47.2828 41.2078C49.1759 41.9454 50.5176 43.9194 50.5176 46.2347C50.5176 49.4981 48.3345 52.1035 44.0993 52.1035H32.4735C32.2897 52.1035 32.1324 51.9461 32.1324 51.7869V39.3895L14.1131 57.3426C13.8762 57.5796 14.0335 58.0006 14.3765 58.0006H57.6995C57.8568 58.0006 57.9894 57.8697 57.9894 57.7105V14.3349C58.0671 14.0448 57.6995 13.8874 57.4891 14.0979Z" fill="#34313F"/>
</g>
<defs>
<clipPath id="clip0_18_1011">
<rect width="44" height="44" fill="white" transform="translate(14 14)"/>
</clipPath>
</defs>
</svg>
