<svg width="72" height="72" viewBox="0 0 72 72" fill="none" xmlns="http://www.w3.org/2000/svg">
<rect width="72" height="72" rx="8" fill="white"/>
<g clip-path="url(#clip0_76_92)">
<g clip-path="url(#clip1_76_92)">
<path d="M55.2134 26.3621C55.2154 28.2064 54.8048 30.027 54.0113 31.6909C53.2178 33.3547 52.0616 34.8198 50.628 35.9778L17.6576 17.247C17.5317 17.1748 17.415 17.0882 17.3094 16.9878C17.1442 16.8258 17.013 16.6322 16.9231 16.419C16.8333 16.2051 16.7867 15.9755 16.7867 15.7439C16.7867 15.2813 16.9704 14.8378 17.297 14.5111C17.6235 14.1837 18.0669 14 18.5292 14H42.8627C46.1384 14 49.2797 15.3023 51.596 17.621C53.9123 19.9389 55.2134 23.0836 55.2134 26.3621Z" fill="#18B4F4"/>
<path d="M55.214 45.5925C55.2146 47.2163 54.8952 48.8244 54.2748 50.3242C53.6545 51.8247 52.7449 53.1881 51.5979 54.3362C50.4509 55.4844 49.0888 56.395 47.5903 57.0164C46.0918 57.6383 44.485 57.9579 42.8632 57.9579H18.5298C18.1848 57.9539 17.849 57.8483 17.5644 57.6534C17.2805 57.4586 17.0594 57.1837 16.9316 56.8635C16.803 56.5433 16.7722 56.1923 16.8437 55.8544C16.9145 55.5172 17.0837 55.2082 17.3303 54.9667C17.4287 54.8683 17.5388 54.7824 17.6582 54.7109L30.6339 47.3397L50.626 35.9801C52.0589 37.1381 53.2151 38.6025 54.0092 40.2657C54.8034 41.9289 55.2146 43.7495 55.214 45.5925Z" fill="#FD6B3C"/>
<path d="M50.6284 35.9778L30.6337 47.34L17.6587 54.7112C17.5341 54.7808 17.4186 54.8654 17.3157 54.9645C22.263 49.8857 25.0292 43.0708 25.0233 35.9778C25.0325 28.8835 22.267 22.0674 17.3183 16.9879C17.4239 17.0883 17.5406 17.1749 17.6672 17.2471L50.6284 35.9778Z" fill="#A97FF2"/>
</g>
</g>
<defs>
<clipPath id="clip0_76_92">
<rect width="44" height="44" fill="white" transform="translate(14 14)"/>
</clipPath>
<clipPath id="clip1_76_92">
<rect width="38.4267" height="44" fill="white" transform="translate(16.7867 14)"/>
</clipPath>
</defs>
</svg>
