<svg width="72" height="72" viewBox="0 0 72 72" fill="none" xmlns="http://www.w3.org/2000/svg">
<rect width="72" height="72" rx="8" fill="white"/>
<path d="M27.3491 32.6443C27.5664 32.6443 27.728 32.591 27.8922 32.535L33.3177 29.586C33.8608 29.3141 34.0224 28.6021 33.7522 28.0582C33.482 27.5143 32.7746 27.349 32.2342 27.6209L26.8617 30.5699C26.3186 30.7325 26.0484 31.2791 26.157 31.8257C26.3186 32.3723 26.8617 32.7536 27.3518 32.6443H27.3491ZM35.596 36.9584C35.7576 36.9584 35.9748 36.9051 36.1391 36.7957L44.7674 32.1004C45.0933 31.9377 45.3105 31.5538 45.3105 31.1725C45.3105 30.7352 45.1489 30.3539 44.8231 30.1886C44.4442 29.97 44.0627 29.97 43.6839 30.1353L35.0556 34.8307C34.5681 35.0493 34.2423 35.5959 34.4039 36.1425C34.5125 36.6891 35.0556 37.0171 35.5987 36.9611L35.596 36.9584ZM57.9497 30.7859C57.7324 30.13 57.245 29.5834 56.6463 29.3114L47.3133 24.3414C45.7953 23.5761 44.0045 23.5761 42.4309 24.3414L41.6705 24.6693L35.2145 21.1738C33.6966 20.4085 31.9057 20.4085 30.3321 21.1738L15.3564 29.3114C14.5961 29.6394 14.1086 30.3486 14 31.1672V39.4674C14 39.9047 14.2172 40.286 14.5961 40.4513L33.5853 50.8259C35.1033 51.5912 36.9497 51.5912 38.4677 50.8259L57.4039 40.342C57.7828 40.1793 58 39.7954 58 39.3581V31.1672C58 31.0578 57.947 30.8952 57.947 30.7859H57.9497ZM16.4425 31.2791L31.3626 23.1975C32.2316 22.8162 33.2621 22.8162 34.184 23.1975L41.6705 27.2397L43.4614 26.2558C44.3833 25.8745 45.4138 25.8745 46.2827 26.2558L55.5601 31.2791L55.6687 31.3325L55.5601 31.3858L37.4372 41.2165C36.5153 41.6538 35.4847 41.6538 34.6158 41.2165L16.4399 31.2765L16.4425 31.2791ZM37.3868 48.9168C36.5179 49.2981 35.4874 49.2981 34.6185 48.9168L16.2253 38.8142V33.7908L33.535 43.1843C35.0529 43.9495 36.8994 43.9495 38.4174 43.1843L55.78 33.7908V38.7048L37.3868 48.9168Z" fill="#121A3E"/>
</svg>
