<svg width="72" height="72" viewBox="0 0 72 72" fill="none" xmlns="http://www.w3.org/2000/svg">
<rect width="72" height="72" rx="8" fill="white"/>
<g clip-path="url(#clip0_76_125)">
<path d="M29.8468 44.6626C27.5093 42.4626 26.1343 39.4376 26.1343 36.0001C26.1343 32.5626 27.5093 29.5376 29.7093 27.3376C31.6343 25.4126 31.6343 22.3876 29.7093 20.4626C27.7843 18.5375 24.7593 18.5375 22.8343 20.4626C18.9843 24.4501 16.5093 29.9501 16.5093 36.0001C16.5093 42.0501 18.9843 47.5501 22.9718 51.5376C24.8968 53.4626 27.9218 53.4626 29.8468 51.5376C31.6343 49.6126 31.6343 46.5876 29.8468 44.6626Z" fill="#FAE501"/>
<path d="M29.8465 27.3375C32.0465 25 35.0715 23.625 38.509 23.625C41.9465 23.625 44.9715 25 47.1715 27.2C49.0965 29.125 52.1215 29.125 54.0465 27.2C55.9715 25.275 55.9715 22.25 54.0465 20.325C50.0591 16.475 44.559 14 38.509 14C32.459 14 26.959 16.475 22.9715 20.4625C21.0465 22.3875 21.0465 25.4125 22.9715 27.3375C24.8965 29.125 27.9215 29.125 29.8465 27.3375Z" fill="#4FB5E1"/>
<path d="M47.1715 44.6624C44.9715 46.9999 41.9465 48.3749 38.509 48.3749C35.0715 48.3749 32.0465 46.9999 29.8465 44.7999C27.9215 42.8749 24.8965 42.8749 22.9715 44.7999C21.0465 46.7249 21.0465 49.7499 22.9715 51.6749C26.959 55.5249 32.459 57.9999 38.509 57.9999C44.559 57.9999 50.0591 55.5249 54.0465 51.5374C55.9715 49.6124 55.9715 46.5874 54.0465 44.6624C52.1215 42.8749 49.0965 42.8749 47.1715 44.6624Z" fill="#F05751"/>
<path d="M26.4093 28.7123C29.0671 28.7123 31.2218 26.5577 31.2218 23.8998C31.2218 21.2419 29.0671 19.0873 26.4093 19.0873C23.7514 19.0873 21.5967 21.2419 21.5967 23.8998C21.5967 26.5577 23.7514 28.7123 26.4093 28.7123Z" fill="#0681B6"/>
<path d="M26.4093 52.9127C29.0671 52.9127 31.2218 50.758 31.2218 48.1001C31.2218 45.4422 29.0671 43.2876 26.4093 43.2876C23.7514 43.2876 21.5967 45.4422 21.5967 48.1001C21.5967 50.758 23.7514 52.9127 26.4093 52.9127Z" fill="#CD4739"/>
</g>
<defs>
<clipPath id="clip0_76_125">
<rect width="44" height="44" fill="white" transform="translate(13.9999 14)"/>
</clipPath>
</defs>
</svg>
