<svg width="72" height="72" viewBox="0 0 72 72" fill="none" xmlns="http://www.w3.org/2000/svg">
<rect width="72" height="72" rx="8" fill="white"/>
<path d="M49.1762 39.4991C48.9969 39.4581 48.8214 39.4017 48.6518 39.3305C48.5128 39.2697 48.3866 39.1832 48.2797 39.0756C48.3823 38.181 48.2797 37.4036 48.3658 36.5236C48.7032 33.11 50.85 34.1916 52.7768 33.6325C53.9777 33.2951 55.1785 32.6021 55.481 31.1831C54.1842 29.6642 52.7087 28.3075 51.0865 27.1425C45.8615 23.4245 39.0342 21.9358 32.8302 22.968C33.779 24.6235 35.2104 25.95 36.9332 26.7703C36.9332 26.7703 35.252 26.7703 33.811 25.6941C33.3893 25.8628 32.5423 26.1965 32.1372 26.3981C33.7473 27.946 35.8589 28.8655 38.089 28.99C40.319 29.1144 42.5198 28.4356 44.2922 27.0765C44.2738 27.1076 43.953 27.599 43.5643 29.6431C42.7027 34.0065 40.2167 33.6673 37.1403 32.5691C30.7512 30.2518 27.2348 32.3986 24.0412 28.0041C23.1117 28.5285 22.5378 29.5075 22.5378 30.5745C22.5378 31.6726 23.1447 32.6021 24.0228 33.11C24.5032 32.472 24.7195 32.2923 25.5555 32.2923C24.2612 33.0256 24.1072 33.6673 23.5498 35.442C22.8752 37.5888 23.1612 39.787 20.0005 40.3608C18.3267 40.4451 18.3615 41.5781 17.7528 43.2684C16.992 45.4666 15.9782 46.3448 14 48.4238C14.8122 49.4046 15.6573 49.5238 16.519 49.1681C18.2937 48.4238 19.6632 46.1248 20.9465 44.638C22.3838 42.9806 25.8323 43.6901 28.4357 42.0676C30.2268 40.9695 31.1068 39.4826 29.9225 36.9636C30.6842 37.8026 31.1375 38.876 31.2077 40.007C34.2162 39.6165 38.2403 43.285 41.907 43.8936C41.5429 43.4347 41.242 42.9291 41.0123 42.3903C40.5907 41.3746 40.455 40.447 40.5393 39.6348C40.8767 41.646 42.9043 44.231 46.1677 44.4693C46.9963 44.5353 47.9093 44.4345 48.8553 44.1466C49.9883 43.8093 51.037 43.3693 52.2873 43.6058C53.2168 43.7763 54.0785 44.2475 54.6193 45.0431C55.4315 46.2256 57.2043 46.4804 58 45.0266C56.2088 40.3443 51.2717 40.04 49.1762 39.4991Z" fill="#3F2EA0"/>
</svg>
