<svg width="72" height="72" viewBox="0 0 72 72" fill="none" xmlns="http://www.w3.org/2000/svg">
<rect width="72" height="72" rx="8" fill="white"/>
<g clip-path="url(#clip0_18_1020)">
<rect x="17.8672" y="30.4141" width="36.6094" height="12.2031" fill="white"/>
<path d="M33.4648 14.1292C28.5234 14.6963 23.9859 16.8963 20.4453 20.4456C16.8617 24.0291 14.6875 28.5323 14.1289 33.551C13.3813 40.2198 15.693 46.8112 20.4453 51.5549C24.0289 55.1385 28.532 57.3127 33.5508 57.8713C40.2195 58.619 46.8109 56.3073 51.5547 51.5549C55.1383 47.9713 57.3125 43.4682 57.8711 38.4495C58.6188 31.7807 56.307 25.1893 51.5547 20.4456C47.9711 16.862 43.468 14.6877 38.4492 14.1292C37.1172 13.9745 34.7711 13.9745 33.4648 14.1292ZM25.7305 31.2049C26.4008 31.3424 27.1828 31.7549 27.707 32.2276L28.1797 32.6659L27.8188 33.0698C27.6211 33.2846 27.2516 33.6885 27.0023 33.9635L26.5555 34.4534L26.057 34.0752C24.5789 32.9409 22.8773 33.362 22.25 35.0206C22.0008 35.6995 22.0352 36.7909 22.3273 37.3752C23.0836 38.8534 24.7422 39.1885 26.1344 38.1401C26.3836 37.9596 26.607 37.8049 26.6328 37.8049C26.6586 37.8049 27.0281 38.1487 27.4492 38.5784L28.2141 39.3518L27.8789 39.7041C27.3891 40.2112 26.607 40.701 25.9625 40.8987C23.1609 41.7666 20.2477 40.194 19.543 37.4182C19.3711 36.7565 19.3797 35.4416 19.5516 34.7627C19.9555 33.1815 21.2016 31.8323 22.7227 31.3166C23.582 31.0331 24.7078 30.9901 25.7305 31.2049ZM36.1031 31.2393C36.6273 31.4112 37.143 31.7893 37.4266 32.219L37.6586 32.5627L38.157 32.0987C39.0508 31.2737 40.1336 30.9299 41.3539 31.1018C42.3164 31.2393 43.0039 31.669 43.4508 32.4081C43.9492 33.2331 43.9922 33.594 43.9922 37.4354V40.8987H42.6172H41.2508L41.225 37.7362C41.1992 34.7627 41.1906 34.5651 41.0273 34.2901C40.718 33.7659 40.4516 33.637 39.7125 33.637C38.9133 33.637 38.5695 33.8346 38.2859 34.4448C38.1141 34.8229 38.1055 34.9948 38.0797 37.8651L38.0539 40.8987H36.7219H35.3984V38.1143C35.3984 36.5846 35.3555 35.1237 35.3125 34.8745C35.1492 34.0237 34.6508 33.594 33.8258 33.594C33.1297 33.594 32.7172 33.8346 32.4336 34.4018L32.2188 34.8315V37.8651V40.8987H30.8438H29.4688V36.0432V31.1791L30.8266 31.2049L32.1758 31.2307L32.2016 31.8666L32.2273 32.494L32.7172 32.0213C32.9922 31.7635 33.3789 31.4713 33.5766 31.3682C34.2555 31.0245 35.2352 30.9729 36.1031 31.2393ZM50.9961 31.3596C51.6234 31.5573 52.7578 32.1073 52.7578 32.219C52.7578 32.262 51.8469 33.9979 51.7781 34.0838C51.7609 34.101 51.4859 33.9721 51.1594 33.8088C50.3 33.3706 49.7414 33.2245 49.0797 33.2674C48.6242 33.2932 48.4953 33.3362 48.3664 33.4995C47.9109 34.0581 48.3148 34.4276 50.0336 35.0206C51.5977 35.5706 52.2938 36.026 52.7148 36.7823C52.9469 37.2034 52.9727 37.3237 52.9641 38.0198C52.9641 38.8877 52.7578 39.4807 52.2594 40.0479C51.2883 41.1565 48.8391 41.4057 46.9055 40.5893C46.4242 40.3916 45.2813 39.7213 45.2813 39.644C45.2813 39.6268 45.5391 39.2143 45.8656 38.7159C46.4156 37.8565 46.45 37.8221 46.6133 37.951C46.8969 38.1573 47.868 38.6299 48.3664 38.7932C48.6242 38.8791 49.0969 38.9479 49.4234 38.9565C50.1453 38.9565 50.4633 38.7674 50.5063 38.3034C50.5492 37.8393 50.2227 37.6245 48.7617 37.1518C47.3523 36.7049 46.6391 36.301 46.2266 35.7338C45.8742 35.244 45.7711 34.7971 45.8141 33.9377C45.8398 33.3362 45.8914 33.1299 46.0977 32.7518C46.5016 32.0127 47.1891 31.4885 48.1172 31.2221C48.7016 31.0502 50.2484 31.1276 50.9961 31.3596Z" fill="#C336E5"/>
</g>
<defs>
<clipPath id="clip0_18_1020">
<rect width="44" height="44" fill="white" transform="translate(14 14)"/>
</clipPath>
</defs>
</svg>
