<svg width="72" height="72" viewBox="0 0 72 72" fill="none" xmlns="http://www.w3.org/2000/svg">
<rect width="72" height="72" rx="8" fill="white"/>
<g clip-path="url(#clip0_18_1096)">
<path d="M36 14C23.8497 14 14 23.8497 14 36C14 48.1503 23.8498 58 36 58C48.1503 58 58 48.1503 58 36C58 23.8497 48.1503 14 36 14ZM18.7272 36.2293L35.7706 53.2728C26.4119 53.1508 18.8492 45.5881 18.7272 36.2293ZM39.8665 52.8409L19.1591 32.1335C20.915 24.454 27.7882 18.7244 36 18.7244C41.7402 18.7244 46.8255 21.5247 49.967 25.833L47.5751 27.9435C45.0268 24.2891 40.793 21.8974 36 21.8974C29.8976 21.8974 24.7009 25.7736 22.7366 31.1981L40.8019 49.2634C45.1891 47.6747 48.5632 43.9713 49.6933 39.3846H42.2051V36H50.1026L53.2756 36C53.2756 44.2117 47.546 51.085 39.8665 52.8409Z" fill="#744C9E"/>
</g>
<defs>
<clipPath id="clip0_18_1096">
<rect width="44" height="44" fill="white" transform="translate(14 14)"/>
</clipPath>
</defs>
</svg>
