<svg width="72" height="72" viewBox="0 0 72 72" fill="none" xmlns="http://www.w3.org/2000/svg">
<rect width="72" height="72" rx="8" fill="white"/>
<g clip-path="url(#clip0_18_995)">
<path d="M51.213 21.1423L41.2836 15.4101C38.0348 13.53 34.0538 13.53 30.8049 15.4101L20.8297 21.1423C17.6266 23.0224 15.6133 26.5076 15.6133 30.2221V41.7321C15.6133 45.4925 17.6266 48.9317 20.8297 50.8118L30.7592 56.5899C34.008 58.47 37.9889 58.47 41.2377 56.5899L51.1672 50.8118C54.4161 48.9317 56.3836 45.4925 56.3836 41.7321V30.2221C56.4751 26.5076 54.4618 23.0224 51.213 21.1423ZM36.0213 46.2262C30.3931 46.2262 25.8173 41.6405 25.8173 36C25.8173 30.3595 30.3931 25.7739 36.0213 25.7739C41.6496 25.7739 46.2711 30.3595 46.2711 36C46.2711 41.6405 41.6953 46.2262 36.0213 46.2262Z" fill="url(#paint0_linear_18_995)"/>
</g>
<defs>
<linearGradient id="paint0_linear_18_995" x1="-2703.86" y1="3616.29" x2="4514.41" y2="1805.96" gradientUnits="userSpaceOnUse">
<stop offset="0.265625" stop-color="#592EE1"/>
<stop offset="1" stop-color="#B836D9"/>
</linearGradient>
<clipPath id="clip0_18_995">
<rect width="44" height="44" fill="white" transform="translate(14 14)"/>
</clipPath>
</defs>
</svg>
