<svg width="72" height="72" viewBox="0 0 72 72" fill="none" xmlns="http://www.w3.org/2000/svg">
<rect width="72" height="72" rx="8" fill="white"/>
<g clip-path="url(#clip0_18_1118)">
<path d="M39.9185 14.1033C39.6091 14.1033 39.2997 14.172 39.0247 14.2751C39.6091 14.6533 39.9185 15.1689 40.0903 15.7533C40.0903 15.822 40.1247 15.8908 40.1247 15.9595C40.1247 16.0283 40.1591 16.097 40.1591 16.1658C40.1935 17.1626 39.8841 17.3001 39.6778 17.8845C39.3341 18.6408 39.4372 19.4658 39.8497 20.1189C39.8841 20.1876 39.9185 20.2908 39.9872 20.3595C39.5403 17.472 41.9466 17.0595 42.3935 16.1658C42.4278 15.3751 41.7747 14.8595 41.2591 14.4814C40.7435 14.172 40.331 14.1033 39.9185 14.1033ZM43.5278 14.722C43.4935 14.997 43.5278 14.9283 43.4935 15.0658C43.4935 15.1689 43.4935 15.272 43.4591 15.3751C43.4247 15.4783 43.4247 15.547 43.3903 15.6501C43.356 15.7533 43.3216 15.822 43.2872 15.9251C43.2528 15.9939 43.2185 16.0626 43.1841 16.1658C43.1497 16.2001 43.1153 16.2689 43.081 16.3033C43.0466 16.3376 43.0466 16.372 43.0122 16.4064C42.9435 16.4751 42.9091 16.5783 42.8403 16.647L42.6341 16.8533C42.5653 16.922 42.4966 16.9908 42.4278 17.0251C42.1872 17.197 41.9122 17.3345 41.6716 17.5064C41.6028 17.5751 41.4997 17.6095 41.431 17.6783C41.3622 17.747 41.2935 17.7814 41.2247 17.8501L41.0185 18.0564C40.9497 18.1251 40.881 18.1939 40.8466 18.297C40.7778 18.3658 40.7435 18.4689 40.6747 18.5376C40.6403 18.6408 40.606 18.7095 40.5372 18.8126C40.5028 18.9158 40.4685 18.9845 40.4341 19.0876C40.3997 19.1908 40.3653 19.2939 40.3653 19.3626C40.3653 19.397 40.3653 19.4658 40.331 19.5001C40.331 19.5345 40.331 19.6033 40.2966 19.6376V20.1189C40.2966 20.222 40.2966 20.2908 40.331 20.3939C40.331 20.497 40.3653 20.5658 40.3997 20.6689C40.4341 20.772 40.4685 20.8408 40.5028 20.9439C40.5372 21.0126 40.5716 21.047 40.5716 21.1158L37.9591 20.1189C37.5122 19.9814 37.0997 19.8783 36.6528 19.7751C36.4122 19.7064 36.1716 19.672 35.931 19.6033C35.2435 19.4658 34.556 19.3626 33.8685 19.2939H33.7997C33.1122 19.2251 32.4591 19.1908 31.7716 19.1908C31.256 19.1908 30.7747 19.2251 30.2935 19.2595C29.606 19.2939 28.9185 19.397 28.231 19.5001L27.7153 19.6033C27.3716 19.672 27.0278 19.7408 26.6841 19.8439C26.5122 19.8783 26.3403 19.947 26.1685 19.9814C25.9966 20.0501 25.8247 20.1189 25.6872 20.1876C25.5497 20.2564 25.4466 20.2908 25.3091 20.3595C25.2747 20.3595 25.2747 20.3595 25.2403 20.3939C25.1372 20.4626 25.0341 20.497 24.931 20.5658C24.8966 20.5658 24.8622 20.6001 24.8622 20.6001C24.7247 20.6689 24.6216 20.7376 24.5185 20.772C24.4497 20.8064 24.3466 20.8408 24.2778 20.8751C24.2435 20.9095 24.2091 20.9095 24.1747 20.9439C24.0716 21.0126 23.9685 21.047 23.8653 21.1158C23.7622 21.1845 23.6591 21.2189 23.5903 21.2876C23.5216 21.3564 23.4185 21.3908 23.3497 21.4595C23.3497 21.4595 23.3153 21.4595 23.3153 21.4939C23.2466 21.5283 23.1778 21.597 23.1091 21.6658L23.0747 21.7001C23.006 21.7345 22.9716 21.8033 22.9028 21.8376C22.8685 21.8376 22.8685 21.872 22.8341 21.872C22.7653 21.9064 22.731 21.9751 22.6622 22.0095C22.6622 22.0439 22.6278 22.0439 22.6278 22.0439L22.4216 22.2501L22.3872 22.2845L22.181 22.4908C22.181 22.4908 22.181 22.5251 22.1466 22.5251L21.9747 22.697C21.9403 22.7314 21.906 22.7314 21.906 22.7658L21.6997 22.972C21.6997 23.0064 21.6653 23.0064 21.6653 23.0408L21.3903 23.3158L21.356 23.3501C21.1841 23.5564 20.9778 23.7283 20.7716 23.9001C20.5653 24.072 20.3591 24.2439 20.1185 24.4158C19.8778 24.5876 19.6716 24.7251 19.431 24.8626C19.1903 25.0001 18.9497 25.1033 18.7091 25.2064C18.4685 25.3095 18.2278 25.4126 17.9872 25.4814C17.506 25.5845 17.0247 25.7908 16.6122 25.8251C16.6122 25.6533 16.5091 25.6876 16.406 25.6876C16.3028 25.722 16.1997 25.722 16.131 25.7564C16.0278 25.7908 15.9591 25.8251 15.856 25.8595C15.7528 25.8939 15.6841 25.9283 15.581 25.997C15.5122 26.0658 15.4091 26.1001 15.3403 26.1689C15.2716 26.2376 15.1685 26.3064 15.0997 26.3751C15.031 26.4439 14.9278 26.5126 14.8591 26.5814C14.7903 26.6501 14.7216 26.7189 14.6528 26.822C14.5841 26.9251 14.5153 26.9939 14.481 27.097C14.4122 27.1658 14.3778 27.2689 14.3091 27.372C14.2747 27.4751 14.206 27.5783 14.1716 27.6814L14.0685 27.9908C14.0341 28.0939 14.0341 28.1626 13.9997 28.2658V28.3001C13.9653 28.4033 13.9653 28.5408 13.9653 28.6095C13.9997 28.5751 13.9997 28.6439 13.9997 28.7126V28.8501C13.9997 28.9189 14.0341 28.9876 14.0341 29.0564C14.0685 29.1251 14.0685 29.1939 14.1028 29.2626C14.1372 29.3314 14.1716 29.4001 14.2403 29.4689C14.2747 29.5376 14.3435 29.6064 14.3778 29.6751C14.4466 29.7439 14.5153 29.8126 14.5841 29.847C14.6528 29.9158 14.7216 29.9845 14.7903 30.0189C15.0653 30.2595 15.1341 30.3283 15.4778 30.5345C15.5466 30.5689 15.581 30.6033 15.6497 30.6376H15.6841V30.7064C15.6841 30.8095 15.7185 30.8783 15.7528 30.9814C15.7872 31.0845 15.8216 31.1876 15.856 31.2564L15.9591 31.4626C15.9591 31.497 15.9935 31.497 15.9935 31.5314C16.0278 31.6345 16.0966 31.7033 16.131 31.772C16.1997 31.8408 16.2341 31.9439 16.3028 32.0126L16.5091 32.2189L16.7153 32.4251H16.7497C16.8185 32.4939 16.8872 32.5283 16.956 32.597C17.0247 32.6658 17.1278 32.7001 17.1966 32.7345C17.2653 32.7689 17.3685 32.8376 17.4716 32.872C17.5403 32.9064 17.6091 32.9408 17.7122 32.9408C17.7122 32.9408 17.7466 32.9408 17.7466 32.9751C17.781 32.9751 17.8497 33.0095 17.8841 33.0095C17.8497 33.6283 17.8497 34.2126 17.9185 34.4189C18.0216 34.6595 18.5372 33.9376 19.0185 33.147C18.9497 33.9376 18.9153 34.8658 19.0185 35.1408C19.156 35.4158 19.8091 34.522 20.4278 33.5595C28.4716 31.7033 35.8278 37.272 36.6185 45.1439C36.481 43.9064 34.9685 43.2189 34.2466 43.3908C33.9028 44.2158 33.3185 45.3158 32.3903 45.9689C32.4591 45.2126 32.4247 44.4564 32.2872 43.7001C32.0466 44.7314 31.5653 45.7283 30.8778 46.5533C29.8122 46.622 28.7122 46.1064 28.1622 45.3158C28.1278 45.2814 28.0935 45.2126 28.0591 45.1783C28.0247 45.1095 27.9903 45.0064 27.956 44.9376C27.9216 44.8689 27.8872 44.7658 27.8872 44.697V44.4564V44.2845C27.8872 44.2158 27.9216 44.1126 27.956 44.0439C27.9903 43.9751 27.9903 43.872 28.0247 43.8033C28.0591 43.7345 28.0935 43.6314 28.1622 43.5626C28.3685 43.0126 28.3685 42.5658 27.9903 42.3251L27.7841 42.222C27.7497 42.222 27.681 42.1876 27.6466 42.1876C27.6122 42.1876 27.5778 42.1533 27.5435 42.1533C27.4747 42.1189 27.3716 42.1189 27.3028 42.0845C27.2341 42.0501 27.131 42.0501 27.0622 42.0501C26.9935 42.0501 26.8903 42.0158 26.8216 42.0158H26.6497C26.5466 42.0158 26.4778 42.0158 26.4091 42.0501C26.3403 42.0501 26.2372 42.0845 26.1685 42.0845C26.0997 42.1189 25.9966 42.1189 25.9278 42.1533C25.8591 42.1876 25.7903 42.222 25.6872 42.2564L25.481 42.3595C22.8341 44.0783 24.4153 48.1345 26.2028 49.3033C25.5153 49.4408 24.8278 49.5783 24.6216 49.7158L24.5872 49.7501C25.0685 50.0595 25.5841 50.3001 26.1341 50.5064C26.856 50.747 27.6466 50.9533 27.9903 51.0564C28.9185 51.2626 29.881 51.3314 30.8435 51.2626C35.8622 50.9189 39.9872 47.0689 40.7435 42.0501C40.7778 42.1533 40.7778 42.2564 40.8122 42.3595C40.8466 42.5658 40.881 42.772 40.9153 43.0126C40.9497 43.1158 40.9497 43.2189 40.9497 43.322V43.3564C40.9497 43.4595 40.9841 43.5626 40.9841 43.6658C40.9841 43.8033 41.0185 43.9064 41.0185 44.0439V45.4876C41.0185 45.5908 40.9841 45.6595 40.9841 45.7626V45.8658C40.9841 45.9689 40.9497 46.072 40.9497 46.2095C40.9153 46.3126 40.9153 46.4158 40.881 46.5189V46.5533C40.8466 46.6564 40.8466 46.7595 40.8122 46.8626V46.897C40.7778 47.0001 40.7778 47.1033 40.7435 47.2064V47.2408L40.6403 47.5501V47.5845C40.606 47.6876 40.5716 47.8251 40.5372 47.9283C40.5028 48.0314 40.4685 48.1345 40.3997 48.272C40.3653 48.3751 40.331 48.5126 40.2622 48.6158C40.2278 48.7189 40.1591 48.822 40.1247 48.9595C40.0903 49.0626 40.0216 49.1658 39.9872 49.2689C39.9872 49.3033 39.9528 49.3376 39.9528 49.3376C39.9528 49.3376 39.9528 49.372 39.9185 49.372C39.1966 50.8501 38.0966 52.1564 36.7216 53.1876C36.6185 53.2564 36.5497 53.3251 36.4466 53.3939C36.4122 53.4283 36.3778 53.4283 36.3778 53.4626C36.3091 53.5314 36.206 53.5658 36.1372 53.6345L36.1716 53.7033C36.3435 53.6689 36.481 53.6689 36.6528 53.6345C36.9622 53.6001 37.2372 53.5314 37.5466 53.4626C37.6153 53.4626 37.7185 53.4283 37.7872 53.3939C37.856 53.3939 37.8903 53.3595 37.9591 53.3595C38.0278 53.3595 38.131 53.3251 38.1997 53.3251C38.2685 53.2908 38.3372 53.2908 38.406 53.2564C39.5403 52.9814 40.6403 52.6033 41.706 52.1564C39.8841 54.6314 37.4778 56.6251 34.6591 57.9314C35.9653 57.8283 37.2716 57.622 38.5435 57.2439C43.1153 55.9033 46.9653 52.8095 49.2685 48.6501C48.7872 51.2626 47.756 53.772 46.2091 55.972C47.3091 55.2501 48.306 54.3908 49.2341 53.4626C51.7778 50.8158 53.4622 47.4126 54.0122 43.8033C54.3903 45.5908 54.5278 47.447 54.356 49.2689C62.5716 37.822 55.0435 25.9626 51.881 22.8345C51.881 22.8001 51.8466 22.8001 51.8466 22.7658C51.8466 22.9033 51.8466 23.0408 51.8122 23.1783C51.7778 23.4533 51.7435 23.6939 51.7091 23.9345C51.6403 24.1751 51.5716 24.4501 51.5028 24.6908C51.4341 24.9314 51.331 25.172 51.2278 25.4126C51.1247 25.6533 51.0216 25.8939 50.8841 26.1001C50.7466 26.3064 50.6091 26.547 50.4716 26.7533C50.3341 26.9595 50.1622 27.1658 49.9903 27.372C49.8185 27.5783 49.6466 27.7501 49.4403 27.9564C49.3372 28.0595 49.2341 28.1626 49.0966 28.2314C48.9935 28.3001 48.9247 28.3689 48.8216 28.472C48.6153 28.6439 48.4091 28.7814 48.1685 28.9189C47.9622 29.0564 47.7216 29.1939 47.481 29.297L46.7591 29.6064C46.5185 29.7095 46.2778 29.7783 46.0372 29.847C45.7966 29.9158 45.5216 29.9845 45.281 30.0189C45.006 30.0533 44.7653 30.0876 44.5247 30.122C44.3528 30.122 44.1466 30.1564 43.9747 30.1564C43.6997 30.1564 43.4591 30.122 43.2185 30.122C42.9435 30.0876 42.7028 30.0533 42.4622 30.0189C42.1872 29.9845 41.9466 29.9158 41.706 29.8126C41.9466 29.7783 42.2216 29.7783 42.4622 29.7095C42.7372 29.6751 42.9778 29.6064 43.2185 29.5376C43.4591 29.4689 43.7341 29.4001 43.9403 29.297L44.6622 28.9876C44.9028 28.8845 45.1091 28.747 45.3497 28.6095C45.556 28.472 45.7966 28.3001 46.0028 28.1626C46.2091 27.9908 46.4153 27.8189 46.5872 27.647C46.7935 27.4751 46.9653 27.2689 47.1372 27.097C47.3091 26.8908 47.481 26.6845 47.6185 26.4783C47.6528 26.4439 47.6528 26.4095 47.6872 26.3751C47.7903 26.2033 47.9278 25.997 48.031 25.8251C48.1685 25.5845 48.2716 25.3783 48.3747 25.1376C48.4778 24.897 48.581 24.6564 48.6497 24.4158L48.856 23.6939C48.8903 23.4189 48.9591 23.1783 48.9591 22.9376C48.9935 22.6626 48.9935 22.422 48.9935 22.1814C48.9935 22.0095 48.9935 21.8033 48.9591 21.6314C48.9247 21.3564 48.8903 21.1158 48.856 20.8751C48.8216 20.6001 48.7528 20.3595 48.6841 20.1189C48.6153 19.8783 48.5122 19.6376 48.4435 19.397C48.3403 19.1564 48.2372 18.9158 48.1341 18.7095C47.9966 18.4689 47.8935 18.2626 47.756 18.022C47.6185 17.8158 47.4466 17.6095 47.3091 17.4033C47.1372 17.197 46.9653 17.0251 46.7935 16.8189C46.6903 16.7158 46.5872 16.6126 46.4841 16.5439C45.9685 16.1314 45.4528 15.7876 44.9028 15.4439C44.8341 15.4095 44.7653 15.3751 44.6622 15.3408C44.2153 14.9626 43.8716 14.8595 43.5278 14.722Z" fill="#DF234F"/>
</g>
<defs>
<clipPath id="clip0_18_1118">
<rect width="44" height="44" fill="white" transform="translate(14 14)"/>
</clipPath>
</defs>
</svg>
