<svg width="72" height="72" viewBox="0 0 72 72" fill="none" xmlns="http://www.w3.org/2000/svg">
<rect width="72" height="72" rx="8" fill="white"/>
<g clip-path="url(#clip0_18_1060)">
<path d="M34.5591 14.0118C34.4645 14.0204 34.1634 14.0505 33.8925 14.072C27.643 14.6354 21.7892 18.007 18.0817 23.189C16.0172 26.0703 14.6968 29.3386 14.1978 32.8005C14.0215 34.0089 14 34.3658 14 36.0043C14 37.6428 14.0215 37.9997 14.1978 39.2081C15.3935 47.4693 21.2731 54.4102 29.2473 56.9819C30.6753 57.442 32.1806 57.756 33.8925 57.9452C34.5591 58.0183 37.4409 58.0183 38.1075 57.9452C41.0624 57.6183 43.5656 56.8873 46.0344 55.6272C46.4129 55.4337 46.486 55.3821 46.4344 55.3391C46.4 55.3133 44.7871 53.1502 42.8516 50.5355L39.3333 45.7835L34.9247 39.2597C32.4989 35.6732 30.5032 32.7403 30.486 32.7403C30.4688 32.736 30.4516 35.6345 30.443 39.1737C30.4301 45.3707 30.4258 45.6201 30.3484 45.7663C30.2366 45.977 30.1505 46.063 29.9699 46.1577C29.8323 46.2265 29.7118 46.2394 29.0624 46.2394H28.3183L28.1204 46.1147C27.9914 46.0329 27.8968 45.9254 27.8323 45.8007L27.7419 45.6072L27.7505 36.9848L27.7634 28.3581L27.8968 28.1904C27.9656 28.1001 28.1118 27.984 28.2151 27.9281C28.3914 27.8421 28.4602 27.8335 29.2043 27.8335C30.0817 27.8335 30.228 27.8679 30.4559 28.1173C30.5204 28.1861 32.9075 31.7813 35.7634 36.1118C38.6194 40.4424 42.5247 46.3555 44.443 49.2583L47.9269 54.5349L48.1032 54.4188C49.6645 53.4039 51.3161 51.959 52.6237 50.4538C55.4065 47.2586 57.2 43.3624 57.8022 39.2081C57.9785 37.9997 58 37.6428 58 36.0043C58 34.3658 57.9785 34.0089 57.8022 32.8005C56.6065 24.5393 50.7269 17.5984 42.7527 15.0267C41.3462 14.5709 39.8495 14.257 38.172 14.0677C37.7591 14.0247 34.9161 13.9774 34.5591 14.0118ZM43.5656 27.3174C43.772 27.4206 43.9398 27.6184 44 27.8249C44.0344 27.9367 44.043 30.3277 44.0344 35.7162L44.0215 43.4484L42.6581 41.3584L41.2903 39.2683V33.6477C41.2903 30.0138 41.3075 27.9711 41.3333 27.8722C41.4022 27.6313 41.5527 27.4421 41.7591 27.3303C41.9355 27.24 42 27.2314 42.6753 27.2314C43.3118 27.2314 43.4237 27.24 43.5656 27.3174Z" fill="black"/>
</g>
<defs>
<clipPath id="clip0_18_1060">
<rect width="44" height="44" fill="white" transform="translate(14 14)"/>
</clipPath>
</defs>
</svg>
