<svg width="72" height="72" viewBox="0 0 72 72" fill="none" xmlns="http://www.w3.org/2000/svg">
<rect width="72" height="72" rx="8" fill="white"/>
<g clip-path="url(#clip0_18_1125)">
<path d="M35.9998 58C35.394 58 34.8286 57.8383 34.3036 57.5553L28.9322 54.362C28.1245 53.9173 28.5283 53.7556 28.7707 53.6748C29.8611 53.311 30.063 53.2301 31.1938 52.5834C31.315 52.5025 31.4765 52.5429 31.5977 52.6238L35.7171 55.0896C35.8787 55.1704 36.0806 55.1704 36.2018 55.0896L52.316 45.752C52.4775 45.6711 52.5583 45.5094 52.5583 45.3073V26.6725C52.5583 26.4704 52.4775 26.3087 52.316 26.2278L36.2018 16.9306C36.0402 16.8498 35.8383 16.8498 35.7171 16.9306L19.6029 26.2278C19.4414 26.3087 19.3606 26.5108 19.3606 26.6725V45.3073C19.3606 45.469 19.4414 45.6711 19.6029 45.752L24.005 48.2986C26.3878 49.5113 27.8821 48.0965 27.8821 46.6817V28.2894C27.8821 28.0469 28.0841 27.8043 28.3668 27.8043H30.4265C30.6688 27.8043 30.9111 28.0064 30.9111 28.2894V46.6817C30.9111 49.8751 29.1745 51.7345 26.1455 51.7345C25.2166 51.7345 24.4897 51.7345 22.43 50.7239L18.1894 48.2986C17.1393 47.6922 16.4932 46.5604 16.4932 45.3477V26.7129C16.4932 25.5002 17.1393 24.3684 18.1894 23.7621L34.3036 14.4244C35.3133 13.8585 36.6864 13.8585 37.6961 14.4244L53.8103 23.7621C54.8603 24.3684 55.5065 25.5002 55.5065 26.7129V45.3477C55.5065 46.5604 54.8603 47.6922 53.8103 48.2986L37.6961 57.6362C37.171 57.8787 36.5652 58 35.9998 58ZM40.9674 45.186C33.8997 45.186 32.4458 41.9522 32.4458 39.2035C32.4458 38.961 32.6478 38.7184 32.9305 38.7184H35.0306C35.2729 38.7184 35.4748 38.8801 35.4748 39.1226C35.7979 41.265 36.7268 42.316 41.0078 42.316C44.4002 42.316 45.8541 41.548 45.8541 39.729C45.8541 38.678 45.4503 37.91 40.1596 37.3845C35.7575 36.9398 33.0112 35.9697 33.0112 32.4529C33.0112 29.1787 35.7575 27.2384 40.3616 27.2384C45.531 27.2384 48.0754 29.017 48.3985 32.8976C48.3985 33.0188 48.3581 33.1401 48.2773 33.2614C48.1965 33.3422 48.0754 33.4231 47.9542 33.4231H45.8541C45.6522 33.4231 45.4503 33.2614 45.4099 33.0593C44.9252 30.836 43.6733 30.1084 40.3616 30.1084C36.646 30.1084 36.2018 31.4019 36.2018 32.3721C36.2018 33.5443 36.7268 33.9081 41.7347 34.5549C46.7022 35.2017 49.0447 36.1314 49.0447 39.6077C49.0043 43.1649 46.0964 45.186 40.9674 45.186Z" fill="#539E43"/>
</g>
<defs>
<clipPath id="clip0_18_1125">
<rect width="44" height="44" fill="white" transform="translate(14 14)"/>
</clipPath>
</defs>
</svg>
