<svg width="72" height="72" viewBox="0 0 72 72" fill="none" xmlns="http://www.w3.org/2000/svg">
<rect width="72" height="72" rx="8" fill="white"/>
<path d="M27.3755 51.1653C27.3428 51.1077 27.3137 51.0483 27.2882 50.9873C27.1126 50.5822 27.0586 50.1351 27.1328 49.7001H16.731L32.1894 22.6094L37.2645 31.4938L38.7358 28.9011L34.3117 21.1401C34.0997 20.7427 33.7911 20.4044 33.414 20.1564C33.0368 19.9083 32.6033 19.7584 32.153 19.7202C31.7036 19.7406 31.2689 19.8861 30.8985 20.1403C30.528 20.3944 30.2367 20.747 30.0575 21.1579L14.3969 48.5774C14.1628 48.9645 14.0278 49.403 14.0039 49.8542C13.9799 50.3055 14.0676 50.7557 14.2594 51.1653C14.5002 51.5435 14.8426 51.847 15.2476 52.0416C15.6527 52.2361 16.1044 52.3139 16.5515 52.2661H29.6684C29.2211 52.3147 28.7692 52.2372 28.364 52.0426C27.9588 51.848 27.6158 51.544 27.3755 51.1653Z" fill="#00C492"/>
<path d="M57.5319 48.577L44.6625 26.0027C44.4514 25.601 44.1421 25.2587 43.7631 25.0074C43.3842 24.7561 42.9478 24.604 42.4942 24.5649C42.0453 24.5843 41.611 24.7289 41.2407 24.9823C40.8704 25.2357 40.5791 25.5876 40.4 25.9979L38.7356 28.9007L40.2165 31.4941L42.5079 27.4541L55.2397 49.6998H50.3984C50.4602 50.0675 50.4254 50.4448 50.2973 50.7952C50.2703 50.8726 50.2365 50.9475 50.1962 51.019L50.155 51.1012C49.892 51.4711 49.5415 51.7708 49.1345 51.9738C48.7275 52.1768 48.2766 52.2769 47.8216 52.2651H55.3951C55.8502 52.2772 56.3012 52.1774 56.7083 51.9743C57.1153 51.7713 57.4657 51.4714 57.7285 51.1012C57.9359 50.7042 58.0274 50.2572 57.9926 49.8111C57.9579 49.3649 57.7983 48.9374 57.5319 48.577Z" fill="#008776"/>
<path d="M50.156 51.1017L50.1972 51.0196C50.2372 50.948 50.2708 50.8731 50.2976 50.7957C50.4257 50.4454 50.4605 50.068 50.3987 49.7003C50.3272 49.3037 50.1842 48.9233 49.9765 48.5775L40.2264 31.4939L38.7366 28.9012L37.2557 31.4939L27.509 48.5775C27.3198 48.9275 27.1926 49.3073 27.133 49.7003C27.0545 50.1342 27.1039 50.5815 27.2753 50.9881C27.3007 51.0491 27.3298 51.1086 27.3626 51.1661C27.6035 51.5442 27.9459 51.8476 28.3509 52.042C28.756 52.2365 29.2076 52.3141 29.6547 52.2663H47.8082C48.2654 52.2798 48.7189 52.1806 49.1283 51.9775C49.5378 51.7745 49.8905 51.4739 50.1553 51.1024L50.156 51.1017ZM38.7359 34.0873L47.648 49.6996H29.828L38.7359 34.0873Z" fill="#2D4A5D"/>
</svg>
