<svg width="72" height="72" viewBox="0 0 72 72" fill="none" xmlns="http://www.w3.org/2000/svg">
<rect width="72" height="72" rx="8" fill="white"/>
<g clip-path="url(#clip0_76_103)">
<path fill-rule="evenodd" clip-rule="evenodd" d="M52.2898 15.4691C54.0581 16.4079 55.5034 17.8566 56.438 19.6271C57.395 21.4201 57.9047 23.1984 57.9047 28.1008V36.7113C57.9047 36.8225 57.8376 36.9226 57.7349 36.9652C57.6322 37.0077 57.514 36.9842 57.4353 36.9057V36.9044L54.1903 33.6533C53.9327 33.3951 53.788 33.0452 53.7882 32.6804V28.7009C53.7882 25.0232 53.4057 23.6898 52.6882 22.3453C51.987 21.0176 50.9028 19.9313 49.5764 19.2274C48.2498 18.5151 46.9327 18.1331 43.3507 18.1251L37.9861 18.125C37.8752 18.1244 37.7755 18.0572 37.7333 17.9546C37.6911 17.8521 37.7146 17.7342 37.793 17.6557L41.038 14.4033C41.2947 14.1454 41.6442 14 42.0084 14H43.8332C48.7258 14 50.5004 14.5109 52.2898 15.4691ZM45.5566 20.875C48.5877 20.875 51.0443 23.3378 51.0443 26.375V29.8571C51.0438 29.9668 50.9781 30.0657 50.8772 30.1087C50.7763 30.1518 50.6594 30.1308 50.5799 30.0551L46.1554 25.8164C45.8621 25.5231 45.5199 25.3104 45.1544 25.1772C44.8444 25.0598 44.5156 24.9997 44.184 25H31.1233C31.0122 24.9999 30.912 24.9329 30.8695 24.8302C30.827 24.7275 30.8505 24.6093 30.929 24.5307L34.1789 21.2771C34.4356 21.0204 34.7839 20.875 35.1481 20.875H45.5566Z" fill="#E55638"/>
<path fill-rule="evenodd" clip-rule="evenodd" d="M54.2563 37.8456L57.5026 41.0979C57.7592 41.3558 57.9047 41.7066 57.9047 42.0708V43.9005C57.9047 48.8028 57.395 50.5811 56.438 52.3741C55.5034 54.1447 54.0581 55.5934 52.2898 56.5321C50.5005 57.4891 48.7258 58 43.8332 58H35.2422C35.1313 57.9994 35.0316 57.9322 34.9894 57.8297C34.9472 57.7271 34.9707 57.6092 35.0491 57.5307V57.5319L38.2941 54.2796C38.5508 54.0217 38.9003 53.8762 39.2646 53.8762H43.2356C46.9047 53.8762 48.2345 53.4937 49.5765 52.7738C50.9028 52.07 51.987 50.9837 52.6882 49.6559C53.4057 48.3115 53.7882 46.978 53.7882 43.3003V38.0399C53.7888 37.9293 53.8556 37.8298 53.9578 37.7874C54.06 37.745 54.1776 37.7679 54.2563 37.8456ZM47.3972 30.9693L50.6435 34.2253C50.9001 34.4832 51.0443 34.8328 51.0443 35.1982V45.6287C51.0443 48.6659 48.5877 51.1287 45.5566 51.1287H42.0818C41.9721 51.1281 41.8732 51.0625 41.8302 50.9615C41.7871 50.8606 41.8081 50.7438 41.8838 50.6642V50.663L46.1127 46.2276C46.406 45.9342 46.6187 45.592 46.7519 45.2253C46.8687 44.9147 46.9283 44.5855 46.9279 44.2537V31.1637C46.928 31.0525 46.995 30.9524 47.0977 30.9098C47.2004 30.8673 47.3186 30.8908 47.3972 30.9693Z" fill="#F4C942"/>
<path fill-rule="evenodd" clip-rule="evenodd" d="M14.4681 35.0942L17.7156 38.3466C17.9722 38.6045 18.1177 38.9552 18.1177 39.3195V43.299C18.1177 46.9767 18.499 48.3101 19.2177 49.6546C19.9186 50.9822 21.0023 52.0684 22.3282 52.7725C23.6702 53.4923 25.0012 53.8749 28.6703 53.8749H33.9186C34.0299 53.8745 34.1305 53.9413 34.1734 54.0441C34.2162 54.1469 34.1928 54.2654 34.1141 54.3442L30.8667 57.5966C30.61 57.8545 30.2604 57.9999 29.8974 57.9999H28.0714C23.1789 57.9999 21.4054 57.489 19.6161 56.5308C17.8473 55.5922 16.4016 54.1435 15.4667 52.3728C14.5192 50.5977 14.0102 48.837 14.0002 44.0453L14 35.2886C14.0006 35.178 14.0674 35.0785 14.1696 35.036C14.2717 34.9936 14.3894 35.0166 14.4681 35.0942ZM21.3248 41.9448H21.3236L25.7504 46.1835C26.0426 46.4768 26.386 46.6895 26.7502 46.8227C27.0509 46.9376 27.3784 46.9999 27.7207 46.9999H40.7813C40.8923 47.0005 40.992 47.0677 41.0342 47.1703C41.0764 47.2728 41.0528 47.3907 40.9744 47.4692L37.7258 50.7228C37.4691 50.9795 37.1196 51.1249 36.7566 51.1249H26.3481C24.891 51.1233 23.4943 50.5429 22.4651 49.5115C21.436 48.48 20.8587 47.082 20.8603 45.6249V42.1428C20.8609 42.0331 20.9266 41.9342 21.0275 41.8912C21.1284 41.8481 21.2453 41.8691 21.3248 41.9448Z" fill="#7B8FEA"/>
<path fill-rule="evenodd" clip-rule="evenodd" d="M29.8229 20.875C29.9326 20.8755 30.0315 20.9412 30.0745 21.0422C30.1175 21.1431 30.0966 21.2599 30.0209 21.3394L25.7908 25.7761C25.4974 26.0694 25.286 26.4117 25.1528 26.7783C25.0355 27.0889 24.9755 27.4181 24.9756 27.75V40.84C24.9745 40.9504 24.9075 41.0494 24.8054 41.0916C24.7034 41.1337 24.586 41.1106 24.5074 41.0331L21.2612 37.7771C21.0043 37.519 20.8601 37.1696 20.8603 36.8054V26.375C20.8603 23.3378 23.317 20.875 26.3481 20.875H29.8229ZM36.6624 14C36.7734 14.0006 36.8731 14.0678 36.9153 14.1704C36.9575 14.2729 36.9339 14.3908 36.8556 14.4693L33.6106 17.7217C33.3527 17.9796 33.0043 18.125 32.6401 18.125H28.6691C25 18.125 23.669 18.5076 22.327 19.2274C21.0006 19.9313 19.9164 21.0176 19.2152 22.3453C18.5053 23.6756 18.1233 24.9951 18.1153 28.5855L18.1152 33.9613C18.1146 34.0719 18.0478 34.1714 17.9457 34.2139C17.8435 34.2563 17.7259 34.2333 17.6471 34.1557L14.4033 30.9033C14.1452 30.6453 14 30.2954 14 29.9304V28.1008C14 23.1984 14.5097 21.4201 15.4667 19.6271C16.4012 17.8566 17.8465 16.4079 19.6149 15.4691C21.3863 14.5205 23.1434 14.0103 27.9244 14.0002L36.6624 14Z" fill="#D97EE8"/>
</g>
<defs>
<clipPath id="clip0_76_103">
<rect width="44" height="44" fill="white" transform="translate(14 14)"/>
</clipPath>
</defs>
</svg>
