<svg width="72" height="72" viewBox="0 0 72 72" fill="none" xmlns="http://www.w3.org/2000/svg">
<rect width="72" height="72" rx="8" fill="white"/>
<path d="M50.1768 29.1382C49.7204 28.9817 49.2474 28.8335 48.7604 28.6934C48.8405 28.3679 48.9139 28.0465 48.9792 27.7307C50.0514 22.5439 49.3504 18.3655 46.9566 16.9898C44.6612 15.6706 40.9073 17.046 37.116 20.3342C36.7514 20.6503 36.3858 20.9851 36.0204 21.3359C35.7769 21.1038 35.5338 20.8795 35.2913 20.6649C31.3179 17.1491 27.3352 15.6674 24.9437 17.0471C22.6505 18.3701 21.9714 22.2982 22.9366 27.2137C23.0298 27.6885 23.1387 28.1734 23.2619 28.6663C22.6982 28.8258 22.1541 28.9958 21.6334 29.1766C16.975 30.7952 14 33.3318 14 35.963C14 38.6805 17.1937 41.4062 22.0458 43.0589C22.4287 43.1894 22.826 43.3127 23.2354 43.4298C23.1025 43.9629 22.9869 44.4854 22.8899 44.995C21.9696 49.8252 22.6883 53.6605 24.9754 54.9751C27.3377 56.3328 31.3024 54.9373 35.163 51.5742C35.4681 51.3084 35.7744 51.0265 36.0811 50.731C36.4788 51.1126 36.8758 51.4737 37.2707 51.8124C41.0101 55.0193 44.7034 56.3143 46.9884 54.996C49.3484 53.6345 50.1153 49.5144 49.1196 44.5016C49.0435 44.1188 48.955 43.7277 48.8557 43.3296C49.1341 43.2476 49.4074 43.1629 49.6739 43.0749C54.7181 41.4093 58 38.7168 58 35.963C58 33.3223 54.929 30.7686 50.1768 29.1382Z" fill="#53C1DE"/>
<path d="M49.0828 41.2971C48.8422 41.3765 48.5954 41.4532 48.3438 41.5276C47.787 39.7707 47.0354 37.9026 46.1157 35.9725C46.9934 34.0883 47.7159 32.2441 48.2571 30.4986C48.7072 30.6284 49.1441 30.7653 49.5651 30.9098C53.6367 32.3066 56.1204 34.372 56.1204 35.9633C56.1204 37.6584 53.4381 39.8589 49.0828 41.2971ZM47.2757 44.8658C47.716 47.0823 47.7789 49.0864 47.4872 50.653C47.2252 52.0607 46.6982 52.9993 46.0466 53.3752C44.6599 54.175 41.6946 53.1353 38.4966 50.3928C38.1299 50.0784 37.7607 49.7427 37.3902 49.3874C38.63 48.0361 39.8691 46.4652 41.0784 44.7205C43.2055 44.5324 45.2151 44.2249 47.0375 43.805C47.1273 44.1659 47.207 44.5198 47.2757 44.8658ZM29.0006 53.237C27.6459 53.7138 26.5669 53.7274 25.9146 53.3526C24.5267 52.5549 23.9497 49.4754 24.7368 45.3447C24.8269 44.8716 24.9342 44.3857 25.0579 43.8889C26.8603 44.2861 28.8552 44.572 30.9874 44.7442C32.2048 46.4514 33.4797 48.0207 34.7645 49.3947C34.4838 49.6647 34.2042 49.9218 33.9262 50.1641C32.219 51.6512 30.5083 52.7063 29.0006 53.237ZM22.6537 41.2867C20.5082 40.5559 18.7364 39.6061 17.5219 38.5697C16.4306 37.6383 15.8796 36.7136 15.8796 35.9633C15.8796 34.3666 18.2683 32.3301 22.2522 30.9458C22.7356 30.7779 23.2416 30.6196 23.7667 30.4709C24.3173 32.2558 25.0396 34.1219 25.9112 36.0089C25.0283 37.924 24.2958 39.8198 23.7398 41.6256C23.3654 41.5184 23.0027 41.4055 22.6537 41.2867ZM24.7813 26.8543C23.9544 22.6428 24.5035 19.4659 25.8855 18.6686C27.3575 17.8194 30.6125 19.0303 34.0432 22.066C34.2625 22.2601 34.4827 22.4632 34.7035 22.6733C33.4251 24.0413 32.1619 25.5987 30.9552 27.2959C28.8858 27.487 26.905 27.7941 25.0837 28.2052C24.9692 27.7462 24.8678 27.2952 24.7813 26.8543ZM43.7609 31.5248C43.3255 30.7754 42.8785 30.0436 42.4229 29.3319C43.8267 29.5088 45.1718 29.7435 46.4349 30.0308C46.0557 31.242 45.5831 32.5084 45.0267 33.8066C44.6276 33.0515 44.2054 32.2901 43.7609 31.5248ZM36.021 24.012C36.888 24.9481 37.7563 25.9932 38.6103 27.1271C37.7497 27.0866 36.8785 27.0655 36.0001 27.0655C35.1299 27.0655 34.2651 27.0861 33.4099 27.1259C34.2647 26.0025 35.1405 24.9588 36.021 24.012ZM28.2316 31.5378C27.7967 32.2893 27.3824 33.0466 26.9896 33.8052C26.4422 32.5115 25.9739 31.2394 25.5914 30.011C26.8468 29.731 28.1855 29.5021 29.5804 29.3286C29.1184 30.0469 28.6677 30.7842 28.2316 31.5378ZM29.6206 42.7317C28.1794 42.5714 26.8205 42.3543 25.5655 42.0821C25.9541 40.8318 26.4327 39.5325 26.9917 38.2109C27.3855 38.969 27.8015 39.7266 28.2391 40.4798C28.6848 41.2471 29.1466 41.9987 29.6206 42.7317ZM36.073 48.0467C35.1822 47.0888 34.2935 46.0292 33.4257 44.8894C34.2682 44.9223 35.1271 44.9392 36.0001 44.9392C36.8969 44.9392 37.7835 44.9191 38.6561 44.8804C37.7993 46.0407 36.9342 47.1019 36.073 48.0467ZM45.0446 38.1435C45.6327 39.4794 46.1285 40.7719 46.5221 42.0009C45.2464 42.2909 43.869 42.5245 42.4177 42.6981C42.8745 41.9768 43.3253 41.2325 43.7684 40.4669C44.2166 39.6923 44.6422 38.9166 45.0446 38.1435ZM42.1402 39.531C41.4524 40.7195 40.7463 41.8541 40.0294 42.925C38.7238 43.0181 37.3749 43.066 36.0001 43.066C34.6308 43.066 33.2989 43.0236 32.0163 42.9406C31.2706 41.8556 30.5491 40.7177 29.8657 39.5413C29.1841 38.368 28.5569 37.1848 27.9884 36.0083C28.5567 34.829 29.1824 33.6445 29.8601 32.4734L29.86 32.4736C30.5395 31.2993 31.2546 30.167 31.9935 29.0888C33.302 28.9902 34.6439 28.9387 36 28.9387C37.3622 28.9387 38.7058 28.9906 40.014 29.09C40.7416 30.1603 41.4519 31.289 42.134 32.4635C42.8239 33.6511 43.4577 34.8277 44.0308 35.9817C43.4594 37.1555 42.8271 38.344 42.1402 39.531ZM46.0177 18.6129C47.4912 19.4597 48.0641 22.8747 47.1384 27.3529C47.0794 27.6387 47.0129 27.9297 46.9406 28.2247C45.1152 27.8049 43.1329 27.4925 41.0575 27.2985C39.8485 25.5827 38.5956 24.0229 37.3381 22.6724C37.6762 22.3483 38.0138 22.0392 38.35 21.7475C41.5984 18.9303 44.6345 17.818 46.0177 18.6129Z" fill="white"/>
<path d="M35.9998 32.0475C38.1698 32.0475 39.9289 33.8005 39.9289 35.9631C39.9289 38.1256 38.1698 39.8787 35.9998 39.8787C33.8299 39.8787 32.0708 38.1256 32.0708 35.9631C32.0708 33.8005 33.8299 32.0475 35.9998 32.0475Z" fill="#53C1DE"/>
</svg>
