<svg width="72" height="72" viewBox="0 0 72 72" fill="none" xmlns="http://www.w3.org/2000/svg">
<rect width="72" height="72" rx="8" fill="white"/>
<g clip-path="url(#clip0_76_115)">
<path d="M49.2 14H22.8C17.9399 14 14 17.9399 14 22.8V49.2C14 54.0601 17.9399 58 22.8 58H49.2C54.0601 58 58 54.0601 58 49.2V22.8C58 17.9399 54.0601 14 49.2 14Z" fill="#F03E2F"/>
<path d="M27.5517 25.3998C27.5517 29.1805 29.9281 31.43 34.6858 32.6163L39.7273 33.7647C44.23 34.7808 46.972 37.3044 46.972 41.416C47.0071 43.2072 46.4143 44.9558 45.2932 46.3687C45.2932 42.2666 43.1332 40.0502 37.9233 38.7174L32.9732 37.6116C29.0093 36.7231 25.9498 34.6484 25.9498 30.1824C25.9289 28.4578 26.4925 26.7753 27.5517 25.3998Z" fill="white"/>
<path d="M42.195 40.409C44.3453 41.7606 45.2882 43.651 45.2882 46.3637C43.5083 48.6036 40.3814 49.8607 36.7061 49.8607C30.5197 49.8607 26.1901 46.8693 25.228 41.6708H31.1691C31.934 44.0574 33.9592 45.1633 36.6628 45.1633C39.9629 45.1633 42.1565 43.4336 42.1998 40.3995" fill="#F9B1AB"/>
<path d="M30.6402 31.0045C29.6583 30.4312 28.8527 29.6074 28.3089 28.6206C27.7652 27.6337 27.5035 26.5207 27.5518 25.3995C29.2692 23.1784 32.2565 21.822 35.8982 21.822C42.2001 21.822 45.8465 25.0924 46.746 29.6954H41.0311C40.4009 27.8806 38.823 26.4676 35.9463 26.4676C32.8723 26.4676 30.7749 28.2256 30.6546 31.0045" fill="#F9B1AB"/>
</g>
<defs>
<clipPath id="clip0_76_115">
<rect width="44" height="44" fill="white" transform="translate(14 14)"/>
</clipPath>
</defs>
</svg>
