<svg width="72" height="72" viewBox="0 0 72 72" fill="none" xmlns="http://www.w3.org/2000/svg">
<rect width="72" height="72" rx="8" fill="white"/>
<g clip-path="url(#clip0_18_1002)">
<path d="M50.5454 22.5184C50.5454 22.2427 50.2701 22.2427 49.9948 22.2427C49.7196 22.2427 46.428 21.9669 46.428 21.9669C46.428 21.9669 44.2317 19.7728 43.9564 19.4971C43.9564 19.4971 43.9564 19.4971 43.6812 19.4971L42.0354 57.9941L55.2133 55.2427C55.2133 54.9728 50.5454 22.7941 50.5454 22.5184Z" fill="black"/>
<path d="M43.1367 19.2213C43.1367 19.2213 42.5862 19.2213 41.7662 19.4971C40.9404 17.2971 39.5699 15.3728 37.0984 15.3728H36.8231C36.2725 14.2699 35.4526 14 34.6268 14C28.8637 14 26.1168 21.1515 25.291 24.7243C23.0947 25.2757 21.7242 25.8272 21.4489 25.8272C20.0784 26.3787 20.0784 26.3787 20.0784 27.4757C20.0784 28.3029 16.7869 53.3243 16.7869 53.3243L41.4968 58L43.1367 19.2213ZM36.8231 20.8699C35.4526 21.6971 33.801 21.9728 32.4305 22.5184C33.2563 19.2155 34.902 17.5669 36.2725 17.0155C36.5478 18.1184 36.8231 19.2213 36.8231 20.8699ZM34.3515 15.6485C34.6268 15.6485 34.902 15.6485 35.1773 15.9243C33.5315 16.7515 31.3352 18.6757 30.5094 23.0757C29.4083 23.3515 28.3131 23.9029 27.212 24.1787C28.0378 20.8699 30.5036 15.6485 34.3515 15.6485ZM35.4467 34.6213C35.4467 34.6213 33.801 33.7941 32.1552 33.7941C29.4083 33.7941 29.4083 35.4427 29.4083 35.9941C29.4083 38.1941 35.4467 39.0213 35.4467 44.5184C35.4467 48.6427 32.6999 51.3941 29.1331 51.3941C24.7404 51.3941 22.5441 48.6427 22.5441 48.6427L23.6452 44.7941C23.6452 44.7941 25.8415 46.7184 27.7626 46.7184C29.1331 46.7184 29.4083 45.6155 29.4083 45.0699C29.4083 42.0427 24.4652 42.0427 24.4652 37.0971C24.4652 32.9728 27.212 29.1243 33.2504 29.1243C35.4467 29.1243 36.542 29.6757 36.542 29.6757L35.4467 34.6213ZM38.1936 20.5941V20.3184C38.1936 18.9456 37.9183 17.8427 37.643 17.0155C39.0135 17.0155 39.8393 18.664 40.3899 20.3184C39.5641 20.3184 39.0194 20.5941 38.1936 20.5941Z" fill="black"/>
</g>
<defs>
<clipPath id="clip0_18_1002">
<rect width="44" height="44" fill="white" transform="translate(14 14)"/>
</clipPath>
</defs>
</svg>
