<svg width="72" height="72" viewBox="0 0 72 72" fill="none" xmlns="http://www.w3.org/2000/svg">
<rect width="72" height="72" rx="8" fill="white"/>
<g clip-path="url(#clip0_76_83)">
<path fill-rule="evenodd" clip-rule="evenodd" d="M43.2234 43.9079V29.6862C43.2233 29.443 43.1267 29.2098 42.9547 29.0378C42.7827 28.8659 42.5495 28.7693 42.3063 28.7693H28.1013V14.0894H56.97C57.0904 14.0893 57.2097 14.113 57.321 14.1591C57.4323 14.2052 57.5334 14.2727 57.6186 14.3579C57.7037 14.4431 57.7713 14.5442 57.8174 14.6555C57.8635 14.7667 57.8872 14.886 57.8872 15.0065V43.9079H43.2234Z" fill="#8E75FF"/>
<path opacity="0.405" fill-rule="evenodd" clip-rule="evenodd" d="M28.1014 14.0892V28.7692H14.5438C14.4531 28.7691 14.3645 28.7422 14.2891 28.6919C14.2137 28.6415 14.1549 28.5699 14.1202 28.4861C14.0855 28.4024 14.0764 28.3102 14.094 28.2213C14.1117 28.1323 14.1553 28.0506 14.2194 27.9865L28.1014 14.0892ZM43.2235 57.4796V43.9077H57.8874L44.0064 57.8037C43.9423 57.8678 43.8606 57.9115 43.7717 57.9291C43.6827 57.9468 43.5905 57.9378 43.5068 57.9031C43.423 57.8684 43.3514 57.8097 43.3009 57.7343C43.2505 57.6589 43.2236 57.5703 43.2235 57.4796ZM28.1014 28.7692H42.7649C42.8865 28.7692 43.0031 28.8175 43.0891 28.9034C43.1751 28.9894 43.2235 29.106 43.2235 29.2276V43.9077H29.0185C28.8981 43.9077 28.7788 43.884 28.6675 43.8379C28.5563 43.7918 28.4552 43.7243 28.37 43.6391C28.2849 43.554 28.2173 43.4529 28.1712 43.3416C28.1251 43.2303 28.1014 43.1111 28.1014 42.9906V28.7692Z" fill="#8E75FF"/>
</g>
<defs>
<clipPath id="clip0_76_83">
<rect width="44" height="44" fill="white" transform="translate(14 14)"/>
</clipPath>
</defs>
</svg>
