<svg width="72" height="72" viewBox="0 0 72 72" fill="none" xmlns="http://www.w3.org/2000/svg">
<rect width="72" height="72" rx="8" fill="white"/>
<g clip-path="url(#clip0_76_137)">
<g clip-path="url(#clip1_76_137)">
<path d="M52.9524 14L52.9125 14.0426C53.9529 14.0426 54.5895 14.8498 54.625 15.8374L54.6266 15.925V49.5153C54.6266 50.5525 54.0219 51.1869 53.0475 51.2244L52.955 51.2262H30.4058L24.2324 57.9019V51.1836H19.2601C18.2606 51.1836 17.4239 50.5795 17.3755 49.6037L17.3733 49.514V15.8825C17.3733 14.884 18.1834 14.0477 19.2138 14.002L19.3027 14H52.9524ZM41.4665 20.846H24.2324V44.8085H39.4096C40.5669 44.8085 41.6818 44.5943 42.7102 44.3376C43.6714 44.1389 44.5191 43.7142 45.2901 43.2421L45.4541 43.1402C46.1726 42.7107 46.7756 42.1134 47.2121 41.4005L47.2971 41.2564H47.2533C47.6812 40.4875 47.8964 39.5882 47.8964 38.5186C47.8964 36.8503 47.5097 35.5226 46.7377 34.4955C45.9245 33.5124 44.8522 32.8273 43.4809 32.4428C44.5696 31.9783 45.4738 31.1656 46.0521 30.132C46.6102 29.1049 46.9105 28.0353 46.9105 26.9231C46.9293 25.4106 46.4129 23.9403 45.4528 22.7724C44.9811 22.215 44.3805 21.7454 43.7387 21.4021C43.0975 21.0433 42.4205 20.8699 41.6362 20.8483L41.4665 20.846ZM39.003 34.2388C39.4986 34.2388 39.8707 34.4809 40.2015 34.8867C40.5078 35.3095 40.6674 35.8212 40.656 36.3434C40.656 36.9501 40.4487 37.4356 40.1191 37.7603C39.7737 38.0604 39.3571 38.2562 38.9026 38.2827L38.797 38.2857H30.4125V34.2388H39.003ZM38.3014 26.1435C38.6957 26.1473 39.076 26.2906 39.375 26.548C39.6647 26.8313 39.8295 27.277 39.8295 27.8836C39.8295 28.5332 39.6825 29.0392 39.3527 29.2974L39.2926 29.3404C38.9872 29.5651 38.6116 29.7547 38.2317 29.7825L38.1366 29.7861H30.4112V26.1435H38.3014Z" fill="#0AB3AF"/>
</g>
</g>
<defs>
<clipPath id="clip0_76_137">
<rect width="44" height="44" fill="white" transform="translate(14 14)"/>
</clipPath>
<clipPath id="clip1_76_137">
<rect width="37.2533" height="44" fill="white" transform="translate(17.3733 14)"/>
</clipPath>
</defs>
</svg>
