<svg width="72" height="72" viewBox="0 0 72 72" fill="none" xmlns="http://www.w3.org/2000/svg">
<rect width="72" height="72" rx="8" fill="white"/>
<g clip-path="url(#clip0_18_986)">
<rect x="21.3333" y="21.3333" width="29.3333" height="29.3333" fill="white"/>
<path d="M14 36V49.2C14 54.0601 17.9399 58 22.8 58H36H49.2C54.0601 58 58 54.0601 58 49.2V36V22.8C58 17.9399 54.0601 14 49.2 14H36H22.8C17.9399 14 14 17.9399 14 22.8V36ZM39.1625 22.6797C43.6484 23.4703 46.8453 26.0312 46.8969 28.8844C46.9141 30.4141 45.9172 31.3594 44.3188 31.3594C42.9266 31.3594 42.4625 30.9297 41.225 28.5578C39.6953 25.5844 38.7156 24.7078 36.6875 24.5359C33.9375 24.2781 31.7031 26.1516 31.7031 28.6953C31.7031 31.2219 33.1812 32.3562 38.2344 33.7484C42.5141 34.9344 44.0609 35.5875 45.4875 36.8422C47.5672 38.6812 48.2375 42.2391 47 44.8859C46.0547 46.9141 43.7 48.5984 40.6406 49.4234C38.9734 49.8703 35.0547 50.0422 33.0609 49.7672C30.0531 49.3203 27.2859 48.1 25.8766 46.5703C23.4703 43.9578 24.3469 40.8297 27.4406 41.0359C28.8672 41.1219 29.4 41.6031 30.5688 43.8891C31.1016 44.9203 31.7375 46.0031 31.9781 46.2953C33.0438 47.5672 35.0719 48.1859 37.1172 47.8594C38.5266 47.6359 39.3859 47.2234 40.0734 46.4156C40.7953 45.625 41.0359 44.7656 40.95 43.4594C40.8984 42.6 40.7781 42.2219 40.3828 41.6375C39.6781 40.6578 37.9594 39.7641 35.4844 39.0938C32.2016 38.2172 30.1219 37.5297 29.0563 36.9969C25 34.9516 23.7453 29.6234 26.4953 26.1172C27.6641 24.6219 30.1562 23.2469 32.6484 22.7141C34.2297 22.3703 37.3062 22.3531 39.1625 22.6797Z" fill="#40156B"/>
</g>
<defs>
<clipPath id="clip0_18_986">
<rect width="44" height="44" fill="white" transform="translate(14 14)"/>
</clipPath>
</defs>
</svg>
