<svg width="72" height="72" viewBox="0 0 72 72" fill="none" xmlns="http://www.w3.org/2000/svg">
<rect width="72" height="72" rx="8" fill="white"/>
<path fill-rule="evenodd" clip-rule="evenodd" d="M58 22.1481C58 17.651 54.349 14 49.8519 14H22.1481C17.651 14 14 17.651 14 22.1481V49.8519C14 54.349 17.651 58 22.1481 58H49.8519C54.349 58 58 54.349 58 49.8519V22.1481Z" fill="#3178C6"/>
<path fill-rule="evenodd" clip-rule="evenodd" d="M41.2419 48.9766V53.2734C41.9379 53.6344 42.7887 53.9008 43.7341 54.0812C44.6794 54.2618 45.7106 54.3477 46.7419 54.3477C47.7731 54.3477 48.7185 54.2531 49.6638 54.0555C50.609 53.8578 51.3826 53.5312 52.07 53.1101C52.7661 52.6546 53.359 52.0789 53.7028 51.3055C54.0465 50.532 54.313 49.6726 54.313 48.5555C54.313 47.7734 54.1927 47.0945 53.9606 46.493C53.7286 45.8914 53.3934 45.3757 52.9294 44.946C52.491 44.4907 51.9841 44.0867 51.3826 43.743C50.7809 43.3992 50.0934 43.0382 49.32 42.7118C48.7528 42.4797 48.2887 42.2563 47.7731 42.0329C47.3263 41.8093 46.9395 41.5859 46.656 41.3624C46.3379 41.1304 46.0974 40.8899 45.9254 40.6407C45.7537 40.3829 45.6676 40.0992 45.6676 39.7812C45.6676 39.489 45.7442 39.2226 45.8997 38.982C46.0551 38.7413 46.2693 38.5437 46.5442 38.3719C46.8193 38.2 47.163 38.0711 47.5754 37.9766C47.9794 37.882 48.4263 37.839 48.9505 37.839C49.3115 37.839 49.6895 37.8658 50.0676 37.9199C50.463 37.974 50.8668 38.0574 51.2708 38.169C51.6748 38.2808 52.07 38.4182 52.4739 38.5901C52.852 38.762 53.2043 38.9597 53.5052 39.1831V35.1441C52.852 34.8948 52.1301 34.7057 51.3567 34.5855C50.5832 34.4652 49.7239 34.4049 48.6927 34.4049C47.6615 34.4049 46.7161 34.5167 45.7708 34.7315C44.8254 34.9464 44.052 35.2901 43.3645 35.7629C42.6685 36.2268 42.1615 36.7941 41.7317 37.5675C41.3278 38.2893 41.1301 39.1144 41.1301 40.1456C41.1301 41.4346 41.4997 42.5519 42.2474 43.4112C42.9864 44.3566 44.1379 45.0441 45.5989 45.7315C46.1919 45.9722 46.7161 46.2129 47.2317 46.4448C47.7474 46.6768 48.1771 46.9175 48.5208 47.1667C48.8904 47.4159 49.1826 47.6909 49.3801 47.9831C49.595 48.2753 49.7067 48.619 49.7067 49.0144C49.7067 49.2893 49.6397 49.5471 49.509 49.7878C49.3785 50.0285 49.1739 50.2346 48.8989 50.4066C48.6239 50.5785 48.2887 50.7159 47.8676 50.819C47.4638 50.9135 47.0083 50.9652 46.4067 50.9652C45.4615 50.9652 44.5161 50.8019 43.6567 50.4753C42.7115 50.1488 41.852 49.6589 41.0786 49.0144L41.2419 48.9766ZM34.0231 38.4063H39.5231V34.8829H24.1404V38.4063H29.6404V54.1329H34.0231V38.4063Z" fill="white"/>
</svg>
