<svg width="184" height="72" viewBox="0 0 184 72" fill="none" xmlns="http://www.w3.org/2000/svg">
<g clip-path="url(#clip0_3_2250)">
<g clip-path="url(#clip1_3_2250)">
<g clip-path="url(#clip2_3_2250)">
<path fill-rule="evenodd" clip-rule="evenodd" d="M123.426 41.8333C123.802 41.8333 124.13 41.9645 124.411 42.2267C124.693 42.489 124.833 42.7942 124.833 43.1439V48.6894C124.833 49.0391 124.693 49.3444 124.411 49.6066C124.13 49.8689 123.802 50 123.426 50H120.411C120.037 50 119.709 49.8689 119.427 49.6066C119.146 49.3444 119.005 49.0391 119.005 48.6894V48.0413H119V43.792H119.005V43.1439C119.005 42.7942 119.146 42.489 119.427 42.2267C119.709 41.9645 120.037 41.8333 120.411 41.8333H123.426ZM171.02 22C171.613 22 172.024 22.2809 172.257 22.8413L178.688 37.9001C178.765 38.0786 183.167 48.4839 183.167 48.6617C183.167 49.0437 183.031 49.3629 182.761 49.6173C182.49 49.8724 182.2 50 181.892 50H178.647C178.414 50 178.177 49.9233 177.932 49.77C177.687 49.6173 177.513 49.427 177.411 49.197L169.788 31.2274C169.557 30.683 168.777 30.683 168.546 31.2274L160.923 49.197C160.82 49.427 160.646 49.6173 160.402 49.77C160.156 49.9233 159.919 50 159.687 50H156.442C156.133 50 155.843 49.8724 155.572 49.6173C155.302 49.3629 155.167 49.0437 155.167 48.6617C155.167 48.4839 159.568 38.0786 159.646 37.9001L166.077 22.8413C166.309 22.2809 166.721 22 167.313 22H171.02ZM40.6225 22C41.0007 22 41.3249 22.1271 41.5953 22.3806C41.8648 22.6348 42 22.9397 42 23.2954V48.6664C42 49.0221 41.8648 49.3332 41.5953 49.5999C41.3249 49.8666 41.0007 50 40.6225 50H37.5441C37.166 50 36.8417 49.8666 36.5722 49.5999C36.3018 49.3332 36.1667 49.0221 36.1667 48.6664V23.2954C36.1667 22.9397 36.3085 22.6348 36.5921 22.3806C36.8757 22.1271 37.1926 22 37.5441 22H40.6225ZM98.0977 22C99.6201 22 101.219 22.3304 102.892 22.9911C105.365 23.9837 107.306 25.6682 108.717 28.0463C110.127 30.4243 110.833 33.0756 110.833 36.0003C110.833 36.5032 110.806 36.9957 110.763 37.4825L102.522 49.1772C101.139 49.7225 99.6659 50 98.0977 50H87.646C87.2963 50 86.9904 49.8665 86.7281 49.5994C86.4658 49.3323 86.3354 49.0214 86.3354 48.6653V47.727L86.3333 47.7277V36.1993C86.3333 35.8432 86.4645 35.5378 86.7267 35.2833C86.989 35.0294 87.282 34.9021 87.6071 34.9021H90.4538C90.8035 34.9021 91.1033 35.0294 91.3533 35.2833C91.6026 35.5378 91.7275 35.8432 91.7275 36.1993V44.6215H97.9844C99.4084 44.6215 100.688 44.2466 101.825 43.4954C102.961 42.7463 103.841 41.7155 104.465 40.4058C105.089 39.0962 105.402 37.6279 105.402 36.0003C105.402 34.3728 105.089 32.9038 104.465 31.5942C103.841 30.2845 102.961 29.2544 101.825 28.5039C100.688 27.7541 99.4084 27.3785 97.9844 27.3785H87.646C87.2963 27.3785 86.9904 27.2513 86.7281 26.9967C86.4658 26.7428 86.3354 26.4375 86.3354 26.0814V23.3354C86.3354 22.9793 86.4658 22.6677 86.7281 22.3999C86.9904 22.1335 87.2963 22 87.646 22H98.0977ZM66.8407 22C68.7256 22 70.3947 22.3812 71.846 23.1441C73.2974 23.9071 74.4264 24.9887 75.2325 26.3867C76.0386 27.7861 76.4423 29.4137 76.4423 31.27C76.4423 33.2029 75.989 34.8625 75.0839 36.248C74.1781 37.6342 72.8814 38.6197 71.1947 39.2047L76.7775 47.9781C76.926 48.2069 77 48.4497 77 48.7035C77 49.0339 76.8704 49.333 76.6092 49.5994C76.3493 49.8665 76.0447 50 75.6979 50H72.3481C71.8772 50 71.517 49.7969 71.2693 49.39L65.6505 40.2723H59.7115C59.3533 40.2723 59.0629 40.57 59.0629 40.9372V48.7035C59.0629 49.0589 58.9333 49.3643 58.6721 49.6182C58.4115 49.8727 58.1075 50 57.7601 50H54.9687C54.622 50 54.318 49.8727 54.0575 49.6182C53.7969 49.3643 53.6667 49.0589 53.6667 48.7035V36.2292C53.6667 35.8731 53.7969 35.5615 54.0575 35.2937C54.318 35.0273 54.622 34.8938 54.9687 34.8938H66.3576C69.4828 34.8938 71.0461 33.6863 71.0461 31.27C71.0461 30.0236 70.6301 29.0569 69.799 28.3704C68.9678 27.6839 67.87 27.3403 66.5061 27.3403H54.9687C54.622 27.3403 54.318 27.2137 54.0575 26.9591C53.7969 26.7053 53.6667 26.3999 53.6667 26.0438V23.2965C53.6667 22.9411 53.7969 22.6357 54.0575 22.3812C54.318 22.1273 54.622 22 54.9687 22H66.8407ZM15.8532 22C16.4463 22 16.8576 22.2802 17.0901 22.8413L23.5209 37.9001C23.5984 38.0786 28 48.4839 28 48.6617C28 49.0437 27.8648 49.3629 27.5943 49.6173C27.3238 49.8724 27.0343 50 26.7251 50H23.4801C23.2483 50 23.0103 49.9233 22.7651 49.77C22.5207 49.6173 22.3468 49.4263 22.2439 49.197L14.6213 31.2274C14.3902 30.683 13.6105 30.683 13.3795 31.2274L5.75609 49.197C5.65325 49.4263 5.47927 49.6173 5.23486 49.77C4.98974 49.9233 4.75237 50 4.51992 50H1.2749C0.966392 50 0.676193 49.8724 0.405716 49.6173C0.135239 49.3629 0 49.0437 0 48.6617C0 48.4839 4.40159 38.0786 4.47907 37.9001L10.9106 22.8413C11.1424 22.2802 11.5544 22 12.1468 22H15.8532ZM125.989 22C126.473 22 126.828 22.1781 127.058 22.5335L139.099 38.9404C139.479 39.4585 140.3 39.1894 140.3 38.5467V28.6653C140.3 28.3092 140.427 27.9976 140.682 27.7305C140.936 27.4634 141.254 27.3299 141.636 27.3299H144.498C144.854 27.3299 145.165 27.4634 145.433 27.7305C145.7 27.9976 145.833 28.3092 145.833 28.6653V48.6653C145.833 49.0214 145.7 49.3323 145.433 49.5994C145.165 49.8665 144.854 50 144.498 50H141.178C140.72 50 140.351 49.8219 140.071 49.4658L121.601 24.136C121.422 23.9329 121.333 23.6651 121.333 23.3347C121.333 22.9536 121.467 22.6357 121.734 22.3812C122.001 22.1273 122.313 22 122.669 22H125.989Z" fill="#3F51B5"/>
</g>
</g>
</g>
<defs>
<clipPath id="clip0_3_2250">
<rect width="183.167" height="28" fill="white" transform="translate(0 22)"/>
</clipPath>
<clipPath id="clip1_3_2250">
<rect width="183.167" height="28" fill="white" transform="translate(0 22)"/>
</clipPath>
<clipPath id="clip2_3_2250">
<rect width="183.167" height="28" fill="white" transform="translate(0 22)"/>
</clipPath>
</defs>
</svg>
