<svg width="132" height="72" viewBox="0 0 132 72" fill="none" xmlns="http://www.w3.org/2000/svg">
<path fill-rule="evenodd" clip-rule="evenodd" d="M55.4757 14.0372H53.1582L53.0021 14.4084C51.4338 18.1763 47.9575 18.4231 47.8051 18.4377L43.4786 18.4286V20.648H31.5163V35.6557H32.7687V21.8126H44.7328V19.595H47.8529C48.0567 19.5913 52.0251 19.297 53.9717 15.2H56.2011L56.3774 14.9002C56.4876 14.7118 59.1852 10.2821 65.4951 10.0573L65.4565 8.89453C59.3138 9.11574 56.2489 12.9184 55.4757 14.0391V14.0372Z" fill="#003C64"/>
<path fill-rule="evenodd" clip-rule="evenodd" d="M99.7435 24.1531C99.6756 24.027 99.3764 23.9118 99.1671 23.793V24.899C99.2222 24.8606 99.2663 24.8277 99.2956 24.8131C99.6187 24.6577 99.8335 24.3177 99.7435 24.1531Z" fill="#003C64"/>
<path fill-rule="evenodd" clip-rule="evenodd" d="M96.3593 20.2149C96.0508 20.2533 95.6908 20.4928 95.4301 20.6171H98.8109C98.7172 20.4983 98.6383 20.3941 98.5868 20.3337C98.4289 20.1308 98.3242 19.7652 97.8468 19.8273C97.373 19.8913 96.8184 20.1619 96.3593 20.2167V20.2149Z" fill="#003C64"/>
<path fill-rule="evenodd" clip-rule="evenodd" d="M109.056 31.5878C109.225 31.3264 109.803 30.9699 110.093 30.8127C110.384 30.65 110.51 30.4068 110.508 30.182C110.501 29.9571 110.578 29.99 110.865 29.8218C111.155 29.6463 110.955 29.5933 110.723 29.6244C110.49 29.6463 110.639 29.3611 110.538 29.2093C110.437 29.0558 110.567 28.9625 110.652 28.7285C110.738 28.5018 110.876 28.1545 110.876 28.1545C110.876 28.1545 110.538 28.2715 110.25 28.4909C109.96 28.7066 109.89 28.5914 109.511 28.7157C109.133 28.8419 108.465 29.2825 108.465 29.2825C108.465 29.2825 108.922 28.9132 109.047 28.8145C109.173 28.7157 109.451 28.3684 109.706 28.1399C109.97 27.9132 110.503 27.6097 110.591 27.5274C110.672 27.447 110.624 27.3099 110.33 27.33C110.031 27.3501 109.794 27.5329 109.379 27.851C108.968 28.1655 107.348 29.2551 107.172 29.4196C107.001 29.5823 106.951 29.9388 106.876 29.8657C106.793 29.798 106.632 29.8236 106.632 30.0266C106.632 30.2295 106.391 30.2459 106.498 30.266C106.606 30.2843 106.68 30.2715 106.876 30.0851C107.069 29.8949 107.493 29.8328 107.436 29.9589C107.378 30.0851 106.854 30.3849 106.634 30.6043C106.414 30.831 105.075 31.7103 104.448 32.1345C103.82 32.5568 103.782 32.9809 103.449 33.182C103.121 33.3813 102.623 33.4325 102.447 33.2789C102.276 33.1272 102.436 32.7579 102.937 32.3831C103.442 32.0047 103.964 31.7067 104.39 31.2716C104.812 30.8383 105.176 30.5293 105.37 30.171C105.56 29.8053 105.622 29.1362 105.436 29.0174C105.245 28.8912 105.405 28.7157 105.569 28.606C105.732 28.5037 105.813 28.255 105.697 28.1782C105.578 28.096 105.631 28.0247 105.857 27.9406C106.09 27.862 105.745 27.5969 105.462 27.5183C105.183 27.4378 104.551 27.4177 103.699 27.7431C102.853 28.0686 102.259 28.2953 101.912 28.4031C101.571 28.5073 101.088 28.5366 100.86 28.5366C100.633 28.5366 100.732 28.3172 100.636 28.2569C100.542 28.1929 100.131 28.4799 100.131 28.4799C100.131 28.4799 100.449 28.2148 100.485 27.9424C100.515 27.6737 101.011 27.6115 101.042 27.4945C101.075 27.3757 100.888 27.3519 100.66 27.4397C100.427 27.5292 100.427 27.1782 100.515 27.0155C100.596 26.8528 100.761 26.4963 100.699 26.5859C100.645 26.6773 100.463 26.7102 100.416 26.5512C100.364 26.3866 100.131 26.4963 99.8648 26.6462C99.5856 26.8016 99.4334 26.4597 99.3673 26.3501C99.3526 26.3245 99.2698 26.3373 99.1688 26.3537V35.6556H97.922V26.7541C97.8063 26.7961 97.707 26.8309 97.6537 26.8528C97.4058 26.9588 96.6896 27.2404 96.4362 27.5749C96.1791 27.9077 95.1158 28.5731 95.1158 28.5055C95.1158 28.4305 96.2913 27.3519 96.4529 27.2056C96.62 27.0667 97.0826 26.5621 97.6537 26.2879C97.7437 26.2532 97.8321 26.1892 97.922 26.1234V23.1269C97.8633 23.105 97.8006 23.094 97.7511 23.0886C97.4242 23.0392 97.4444 22.9423 97.5803 22.8253C97.6464 22.7686 97.7733 22.6004 97.922 22.4414V21.8143H86.2405V20.4688C86.0477 20.6205 85.899 20.732 85.8274 20.796C85.4564 21.105 84.9257 21.4761 84.4537 21.7229C83.9781 21.9734 82.4117 23.0374 81.9471 23.1909C81.4843 23.3482 80.388 24.0575 79.9234 24.191C79.4606 24.3281 77.4699 25.4835 77.233 25.6864C77.0072 25.8948 76.3093 26.2568 75.9292 26.3263C75.5509 26.4012 75.4426 26.5 75.2461 26.8565C75.0477 27.2184 74.4527 27.5548 74.394 27.6408C74.3352 27.7322 74.4784 27.8016 74.7043 27.9095C74.9247 28.0192 75.1542 28.6883 75.2828 28.7998C75.4058 28.9095 75.9898 28.7943 75.9898 28.7943C75.9898 28.7943 75.9678 28.9187 76.0027 29.1143C76.0265 29.3172 76.5407 29.1399 76.6197 29.2386C76.7005 29.341 76.436 29.6536 76.2726 29.7724C76.1037 29.8876 76.2212 30.1527 76.4966 30.2423C76.7592 30.3319 76.7813 30.5165 76.8364 30.7725C76.897 31.0247 77.0329 31.3045 77.3047 31.1838C77.5746 31.0668 77.7803 30.7322 77.9768 30.6353C78.1696 30.5366 78.3128 30.533 78.2008 30.9279C78.0778 31.3227 78.1477 31.6994 78.078 31.8328C78.01 31.9718 77.7142 31.8328 77.5875 31.8913C77.4626 31.9462 77.2202 32.491 77.2312 32.4325C77.2367 32.3648 76.8272 32.2039 76.8272 32.2039C76.8272 32.2039 77.0678 32.3484 77.0825 32.6884C77.1008 33.0358 76.6821 33.0358 76.4471 33.0778C76.2138 33.1217 76.1275 33.3941 76.3754 33.544C76.6252 33.6939 76.7317 34.1016 77.11 33.9773C77.4865 33.853 77.7674 34.0595 77.907 34.1985C78.0429 34.3447 77.6958 34.3923 77.8225 34.4928C77.9639 34.5897 77.7803 34.6427 77.6058 34.7086C77.4277 34.7725 77.9474 34.9499 78.1678 34.9938C78.3863 35.0431 78.535 34.842 78.6471 34.7433C78.7701 34.6446 78.976 34.6738 79.4424 34.5239C79.9107 34.385 81.0362 33.4855 81.4604 33.3173C81.8901 33.14 82.0921 32.8895 82.5953 32.5495C83.0948 32.2058 83.9304 31.8273 84.3454 31.6738C84.7641 31.5202 85.236 30.745 85.539 30.4306C85.8512 30.1143 86.4721 29.9754 86.9275 29.8291C87.3756 29.681 87.4507 29.4488 87.6876 29.1984C87.9319 28.9461 87.6821 29.3867 87.9906 29.2971C88.3028 29.2093 88.3379 29.0741 88.9017 28.9662C89.4581 28.8602 89.3477 28.6609 89.1586 28.5475C88.9786 28.4397 88.6664 28.6408 88.4369 28.7943C88.2036 28.9461 87.3718 28.8675 87.3718 28.8675C87.3718 28.8675 88.6591 28.2989 88.9621 28.1271C89.2522 27.9589 89.7611 27.6536 90.3708 27.5073C90.9805 27.3684 91.5459 26.9552 91.5459 26.9552C91.5459 26.9552 90.9107 27.745 90.6224 28.0082C90.3341 28.2678 89.8968 28.1252 89.7444 28.4817C89.5846 28.8455 89.0945 28.8583 88.775 29.2313C88.4573 29.6079 87.5077 30.1106 87.0339 30.3995C86.5619 30.692 85.4564 31.3374 85.0597 31.7597C84.6704 32.1838 82.8359 33.1912 82.2868 33.5422C81.7322 33.8968 80.7607 34.4325 79.7544 35.1546C78.7444 35.8768 77.5966 36.7214 77.3597 36.8585C77.132 36.992 77.1082 37.1565 77.0916 37.407C77.0733 37.6574 76.4966 37.9957 76.3001 38.0852C76.1037 38.1657 75.9182 38.3229 76.1165 38.524C76.3093 38.7233 76.4636 38.6319 76.6215 38.5039C76.7923 38.3832 76.829 38.6849 76.8345 38.8951C76.8529 39.1017 77.1063 39.1438 77.3928 39.2205C77.6664 39.29 77.6591 39.5862 78.1659 39.6301C78.6691 39.6611 78.6068 39.2553 79.0531 39.2662C79.4975 39.2717 79.8829 39.056 80.2135 38.9061C80.5422 38.7489 81.3229 38.2187 81.8187 37.7543C82.3237 37.2863 83.4988 36.6757 83.4988 36.6757C83.4988 36.6757 83.6163 37.0962 84.0259 37.1967C84.4354 37.2936 84.1875 37.7872 84.2095 37.8604C84.226 37.9372 84.4684 37.7964 84.7623 37.5935C85.0487 37.3832 85.5537 37.3649 85.5537 37.3649C85.5537 37.3649 85.5703 37.4362 85.3591 37.5715C85.1479 37.7123 84.9514 37.9902 85.1167 38.0578C85.2746 38.1309 85.8127 37.9719 86.3048 37.8512C86.8006 37.7251 87.8327 36.9426 88.2716 36.8238C88.7068 36.7068 88.9272 37.0413 88.9272 37.0413C88.9272 37.0413 89.2375 36.9207 89.3532 37.0304C89.4671 37.1364 89.9906 37.0578 89.9906 37.0578C89.9906 37.0578 89.603 37.1638 89.6636 37.2918C89.7223 37.4198 89.6526 37.694 89.4359 37.7781C89.2284 37.8567 88.6848 38.535 88.6187 38.7416C88.5452 38.9481 88.8996 38.8311 88.907 39.2187C88.9143 39.6063 88.4683 39.46 88.7052 39.5844C88.9347 39.7123 89.0612 39.6063 89.2853 39.4802C89.5038 39.354 89.2596 40.0908 89.614 40.1474C89.9556 40.2023 90.4128 40.0067 90.9766 39.7288C91.5367 39.4527 92.9324 38.7964 93.3382 38.4326C93.7385 38.0743 93.7955 38.0889 94.3372 37.6355C94.8863 37.1949 94.8551 37.3613 95.2499 37.0834C95.6466 36.8055 96.0432 36.4289 96.5501 36.2717C97.0514 36.1199 97.2497 35.9572 97.4829 35.789C97.7125 35.619 97.9567 36.0322 98.234 35.9572C98.515 35.8896 98.6068 35.9225 98.8253 35.9316C99.0494 35.9389 99.7546 35.3649 99.7546 35.3649C99.7546 35.3649 99.3579 35.7415 99.1559 35.8622C98.9539 35.9792 98.2047 36.4618 97.6537 36.9664C97.1028 37.4746 96.7282 37.5953 96.3701 38.0505C96.0138 38.4984 95.3601 38.8494 94.8165 39.1438C94.2766 39.4454 94.8222 40.1822 94.5247 40.4016C94.2254 40.6136 94.508 40.7727 94.912 40.7818C95.316 40.7946 95.1324 41.1548 95.3031 41.2718C95.4666 41.3924 96.2452 41.354 96.6566 41.1091C97.0642 40.8641 97.909 40.1493 98.1532 39.8787C98.392 39.6081 98.8972 39.7507 99.1377 39.4911C99.3801 39.2279 99.8078 39.1931 100.081 39.1383C100.221 39.109 100.397 39.0268 100.52 38.9518C100.627 38.8915 100.702 38.8421 100.702 38.8421C100.702 38.8421 100.627 38.8933 100.52 38.9518C100.283 39.1017 99.9035 39.365 99.7805 39.6136C99.5932 39.9756 98.8015 40.3906 98.6178 40.5094C98.4379 40.6264 98.3883 40.9756 98.9245 40.7745C99.4718 40.5752 100.271 40.3559 100.559 40.3303C100.853 40.3028 101.095 40.1895 101.314 39.9537C101.536 39.7233 101.461 39.9153 101.751 39.8622C102.039 39.8056 102.928 38.6355 103.374 38.4856C103.815 38.3266 103.8 38.4362 104.41 38.1986C105.02 37.9518 106.079 37.268 106.58 37.0742C107.08 36.8713 107.903 36.3594 108.63 35.8183C109.352 35.2771 110.617 34.1875 110.773 34.1071C110.927 34.0266 110.788 33.6994 110.685 33.5257C110.589 33.3429 110.826 32.9407 110.745 32.8493C110.666 32.7579 110.079 33.0175 109.825 33.1089C109.574 33.2003 109.449 32.9498 109.62 32.8694C109.783 32.7871 109.554 32.5348 109.319 32.469C109.074 32.4069 109.179 32.2387 109.109 32.0997C109.041 31.9663 109.711 31.8767 109.596 31.7213C109.482 31.5732 108.927 32.054 108.755 32.0138C108.58 31.9663 108.885 31.8639 109.052 31.5988L109.056 31.5878ZM85.3903 27.4561C85.236 27.617 85.0781 27.9662 84.6906 28.043C84.294 28.1124 84.2499 28.2605 84.1544 28.383C84.0571 28.5091 83.4511 28.7505 83.4511 28.7505C83.4511 28.7505 83.9175 28.2916 83.9634 28.1636C83.9983 28.043 84.294 27.9643 84.72 27.7431C85.1534 27.5256 85.5409 27.2861 85.3903 27.4543V27.4561ZM94.2674 29.2057C93.8634 29.3355 94.3668 29.0082 94.4678 28.9534C94.5651 28.8986 94.9379 28.7523 94.9379 28.7523C94.7818 28.8748 94.6769 29.0795 94.2674 29.2057ZM103.053 37.4143C102.954 37.5295 102.54 37.8403 102.27 37.9298C101.989 38.0194 101.503 38.3851 101.503 38.3851C101.479 38.0194 101.857 37.9481 102.092 37.875C102.329 37.8019 102.601 37.5825 102.757 37.4892C102.913 37.4033 103.15 37.3101 103.053 37.4143Z" fill="#003C64"/>
<path fill-rule="evenodd" clip-rule="evenodd" d="M87.1147 12.2597C87.1147 12.2597 87.2703 12.0586 87.1752 12.0586C87.0801 12.0586 87.1147 12.2597 87.1147 12.2597Z" fill="#003C64"/>
<path fill-rule="evenodd" clip-rule="evenodd" d="M86.8982 11.908C87.0359 11.8349 87.157 11.5625 87.157 11.5625L86.7844 11.855L86.8982 11.908Z" fill="#003C64"/>
<path fill-rule="evenodd" clip-rule="evenodd" d="M89.0209 10.5926C89.0209 10.5213 88.6997 10.8303 88.6997 10.9199C88.6997 10.9199 89.0209 10.6676 89.0209 10.5926Z" fill="#003C64"/>
<path fill-rule="evenodd" clip-rule="evenodd" d="M87.0946 7.19966C87.0799 7.13018 86.8046 7.65853 86.8046 7.65853C86.8046 7.65853 87.1166 7.27461 87.0946 7.19966Z" fill="#003C64"/>
<path fill-rule="evenodd" clip-rule="evenodd" d="M83.3127 4.87373C83.3127 4.75856 83.0622 4.8847 83.117 4.99622C83.117 4.99622 83.3127 4.97977 83.3127 4.87373Z" fill="#003C64"/>
<path fill-rule="evenodd" clip-rule="evenodd" d="M76.1498 25.8082C76.4473 25.693 76.4234 25.4115 76.4344 25.1811C76.4418 24.9489 76.596 24.9014 76.9321 24.6071C77.2737 24.3036 78.0597 23.8575 78.4655 23.7204C78.8658 23.5833 79.2203 23.2341 79.47 22.9489C79.7198 22.66 79.9732 22.5577 80.3643 22.4151C80.75 22.2688 81.2972 21.713 81.9969 21.2377C82.6231 20.8026 83.848 20.117 84.5311 19.5923H83.7213C83.7102 19.6673 83.6607 19.7733 83.6056 19.7953C83.5027 19.8282 83.4164 19.8684 83.3136 19.9763C83.2126 20.0878 82.9206 20.0878 82.9206 20.0878C83.0602 20.053 83.3852 19.7368 83.5743 19.5942H83.0602C83.0069 19.5905 82.9536 19.5759 82.9059 19.5722C82.8104 19.6399 82.7461 19.6892 82.7259 19.7057C82.6249 19.7752 82.4909 19.6088 82.3329 19.5375C82.1732 19.4662 82.2338 19.6874 82.2742 19.777C82.3109 19.8702 81.9638 19.9214 81.7471 19.8702C81.5304 19.8135 81.389 19.8519 81.0585 20.0348C80.7206 20.2139 80.1807 20.5978 79.9585 20.7989C79.7418 21.0037 78.842 21.3108 78.842 21.3108C78.842 21.3108 79.156 21.1116 79.4167 20.9287C79.6647 20.7441 80.4157 20.1627 80.3111 20.1975C80.2137 20.2377 79.5435 20.3803 79.2551 20.6381C78.9595 20.8904 77.7622 21.5869 77.7622 21.5869C77.7622 21.5869 77.9201 21.1445 78.2745 21.0567C78.6198 20.9671 79.0219 20.5814 79.0219 20.362C79.0219 20.1426 79.3102 20.0329 79.6041 19.905C79.9016 19.7752 80.098 19.5741 80.2707 19.3931C80.3368 19.3255 80.5443 19.1792 80.8069 19.011C79.3029 18.362 78.3241 17.3254 77.7273 16.5009C77.4812 16.6106 77.2314 16.7404 77.079 16.841C76.8238 17.0037 76.1553 17.4954 75.8835 17.4954C75.6117 17.4954 75.5364 17.7148 75.2591 17.9178C74.9819 18.117 74.6476 18.117 74.4787 18.298C74.2932 18.4808 73.7258 18.6636 73.6321 18.8995C73.5311 19.139 71.6874 20.1243 71.2595 20.234C70.8224 20.3382 70.6902 20.3785 70.5506 20.5595C70.4147 20.7404 69.9263 20.905 69.9263 20.905C69.9263 20.905 70.6902 20.0073 70.9602 19.8812C71.243 19.7587 71.8453 19.2651 71.8453 19.2651C71.8453 19.2651 71.9996 19.117 72.2181 19.0969C72.4348 19.0805 73.0812 18.7733 73.2354 18.4625C73.3915 18.1499 73.5697 18.351 73.8396 18.17C74.1188 17.989 74.5099 17.6033 74.8258 17.5539C75.1343 17.4936 75.3124 17.1645 75.6852 17.1133C76.0543 17.0548 76.3151 16.9305 76.6879 16.7422C76.9431 16.6216 77.3196 16.4899 77.6226 16.3473C77.1708 15.6928 76.9762 15.1938 76.9762 15.1938H74.7431C71.3697 9.9578 65.4785 10.0529 65.4785 10.0529V24.501C65.4344 24.916 65.9541 24.9325 66.2278 25.0404C66.5014 25.1464 66.0974 25.4426 66.0515 25.4554C65.9982 25.4773 66.3784 25.6802 66.7585 25.6016C67.1368 25.5212 68.0054 25.0257 68.5802 24.768C69.1458 24.5047 69.7371 24.1573 69.952 23.916C70.1595 23.6765 70.3945 23.4937 70.7435 23.3328C71.085 23.1683 71.1952 22.8392 71.3495 22.7661C71.5056 22.6893 71.5313 23.0348 71.8361 23.0074C72.1281 22.98 72.1612 22.5449 72.2915 22.5083C72.4164 22.4699 72.3081 22.629 72.3209 22.7917C72.3319 22.9562 72.5505 23.1591 72.8167 23.3054C73.0738 23.4517 72.6129 23.7954 72.657 24.1774C72.7066 24.5669 72.9159 24.172 73.1051 24.2853C73.285 24.406 72.8498 24.863 72.8498 24.863C72.8498 24.863 72.7708 24.6729 72.6698 24.6985C72.5633 24.7277 72.6955 24.9782 72.5064 25.0623C72.3099 25.1427 71.961 25.5724 71.8747 25.6802C71.7902 25.7881 71.9353 25.7881 72.0987 25.8247C72.2603 25.863 72.3999 25.5523 72.5523 25.4517C72.7084 25.3365 72.8443 25.8886 73.0536 26.0331C73.2667 26.1775 73.6431 26.0221 73.6431 26.0221C73.6431 26.0221 73.1785 26.2031 73.1987 26.5175C73.2226 26.832 73.2556 26.8978 73.4687 27.066C73.6835 27.2397 73.9131 27.013 74.3006 26.7351C74.688 26.4554 75.3436 26.3749 75.5787 26.3567C75.8137 26.342 75.8468 25.9289 76.1461 25.8082H76.1498Z" fill="#003C64"/>
<path fill-rule="evenodd" clip-rule="evenodd" d="M75.4667 14.035H77.7897C78.0541 14.7132 78.3571 15.28 78.6895 15.7681C78.8217 15.7004 78.9466 15.6456 79.0127 15.6145H79.0219C79.0348 15.6054 79.0421 15.6017 79.0513 15.6017C79.0421 15.6017 79.0274 15.6109 79.0109 15.6145C78.9044 15.6621 78.8107 15.7352 78.7207 15.8175C79.7895 17.3714 81.1191 18.0095 82.2944 18.2654C82.6855 18.1082 82.9518 17.8723 83.2732 17.7297C83.488 17.642 83.5817 17.5542 83.8792 17.5104C84.1693 17.4738 84.4081 17.4025 84.645 17.2215C84.8782 17.0405 85.2344 16.7992 85.5907 16.7096C85.9378 16.62 86.3454 16.2105 86.4446 16.2507C86.5419 16.291 86.2114 16.5597 86.0553 16.6347C85.8955 16.7096 85.8386 17.0003 85.4272 17.163C85.0159 17.3257 84.8396 17.6749 84.6009 17.695C84.3713 17.7115 84.3879 17.8394 84.0959 18.0387C83.8975 18.174 83.802 18.2782 83.7543 18.4245H87.4675V18.5177C87.9229 18.2197 89.8071 17.152 90.9897 16.62C92.2384 16.0624 93.0905 15.5999 93.0905 15.5999C93.0905 15.5999 90.5434 17.6329 90.099 17.7718C89.6546 17.9144 89.6197 18.2142 89.0082 18.5122C88.7254 18.6548 88.0955 19.0899 87.4675 19.5451V20.6146H95.1069C95.1032 20.4574 95.3438 20.1558 95.1803 20.079C94.9765 19.9912 95.274 19.611 95.1069 19.5141C94.949 19.4172 94.8461 19.2325 94.6845 19.0369C94.5303 18.8376 94.0179 18.7279 93.7645 18.8376C93.5129 18.9473 93.4707 18.8376 93.5974 18.5945C93.7167 18.3477 95.9626 17.0588 96.5044 16.5999C97.0461 16.1447 97.8688 15.5761 97.8633 15.4061C97.8486 15.2324 98.159 14.631 97.8762 14.4518C97.6007 14.269 97.6374 13.7315 97.1508 13.7095C96.6678 13.6931 95.3493 14.183 95.0242 14.4865C94.6974 14.79 93.7314 15.2471 93.7314 15.2471C93.7314 15.2471 94.3833 14.6547 94.4605 14.4317C94.5394 14.205 94.9912 13.8211 94.8773 13.5907C94.7616 13.3567 94.4843 13.4189 94.4127 13.2836C94.3429 13.1465 94.7212 12.949 94.5982 12.8284C94.4862 12.7132 93.5625 12.8832 93.3605 12.7132C93.1585 12.5413 92.9583 12.5669 92.8353 12.6748C92.7214 12.7644 92.6057 12.8485 92.4074 12.8046C92.2017 12.7589 91.0191 13.737 90.9254 13.6803C90.8281 13.6126 91.1274 13.3348 91.1201 13.1976C91.1072 13.0624 91.5278 12.7406 91.5278 12.7406C91.5278 12.7406 91.155 12.5304 90.9089 12.3823C90.672 12.225 90.8942 11.7406 90.391 11.6674C89.8879 11.598 89.4692 11.7113 89.1221 11.8612C88.7732 12.002 88.2296 12.3091 87.552 12.6035C86.878 12.9033 86.7017 12.7497 86.5107 12.6748C86.3161 12.587 86.889 12.108 86.6833 12.0569C86.485 12.0038 85.9561 12.534 85.8313 12.3841C85.7192 12.2269 86.6833 11.6985 86.6944 11.545C86.7017 11.3896 86.4997 11.545 86.2408 11.6601C85.98 11.7771 85.8588 11.7132 85.98 11.5102C86.0975 11.3018 85.8313 11.1647 85.9635 10.9526C86.0847 10.7351 86.0461 10.5961 85.9396 10.7406C85.8294 10.8868 85.5925 11.0477 85.5925 11.0477C85.5925 11.0477 85.6899 10.7278 85.7652 10.5778C85.8423 10.4243 85.5742 9.89776 85.9855 9.74236C86.406 9.59428 86.4171 9.10798 86.3675 8.87945C86.3142 8.65641 86.6209 8.48822 86.6668 8.34745C86.7164 8.21399 85.9066 8.41326 85.7358 8.32551C85.5723 8.2341 86.0167 7.87212 86.3142 7.69113C86.6209 7.51379 86.9551 7.10793 86.9551 7.10793C86.9551 7.10793 86.2444 7.43335 85.9102 7.61983C85.5723 7.80996 85.2216 7.69113 85.049 7.57412C84.9369 7.49917 85.1904 7.32 85.3281 7.23773C85.1077 7.3328 84.7864 7.12621 84.7147 7.02018C84.6394 6.90135 84.4411 6.81176 84.6927 6.81176C84.9443 6.81176 85.3409 6.4059 85.3409 6.4059C85.3409 6.4059 84.9553 6.51742 84.5384 6.49C84.1234 6.44978 83.5872 6.6198 83.3944 6.60883C83.1869 6.60335 82.983 6.60883 82.8434 6.49C82.7112 6.37665 82.2613 6.59786 82.2613 6.59786C82.2613 6.59786 82.5257 6.64905 82.4909 6.75143C82.4505 6.86661 81.7747 7.22311 81.7655 7.14267C81.7545 7.05674 82.052 6.66002 82.052 6.66002C82.052 6.66002 81.85 6.6911 81.5212 6.87941C81.198 7.06588 81.2366 7.1061 80.7646 7.06588C80.2945 7.02932 79.8207 7.4041 79.8207 7.4041C80.1899 7.02932 80.6728 6.905 81.1833 6.60518C81.6939 6.31084 81.8334 6.46623 81.9032 6.29621C81.9712 6.12071 81.9987 5.95251 82.1823 5.66183C82.355 5.38029 82.6121 5.3291 82.6121 5.3291C82.0299 4.84463 82.7278 4.68923 82.7278 4.68923C82.7278 4.68923 82.6818 4.66363 82.3843 4.68923C82.0795 4.71665 82.0005 4.56491 81.9712 4.45888C81.9253 4.34553 82.388 4 82.388 4C81.6828 4.27423 81.4019 3.92687 80.7389 4.01828C80.0705 4.10786 78.7428 5.04207 78.3278 5.01648C77.9164 5.00734 77.2278 5.58322 76.653 6.06586C76.0855 6.55764 75.1545 6.77886 74.8937 7.02383C74.6348 7.26333 74.385 7.12987 74.2179 7.29989C74.0545 7.46991 73.9645 7.28892 73.7221 7.65456C73.4797 8.01472 73.2979 7.88126 73.2354 7.85201C73.1803 7.82641 73.667 7.04943 73.667 7.04943C73.667 7.04943 73.4778 7.07868 73.3915 7.00007C73.3052 6.9306 73.6174 6.53205 73.6174 6.53205L73.2244 6.64357C73.2244 6.64357 73.8378 5.81723 73.7423 5.78615C73.6431 5.76055 73.0536 6.00187 72.9104 6.06403C72.769 6.12985 72.7451 5.98725 73.0279 5.71302C73.3052 5.4461 73.9626 4.85925 73.8837 4.93055C73.8121 5.00551 73.375 4.87753 73.0481 4.72762C72.7139 4.56674 72.1758 4.82634 71.9426 4.95066C71.7112 5.07681 71.0997 4.96894 70.2715 5.42051C69.4396 5.87207 67.8089 6.70573 67.4398 6.99458C67.0596 7.28344 66.663 7.37668 66.2571 7.66187C65.8476 7.94524 65.4712 7.97815 65.4712 7.97815V8.65093C65.4712 8.65093 65.9192 8.45348 66.1286 8.35293C66.3453 8.25055 66.6428 8.17194 66.5859 8.26518C66.5289 8.35293 65.4546 8.88494 65.4546 8.88494C72.3338 9.01657 75.4648 14.0295 75.4648 14.0295L75.4667 14.035ZM85.3097 10.6674C85.3281 10.5212 85.4493 10.3018 85.4493 10.3018C85.4493 10.3018 85.6623 10.7406 85.4732 10.8704C85.2748 10.9983 85.2914 10.8155 85.3097 10.6674ZM80.8418 14.5688C81.1576 14.4792 81.3303 14.2324 81.648 14.0825C81.9657 13.9326 82.3752 13.6821 82.3752 13.6821C82.3752 13.6821 82.1548 13.8777 81.9363 14.024C81.7288 14.1702 81.6296 14.2617 81.2531 14.4774C80.884 14.7004 80.2009 14.9582 80.2009 14.9582C80.2009 14.9582 80.5314 14.6675 80.8436 14.5688H80.8418Z" fill="#003C64"/>
<path fill-rule="evenodd" clip-rule="evenodd" d="M98.0925 15.2139C98.0102 15.2322 98.0102 15.5046 98.0102 15.5046C98.1894 15.4899 98.1675 15.1938 98.0925 15.2139Z" fill="#003C64"/>
<path fill-rule="evenodd" clip-rule="evenodd" d="M105.87 30.0452C105.912 29.9154 105.404 30.3195 105.404 30.3195C105.404 30.3195 105.833 30.1714 105.87 30.0452Z" fill="#003C64"/>
<path fill-rule="evenodd" clip-rule="evenodd" d="M109.624 28.3658C109.693 28.4554 109.814 28.4554 109.814 28.4554C109.814 28.4554 110.088 28.4024 110.167 28.2598C110.25 28.1117 110.029 28.1446 109.895 28.2214C109.75 28.2927 109.543 28.2708 109.624 28.3658Z" fill="#003C64"/>
<path fill-rule="evenodd" clip-rule="evenodd" d="M111.243 32.674C111.195 32.7471 111.107 32.8842 111.034 33.0104C111.087 32.9391 111.157 32.8842 111.225 32.8733C111.401 32.8568 111.537 32.9299 111.557 32.7087C111.574 32.493 111.34 32.5259 111.241 32.6722L111.243 32.674Z" fill="#003C64"/>
<path fill-rule="evenodd" clip-rule="evenodd" d="M111.033 33.0098C110.955 33.1213 110.894 33.2547 110.894 33.2547C110.894 33.2547 110.958 33.1396 111.033 33.0098Z" fill="#003C64"/>
<path fill-rule="evenodd" clip-rule="evenodd" d="M89.4459 37.3093C89.3234 37.1228 89.2905 37.3806 89.2064 37.4135C89.2064 37.4135 89.5592 37.4885 89.4459 37.3093Z" fill="#003C64"/>
<path fill-rule="evenodd" clip-rule="evenodd" d="M1.29649 63.9392L0.00183105 63.7271L2.29365 52.4472L3.40467 51.4453L5.73138 63.729L4.53772 63.941L2.89048 55.0578L1.29833 63.941L1.29649 63.9392ZM1.68213 61.9154H4.0823L2.88864 63.4163L1.68213 61.9154Z" fill="#003C64"/>
<path fill-rule="evenodd" clip-rule="evenodd" d="M6.93779 63.7249V51.8105H8.19939V62.5183H10.3425L10.7887 63.7249H6.93779Z" fill="#003C64"/>
<path fill-rule="evenodd" clip-rule="evenodd" d="M12.4158 63.9392L11.123 63.7271L13.4111 52.4472L14.5239 51.4453L16.8469 63.729L15.6515 63.941L14.0079 55.0578L12.4158 63.941V63.9392ZM12.7978 61.9154H15.2053L14.0079 63.4163L12.7978 61.9154Z" fill="#003C64"/>
<path fill-rule="evenodd" clip-rule="evenodd" d="M19.8992 55.2989L18.4411 63.9701L17.2456 63.7507L19.3189 52.489L20.384 51.5L21.1975 58.0211L22.0772 52.4598L23.1698 51.4707L24.9309 63.7233L23.7832 63.9372L22.6575 55.2697L21.0965 63.3357L19.8992 55.2989Z" fill="#003C64"/>
<path fill-rule="evenodd" clip-rule="evenodd" d="M28.5486 52.8301C29.0279 52.8301 29.3805 53.0787 29.6119 53.587C29.8433 54.0952 29.9939 54.6802 30.06 55.3621C30.1077 56.0587 30.1408 56.8466 30.1408 57.7753C30.1408 58.7041 30.1077 59.4555 30.0416 60.1703C29.992 60.865 29.8415 61.4683 29.6101 61.9765C29.3787 62.4884 29.0096 62.7334 28.5468 62.7334C28.084 62.7334 27.7002 62.4866 27.4505 61.9765C27.2173 61.4701 27.0703 60.865 27.0061 60.1867C26.9528 59.5085 26.9216 58.7041 26.9216 57.7772C26.9216 56.8503 26.9528 56.0148 27.0061 55.3512C27.052 54.6674 27.2044 54.097 27.4358 53.5888C27.6672 53.0787 28.0326 52.8319 28.5138 52.8319H28.5468L28.5486 52.8301ZM31.3987 57.7753C31.3987 56.598 31.351 55.5961 31.25 54.746C31.138 53.9105 30.8882 53.1847 30.4585 52.5723C30.0435 51.9653 29.4154 51.6582 28.5486 51.6582C27.8857 51.6582 27.3715 51.8429 26.9693 52.214C26.5727 52.5723 26.2734 53.0458 26.0897 53.6509C25.9079 54.2341 25.7757 54.8722 25.7224 55.5358C25.6765 56.1848 25.6582 56.9435 25.6582 57.7772C25.6582 58.6108 25.6765 59.3677 25.7224 60.0167C25.7757 60.6803 25.9079 61.3147 26.0897 61.9162C26.2715 62.5195 26.5727 63.015 26.9693 63.3824C27.3697 63.7517 27.8857 63.9382 28.5486 63.9382C29.4154 63.9382 30.0435 63.6311 30.4585 63.0131C30.8882 62.3952 31.138 61.6657 31.25 60.8193C31.351 59.9674 31.3987 58.949 31.3987 57.7772V57.7753Z" fill="#003C64"/>
<path fill-rule="evenodd" clip-rule="evenodd" d="M38.8525 63.7249H37.6111V53.0153H36.3807L36.8471 51.8105H40.2482L39.7523 53.0153H38.8525V63.7249Z" fill="#003C64"/>
<path fill-rule="evenodd" clip-rule="evenodd" d="M45.5609 51.8105L46.0071 53.0153H43.2194V57.7449H45.8583V58.9496H43.2562V62.5183H45.8583V63.7249H41.9597V58.9496H40.9644L41.4106 57.7759H41.9597V51.8105H45.5609Z" fill="#003C64"/>
<path fill-rule="evenodd" clip-rule="evenodd" d="M51.3713 51.8105L51.8194 53.0153H49.0317V57.7449H51.6688V58.9496H49.0611V62.5183H51.6688V63.7249H47.7646V58.9496H46.7693L47.2192 57.7759H47.7646V51.8105H51.3713Z" fill="#003C64"/>
<path fill-rule="evenodd" clip-rule="evenodd" d="M56.594 52.5199L55.4334 52.9532C54.6236 53.264 54.1884 53.8198 54.1223 54.6059C54.159 54.8691 54.2049 55.1178 54.3224 55.3609L56.3627 59.7632C56.5279 60.138 56.6308 60.5219 56.6308 60.9698C56.6308 61.5896 56.4306 62.1271 56.0174 62.6244C55.6006 63.1052 55.0864 63.4416 54.4895 63.6573L53.3914 64.0449L52.8937 62.9333L54.0029 62.5768C54.4198 62.4525 54.7338 62.2532 54.967 61.9589C55.2149 61.6627 55.3306 61.3391 55.3306 60.9698C55.3306 60.6919 55.2847 60.4122 55.1653 60.1673L53.1233 55.8107C52.9415 55.4231 52.8607 55.0227 52.8276 54.6041C52.8423 54.0008 53.0443 53.445 53.4263 52.9514C53.7899 52.4578 54.3041 52.0866 54.967 51.8545L56.1111 51.4395L56.5904 52.5181L56.594 52.5199Z" fill="#003C64"/>
<path fill-rule="evenodd" clip-rule="evenodd" d="M64.149 58.0238L66.5381 62.2414C66.0056 62.6893 65.3941 62.905 64.6962 62.905C64.1159 62.905 63.6513 62.7058 63.3024 62.3036C62.97 61.8867 62.7864 61.3931 62.7864 60.8045C62.8507 60.3876 62.937 60.0311 63.038 59.724C63.139 59.4132 63.2712 59.1061 63.4548 58.8263C63.6366 58.5338 63.8662 58.2742 64.1508 58.0238H64.149ZM65.0103 57.329C65.3298 57.0676 65.6108 56.8062 65.8734 56.5703C66.1433 56.34 66.3876 56.1115 66.6043 55.8647C66.8375 55.5996 67.0211 55.3199 67.1515 55.0091C67.2984 54.7038 67.3829 54.3765 67.3829 54.0072C67.3829 53.2979 67.1717 52.711 66.7346 52.2814C66.3013 51.8463 65.6897 51.6141 64.8762 51.5977C64.4263 51.5977 64.0149 51.722 63.6495 51.9706C63.2859 52.1991 63.0031 52.5264 62.8029 52.9286C62.5881 53.3143 62.4687 53.733 62.4889 54.1608C62.5054 54.5319 62.5697 54.8756 62.6707 55.1809C62.7699 55.4734 62.8856 55.7385 62.9884 55.9396C63.0986 56.1553 63.3171 56.5246 63.6146 57.053C63.2859 57.3455 63.0031 57.6398 62.7533 57.9342C62.5073 58.2249 62.2924 58.5649 62.0867 58.9854C61.8921 59.3839 61.7764 59.8465 61.7084 60.3693C61.6919 60.5741 61.6754 60.7258 61.6754 60.8355C61.6754 61.7003 61.9398 62.4407 62.4522 63.0166C62.9682 63.6034 63.6826 63.8978 64.6265 63.9124C65.5575 63.9124 66.3729 63.6363 67.0505 63.0933L67.6639 64.2689L68.5765 63.7314L67.7961 62.3694L69.1256 61.0092L68.3268 60.2834L67.2856 61.4096L65.0066 57.3309L65.0103 57.329ZM63.6146 54.0054C63.6146 53.6068 63.7358 53.2668 63.9801 53.0054C64.2151 52.7385 64.5291 52.616 64.9111 52.616C65.1609 52.616 65.3757 52.6635 65.574 52.7677C65.7558 52.8774 65.9211 53.031 66.0221 53.2321C66.1415 53.4204 66.1874 53.6525 66.1874 53.9122C66.1874 54.6672 65.7742 55.3637 64.946 56.031L64.4942 56.3839C64.1949 55.8903 63.9801 55.4716 63.835 55.1188C63.6844 54.7641 63.6146 54.3911 63.6146 54.0036V54.0054Z" fill="#003C64"/>
<path fill-rule="evenodd" clip-rule="evenodd" d="M76.4987 63.4162L77.6924 61.9153H75.2867L76.4987 63.4162ZM76.4987 55.0559L78.1386 63.9391L79.3341 63.727L77.0111 51.4434L75.8964 52.4452L73.6064 63.7252L74.9029 63.9372L76.4969 55.054L76.4987 55.0559Z" fill="#003C64"/>
<path fill-rule="evenodd" clip-rule="evenodd" d="M81.4405 62.5468V53.0457H82.4211C82.9059 53.0457 83.2493 53.1993 83.4972 53.5119C83.747 53.819 83.9141 54.2048 83.982 54.6801C84.0628 55.1628 84.0941 55.7331 84.0941 56.4114V58.8722C84.0941 59.5943 84.0628 60.2305 83.982 60.7406C83.9141 61.2506 83.747 61.6803 83.4972 62.0349C83.2493 62.375 82.8839 62.545 82.3862 62.545H81.4386L81.4405 62.5468ZM80.1807 51.8281V63.726H82.4872C83.1355 63.726 83.6496 63.5377 84.0481 63.1648C84.4485 62.8119 84.7405 62.3494 84.9296 61.7772C85.1114 61.1885 85.2381 60.5852 85.2914 59.9526C85.341 59.3237 85.374 58.5943 85.374 57.7771C85.374 56.9599 85.341 56.2286 85.2914 55.5979C85.2381 54.9635 85.1298 54.362 84.9296 53.788C84.7405 53.2011 84.4632 52.7367 84.0647 52.3674C83.6643 52.0128 83.152 51.8281 82.5203 51.8281H80.1807Z" fill="#003C64"/>
<path fill-rule="evenodd" clip-rule="evenodd" d="M89.0762 61.0344L90.683 51.6247L91.8804 51.8258L89.5261 64.1405L88.4426 63.1515L86.1581 51.8258L87.383 51.5918L89.0762 61.0344Z" fill="#003C64"/>
<path fill-rule="evenodd" clip-rule="evenodd" d="M93.2409 51.8105V57.7759H92.6957L92.2476 58.9496H93.2409V63.7249H97.1433V62.5183H94.5392V58.9496H97.1433V57.7449H94.5044V53.0153H97.292L96.8476 51.8105H93.2409Z" fill="#003C64"/>
<path fill-rule="evenodd" clip-rule="evenodd" d="M101.457 58.8397L103.169 63.5985L102.107 63.9678L99.9678 57.7428H100.247C100.579 57.7428 100.846 57.6806 101.046 57.5709C101.242 57.4631 101.408 57.2345 101.525 56.8945C101.641 56.5526 101.707 56.0407 101.707 55.3607C101.692 54.7446 101.641 54.2674 101.525 53.942C101.424 53.6019 101.259 53.3533 101.029 53.2144C100.809 53.0754 100.491 53.0114 100.098 53.0114H99.7621V63.7228H98.5354V51.8066H100.199C100.847 51.8066 101.38 51.8999 101.779 52.101C102.173 52.3021 102.487 52.6586 102.691 53.1833C102.904 53.6952 103.025 54.4191 103.025 55.3607C103.025 56.0718 102.97 56.644 102.856 57.092C102.739 57.5399 102.605 57.8763 102.436 58.0993C102.291 58.3278 102.129 58.485 101.96 58.5582C101.793 58.6514 101.677 58.7136 101.626 58.7446L101.461 58.8379L101.457 58.8397Z" fill="#003C64"/>
<path fill-rule="evenodd" clip-rule="evenodd" d="M106.191 63.7249H104.948V53.0153H103.716L104.184 51.8105H107.583L107.086 53.0153H106.191V63.7249Z" fill="#003C64"/>
<path fill-rule="evenodd" clip-rule="evenodd" d="M110.523 51.8105V63.7249H109.293V51.8105H110.523Z" fill="#003C64"/>
<path fill-rule="evenodd" clip-rule="evenodd" d="M115.849 52.5199L114.687 52.9532C113.875 53.264 113.443 53.8198 113.375 54.6059C113.412 54.8691 113.46 55.1178 113.576 55.3609L115.618 59.7632C115.781 60.138 115.882 60.5219 115.882 60.9698C115.882 61.5896 115.684 62.1271 115.271 62.6244C114.854 63.1052 114.341 63.4416 113.741 63.6573L112.646 64.0449L112.143 62.9333L113.259 62.5768C113.675 62.4525 113.987 62.2532 114.218 61.9589C114.468 61.6627 114.586 61.3391 114.586 60.9698C114.586 60.6919 114.534 60.4122 114.42 60.1673L112.378 55.8107C112.198 55.4231 112.114 55.0227 112.081 54.6041C112.101 54.0008 112.297 53.445 112.681 52.9514C113.041 52.4578 113.559 52.0866 114.22 51.8545L115.366 51.4395L115.849 52.5181V52.5199Z" fill="#003C64"/>
<path fill-rule="evenodd" clip-rule="evenodd" d="M118.853 51.8105V63.7249H117.623V51.8105H118.853Z" fill="#003C64"/>
<path fill-rule="evenodd" clip-rule="evenodd" d="M121.907 55.147V63.692H120.649V52.4102L121.705 51.4102L124.862 60.1873V51.8105L126.091 51.8288V63.7249L125.211 64.1088L121.907 55.147Z" fill="#003C64"/>
<path fill-rule="evenodd" clip-rule="evenodd" d="M131.901 63.3036L131.767 63.4426C131.453 63.7808 130.972 63.9691 130.27 63.9691C129.642 63.9691 129.111 63.7826 128.711 63.4152C128.314 63.0422 128.032 62.5632 127.83 61.9617C127.648 61.3584 127.516 60.7222 127.464 60.0458C127.416 59.3803 127.385 58.6363 127.385 57.8355C127.385 56.9543 127.402 56.1993 127.451 55.5503C127.501 54.883 127.598 54.2687 127.78 53.6654C127.964 53.0621 128.265 52.5721 128.658 52.1955C129.062 51.8281 129.593 51.627 130.268 51.627C130.799 51.627 131.332 51.797 131.796 52.1644L131.998 52.3235L131.499 53.6179L131.365 53.4332C131.086 53.0456 130.737 52.8299 130.27 52.8299C129.804 52.8299 129.477 52.9835 129.223 53.3089C128.992 53.6179 128.827 54.0365 128.746 54.5283C128.678 55.0402 128.595 55.6252 128.612 56.3236C128.612 56.6746 128.647 57.1737 128.647 57.8355C128.647 58.5796 128.612 59.1463 128.612 59.5485C128.595 60.1994 128.676 60.7533 128.759 61.203C128.841 61.6528 129.009 62.0221 129.242 62.3164C129.49 62.6071 129.822 62.746 130.268 62.746C130.32 62.746 130.432 62.7314 130.601 62.7022V58.98H129.591L130.066 57.7733H131.899V63.3018L131.901 63.3036Z" fill="#003C64"/>
<path d="M132 47.3789H0V48.4191H132V47.3789Z" fill="#003C64"/>
<path d="M132 66.9609H0V68.0012H132V66.9609Z" fill="#003C64"/>
</svg>
