<svg width="44" height="44" viewBox="0 0 44 44" fill="none" xmlns="http://www.w3.org/2000/svg">
<g clip-path="url(#clip0_39_8)">
<g clip-path="url(#clip1_39_8)">
<path d="M21.9993 -0.0144386C9.977 -0.0144386 0.175659 9.68 0.00206545 21.6614C-0.173935 33.8308 9.69857 43.9137 21.869 43.9845C25.6276 44.0062 29.2476 43.0867 32.4624 41.3401C32.5349 41.3004 32.5969 41.2438 32.643 41.1752C32.6891 41.1066 32.718 41.0278 32.7273 40.9457C32.7367 40.8635 32.7261 40.7803 32.6964 40.7031C32.6668 40.6259 32.6191 40.5569 32.5573 40.502L30.4992 38.677C30.0812 38.3058 29.4852 38.2009 28.9706 38.4202C26.7266 39.3748 24.288 39.8623 21.7759 39.8317C11.9419 39.711 3.99644 31.5291 4.15319 21.6951C4.30788 11.9862 12.2543 4.13497 21.9993 4.13497H39.8482V35.8614L29.7213 26.8634C29.3941 26.5719 28.8915 26.6293 28.6275 26.9785C27.0023 29.1311 24.3543 30.4693 21.4132 30.2662C17.3336 29.9843 14.0284 26.7004 13.7222 22.6225C13.3571 17.7578 17.2112 13.6837 22.0003 13.6837C26.3309 13.6837 29.8973 17.017 30.2696 21.2523C30.3005 21.6292 30.4747 21.9798 30.7563 22.232L33.3936 24.5699C33.6927 24.8346 34.1681 24.673 34.2409 24.2794C34.431 23.2629 34.4981 22.2028 34.4231 21.1159C33.9979 14.9215 28.9812 9.93919 22.7844 9.55728C15.6802 9.119 9.7405 14.6771 9.55213 21.6439C9.36822 28.4329 14.9308 34.2856 21.7205 34.4355C24.4411 34.4993 27.107 33.6652 29.3061 32.0622L42.5377 43.7917C43.1052 44.2942 44.0004 43.8921 44.0004 43.1334V0.821561C44 0.600015 43.9118 0.387658 43.755 0.231065C43.5983 0.074473 43.3859 -0.0135694 43.1643 -0.0137511L21.9993 -0.0144386Z" fill="#003DFF"/>
</g>
</g>
<defs>
<clipPath id="clip0_39_8">
<rect width="44" height="44" fill="white"/>
</clipPath>
<clipPath id="clip1_39_8">
<rect width="44" height="44" fill="white"/>
</clipPath>
</defs>
</svg>
