<svg width="32" height="32" viewBox="0 0 32 32" fill="none" xmlns="http://www.w3.org/2000/svg">
<path d="M4.67121 17.7368L6.23954 17.9938C6.48732 19.1946 6.96152 20.3373 7.63677 21.3608L6.70802 22.6569C6.51532 22.9192 6.51863 23.2772 6.71618 23.5359C6.95036 23.8221 7.19921 24.0961 7.46165 24.3566C7.72642 24.6218 7.99936 24.8662 8.28045 25.1024C8.53935 25.3004 8.89783 25.3037 9.16036 25.1106L10.4558 24.1815C11.4783 24.8571 12.6203 25.3316 13.8205 25.5794L14.0772 27.1489C14.1261 27.4699 14.3822 27.7195 14.7045 27.7599C14.9277 27.7851 15.1526 27.8006 15.3823 27.812C15.4939 27.8175 15.6029 27.7772 15.6841 27.7005C15.7652 27.6237 15.8116 27.5172 15.8125 27.4055V24.1412C15.8113 23.9212 15.6365 23.7413 15.4166 23.7339C11.3 23.5205 8.0717 20.1207 8.0717 15.999C8.0717 11.8772 11.3 8.47747 15.4166 8.26409C15.6365 8.25664 15.8113 8.07684 15.8125 7.85675V4.59528C15.8119 4.48364 15.7659 4.37705 15.6849 4.30014C15.6039 4.22323 15.4951 4.18274 15.3835 4.18795C15.1546 4.19745 14.9283 4.21349 14.7044 4.236C14.3821 4.27992 14.127 4.53044 14.0771 4.85188L13.8205 6.42131C12.6203 6.66954 11.4783 7.14409 10.4557 7.81965L9.16032 6.89014C8.89779 6.69702 8.53931 6.70033 8.28041 6.8983C7.99494 7.13278 7.72165 7.38172 7.46161 7.64411C7.19719 7.90279 6.94827 8.17685 6.71614 8.46486C6.51776 8.72389 6.51445 9.08282 6.70798 9.34548L7.63673 10.6416C6.96164 11.6647 6.48744 12.8069 6.2395 14.0073L4.67118 14.264C4.35003 14.313 4.10051 14.5693 4.06014 14.8917C3.97995 15.6227 3.97995 16.3602 4.06014 17.0912C4.09637 17.4189 4.34597 17.6826 4.67121 17.7368Z" fill="#007AFF"/>
<path d="M15.4071 9.89485C12.1933 10.0984 9.69092 12.7643 9.69092 15.9845C9.69092 19.2047 12.1933 21.8706 15.4071 22.0742C15.5093 22.0785 15.6088 22.0405 15.6823 21.9693C15.7558 21.8981 15.7969 21.7998 15.7959 21.6975V10.2715C15.7969 10.1692 15.7559 10.071 15.6823 9.99973C15.6088 9.92851 15.5093 9.8906 15.4071 9.89485Z" fill="#007AFF"/>
<path d="M18.6436 10.2894H16.6096V11.103H18.6436C19.3167 11.101 19.8619 10.5558 19.8639 9.88264V7.36704C20.4243 7.16894 20.7605 6.59591 20.66 6.01009C20.5594 5.42428 20.0515 4.99609 19.4571 4.99609C18.8628 4.99609 18.3548 5.42428 18.2543 6.01009C18.1538 6.59591 18.4899 7.16894 19.0503 7.36704V9.88264C19.0503 10.1073 18.8682 10.2894 18.6436 10.2894Z" fill="#007AFF"/>
<path d="M16.6096 12.7316H20.6776C20.9022 12.7316 21.0844 12.5495 21.0844 12.3248C21.0844 12.1001 20.9022 11.918 20.6776 11.918H16.6096V12.7316Z" fill="#007AFF"/>
<path d="M16.6096 21.6808H18.6436C18.8682 21.6808 19.0504 21.8629 19.0504 22.0876V24.6032C18.49 24.8013 18.1538 25.3743 18.2544 25.9601C18.3549 26.5459 18.8628 26.9741 19.4572 26.9741C20.0515 26.9741 20.5595 26.5459 20.66 25.9601C20.7605 25.3743 20.4244 24.8013 19.864 24.6032V22.0876C19.862 21.4144 19.3168 20.8692 18.6436 20.8672H16.6097V21.6808H16.6096Z" fill="#007AFF"/>
<path d="M22.7115 17.6113H16.6096V18.4249H22.7115C22.9362 18.4249 23.1183 18.607 23.1183 18.8317V20.9405C22.5579 21.1386 22.2218 21.7117 22.3223 22.2975C22.4228 22.8833 22.9307 23.3115 23.5251 23.3115C24.1195 23.3115 24.6274 22.8833 24.7279 22.2975C24.8284 21.7117 24.4923 21.1386 23.9319 20.9405V18.8317C23.9299 18.1585 23.3847 17.6133 22.7115 17.6113Z" fill="#007AFF"/>
<path d="M26.7794 14.7637C26.2641 14.7658 25.8057 15.0914 25.6339 15.5772H16.6096V16.3908H25.6339C25.8418 16.9744 26.4545 17.3091 27.0579 17.1686C27.6612 17.0281 28.0631 16.4573 27.9919 15.8419C27.9206 15.2265 27.3989 14.7626 26.7794 14.7637Z" fill="#007AFF"/>
<path d="M21.0844 19.6451C21.0844 19.4204 20.9022 19.2383 20.6776 19.2383H16.6096V20.0519H20.6776C20.9022 20.0519 21.0844 19.8698 21.0844 19.6451Z" fill="#007AFF"/>
<path d="M23.9319 13.138V11.0292C24.4923 10.831 24.8284 10.258 24.7279 9.6722C24.6274 9.08639 24.1195 8.6582 23.5251 8.6582C22.9307 8.6582 22.4228 9.08639 22.3223 9.6722C22.2218 10.258 22.5579 10.831 23.1183 11.0292V13.138C23.1183 13.3627 22.9362 13.5448 22.7115 13.5448H16.6096V14.3584H22.7115C23.3847 14.3563 23.9299 13.8111 23.9319 13.138Z" fill="#007AFF"/>
</svg>
