<svg width="276" height="381" viewBox="0 0 276 381" fill="none" xmlns="http://www.w3.org/2000/svg">
<g opacity="0.5">
<path d="M539.251 203.033C529.335 221.694 518.299 239.76 506.223 257.102C500.854 264.812 495.116 272.539 487.31 277.767C467.358 291.129 440.382 284.559 418.485 274.702C398.317 265.622 379.235 254.135 361.772 240.56C344.467 227.108 328.441 211.423 308.478 202.375C288.514 193.327 262.718 192.525 246.701 207.487C237.172 216.389 232.523 229.622 231.87 242.646C231.218 255.671 234.208 268.609 238.029 281.076C242.404 295.352 247.967 310.106 245.297 324.796C242.533 340.003 230.265 353.053 215.257 356.751C193.907 362.011 172.777 349.559 152.879 340.201C127.6 328.313 99.0945 320.802 71.6876 326.207C44.2798 331.612 18.699 352.367 14.0605 379.914" stroke="white" stroke-miterlimit="10"/>
<path d="M535.603 197.759C525.924 216.006 515.105 233.645 503.24 250.544C497.966 258.056 492.328 265.576 484.712 270.705C465.248 283.811 439.038 277.867 417.633 268.715C412.55 266.543 407.535 264.213 402.596 261.732C388.372 254.588 374.779 246.188 362.031 236.661C345.01 223.941 329.197 209.035 309.635 200.4C290.076 191.766 265.487 191.544 249.175 205.077C243.038 210.167 238.19 216.122 234.962 223.081C232.76 227.82 231.201 232.932 230.358 238.203C229.97 240.613 229.722 243.06 229.607 245.551C229.154 255.509 231.061 265.886 233.502 275.908C233.744 276.902 233.991 277.895 234.24 278.885C238.124 294.309 242.345 310.145 238.788 325.297C235.361 339.892 223.812 352.595 209.173 356.279C188.343 361.523 167.718 349.888 148.339 341.31C146.811 340.634 145.272 339.974 143.722 339.333C120.3 329.648 94.5568 324.241 69.9197 329.701C43.6531 335.52 19.3347 356.011 15.2029 382.877" stroke="white" stroke-miterlimit="10"/>
<path d="M531.96 192.488C522.519 210.322 511.916 227.533 500.263 243.989C495.083 251.305 489.546 258.617 482.12 263.647C463.146 276.498 437.7 271.18 416.787 262.733C411.82 260.728 406.916 258.57 402.082 256.263C388.162 249.62 374.831 241.745 362.295 232.766C345.559 220.777 329.959 206.651 310.797 198.43C291.643 190.209 268.132 190.506 251.652 202.67C245.005 207.575 239.293 212.637 235.237 219.149C232.468 223.585 230.271 228.499 228.85 233.762C228.195 236.169 227.693 238.656 227.351 241.232C226.001 251.53 227.656 262.749 229.806 273.502C230.02 274.568 230.236 275.633 230.455 276.696C233.847 293.269 236.761 310.131 232.282 325.801C228.287 339.773 217.364 352.138 203.092 355.811C182.784 361.038 162.663 350.22 143.802 342.42C142.316 341.805 140.818 341.207 139.312 340.627C116.537 331.867 91.7239 327.346 68.155 333.197C43.0285 339.431 19.9726 359.658 16.3492 385.844" stroke="white" stroke-miterlimit="10"/>
<path d="M528.314 187.215C519.111 204.636 508.725 221.419 497.282 237.433C492.196 244.551 486.76 251.657 479.524 256.587C461.039 269.182 436.358 264.491 415.936 256.749C411.086 254.912 406.293 252.924 401.565 250.791C387.948 244.647 374.878 237.299 362.554 228.867C346.103 217.61 330.716 204.264 311.955 196.456C293.205 188.649 270.652 189.391 254.125 200.259C246.931 204.991 240.392 209.148 235.509 215.215C232.175 219.346 229.338 224.061 227.338 229.318C226.417 231.724 225.661 234.249 225.093 236.911C222.845 247.547 224.247 259.607 226.108 271.092C226.293 272.23 226.48 273.367 226.666 274.504C229.568 292.224 231.213 310.071 225.772 326.301C221.297 339.649 210.912 351.678 197.008 355.339C177.221 360.55 157.605 350.547 139.263 343.527C137.816 342.973 136.361 342.436 134.898 341.918C112.771 334.083 88.8877 330.449 66.388 336.69C42.4017 343.339 20.6086 363.301 17.4924 388.806" stroke="white" stroke-miterlimit="10"/>
<path d="M524.67 181.942C515.704 198.949 505.536 215.305 494.305 230.876C489.313 237.798 483.977 244.695 476.931 249.527C458.936 261.866 435.02 257.801 415.091 250.764C410.356 249.095 405.674 247.279 401.052 245.319C387.738 239.677 374.929 232.854 362.819 224.969C346.652 214.443 331.478 201.877 313.118 194.483C294.773 187.089 273.072 188.195 256.604 197.85C248.824 202.411 241.496 205.66 235.786 211.282C231.885 215.109 228.409 219.625 225.831 224.875C224.642 227.279 223.633 229.843 222.839 232.592C219.694 243.566 220.843 256.469 222.414 268.684C222.57 269.894 222.727 271.104 222.883 272.313C225.293 291.183 225.712 309.983 219.267 326.803C214.391 339.532 204.465 351.22 190.929 354.869C171.662 360.064 152.551 350.877 134.728 344.636C133.322 344.144 131.909 343.668 130.488 343.211C109.008 336.301 86.0549 333.552 64.6244 340.184C41.7783 347.248 21.2479 366.945 18.6391 391.77" stroke="white" stroke-miterlimit="10"/>
<path d="M521.032 176.671C512.304 193.265 502.352 209.193 491.333 224.321C486.434 231.046 481.199 237.736 474.344 242.468C456.837 254.551 433.687 251.113 414.249 244.781C409.631 243.279 405.06 241.634 400.543 239.848C387.534 234.706 374.985 228.409 363.088 221.073C347.205 211.279 332.244 199.493 314.286 192.512C296.345 185.532 275.409 186.916 259.086 195.443C250.689 199.829 242.604 202.175 236.067 207.35C231.599 210.873 227.485 215.191 224.328 220.434C222.872 222.836 221.61 225.438 220.589 228.273C216.547 239.585 217.443 253.33 218.724 266.277C218.852 267.558 218.978 268.84 219.102 270.123C221.021 290.14 220.257 309.874 212.767 327.305C207.559 339.424 198.022 350.763 184.853 354.398C166.108 359.577 147.501 351.208 130.197 345.744C128.833 345.314 127.461 344.899 126.083 344.504C105.251 338.52 83.2277 336.657 62.8664 343.679C41.1603 351.158 21.8926 370.591 19.7913 394.734" stroke="white" stroke-miterlimit="10"/>
<path d="M517.387 171.398C508.896 187.578 499.161 203.079 488.353 217.763C483.549 224.291 478.414 230.773 471.75 235.407C454.732 247.235 432.346 244.422 413.401 238.796C408.899 237.462 404.439 235.988 400.028 234.375C387.323 229.734 375.036 223.962 363.351 217.175C347.752 208.112 333.005 197.106 315.447 190.538C297.91 183.972 277.665 185.553 261.563 193.032C252.52 197.232 243.707 198.686 236.342 203.415C231.307 206.635 226.554 210.753 222.82 215.99C221.098 218.39 219.582 221.03 218.335 223.952C213.395 235.603 214.038 250.19 215.03 263.868C215.129 265.221 215.225 266.577 215.318 267.931C216.747 289.097 214.845 309.756 206.262 327.806C200.784 339.327 191.575 350.303 178.775 353.927C160.55 359.09 142.449 351.536 125.662 346.852C124.338 346.483 123.009 346.13 121.674 345.795C101.49 340.736 80.3966 339.759 61.1035 347.173C40.5378 355.066 22.5326 374.235 20.9395 397.698" stroke="white" stroke-miterlimit="10"/>
<path d="M513.743 166.125C505.49 181.892 495.972 196.964 485.375 211.207C480.664 217.538 475.631 223.813 469.156 228.347C452.627 239.919 431.005 237.732 412.553 232.811C408.168 231.646 403.818 230.342 399.513 228.903C387.111 224.763 375.086 219.517 363.613 213.277C348.3 204.945 333.764 194.719 316.608 188.565C299.475 182.412 278.457 181.409 264.039 190.623C253.77 192.832 244.809 195.199 236.617 199.482C231.015 202.397 225.625 206.317 221.311 211.547C219.322 213.944 217.553 216.623 216.08 219.632C210.242 231.621 210.633 247.051 211.334 261.459C211.405 262.884 211.472 264.312 211.533 265.74C212.47 288.054 209.48 309.639 199.756 328.308C194.058 339.245 185.125 349.845 172.693 353.456C154.99 358.604 137.393 351.865 121.125 347.961C119.842 347.653 118.555 347.362 117.262 347.088C97.7266 342.955 77.5622 342.864 59.3391 350.668C39.9135 358.976 23.171 377.88 22.0853 400.663" stroke="white" stroke-miterlimit="10"/>
<path d="M510.099 160.854C502.085 176.207 492.782 190.852 482.397 204.651C477.78 210.785 472.848 216.852 466.563 221.288C450.523 232.604 429.667 231.044 411.706 226.828C407.438 225.83 403.198 224.697 398.999 223.432C386.901 219.792 375.136 215.072 363.877 209.38C348.848 201.78 334.526 192.333 317.77 186.593C301.042 180.853 280.706 179.822 266.516 188.214C255.589 189.982 245.911 191.712 236.892 195.549C230.724 198.16 224.694 201.881 219.802 207.104C217.546 209.5 215.524 212.218 213.824 215.312C207.088 227.64 207.226 243.912 207.638 259.051C207.68 260.548 207.717 262.048 207.746 263.549C208.192 287.012 204.164 309.533 193.248 328.809C187.376 339.179 178.676 349.385 166.611 352.985C149.429 358.117 132.337 352.196 116.588 349.07C115.346 348.824 114.1 348.594 112.85 348.382C93.9618 345.173 74.7278 345.968 57.573 354.164C39.2876 362.886 23.8084 381.526 23.2294 403.628" stroke="white" stroke-miterlimit="10"/>
<path d="M506.458 155.581C498.68 170.522 489.595 184.739 479.421 198.095C474.899 204.032 470.067 209.892 463.971 214.228C448.421 225.289 428.329 224.355 410.86 220.845C406.708 220.014 402.58 219.052 398.486 217.961C386.692 214.822 375.188 210.628 364.142 205.483C349.396 198.615 335.287 189.947 318.933 184.621C302.61 179.295 282.956 178.235 268.995 185.807C257.41 187.133 247.016 188.226 237.169 191.617C230.435 193.924 223.766 197.446 218.296 202.663C215.773 205.056 213.497 207.813 211.571 210.994C203.938 223.66 203.823 240.774 203.946 256.644C203.959 258.213 203.965 259.786 203.964 261.36C203.919 285.97 198.904 309.45 186.745 329.312C180.734 339.131 172.23 348.928 160.533 352.516C143.872 357.63 127.285 352.525 112.054 350.178C110.853 349.993 109.648 349.824 108.442 349.673C90.2024 347.39 71.8972 349.071 55.8125 357.656C38.6672 366.794 24.4505 385.17 24.3799 406.59" stroke="white" stroke-miterlimit="10"/>
<path d="M502.811 150.309C495.272 164.836 486.403 178.625 476.44 191.538C472.011 197.279 467.28 202.931 461.375 207.169C446.314 217.974 426.987 217.666 410.011 214.861C405.974 214.198 401.958 213.407 397.969 212.49C386.479 209.851 375.236 206.182 364.402 201.586C349.941 195.449 336.045 187.561 320.092 182.648C304.173 177.736 285.202 176.648 271.469 183.397C259.228 184.282 248.116 184.738 237.442 187.683C230.141 189.687 222.834 193.01 216.785 198.22C213.995 200.611 211.466 203.406 209.314 206.673C200.783 219.677 200.415 237.634 200.248 254.235C200.232 255.876 200.208 257.522 200.175 259.168C199.639 284.927 193.693 309.393 180.236 329.813C174.117 339.098 165.778 348.47 154.449 352.045C138.308 357.144 122.226 352.855 107.514 351.286C106.353 351.163 105.191 351.055 104.028 350.965C86.4356 349.607 69.0609 352.174 54.0444 361.151C38.0395 370.703 25.0852 388.815 25.5221 409.554" stroke="white" stroke-miterlimit="10"/>
<path d="M499.17 145.037C491.868 159.15 483.216 172.511 473.465 184.982C469.13 190.526 464.499 195.97 458.784 200.109C444.212 210.658 425.65 210.976 409.166 208.877C405.245 208.382 401.339 207.762 397.457 207.018C386.271 204.88 375.289 201.737 364.667 197.689C350.491 192.283 336.808 185.175 321.255 180.676C305.74 176.178 287.453 175.061 273.947 180.989C261.049 181.433 249.221 181.252 237.718 183.751C229.851 185.45 221.905 188.575 215.278 193.778C212.221 196.167 209.438 199.001 207.06 202.354C197.632 215.697 197.012 234.496 196.554 251.828C196.51 253.54 196.457 255.258 196.392 256.978C195.365 283.885 188.544 309.376 173.732 330.315C167.53 339.082 159.331 348.011 148.371 351.575C132.751 356.657 117.174 353.184 102.98 352.394C101.86 352.332 100.739 352.286 99.6198 352.257C82.6754 351.825 66.2302 355.278 52.2829 364.645C37.4181 374.612 25.7265 392.46 26.6708 412.518" stroke="white" stroke-miterlimit="10"/>
<path d="M495.519 139.763C488.455 153.462 480.019 166.397 470.479 178.424C466.238 183.771 461.708 189.008 456.183 193.048C442.101 203.341 424.303 204.285 408.311 202.892C404.507 202.564 400.712 202.115 396.936 201.545C386.053 199.907 375.332 197.291 364.923 193.79C351.032 189.115 337.561 182.787 322.41 178.701C307.3 174.617 289.695 173.471 276.417 178.578C262.861 178.582 250.316 177.763 237.987 179.816C229.553 181.211 220.969 184.137 213.763 189.334C210.439 191.721 207.403 194.593 204.798 198.034C194.473 211.715 193.6 231.356 192.853 249.419C192.78 251.203 192.696 252.994 192.601 254.787C191.082 282.842 183.446 309.407 167.22 330.816C160.955 339.082 152.876 347.552 142.283 351.104C127.185 356.17 112.112 353.514 98.437 353.503C97.3582 353.502 96.2796 353.517 95.2021 353.549C78.9051 354.042 63.3896 358.381 50.5114 368.139C36.7866 378.521 26.3578 396.104 27.8103 415.482" stroke="white" stroke-miterlimit="10"/>
<path d="M491.881 134.491C485.055 147.776 476.836 160.283 467.508 171.868C463.36 177.017 458.932 182.047 453.596 185.988C440.003 196.026 422.97 197.596 407.471 196.907C403.782 196.747 400.099 196.469 396.428 196.073C385.849 194.936 375.389 192.845 365.193 189.892C351.585 185.949 338.329 180.401 323.578 176.729C308.873 173.058 292.495 174.207 278.902 176.168C264.826 178.2 251.425 174.276 238.269 175.883C229.268 176.974 220.045 179.702 212.26 184.891C208.67 187.277 205.381 190.187 202.55 193.714C191.326 207.733 190.2 228.216 189.163 247.011C189.061 248.867 188.948 250.73 188.821 252.596C186.812 281.8 178.42 309.497 160.72 331.318C154.406 339.101 146.434 347.094 136.209 350.633C121.632 355.683 107.064 353.843 93.9068 354.611C92.8686 354.672 91.832 354.749 90.7977 354.842C75.1481 356.26 60.5629 361.485 48.754 371.633C36.1696 382.43 27.0032 399.748 28.9632 418.445" stroke="white" stroke-miterlimit="10"/>
<path d="M488.236 129.22C481.648 142.093 473.646 154.171 464.528 165.313C460.475 170.266 456.147 175.088 451.002 178.93C437.897 188.712 421.63 190.908 406.622 190.925C403.049 190.933 399.476 190.826 395.912 190.603C385.636 189.967 375.438 188.402 365.454 185.997C352.131 182.785 339.087 178.017 324.737 174.758C310.436 171.501 294.587 172.403 281.376 173.761C266.558 175.285 252.526 170.79 238.543 171.952C228.976 172.739 219.114 175.268 210.751 180.45C206.894 182.833 203.351 185.783 200.293 189.396C188.172 203.754 186.794 225.079 185.467 244.604C185.337 246.532 185.193 248.467 185.035 250.406C182.534 280.758 173.451 309.656 154.213 331.821C147.862 339.138 139.985 346.637 130.127 350.164C116.07 355.198 102.008 354.174 89.3695 355.722C88.3726 355.845 87.3775 355.982 86.3862 356.137C71.3848 358.48 57.7293 364.591 46.9887 375.13C35.5443 386.342 27.6407 403.395 30.1081 421.412" stroke="white" stroke-miterlimit="10"/>
<path d="M484.593 123.946C478.243 136.405 470.457 148.057 461.551 158.755C457.592 163.512 453.365 168.125 448.409 171.869C435.794 181.395 420.291 184.217 405.776 184.94C402.32 185.115 398.858 185.179 395.399 185.13C385.427 184.994 375.49 183.955 365.719 182.098C352.68 179.618 339.849 175.63 325.901 172.784C312.004 169.94 296.698 170.566 283.854 171.351C268.3 172.303 253.631 167.302 238.82 168.017C228.686 168.501 218.185 170.831 209.243 176.006C205.119 178.388 201.323 181.375 198.039 185.076C185.021 199.771 183.389 221.939 181.773 242.195C181.614 244.195 181.441 246.203 181.25 248.215C178.258 279.716 168.546 309.893 147.707 332.322C141.327 339.19 133.536 346.178 124.047 349.693C110.512 354.71 96.9534 354.502 84.8332 356.829C83.8769 357.012 82.9239 357.212 81.9757 357.427C67.6217 360.696 54.8958 367.693 45.2251 378.623C34.9211 390.249 28.2799 407.039 31.2555 424.375" stroke="white" stroke-miterlimit="10"/>
<path d="M480.948 118.673C474.835 130.719 467.266 141.942 458.571 152.199C454.707 156.758 450.579 161.165 445.814 164.809C433.689 174.079 418.95 177.528 404.926 178.955C401.586 179.298 398.236 179.533 394.883 179.658C385.215 180.023 375.539 179.509 365.981 178.2C353.226 176.452 340.608 173.243 327.06 170.811C313.567 168.381 298.826 168.705 286.33 168.941C270.052 169.25 254.731 163.813 239.093 164.083C228.393 164.263 217.253 166.394 207.733 171.563C203.342 173.942 199.293 176.969 195.783 180.755C181.866 195.789 179.982 218.799 178.076 239.786C177.888 241.857 177.685 243.938 177.463 246.023C173.981 278.672 163.703 310.22 141.2 332.823C134.792 339.259 127.086 345.718 117.965 349.221C104.95 354.223 91.8966 354.831 80.2956 357.936C79.3805 358.182 78.4691 358.442 77.5631 358.719C63.8574 362.913 52.0612 370.796 43.4587 382.117C34.2948 394.158 28.917 410.683 32.3993 427.338" stroke="white" stroke-miterlimit="10"/>
<path d="M477.304 113.401C471.429 125.034 464.077 135.83 455.593 145.642C451.822 150.005 447.796 154.204 443.222 157.75C431.585 166.763 417.612 170.839 404.08 172.972C400.857 173.482 397.617 173.888 394.37 174.187C385.005 175.053 375.59 175.064 366.245 174.303C353.775 173.286 341.37 170.857 328.223 168.839C315.136 166.822 300.982 166.824 288.808 166.533C271.827 166.127 255.835 160.327 239.37 160.151C228.103 160.025 216.325 161.958 206.226 167.12C201.569 169.497 197.265 172.562 193.529 176.435C178.715 191.808 176.578 215.66 174.382 237.378C174.165 239.522 173.932 241.675 173.679 243.833C169.705 277.63 158.924 310.648 134.694 333.325C128.26 339.347 120.638 345.26 111.884 348.751C99.391 353.736 86.842 355.161 75.7591 359.045C74.8847 359.352 74.0153 359.674 73.1524 360.012C60.0941 365.131 49.2284 373.9 41.6951 385.611C33.6715 398.066 29.5563 414.328 33.546 430.302" stroke="white" stroke-miterlimit="10"/>
<path d="M473.659 108.129C468.021 119.348 460.887 129.716 452.614 139.086C448.937 143.252 445.012 147.243 440.627 150.69C429.48 159.449 416.271 164.15 403.232 166.988C400.124 167.667 396.995 168.243 393.853 168.716C384.793 170.082 375.638 170.619 366.506 170.406C354.32 170.121 342.128 168.472 329.383 166.867C316.699 165.264 303.165 164.927 291.283 164.125C273.625 162.933 256.935 156.841 239.643 156.218C227.809 155.789 215.393 157.523 204.716 162.678C199.791 165.053 195.234 168.157 191.272 172.116C175.56 187.827 173.17 212.522 170.685 234.97C170.44 237.186 170.177 239.411 169.892 241.642C165.427 276.588 154.203 311.188 128.187 333.827C121.723 339.452 114.188 344.802 105.802 348.281C93.8298 353.25 81.7859 355.491 71.2221 360.154C70.3881 360.523 69.5611 360.905 68.7412 361.305C56.3311 367.35 46.3941 377.004 39.93 389.106C33.0465 401.977 30.194 417.973 34.6919 433.267" stroke="white" stroke-miterlimit="10"/>
<path d="M470.015 102.856C464.616 113.662 457.697 123.602 449.636 132.529C446.053 136.497 442.229 140.281 438.034 143.629C427.376 152.131 414.932 157.459 402.385 161.002C399.394 161.849 396.376 162.596 393.34 163.242C384.583 165.109 375.69 166.172 366.77 166.507C354.869 166.952 342.89 166.084 330.545 164.892C318.266 163.703 305.386 163.017 293.761 161.714C275.458 159.664 258.039 153.352 239.919 152.284C227.518 151.551 214.463 153.087 203.207 158.235C198.015 160.608 193.206 163.75 189.017 167.796C172.408 183.845 169.765 209.382 166.99 232.561C166.716 234.849 166.423 237.146 166.107 239.451C161.151 275.545 149.54 311.846 121.682 334.328C115.182 339.574 107.741 344.344 99.7227 347.81C88.2716 352.763 76.7321 355.819 66.687 361.262C65.8944 361.692 65.1086 362.137 64.3319 362.597C52.569 369.568 43.5625 380.108 38.1677 392.601C32.4242 405.886 30.8344 421.618 35.8398 436.231" stroke="white" stroke-miterlimit="10"/>
<path d="M466.371 97.5842C461.209 107.976 454.507 117.489 446.657 125.973C443.168 129.745 439.444 133.321 435.439 136.57C425.271 144.816 413.592 150.77 401.536 155.019C398.662 156.033 395.755 156.951 392.824 157.771C384.37 160.138 375.739 161.727 367.031 162.61C355.414 163.787 343.648 163.698 331.704 162.92C319.829 162.144 307.639 161.1 296.235 159.305C277.326 156.328 259.139 149.864 240.192 148.35C227.225 147.313 213.531 148.649 201.696 153.792C196.238 156.162 191.175 159.343 186.759 163.475C169.254 179.863 166.358 206.242 163.292 230.153C162.989 232.512 162.666 234.883 162.319 237.26C156.872 274.502 144.921 312.634 115.173 334.829C108.628 339.713 101.288 343.884 93.6383 347.339C82.7079 352.275 71.6739 356.149 62.1465 362.37C61.3944 362.862 60.6509 363.367 59.9164 363.889C48.8019 371.784 40.7249 383.211 36.3983 396.094C31.7952 409.794 31.4678 425.262 36.9807 439.194" stroke="white" stroke-miterlimit="10"/>
<path d="M462.726 92.3105C448.733 120.666 422.136 141.804 392.309 152.299C362.481 162.795 329.695 163.206 298.712 156.896C279.24 152.931 260.241 146.377 240.467 144.417C220.692 142.458 199.21 145.79 184.504 159.156C166.1 175.881 162.952 203.103 159.597 227.745C154.08 268.268 142.368 312.165 108.667 335.332C91.8805 346.872 71.083 352.054 55.507 365.182C33.9109 383.382 26.4463 416.445 38.1285 442.159" stroke="white" stroke-miterlimit="10"/>
</g>
</svg>
