<svg width="44" height="44" viewBox="0 0 44 44" fill="none" xmlns="http://www.w3.org/2000/svg">
<g clip-path="url(#clip0_40_60)">
<g clip-path="url(#clip1_40_60)">
<path d="M22 44C34.1503 44 44 34.1503 44 22C44 9.84974 34.1503 0 22 0C9.84974 0 0 9.84974 0 22C0 34.1503 9.84974 44 22 44Z" fill="#4DB6AC"/>
<path d="M32.2927 19.25H22.5225C22.3168 19.25 22.1837 19.0322 22.2783 18.8485L27.8113 8.12899C27.9543 7.85069 27.5968 7.58779 27.3735 7.80669L11.7535 23.1781C11.5786 23.3508 11.7007 23.6489 11.946 23.6489H22.22C22.4422 23.6489 22.572 23.8986 22.4455 24.0812L14.6069 35.3727C14.4199 35.6422 14.7763 35.9535 15.0183 35.7324L32.4786 19.7274C32.6634 19.558 32.5435 19.25 32.2927 19.25Z" fill="white"/>
</g>
</g>
<defs>
<clipPath id="clip0_40_60">
<rect width="44" height="44" fill="white"/>
</clipPath>
<clipPath id="clip1_40_60">
<rect width="44" height="44" fill="white"/>
</clipPath>
</defs>
</svg>
