<svg width="117" height="42" viewBox="0 0 117 42" fill="none" xmlns="http://www.w3.org/2000/svg">
<rect width="117" height="42.0006" fill="#F3F3F3"/>
<rect x="0.5" y="0.5" width="116" height="41.0006" stroke="#000248" stroke-opacity="0.1"/>
<path d="M36.1802 8H40.4582V34H36.1802V8Z" fill="#17313B"/>
<path d="M55.3385 25.7599C55.3385 29.7881 51.9905 30.1543 50.8745 30.1543C48.2705 30.1543 47.8985 27.774 47.8985 26.4923V16.4219H43.6205V26.3092C43.6205 28.6895 44.3645 30.8867 45.8525 32.1684C47.1545 33.45 48.8285 33.9993 50.8745 33.9993C52.3625 33.9993 54.2225 33.6331 55.3385 32.5346V33.9993H59.6164V16.4219H55.3385V25.7599Z" fill="#17313B"/>
<path d="M67.9862 10.0146H63.7082V16.4231H60.5462V20.4513H63.7082V34.0006H67.9862V20.4513H71.1481V16.4231H67.9862V10.0146Z" fill="#17313B"/>
<path d="M84.5405 28.6904C83.6105 29.4228 82.3085 29.9721 81.0065 29.9721C78.0305 29.9721 75.9845 27.7749 75.9845 24.8454C75.9845 21.9158 78.0305 19.9017 81.0065 19.9017C82.3085 19.9017 83.6105 20.2679 84.5405 21.1834L85.0985 21.7327L88.0745 18.9862L87.3305 18.4369C85.6565 16.9721 83.4245 16.0566 81.0065 16.0566C75.7985 16.0566 71.8925 19.9017 71.8925 25.0285C71.8925 30.1552 75.7985 34.0003 81.0065 34.0003C83.4245 34.0003 85.6565 33.0848 87.3305 31.62L88.0745 31.0707L85.0985 28.1411L84.5405 28.6904Z" fill="#17313B"/>
<path d="M103.14 17.8873C101.838 16.6056 100.536 16.0563 98.49 16.0563C97.002 16.0563 95.514 16.4225 94.398 17.5211V8H90.1201V34H94.398V24.2958C94.398 20.2676 97.188 19.9014 98.304 19.9014C100.908 19.9014 100.722 22.2817 100.722 23.5634V33.8169H105V23.7465C105 21.3662 104.442 19.169 103.14 17.8873Z" fill="#17313B"/>
<path d="M80.8202 27.9588C82.4638 27.9588 83.7962 26.6472 83.7962 25.0292C83.7962 23.4112 82.4638 22.0996 80.8202 22.0996C79.1766 22.0996 77.8442 23.4112 77.8442 25.0292C77.8442 26.6472 79.1766 27.9588 80.8202 27.9588Z" fill="#EF4335"/>
<path d="M30.228 27.5916C28.74 29.0564 26.508 29.9719 24.09 29.9719C19.44 29.9719 16.092 26.3099 16.092 21.3663C16.092 16.4226 19.44 12.7607 24.276 12.7607C26.508 12.7607 28.74 13.6761 30.414 15.324L30.972 15.8733L33.7619 13.1268L33.2039 12.5776C30.786 10.1973 27.624 8.91558 24.276 8.91558C17.208 8.73248 12 14.2254 12 21.3663C12 28.5071 17.208 34.0001 24.09 34.0001C27.438 34.0001 30.786 32.7184 33.0179 30.3381L33.5759 29.7888L30.786 27.0423L30.228 27.5916Z" fill="#17313B"/>
</svg>
