<svg width="180" height="72" viewBox="0 0 180 72" fill="none" xmlns="http://www.w3.org/2000/svg">
<path d="M133.439 38.8867C134.085 38.8867 134.73 38.8954 135.375 38.8824C135.641 38.8771 135.912 38.8516 136.17 38.7903C136.636 38.6799 136.81 38.4664 136.792 37.9936C136.781 37.6956 136.73 37.3879 136.634 37.1058C135.915 35.0114 135.186 32.9207 134.447 30.8336C134.31 30.4484 134.142 30.0677 133.937 29.7148C133.679 29.2712 133.306 29.2646 133.01 29.6877C132.849 29.9194 132.718 30.1825 132.625 30.4499C131.85 32.6576 131.086 34.8689 130.324 37.0816C130.243 37.3177 130.174 37.5618 130.14 37.8081C130.067 38.332 130.302 38.6712 130.817 38.7895C131.059 38.845 131.311 38.8771 131.559 38.8824C132.186 38.8947 132.812 38.8867 133.439 38.8867ZM89.2371 34.2185C89.7743 34.2185 90.3128 34.2434 90.8477 34.2112C91.3446 34.182 91.8533 34.1476 92.3304 34.019C93.8037 33.6222 94.6638 32.3616 94.6536 30.8752C94.6434 29.421 93.7643 28.1297 92.2047 27.7862C91.8065 27.6985 91.3914 27.6584 90.983 27.6554C89.6799 27.6452 88.3755 27.6364 87.0732 27.681C86.4455 27.7029 86.0736 28.031 86.0531 28.6529C86.0027 30.17 86.0121 31.6908 86.0487 33.2086C86.0612 33.7187 86.417 34.0497 86.9337 34.1498C87.1427 34.1908 87.3582 34.2134 87.5709 34.217C88.1256 34.2258 88.6809 34.22 89.2356 34.22M52.8935 29.2924C52.3001 29.3245 51.6906 29.3311 51.0878 29.3991C50.5361 29.4604 50.3153 29.7747 50.3883 30.3235C50.4285 30.6224 50.4936 30.9205 50.5806 31.2099C51.4115 33.9905 51.4853 36.7981 50.8787 39.6255C50.7369 40.2876 50.5053 40.9293 50.346 41.5876C50.1641 42.3403 50.4644 42.7386 51.2324 42.751C52.3571 42.7686 53.4825 42.7686 54.6072 42.7495C55.1903 42.7401 55.4307 42.4039 55.3139 41.8164C55.2582 41.5372 55.1793 41.2617 55.0931 40.9906C54.7218 39.8287 54.5093 38.6331 54.4215 37.4223C54.2637 35.2489 54.461 33.107 55.1027 31.0141C55.191 30.7269 55.2524 30.4229 55.2656 30.124C55.2875 29.6176 55.137 29.4436 54.6218 29.3917C54.054 29.3347 53.481 29.3252 52.895 29.2938M146.623 47.1459C146.88 47.0092 146.947 46.7622 146.976 46.5145C147.028 46.0542 147.084 45.5908 147.084 45.129C147.092 39.8857 147.09 34.6424 147.088 29.3998C147.088 29.2215 147.087 29.041 147.056 28.8663C146.922 28.099 146.579 27.7862 145.806 27.7132C145.717 27.7044 145.627 27.7102 145.537 27.7102C143.925 27.7102 142.314 27.7081 140.702 27.7132C140.508 27.7139 140.307 27.7358 140.12 27.7848C139.721 27.8878 139.54 28.1129 139.569 28.5251C139.59 28.8239 139.658 29.1272 139.757 29.41C140.156 30.5559 140.575 31.6952 140.988 32.8366C142.348 36.5979 143.702 40.3606 145.071 44.1183C145.364 44.9221 145.696 45.7129 146.03 46.5013C146.146 46.7754 146.285 47.0604 146.623 47.1474M45.0245 36.2172C45.0194 34.741 44.8776 33.468 44.4969 32.2294C44.0738 30.8533 43.3913 29.6249 42.3053 28.6617C41.0571 27.5546 39.5721 27.122 37.9097 27.1154C35.0625 27.1044 32.9952 28.6792 31.9041 31.1135C31.3949 32.2498 31.1303 33.4432 31.0244 34.6847C30.8651 36.5394 30.9936 38.3577 31.5944 40.1268C32.0387 41.4364 32.7293 42.5998 33.8034 43.4935C35.0406 44.5216 36.492 44.9323 38.088 44.9076C40.7144 44.8666 42.6203 43.666 43.8494 41.3662C44.7395 39.6993 44.9967 37.8906 45.0245 36.2172ZM13.0495 27.1183C11.9591 27.0876 10.7168 27.4398 9.61189 28.2086C8.10649 29.2566 7.22737 30.7408 6.72825 32.4756C6.34021 33.8246 6.24667 35.2 6.28833 36.5994C6.32851 37.9542 6.53241 39.2703 7.05564 40.5199C8.0853 42.9783 9.82381 44.5831 12.5635 44.8651C15.2345 45.1399 17.3333 44.1921 18.6947 41.8156C18.9695 41.3362 19.1814 40.821 19.4453 40.3344C19.7382 39.795 20.1672 39.5845 20.781 39.6855C21.5922 39.8191 22.3983 39.9873 23.2094 40.1253C23.5427 40.1817 23.8847 40.2364 24.2193 40.224C24.6921 40.2057 24.9297 39.9382 24.9356 39.4611C24.9399 39.1219 24.9231 38.7799 24.8771 38.4453C24.6929 37.1139 24.6338 35.7816 24.7931 34.4436C24.8603 33.8772 24.9392 33.3116 24.9939 32.7438C25.0619 32.0415 24.8025 31.4796 23.8773 31.6286C23.2598 31.728 22.6475 31.8552 22.0299 31.956C21.4314 32.054 20.8314 32.1541 20.2286 32.2162C19.8209 32.2586 19.4949 32.0584 19.2924 31.7047C19.142 31.4423 19.0184 31.1639 18.8979 30.8862C18.4491 29.8507 17.8155 28.954 16.9211 28.2547C15.86 27.4252 14.633 27.1154 13.0495 27.1183ZM79.9737 35.949C79.9737 35.0005 79.979 34.0519 79.9701 33.1034C79.9673 32.8381 79.9439 32.5692 79.8935 32.309C79.7897 31.7682 79.5171 31.5205 78.9675 31.5424C78.4881 31.5614 78.0102 31.6476 77.5359 31.7317C76.7613 31.8691 75.9918 32.0357 75.2187 32.1767C74.2043 32.3616 73.8258 32.1512 73.4078 31.2121C73.2551 30.8694 73.0994 30.5266 72.9204 30.1971C72.335 29.117 71.5392 28.2094 70.4102 27.7102C68.2521 26.7573 66.1146 26.8742 64.1036 28.1334C62.6822 29.0227 61.7987 30.3651 61.2732 31.9305C60.4505 34.3822 60.4227 36.8727 61.0439 39.3712C61.4231 40.8963 62.1495 42.2322 63.3267 43.2991C64.6136 44.4646 66.1482 44.9302 67.862 44.9061C70.0593 44.8747 71.7497 43.9407 72.9021 42.0744C73.2287 41.5446 73.4706 40.9635 73.7688 40.4148C74.1123 39.7819 74.5083 39.589 75.2193 39.6934C75.6081 39.7504 75.9947 39.825 76.3806 39.8967C77.1362 40.0377 77.8881 40.1998 78.6467 40.3219C79.3635 40.4367 79.7772 40.1298 79.9052 39.4282C79.9431 39.2191 79.9686 39.0058 79.9701 38.7939C79.9767 37.8453 79.9737 36.8976 79.9737 35.949ZM138.875 25.4375C139.209 25.0604 139.129 24.5657 139.234 24.1236C139.25 24.0549 139.235 23.9804 139.244 23.9095C139.342 23.0742 139.731 22.7088 140.576 22.6606C140.7 22.6533 140.826 22.6591 140.952 22.6591C147.118 22.6591 153.285 22.635 159.45 22.681C160.589 22.6898 161.724 22.6949 162.863 22.6825C167.827 22.6277 172.793 22.6584 177.758 22.6613C177.971 22.6613 178.188 22.6679 178.397 22.7081C179.031 22.8301 179.357 23.1612 179.378 23.7969C179.408 24.7272 179.406 25.6597 179.378 26.59C179.36 27.1702 178.995 27.5407 178.413 27.6408C178.133 27.6898 177.845 27.7066 177.558 27.7073C174.744 27.7117 171.93 27.7102 169.116 27.7102C169.008 27.7102 168.902 27.7081 168.794 27.7102C167.892 27.7343 167.45 28.0442 167.39 28.916C167.321 29.9281 167.354 30.9534 167.427 31.9663C167.478 32.6642 167.865 32.9652 168.551 33.031C168.711 33.0464 168.873 33.0368 169.035 33.0368C171.401 33.0368 173.768 33.0347 176.133 33.0398C176.58 33.0398 177.027 33.0588 177.474 33.088C178.109 33.1304 178.548 33.4797 178.587 34.1111C178.643 35.0194 178.635 35.9358 178.587 36.8449C178.559 37.3981 178.215 37.7028 177.662 37.8081C177.417 37.8541 177.165 37.8709 176.916 37.8709C174.353 37.8753 171.789 37.8724 169.226 37.8753C168.959 37.8753 168.687 37.8877 168.423 37.9249C167.829 38.0068 167.535 38.2896 167.42 38.8735C167.382 39.0649 167.349 39.2616 167.348 39.456C167.342 40.5484 167.34 41.641 167.348 42.7335C167.349 42.9637 167.387 43.1961 167.432 43.4226C167.525 43.872 167.819 44.1505 168.257 44.2411C168.551 44.3025 168.86 44.3178 169.163 44.3185C172.175 44.3236 175.185 44.3208 178.197 44.3229C178.41 44.3229 178.628 44.331 178.839 44.3572C179.535 44.4435 179.886 44.6941 179.94 45.384C180.017 46.3428 180.018 47.3154 179.951 48.2749C179.903 48.9619 179.562 49.2133 178.865 49.3192C178.653 49.3506 178.437 49.3704 178.224 49.3704C173.187 49.3734 168.15 49.374 163.113 49.3689C162.812 49.3689 162.504 49.3396 162.21 49.2754C161.768 49.179 161.486 48.8902 161.412 48.4372C161.364 48.139 161.325 47.8357 161.325 47.5354C161.319 41.4642 161.322 35.3921 161.318 29.3209C161.318 29.0191 161.306 28.7085 161.24 28.4162C161.127 27.9251 160.883 27.7241 160.377 27.6905C160.058 27.6686 159.735 27.7095 159.414 27.7102C157.962 27.7132 156.51 27.711 155.058 27.711C154.95 27.711 154.844 27.7095 154.736 27.711C153.771 27.73 153.363 28.0954 153.26 29.041C153.242 29.2003 153.254 29.3632 153.254 29.524C153.254 35.542 153.254 41.5599 153.252 47.5771C153.252 47.827 153.249 48.0798 153.213 48.3268C153.128 48.9063 152.819 49.2088 152.24 49.3105C152.118 49.3324 151.994 49.3675 151.869 49.366C150.563 49.3513 149.25 49.4011 147.952 49.2849C147.158 49.2133 146.396 49.2768 145.614 49.317C144.348 49.3821 143.075 49.3338 141.806 49.309C141.232 49.2981 140.819 48.9838 140.607 48.4591C140.279 47.6479 139.985 46.8229 139.675 46.0044C139.511 45.5704 139.35 45.1348 139.174 44.7051C138.899 44.0292 138.373 43.7259 137.657 43.7215C137.603 43.7215 137.55 43.7215 137.496 43.7215C134.807 43.7215 132.118 43.7208 129.43 43.7215C128.505 43.7215 128.043 44.0145 127.707 44.8768C127.376 45.7252 127.085 46.5898 126.771 47.4448C126.648 47.7795 126.523 48.1156 126.372 48.4386C126.138 48.9421 125.755 49.2645 125.178 49.3098C124.911 49.3309 124.644 49.3668 124.377 49.3668C117.476 49.3696 110.575 49.3704 103.674 49.3668C103.353 49.3668 103.031 49.309 102.71 49.3119C101.944 49.32 101.177 49.3602 100.411 49.366C99.2276 49.3762 98.0444 49.3558 96.8613 49.3726C95.9069 49.3864 95.1849 49.0408 94.6557 48.2158C93.1686 45.897 91.6553 43.5951 90.1403 41.2939C89.7873 40.7575 89.4008 40.243 89.0069 39.7359C88.5275 39.1176 87.1785 39.0957 86.6472 39.3565C86.2943 39.5305 86.1072 39.8214 86.0393 40.1875C85.9968 40.414 85.9947 40.6507 85.9947 40.8825C85.9917 43.1215 85.9953 45.3598 85.9889 47.5983C85.9889 47.8818 85.9559 48.169 85.9062 48.4489C85.8207 48.9238 85.5095 49.1994 85.0476 49.2958C84.8217 49.3426 84.5864 49.363 84.3555 49.3645C83.4413 49.3719 82.5272 49.3675 81.6129 49.3675C81.5771 49.3675 81.5414 49.3675 81.5055 49.3675C80.3984 49.3375 79.9869 48.9319 79.9724 47.827C79.9607 46.9494 79.979 46.0717 79.965 45.1939C79.9599 44.8572 79.9029 44.521 79.8635 44.1855C79.8554 44.1162 79.824 44.0488 79.7955 43.9839C79.626 43.5892 79.4082 43.5169 79.1049 43.8106C78.7988 44.1081 78.5225 44.4414 78.266 44.784C77.6835 45.5616 77.0171 46.258 76.29 46.8975C74.6778 48.3151 72.7947 49.1803 70.6871 49.5487C68.0921 50.0017 65.5205 49.9243 63 49.0927C61.3302 48.5424 59.8235 47.6983 58.5533 46.4743C58.0023 45.9438 57.5105 45.3519 56.9895 44.7898C56.8193 44.6065 56.6577 44.4106 56.4633 44.2572C56.1483 44.0086 55.8722 44.0818 55.7676 44.464C55.6697 44.8213 55.6178 45.1977 55.5981 45.5689C55.5704 46.087 55.601 46.6074 55.5864 47.1262C55.5798 47.3731 55.5389 47.6217 55.4921 47.8657C55.403 48.3268 55.0887 48.5694 54.6488 48.6535C54.4223 48.6973 54.1877 48.7192 53.9568 48.7215C53.1149 48.7294 52.2723 48.7243 51.4305 48.7243C51.3405 48.7243 51.2507 48.7273 51.1616 48.7192C50.2394 48.6352 49.9338 48.3451 49.8578 47.4171C49.8089 46.8127 49.8183 46.2039 49.7781 45.5982C49.7585 45.2985 49.7256 44.9893 49.6277 44.7094C49.4997 44.3448 49.2572 44.2732 48.9597 44.5246C48.5936 44.8345 48.2604 45.1896 47.9418 45.5499C46.0067 47.7393 43.5798 49.065 40.7217 49.5714C38.1998 50.0178 35.6948 49.9083 33.2532 49.0605C30.7583 48.1938 28.7444 46.6833 27.2258 44.5216C26.9787 44.1709 26.7507 43.8055 26.5278 43.4394C25.887 42.3841 25.4288 42.3951 24.7557 43.4482C24.3231 44.1249 23.8811 44.8023 23.3709 45.4198C21.4578 47.7334 19.0067 49.1446 16.034 49.6027C13.6743 49.9666 11.3307 49.9045 9.02142 49.2133C7.19083 48.6652 5.5656 47.7685 4.16397 46.4662C1.89492 44.3595 0.646745 41.7265 0.210473 38.6974C0.0708957 37.7137 -0.0175281 36.7075 0.00293364 35.713C0.0613956 32.8995 0.683285 30.2307 2.24422 27.8345C4.05361 25.0561 6.61206 23.3402 9.81139 22.5955C12.581 21.9503 15.3507 22.0328 18.0794 22.8718C19.6797 23.3643 21.0741 24.2018 22.2762 25.3791C23.2584 26.3415 24.0791 27.4114 24.7134 28.6288C24.812 28.8181 24.9311 29.0008 25.0641 29.1681C25.3835 29.5701 25.7102 29.5927 26.0558 29.2266C26.2136 29.0593 26.3459 28.8627 26.4606 28.6632C27.6108 26.6704 29.1419 25.0524 31.1501 23.9058C32.5311 23.1173 34.0125 22.6116 35.5866 22.377C37.8476 22.0402 40.0794 22.149 42.2724 22.8162C44.7059 23.5565 46.7075 24.9435 48.335 26.8867C48.5066 27.0913 48.6923 27.2915 48.9035 27.4523C49.2587 27.7241 49.5422 27.6291 49.67 27.1936C49.7445 26.9407 49.7666 26.6681 49.7826 26.4029C49.8177 25.8153 49.8213 25.2263 49.8608 24.6388C49.9148 23.832 50.2802 23.4403 51.0659 23.4191C52.1583 23.3906 53.253 23.3899 54.3462 23.4199C55.1144 23.441 55.517 23.8539 55.5674 24.6366C55.6053 25.2249 55.5704 25.8183 55.6002 26.408C55.6193 26.7792 55.6623 27.157 55.7582 27.5151C55.8801 27.9704 56.1557 28.0479 56.5064 27.7366C56.7725 27.5005 57.0135 27.2294 57.2351 26.9495C59.1752 24.4963 61.719 23.0384 64.7678 22.472C67.5587 21.9539 70.3232 22.0884 73.0124 23.0691C74.3577 23.5587 75.5424 24.3092 76.5728 25.3104C77.3087 26.0258 77.9606 26.8033 78.5408 27.6467C78.7125 27.8959 78.9075 28.1356 79.1268 28.3431C79.4301 28.6303 79.691 28.5711 79.8021 28.1619C79.908 27.7709 79.9556 27.3565 79.9665 26.951C79.9899 26.0558 79.968 25.1598 79.9752 24.2646C79.9848 23.0523 80.3838 22.6606 81.5939 22.6606C84.9102 22.6606 88.2264 22.6547 91.542 22.6635C92.8551 22.6664 94.1472 22.8367 95.385 23.2971C98.3441 24.3962 100.103 26.4723 100.56 29.6256C100.758 30.9973 100.644 32.3397 100.231 33.6485C99.6732 35.4155 98.5143 36.7162 96.957 37.6846C96.653 37.8732 96.3387 38.0478 96.053 38.2605C95.6379 38.5681 95.543 38.9035 95.7206 39.3792C95.7944 39.5779 95.9025 39.7687 96.0216 39.9448C97.5138 42.1533 99.0075 44.361 100.51 46.5621C100.71 46.8558 100.938 47.1408 101.198 47.382C101.595 47.7495 101.919 47.6509 102.05 47.1189C102.134 46.7761 102.162 46.413 102.162 46.0585C102.168 38.8947 102.166 31.7302 102.17 24.5665C102.17 24.3004 102.197 24.0322 102.237 23.7684C102.346 23.0515 102.681 22.7359 103.394 22.6642C103.537 22.6504 103.682 22.6591 103.825 22.6591C108.754 22.6591 113.684 22.6584 118.613 22.6606C118.826 22.6606 119.044 22.6686 119.252 22.7095C119.884 22.8338 120.204 23.1663 120.224 23.8064C120.253 24.7192 120.25 25.6334 120.226 26.5461C120.21 27.157 119.851 27.5392 119.247 27.6415C118.967 27.689 118.677 27.7051 118.392 27.7058C115.596 27.7102 112.799 27.7088 110.004 27.7088C109.878 27.7088 109.752 27.7058 109.627 27.7088C108.733 27.7351 108.288 28.0501 108.232 28.9248C108.166 29.9552 108.209 30.9965 108.276 32.0291C108.315 32.6284 108.65 32.8995 109.249 33.001C109.441 33.0339 109.64 33.0339 109.837 33.0339C112.256 33.0361 114.676 33.0332 117.096 33.0376C117.508 33.0383 117.919 33.0566 118.329 33.0858C118.961 33.1319 119.395 33.4848 119.433 34.1191C119.487 35.0275 119.48 35.9439 119.431 36.8529C119.402 37.4025 119.055 37.7022 118.497 37.8066C118.253 37.8519 118 37.8679 117.75 37.8687C115.205 37.8732 112.66 37.8694 110.115 37.8732C109.829 37.8732 109.541 37.8841 109.258 37.9236C108.668 38.0061 108.38 38.2896 108.265 38.8824C108.225 39.0913 108.195 39.3061 108.193 39.5181C108.186 40.5748 108.191 41.6314 108.191 42.6882C108.191 42.7423 108.187 42.7963 108.191 42.8497C108.282 43.8427 108.512 44.2338 109.643 44.3163C109.785 44.3266 109.93 44.3193 110.073 44.3193C113.066 44.3193 116.06 44.3221 119.053 44.317C119.636 44.317 120.187 44.3959 120.706 44.692C121.122 44.9287 121.435 44.863 121.652 44.434C121.966 43.815 122.229 43.1661 122.467 42.5136C123.967 38.4007 125.455 34.2843 126.945 30.1678C127.663 28.1852 128.376 26.2019 129.093 24.2193C129.159 24.0344 129.238 23.8547 129.313 23.6727C129.59 23.0033 130.109 22.6679 130.817 22.6628C132.591 22.6496 134.366 22.6474 136.14 22.6635C136.843 22.6701 137.367 23.0011 137.66 23.6639C137.863 24.1214 138.071 24.5774 138.305 25.0195C138.475 25.3418 138.522 25.3506 138.876 25.4361" fill="black"/>
</svg>
