<svg width="36" height="36" viewBox="0 0 36 36" fill="none" xmlns="http://www.w3.org/2000/svg">
<g clip-path="url(#clip0_109_3043)">
<path d="M19.1941 27.4777L21.7655 21.0491C21.9237 20.6536 21.8747 20.2041 21.6362 19.8513C21.3963 19.4985 20.9983 19.2863 20.5714 19.2863H5.80706L5.03864 17.4946C4.8365 17.0212 4.37193 16.7148 3.85714 16.7148H1.28571C0.575056 16.7148 0 17.2899 0 18.0006C0 18.7112 0.575056 19.2863 1.28571 19.2863H3.00963L6.53278 27.5066C6.73493 27.9799 7.1995 28.2863 7.71429 28.2863H13.5398L15.2696 30.3621C14.9076 30.6742 14.6096 31.057 14.4151 31.5006H11.2992C10.802 30.3672 9.67236 29.572 8.35714 29.572C6.58426 29.572 5.14286 31.0134 5.14286 32.7863C5.14286 34.5592 6.58426 36.0006 8.35714 36.0006C9.67236 36.0006 10.802 35.2054 11.2992 34.072H14.4151C14.9123 35.2054 16.0419 36.0006 17.3571 36.0006C19.13 36.0006 20.5714 34.5592 20.5714 32.7863C20.5714 31.2402 19.4747 29.9475 18.0184 29.6418L16.8888 28.2863H18C18.5261 28.2863 18.9982 27.9661 19.1941 27.4777Z" fill="#000248"/>
<path d="M14.4855 14.5156C13.6561 15.0886 12.6539 15.4282 11.5716 15.4282C10.4893 15.4282 9.48699 15.0887 8.65768 14.5157C7.34536 15.1319 6.42871 16.4564 6.42871 17.9996H16.7144C16.7144 16.4564 15.7977 15.1318 14.4855 14.5156Z" fill="#000248"/>
<path d="M11.571 14.144C13.7013 14.144 15.4282 12.4171 15.4282 10.2868C15.4282 8.15659 13.7013 6.42969 11.571 6.42969C9.44077 6.42969 7.71387 8.15659 7.71387 10.2868C7.71387 12.4171 9.44077 14.144 11.571 14.144Z" fill="#000248"/>
<path d="M35.5959 8.83834L33.1121 8.10987C32.9557 7.57735 32.7473 7.06743 32.4859 6.58952L33.7251 4.32179C33.8286 4.08017 33.7747 3.79986 33.5888 3.61395L32.386 2.41119C32.2002 2.22536 31.9199 2.17137 31.6782 2.27488L29.4105 3.51406C28.9326 3.25266 28.4227 3.04431 27.8901 2.88791L27.1617 0.404061C27.0641 0.160008 26.8276 0 26.5648 0H24.8638C24.601 0 24.3646 0.160008 24.2669 0.404061L23.5385 2.88791C23.0059 3.04431 22.496 3.25266 22.0181 3.51406L19.7504 2.27488C19.5088 2.17137 19.2284 2.22536 19.0426 2.41119L17.8399 3.61395C17.6539 3.79986 17.6 4.08017 17.7035 4.32179L18.9427 6.58952C18.6813 7.06743 18.4729 7.57735 18.3165 8.10987L16.4272 8.66398C16.5992 9.1768 16.7143 9.71568 16.7143 10.2857C16.7143 10.8557 16.5992 11.3946 16.4272 11.9075L18.3165 12.4616C18.4729 12.9941 18.6813 13.504 18.9427 13.9819L17.7035 16.2496C17.6 16.4913 17.6539 16.7716 17.8399 16.9574L19.0426 18.1602C19.2284 18.3461 19.5088 18.4001 19.7504 18.2965L22.0181 17.0573C22.496 17.3187 23.0059 17.5271 23.5385 17.6835L24.2669 20.1673C24.3646 20.4113 24.601 20.5714 24.8638 20.5714H26.5648C26.8276 20.5714 27.0641 20.4113 27.1617 20.1673L27.8901 17.6835C28.4227 17.5271 28.9326 17.3187 29.4105 17.0573L31.6782 18.2965C31.9199 18.4001 32.2002 18.3461 32.386 18.1602L33.5888 16.9574C33.7747 16.7716 33.8286 16.4913 33.7251 16.2496L32.4859 13.9819C32.7473 13.504 32.9557 12.9941 33.1121 12.4616L35.5959 11.7331C35.84 11.6355 36 11.399 36 11.1361V9.43522C36 9.17233 35.84 8.93597 35.5959 8.83834ZM25.7143 14.1429C23.5841 14.1429 21.8572 12.416 21.8572 10.2857C21.8572 8.15547 23.5841 6.42857 25.7143 6.42857C27.8446 6.42857 29.5714 8.15547 29.5714 10.2857C29.5714 12.416 27.8446 14.1429 25.7143 14.1429Z" fill="#2690D4"/>
<path d="M25.714 12.8577C27.1342 12.8577 28.2854 11.7064 28.2854 10.2863C28.2854 8.86611 27.1342 7.71484 25.714 7.71484C24.2938 7.71484 23.1426 8.86611 23.1426 10.2863C23.1426 11.7064 24.2938 12.8577 25.714 12.8577Z" fill="#2690D4"/>
</g>
<defs>
<clipPath id="clip0_109_3043">
<rect width="36" height="36" fill="white"/>
</clipPath>
</defs>
</svg>
