<svg width="36" height="36" viewBox="0 0 36 36" fill="none" xmlns="http://www.w3.org/2000/svg">
<g clip-path="url(#clip0_109_2994)">
<path d="M30.7745 11.3353C30.5018 11.0096 30.1012 10.8206 29.6751 10.8206H15.4393L15.1052 9.21038C15.0132 8.7623 14.7052 8.39004 14.2843 8.20679L11.6854 7.08543C11.4856 6.99926 11.2593 6.99926 11.0532 7.07567C10.8482 7.15667 10.6884 7.31522 10.5969 7.51341C10.5089 7.71792 10.5089 7.94196 10.5917 8.14532C10.6687 8.34351 10.8279 8.50724 11.0277 8.59398L13.5137 9.66421L15.7305 20.355C15.8804 21.0817 16.5254 21.6033 17.2728 21.6033H28.021C28.6891 21.6033 29.2739 21.1294 29.4082 20.4774L31.0611 12.5078C31.1491 12.0948 31.0408 11.6668 30.7745 11.3353ZM16.6134 15.2963L16.5161 14.8993C16.4258 14.5299 16.7078 14.1749 17.0899 14.1749H17.7377C18.0341 14.1749 18.2837 14.3915 18.323 14.6833L18.3763 15.0803C18.4244 15.4318 18.1482 15.7443 17.7916 15.7443H17.1871C16.9145 15.7443 16.6771 15.5594 16.6134 15.2963ZM18.176 18.5828H17.8825C17.6098 18.5828 17.3718 18.3978 17.3076 18.1347L17.1895 17.6516C17.0991 17.2822 17.3811 16.9272 17.7632 16.9272H18.11C18.4064 16.9272 18.6565 17.1437 18.6953 17.4356L18.7613 17.9175C18.8088 18.2703 18.5338 18.5828 18.176 18.5828ZM22.136 17.9968C22.136 18.3208 21.872 18.5828 21.5455 18.5828H20.5705C20.2753 18.5828 20.0246 18.3651 19.9852 18.0744L19.9204 17.5913C19.8723 17.2403 20.1485 16.9272 20.5057 16.9272H21.5455C21.872 16.9272 22.136 17.1891 22.136 17.5131V17.9968ZM22.136 15.1584C22.136 15.4824 21.872 15.7443 21.5455 15.7443H20.1873C19.8908 15.7443 19.6413 15.5278 19.6008 15.2371L19.5475 14.8396C19.5 14.488 19.7756 14.1755 20.1328 14.1755H21.5455C21.872 14.1755 22.136 14.4374 22.136 14.7614V15.1584ZM25.5437 17.5913L25.4777 18.0744C25.4389 18.3651 25.1882 18.5828 24.8924 18.5828H23.9186C23.5921 18.5828 23.3269 18.3208 23.3269 17.9968V17.5137C23.3269 17.1897 23.5921 16.9277 23.9186 16.9277H24.9584C25.3162 16.9277 25.5912 17.2408 25.5437 17.5913ZM25.9166 14.8396L25.8627 15.2371C25.8228 15.5278 25.5727 15.7443 25.2774 15.7443H23.9192C23.5926 15.7443 23.3275 15.4824 23.3275 15.1584V14.7614C23.3275 14.4374 23.5926 14.1755 23.9192 14.1755H25.3307C25.6879 14.1755 25.964 14.488 25.9166 14.8396ZM28.2735 17.6516L28.1554 18.1347C28.0911 18.3978 27.8543 18.5828 27.5816 18.5828H27.2881C26.9303 18.5828 26.6541 18.2703 26.7016 17.9181L26.7676 17.4361C26.807 17.1449 27.0577 16.9277 27.3529 16.9277H27.6997C28.083 16.9277 28.3644 17.2828 28.2735 17.6516ZM28.9474 14.8999L28.8495 15.2968C28.7853 15.5599 28.5485 15.7449 28.2758 15.7449H27.6714C27.3147 15.7449 27.0374 15.4324 27.086 15.0808L27.1399 14.6833C27.1787 14.3926 27.4294 14.1761 27.7252 14.1761H28.3725C28.7563 14.1755 29.0377 14.5305 28.9474 14.8999Z" fill="#2690D4"/>
<path d="M18.8856 23.0156C17.917 23.0156 17.1313 23.7952 17.1313 24.7563C17.1313 25.7173 17.9164 26.4969 18.8856 26.4969C19.8542 26.4969 20.6398 25.7179 20.6398 24.7563C20.6398 23.7952 19.8542 23.0156 18.8856 23.0156ZM18.8856 25.321C18.5712 25.321 18.3165 25.0682 18.3165 24.7563C18.3165 24.4443 18.5712 24.1916 18.8856 24.1916C19.1999 24.1916 19.4547 24.4443 19.4547 24.7563C19.4553 25.0682 19.1999 25.321 18.8856 25.321Z" fill="#2690D4"/>
<path d="M26.2288 23.0156C25.2602 23.0156 24.4746 23.7952 24.4746 24.7563C24.4746 25.7173 25.2602 26.4969 26.2288 26.4969C27.1974 26.4969 27.9831 25.7179 27.9831 24.7563C27.9825 23.7952 27.1974 23.0156 26.2288 23.0156ZM26.2288 25.321C25.9145 25.321 25.6597 25.0682 25.6597 24.7563C25.6597 24.4443 25.9145 24.1916 26.2288 24.1916C26.5432 24.1916 26.7979 24.4443 26.7979 24.7563C26.7979 25.0682 26.5432 25.321 26.2288 25.321Z" fill="#2690D4"/>
<path d="M27.9433 8.92604V2.58165C27.9433 1.15812 26.7825 0 25.3461 0H7.50867C6.06998 0 4.90918 1.15812 4.90918 2.58165V33.4207C4.90918 34.8442 6.06998 36 7.50867 36H25.3461C26.7825 36 27.9433 34.8442 27.9433 33.4207V28.4854H8.38115V4.93983H24.4713V8.92604H27.9433ZM16.428 30.3421C17.4012 30.3421 18.1903 31.1251 18.1903 32.0931C18.1903 33.0628 17.4012 33.8481 16.428 33.8481C15.4548 33.8481 14.6616 33.0628 14.6616 32.0931C14.6616 31.1251 15.4548 30.3421 16.428 30.3421ZM20.1344 3.39624H12.7181C12.5282 3.39624 12.38 3.11647 12.38 2.77237C12.38 2.43056 12.5282 2.1531 12.7181 2.1531H20.1344C20.3226 2.1531 20.4725 2.43056 20.4725 2.77237C20.4725 3.11647 20.322 3.39624 20.1344 3.39624Z" fill="#000248"/>
</g>
<defs>
<clipPath id="clip0_109_2994">
<rect width="36" height="36" fill="white"/>
</clipPath>
</defs>
</svg>
