<svg width="10" height="20" viewBox="0 0 10 20" fill="none" xmlns="http://www.w3.org/2000/svg">
<path d="M10 15C10 16.3833 9.51233 17.5623 8.537 18.537C7.56167 19.5117 6.38267 19.9993 5 20C3.61733 20.0007 2.43833 19.513 1.463 18.537C0.487667 17.561 0 16.382 0 15L0 12C0 11.7167 0.0960001 11.479 0.288 11.287C0.48 11.095 0.717333 10.9993 1 11C1.28267 11.0007 1.52033 11.0967 1.713 11.288C1.90567 11.4793 2.00133 11.7167 2 12V15C2 15.8333 2.29167 16.5417 2.875 17.125C3.45833 17.7083 4.16667 18 5 18C5.83333 18 6.54167 17.7083 7.125 17.125C7.70833 16.5417 8 15.8333 8 15V12C8 11.7167 8.096 11.479 8.288 11.287C8.48 11.095 8.71733 10.9993 9 11C9.28267 11.0007 9.52033 11.0967 9.713 11.288C9.90567 11.4793 10.0013 11.7167 10 12V15ZM6 13C6 13.2833 5.904 13.5207 5.712 13.712C5.52 13.9033 5.28267 13.9993 5 14C4.71733 14.0007 4.48 13.9047 4.288 13.712C4.096 13.5193 4 13.282 4 13L4 7C4 6.71667 4.096 6.479 4.288 6.287C4.48 6.095 4.71733 5.99933 5 6C5.28267 6.00067 5.52033 6.09667 5.713 6.288C5.90567 6.47933 6.00133 6.71667 6 7L6 13ZM10 8C10 8.28333 9.904 8.52067 9.712 8.712C9.52 8.90333 9.28267 8.99933 9 9C8.71733 9.00067 8.48 8.90467 8.288 8.712C8.096 8.51933 8 8.282 8 8L8 5C8 4.16667 7.70833 3.45833 7.125 2.875C6.54167 2.29167 5.83333 2 5 2C4.16667 2 3.45833 2.29167 2.875 2.875C2.29167 3.45833 2 4.16667 2 5V8C2 8.28333 1.904 8.52067 1.712 8.712C1.52 8.90333 1.28267 8.99933 1 9C0.717333 9.00067 0.48 8.90467 0.288 8.712C0.0960001 8.51933 0 8.282 0 8L0 5C0 3.61666 0.487667 2.43733 1.463 1.462C2.43833 0.486666 3.61733 -0.000667572 5 0C6.38267 0.000667572 7.562 0.488333 8.538 1.463C9.514 2.43767 10.0013 3.61666 10 5L10 8Z" fill="#2690D4"/>
</svg>
