<svg width="36" height="36" viewBox="0 0 36 36" fill="none" xmlns="http://www.w3.org/2000/svg">
<g clip-path="url(#clip0_109_2978)">
<path fill-rule="evenodd" clip-rule="evenodd" d="M36 18.0026C36 17.2766 35.711 16.6281 35.2387 16.1558C34.7664 15.6835 34.1108 15.3874 33.3918 15.3874C32.6658 15.3874 32.0172 15.6764 31.5449 16.1558C31.263 16.4307 31.0445 16.7761 30.9176 17.1567H27.0264C26.9277 17.1567 26.8502 17.192 26.7797 17.2625C26.7163 17.333 26.681 17.4176 26.6881 17.5092C26.6951 17.6713 26.7022 17.8335 26.7022 18.0026C26.7022 18.1648 26.6951 18.3269 26.6881 18.489C26.681 18.5807 26.7163 18.6653 26.7797 18.7358C26.8502 18.8062 26.9277 18.8415 27.0264 18.8415H30.9176C31.0445 19.2292 31.263 19.5676 31.5449 19.8495C32.0172 20.3218 32.6658 20.6108 33.3918 20.6108C34.1108 20.6108 34.7594 20.3218 35.2316 19.8425L35.2387 19.8495C35.711 19.3772 36 18.7217 36 18.0026ZM0 18.0026C0 17.2766 0.296064 16.6281 0.768357 16.1558C1.24065 15.6835 1.89622 15.3874 2.61523 15.3874C3.33425 15.3874 3.98982 15.6764 4.46211 16.1558C4.73703 16.4307 4.95555 16.7761 5.08949 17.1567H8.50127C8.81144 17.1567 9.06521 17.4105 9.06521 17.7207V18.2846C9.06521 18.5948 8.81144 18.8415 8.50127 18.8415H5.08949C4.95555 19.2292 4.73703 19.5676 4.46211 19.8495C3.98982 20.3218 3.33425 20.6108 2.61523 20.6108C1.89622 20.6108 1.24065 20.3218 0.768357 19.8425C0.296064 19.3702 0 18.7217 0 18.0026ZM1.95966 17.3471C1.79048 17.5163 1.68475 17.7418 1.68475 18.0026C1.68475 18.2564 1.79048 18.489 1.95966 18.6512C2.12179 18.8133 2.35442 18.9261 2.61523 18.9261C2.869 18.9261 3.10163 18.8203 3.2708 18.6512C3.43294 18.489 3.53867 18.2564 3.53867 18.0026C3.53867 17.7418 3.43294 17.5163 3.2708 17.3471C3.10163 17.1779 2.869 17.0722 2.61523 17.0722C2.35442 17.0722 2.12179 17.1849 1.95966 17.3471ZM5.47719 28.7244V25.9964C5.47719 25.3761 5.65342 24.7839 5.97063 24.2834C6.29489 23.797 6.75308 23.4023 7.33816 23.1626L8.28275 22.7608C8.45898 22.6833 8.64931 22.6974 8.81144 22.8031C8.97357 22.9159 9.06521 23.078 9.06521 23.2754V23.8816C9.06521 24.1072 8.93127 24.3046 8.7198 24.3962L7.97259 24.7134C7.72587 24.8192 7.52144 24.9883 7.38751 25.1998C7.23948 25.4254 7.16194 25.6933 7.16194 25.9964V28.7244C7.54259 28.8513 7.888 29.0698 8.16996 29.3518C8.64226 29.8241 8.93127 30.4726 8.93127 31.1987C8.93127 31.9177 8.64226 32.5732 8.16996 33.0455C7.69062 33.5178 7.0421 33.8068 6.31604 33.8068C5.59702 33.8068 4.94145 33.5178 4.46916 33.0455C3.99687 32.5732 3.70785 31.9177 3.70785 31.1987C3.70785 30.4726 3.99687 29.8241 4.46916 29.3518C4.75113 29.0698 5.09653 28.8513 5.47719 28.7244ZM5.47719 7.28089V10.0089C5.47719 10.6292 5.65342 11.2143 5.97063 11.7148C6.29489 12.2082 6.75308 12.603 7.33816 12.8427L8.28275 13.2445C8.45898 13.315 8.64931 13.3009 8.81144 13.1951C8.97357 13.0894 9.06521 12.9202 9.06521 12.7228V12.1237C9.06521 11.891 8.93127 11.6937 8.7198 11.602L7.97259 11.2848C7.72587 11.1791 7.52144 11.0099 7.38751 10.7984C7.23948 10.5799 7.16194 10.305 7.16194 10.0089V7.28089C7.54259 7.14696 7.888 6.92843 8.16996 6.65352C8.64226 6.18122 8.93127 5.52565 8.93127 4.80664C8.93127 4.08058 8.64226 3.43206 8.16996 2.95976C7.69062 2.48042 7.0421 2.19141 6.31604 2.19141C5.59702 2.19141 4.94145 2.48042 4.46916 2.95976C3.99687 3.43206 3.70785 4.08058 3.70785 4.80664C3.70785 5.52565 3.99687 6.18122 4.46916 6.65352C4.75113 6.92843 5.09653 7.14696 5.47719 7.28089ZM5.66752 5.45516C5.49834 5.29303 5.3926 5.06041 5.3926 4.80664C5.3926 4.54582 5.49834 4.32025 5.66752 4.15107C5.82965 3.98189 6.06227 3.87615 6.31604 3.87615C6.57686 3.87615 6.80948 3.98189 6.97161 4.15107C7.14079 4.32025 7.24652 4.54582 7.24652 4.80664C7.24652 5.06041 7.14079 5.29303 6.97161 5.45516C6.80948 5.62434 6.57686 5.73008 6.31604 5.73008C6.06227 5.73008 5.82965 5.62434 5.66752 5.45516ZM5.66752 30.5431C5.49834 30.7123 5.3926 30.9378 5.3926 31.1987C5.3926 31.4524 5.49834 31.685 5.66752 31.8542C5.82965 32.0164 6.06227 32.1221 6.31604 32.1221C6.57686 32.1221 6.80948 32.0164 6.97161 31.8542C7.14079 31.685 7.24652 31.4524 7.24652 31.1987C7.24652 30.9378 7.14079 30.7123 6.97161 30.5431C6.80948 30.3739 6.57686 30.2682 6.31604 30.2682C6.06227 30.2682 5.82965 30.3739 5.66752 30.5431ZM30.5299 28.7244V25.9964C30.5299 25.3761 30.3536 24.7839 30.0294 24.2834C29.7122 23.797 29.2469 23.4023 28.6689 23.1626L27.2661 22.5634C27.0899 22.4859 26.8996 22.507 26.7374 22.6128C26.5753 22.7185 26.4837 22.8877 26.4837 23.0851V23.6843C26.4837 23.9169 26.6176 24.1143 26.8291 24.2059L28.0274 24.7134C28.2812 24.8192 28.4786 24.9883 28.6195 25.1998C28.7605 25.4254 28.8381 25.6933 28.8381 25.9964V28.7244C28.4574 28.8513 28.112 29.0698 27.8371 29.3518C27.3648 29.8241 27.0687 30.4726 27.0687 31.1987C27.0687 31.9177 27.3648 32.5732 27.8371 33.0455C28.3094 33.5178 28.965 33.8068 29.684 33.8068C30.403 33.8068 31.0585 33.5178 31.5308 33.0455C32.0031 32.5732 32.2992 31.9177 32.2992 31.1987C32.2992 30.4726 32.0031 29.8241 31.5308 29.3518C31.2489 29.0698 30.9105 28.8513 30.5299 28.7244ZM30.5299 7.28089V10.0089C30.5299 10.6292 30.3536 11.2143 30.0294 11.7148C29.7122 12.2082 29.2469 12.603 28.6689 12.8427L27.7032 13.2515C27.534 13.322 27.3577 13.315 27.2027 13.2233C27.0405 13.1317 26.9418 12.9837 26.9207 12.8004C26.9066 12.6594 26.8714 12.5184 26.822 12.3845C26.7797 12.2576 26.7797 12.1307 26.822 12.0109C26.822 12.0038 26.8291 12.0038 26.8291 11.9968C26.8784 11.8417 26.9841 11.7289 27.1392 11.6655L28.0274 11.2848C28.2812 11.1791 28.4786 11.0099 28.6195 10.7984C28.7605 10.5799 28.8381 10.305 28.8381 10.0089V7.28089C28.4574 7.14696 28.112 6.92843 27.8371 6.65352C27.3648 6.18122 27.0687 5.52565 27.0687 4.80664C27.0687 4.08058 27.3648 3.43206 27.8371 2.95976C28.3094 2.48042 28.965 2.19141 29.684 2.19141C30.403 2.19141 31.0585 2.48042 31.5308 2.95976C32.0031 3.43206 32.2992 4.08058 32.2992 4.80664C32.2992 5.52565 32.0031 6.18122 31.5308 6.65352C31.2489 6.92843 30.9105 7.14696 30.5299 7.28089ZM30.3395 5.45516C30.5017 5.29303 30.6074 5.06041 30.6074 4.80664C30.6074 4.54582 30.5017 4.32025 30.3395 4.15107C30.1704 3.98189 29.9377 3.87615 29.684 3.87615C29.4302 3.87615 29.1976 3.98189 29.0284 4.15107C28.8592 4.32025 28.7605 4.54582 28.7605 4.80664C28.7605 5.06041 28.8592 5.29303 29.0284 5.45516C29.1976 5.62434 29.4302 5.73008 29.684 5.73008C29.9377 5.73008 30.1704 5.62434 30.3395 5.45516ZM30.3395 30.5431C30.5017 30.7123 30.6074 30.9378 30.6074 31.1987C30.6074 31.4524 30.5017 31.685 30.3395 31.8542C30.1704 32.0164 29.9377 32.1221 29.684 32.1221C29.4302 32.1221 29.1976 32.0164 29.0284 31.8542C28.8592 31.685 28.7605 31.4524 28.7605 31.1987C28.7605 30.9378 28.8592 30.7123 29.0284 30.5431C29.1976 30.3739 29.4302 30.2682 29.684 30.2682C29.9377 30.2682 30.1704 30.3739 30.3395 30.5431ZM34.0403 17.3471C34.2095 17.5163 34.3153 17.7418 34.3153 18.0026C34.3153 18.2564 34.2095 18.489 34.0403 18.6512C33.8782 18.8133 33.6456 18.9261 33.3918 18.9261C33.131 18.9261 32.8984 18.8203 32.7362 18.6512C32.5671 18.489 32.4613 18.2564 32.4613 18.0026C32.4613 17.7418 32.5671 17.5163 32.7362 17.3471C32.8984 17.1779 33.131 17.0722 33.3918 17.0722C33.6456 17.0722 33.8782 17.1849 34.0403 17.3471Z" fill="#2690D4"/>
<path fill-rule="evenodd" clip-rule="evenodd" d="M25.0313 8.34022C25.2851 8.39661 25.4824 8.62218 25.4824 8.8971V11.3361C25.4824 11.611 25.2851 11.8366 25.0313 11.893V12.4992C25.2851 12.5556 25.4824 12.7812 25.4824 13.0561V14.5082C25.4824 14.7761 25.2851 15.0087 25.0313 15.0651V28.9942C25.0313 30.2067 24.0374 31.1936 22.8249 31.1936H12.7164C11.511 31.1936 10.5171 30.2067 10.5171 28.9942V7.00793C10.5171 5.80252 11.511 4.80859 12.7164 4.80859H22.8249C24.0374 4.80859 25.0313 5.80252 25.0313 7.00793V8.34022ZM20.9357 6.93744L20.9287 6.95154C20.6044 7.45202 20.0898 7.73399 19.4977 7.73399H16.0577C15.4585 7.73399 14.944 7.45202 14.6197 6.95154L14.6126 6.93744H12.9772C12.6318 6.93744 12.3499 7.22645 12.3499 7.56481V28.4444C12.3499 28.7827 12.6318 29.0647 12.9772 29.0647H22.5782C22.9165 29.0647 23.1985 28.7827 23.1985 28.4444V7.56481C23.1985 7.2194 22.9165 6.93744 22.5782 6.93744H20.9357Z" fill="#000248"/>
<path fill-rule="evenodd" clip-rule="evenodd" d="M17.0662 13.4261V12.5168C17.0662 12.263 17.2707 12.0586 17.5244 12.0586H18.4761C18.7298 12.0586 18.9343 12.263 18.9343 12.5168L18.9413 13.3838C19.1457 13.4402 19.3501 13.5248 19.5334 13.6306C20.3159 14.0606 20.7741 14.8148 20.9292 15.6819C20.9503 15.8228 20.9151 15.9497 20.8234 16.0555C20.7318 16.1612 20.6119 16.2246 20.471 16.2246H19.6039C19.3995 16.2246 19.2233 16.0907 19.1598 15.8933C18.8567 14.8924 16.9464 14.7584 16.9464 16.0061C16.9464 16.6828 17.891 16.9507 18.4056 17.141C19.7942 17.6486 20.9785 18.1914 20.9785 19.8761C20.9785 21.1802 20.1397 22.1812 18.9343 22.5759V23.4782C18.9343 23.732 18.7298 23.9435 18.4761 23.9435H17.5244C17.2707 23.9435 17.0662 23.732 17.0662 23.4782L17.0592 22.6112C16.8548 22.5548 16.6574 22.4772 16.467 22.3715C15.6846 21.9345 15.2264 21.1802 15.0784 20.3131C15.0502 20.1792 15.0925 20.0453 15.1771 19.9395C15.2687 19.8338 15.3956 19.7774 15.5295 19.7774H16.4036C16.608 19.7774 16.7843 19.9043 16.8407 20.1017C17.1438 21.1097 19.0541 21.2366 19.0541 19.9889C19.0541 19.2699 17.9615 18.995 17.4328 18.7976C16.0934 18.3041 15.022 17.7191 15.022 16.1189C15.022 14.8219 15.8608 13.8138 17.0662 13.4261Z" fill="#2690D4"/>
</g>
<defs>
<clipPath id="clip0_109_2978">
<rect width="36" height="36" fill="white"/>
</clipPath>
</defs>
</svg>
