<svg width="24" height="24" viewBox="0 0 24 24" fill="none" xmlns="http://www.w3.org/2000/svg">
<g clip-path="url(#clip0_8564_2129)">
<g clip-path="url(#clip1_8564_2129)">
<path fill-rule="evenodd" clip-rule="evenodd" d="M2 0C0.895431 0 0 0.89543 0 2V22C0 23.1046 0.89543 24 2 24H9.16611C9.31469 23.873 9.37821 23.6854 9.37821 23.5106C9.37821 23.4025 9.37623 23.2075 9.37365 22.953C9.36881 22.475 9.36184 21.7873 9.36184 21.0717C6.07173 21.6773 5.22055 20.2696 4.95866 19.533C4.81134 19.1565 4.17296 17.9943 3.61642 17.6833C3.1581 17.4378 2.50335 16.8322 3.60005 16.8158C4.63128 16.7994 5.36787 17.7652 5.6134 18.158C6.79195 20.1386 8.67436 19.5821 9.42732 19.2384C9.5419 18.3872 9.88564 17.8143 10.2621 17.4869C7.34849 17.1595 4.30391 16.0301 4.30391 11.0213C4.30391 9.59719 4.81134 8.41864 5.64614 7.502C5.51519 7.17462 5.05687 5.83239 5.77709 4.03183C5.77709 4.03183 6.8738 3.68809 9.37821 5.37406C10.4258 5.07943 11.5389 4.93211 12.652 4.93211C13.765 4.93211 14.8781 5.07943 15.9257 5.37406C18.4301 3.67172 19.5268 4.03183 19.5268 4.03183C20.247 5.83239 19.7887 7.17462 19.6578 7.502C20.4926 8.41864 21 9.58082 21 11.0213C21 16.0465 17.939 17.1595 15.0254 17.4869C15.5001 17.8961 15.9093 18.6818 15.9093 19.9095C15.9093 21.0753 15.9021 22.0888 15.8972 22.7666C15.8948 23.1071 15.893 23.3628 15.893 23.5106C15.893 23.6826 15.9545 23.8711 16.098 24H22C23.1046 24 24 23.1046 24 22V2C24 0.895431 23.1046 0 22 0H2Z" fill="white"/>
</g>
</g>
<defs>
<clipPath id="clip0_8564_2129">
<rect width="24" height="24" fill="white"/>
</clipPath>
<clipPath id="clip1_8564_2129">
<rect width="24" height="24" fill="white"/>
</clipPath>
</defs>
</svg>
