<svg width="32" height="32" viewBox="0 0 32 32" fill="none" xmlns="http://www.w3.org/2000/svg">
<g clip-path="url(#clip0_1_2)">
<path d="M16.2917 13.46C16.2899 13.5169 16.2665 13.5708 16.2264 13.6104C16.1863 13.6499 16.1328 13.672 16.0771 13.672H13.8657C13.7208 13.672 13.5997 13.552 13.5997 13.406C13.5997 12.7472 13.3765 12.4264 12.9198 12.4264C12.4631 12.4264 12.1685 12.7128 12.1599 13.2132C12.1501 13.7712 12.4592 14.2784 13.3389 15.1496C14.497 16.2592 14.9612 17.242 14.9389 18.5412C14.9024 20.642 13.5038 22 11.3754 22C10.2885 22 9.45816 21.7032 8.9059 21.1176C8.34541 20.5228 8.08847 19.65 8.14213 18.5236C8.14396 18.4666 8.16744 18.4127 8.20757 18.3731C8.24771 18.3335 8.30137 18.3115 8.35716 18.3116H10.6445C10.6764 18.3121 10.7078 18.3198 10.7363 18.3342C10.7649 18.3486 10.79 18.3693 10.8098 18.3948C10.8271 18.4159 10.8398 18.4405 10.8469 18.467C10.8541 18.4935 10.8556 18.5212 10.8513 18.5484C10.8259 18.9548 10.8952 19.2584 11.0519 19.4264C11.1521 19.5352 11.292 19.5904 11.4663 19.5904C11.8889 19.5904 12.1364 19.2856 12.1458 18.7544C12.1537 18.2952 12.0115 17.8928 11.2367 17.0788C10.236 16.0804 9.33869 15.0488 9.3665 13.4268C9.38295 12.486 9.74878 11.6256 10.397 11.004C11.0824 10.3472 12.0197 9.99999 13.1078 9.99999C14.1978 10.008 15.0239 10.3256 15.5632 10.944C16.0739 11.53 16.3195 12.3764 16.2925 13.46H16.2917Z" fill="#00E559"/>
<path d="M23.146 21.6048L23.1605 10.4316C23.1609 10.4036 23.1559 10.3758 23.1456 10.3499C23.1354 10.3239 23.1201 10.3003 23.1008 10.2804C23.0815 10.2606 23.0585 10.2449 23.0332 10.2342C23.0079 10.2236 22.9807 10.2182 22.9533 10.2184H19.5308C19.4157 10.2184 19.3652 10.3196 19.3323 10.3864L14.3768 21.5364V21.5384L14.3748 21.5412C14.32 21.6784 14.4242 21.8252 14.5695 21.8252H16.9619C17.0911 21.8252 17.1769 21.7852 17.2188 21.702L17.6939 20.536C17.7523 20.3804 17.7632 20.366 17.9293 20.366H20.2151C20.3741 20.366 20.3773 20.3692 20.3749 20.528L20.3236 21.612C20.3232 21.6399 20.3282 21.6677 20.3384 21.6936C20.3487 21.7195 20.3639 21.7431 20.3831 21.763C20.4024 21.7828 20.4253 21.7986 20.4506 21.8093C20.4759 21.8199 20.503 21.8254 20.5304 21.8252H22.9474C22.9773 21.8256 23.007 21.8192 23.0343 21.8067C23.0615 21.7941 23.0858 21.7756 23.1053 21.7524C23.1221 21.7323 23.1345 21.7086 23.1415 21.6832C23.1485 21.6577 23.1501 21.6309 23.146 21.6048ZM18.912 17.8744C18.894 17.8745 18.8759 17.8738 18.858 17.8724C18.8496 17.8717 18.8414 17.8691 18.8341 17.8648C18.8268 17.8606 18.8205 17.8547 18.8157 17.8477C18.8108 17.8407 18.8075 17.8327 18.806 17.8242C18.8045 17.8158 18.8049 17.8071 18.807 17.7988C18.8117 17.7828 18.8184 17.7608 18.8282 17.734L20.5422 13.4028C20.5576 13.3601 20.5753 13.3183 20.5954 13.2776C20.6232 13.2192 20.6569 13.2152 20.6675 13.2584C20.6765 13.2944 20.4709 17.7056 20.4709 17.7056C20.4548 17.8708 20.4474 17.8776 20.288 17.8912L18.9136 17.8752H18.9104L18.9116 17.8744L18.912 17.8744Z" fill="#00E559"/>
<path d="M28.0216 10.2184H26.2046C26.1086 10.2184 26.0009 10.2704 25.9759 10.3872L23.4472 21.5992C23.4417 21.6245 23.4419 21.6507 23.4479 21.6759C23.4539 21.7011 23.4654 21.7245 23.4817 21.7444C23.5028 21.7697 23.529 21.7901 23.5585 21.804C23.5881 21.818 23.6203 21.8252 23.6528 21.8252H25.9238C26.046 21.8252 26.1294 21.764 26.1521 21.658L26.4279 20.3872C26.4474 20.288 26.4137 20.2112 26.3268 20.1648C26.286 20.1433 26.2453 20.1217 26.2046 20.1L25.811 19.8908L25.4193 19.682L25.2677 19.6016C25.2554 19.5953 25.245 19.5856 25.2379 19.5736C25.2308 19.5615 25.2271 19.5477 25.2274 19.5336C25.2279 19.5128 25.2364 19.493 25.251 19.4785C25.2657 19.4639 25.2853 19.4559 25.3057 19.456L26.5501 19.4616C26.9221 19.4636 27.2946 19.4368 27.6608 19.368C30.2381 18.882 31.9497 16.774 31.999 13.9056C32.0413 11.4576 30.7034 10.2172 28.0235 10.2172L28.0216 10.2184ZM27.4031 16.8904H27.3546C27.2453 16.8904 27.2261 16.8784 27.2229 16.8744C27.221 16.8716 27.9405 13.6452 27.9409 13.6408C27.9593 13.5476 27.9585 13.494 27.9021 13.4624C27.83 13.4216 26.7796 12.856 26.7796 12.856C26.7674 12.8494 26.7572 12.8395 26.7502 12.8274C26.7432 12.8152 26.7397 12.8013 26.74 12.7872C26.7405 12.7666 26.7489 12.7471 26.7633 12.7328C26.7777 12.7184 26.797 12.7104 26.8172 12.7104H28.4783C28.9953 12.7264 29.2835 13.1988 29.2698 14.0056C29.2459 15.402 28.5958 16.8416 27.4031 16.8908V16.8904Z" fill="#00E559"/>
<path d="M9.32591 15.632V15.6372L8.90486 17.5036C8.88214 17.6092 8.77874 17.6864 8.65967 17.6864H8.15089C8.13254 17.6865 8.11472 17.6926 8.10005 17.7038C8.08537 17.7151 8.07463 17.7308 8.06942 17.7488C7.60019 19.3744 6.96489 20.4916 6.12593 21.1624C5.4123 21.7336 4.5326 22 3.35718 22C2.30123 22 1.58916 21.6532 0.985199 20.9684C0.186966 20.0636 -0.142824 18.582 0.05693 16.7972C0.417271 13.4464 2.1191 10.0652 5.39585 10.0652C6.39266 10.0564 7.17522 10.3704 7.71965 10.9972C8.29541 11.6604 8.5876 12.6588 8.58917 13.966C8.58774 14.0233 8.56447 14.0778 8.52431 14.1178C8.48415 14.1578 8.43027 14.1803 8.37414 14.1804H5.97317C5.9311 14.1791 5.89113 14.1613 5.86147 14.1308C5.83182 14.1003 5.81475 14.0594 5.81376 14.0164C5.79418 13.1124 5.53176 12.6724 5.01005 12.6724C4.08961 12.6724 3.54675 13.9484 3.25887 14.6556C2.85662 15.6436 2.65177 16.7168 2.69212 17.7856C2.71131 18.2832 2.78964 18.9828 3.25221 19.2728C3.66229 19.5296 4.24746 19.3592 4.60192 19.0748C4.956 18.79 5.24113 18.2976 5.36099 17.8484C5.37783 17.786 5.379 17.7376 5.36295 17.716C5.3461 17.6936 5.29949 17.6884 5.26385 17.6884H4.64736C4.61472 17.6885 4.58246 17.6813 4.55283 17.6674C4.5232 17.6534 4.49691 17.633 4.4758 17.6076C4.45961 17.5878 4.44811 17.5644 4.4422 17.5393C4.43629 17.5141 4.43613 17.488 4.44173 17.4628L4.86317 15.5932C4.88393 15.4976 4.96892 15.4252 5.0735 15.4124V15.4076H9.1195C9.1289 15.4076 9.13869 15.4076 9.1477 15.4096C9.25267 15.4236 9.32669 15.5232 9.32473 15.632H9.32591Z" fill="#00E559"/>
</g>
<defs>
<clipPath id="clip0_1_2">
<rect width="32" height="12" fill="white" transform="translate(0 10)"/>
</clipPath>
</defs>
</svg>
