<svg width="32" height="32" viewBox="0 0 32 32" fill="none" xmlns="http://www.w3.org/2000/svg">
<path d="M15.6085 16.645C15.7295 16.7158 15.8649 16.751 16 16.751C16.135 16.751 16.2704 16.7158 16.3915 16.645L21.1695 13.8536C21.4119 13.7119 21.561 13.4501 21.561 13.1673V7.58396C21.561 7.30072 21.4116 7.03892 21.1695 6.89768L16.3918 4.10622C16.1494 3.96459 15.8509 3.96459 15.6085 4.10622L10.8305 6.89768C10.588 7.0393 10.439 7.30072 10.439 7.58396V13.1669C10.439 13.4497 10.5884 13.7119 10.8305 13.8532L15.6085 16.645ZM12.0057 8.95692L15.217 10.8332V14.5858L12.0057 12.7095V8.95692ZM16.7833 14.5858V10.8332L19.9946 8.95692V12.7095L16.7833 14.5858ZM16 5.70768L19.2113 7.58396L16 9.46025L12.7886 7.58396L16 5.70768Z" fill="#2690D4"/>
<path d="M9.16952 27.8946C9.29055 27.9654 9.42597 28.0007 9.561 28.0007C9.69604 28.0007 9.83145 27.9654 9.95249 27.8946L14.7305 25.1032C14.973 24.9616 15.122 24.6997 15.122 24.4169V18.834C15.122 18.5507 14.9726 18.2889 14.7305 18.1477L9.95249 15.3562C9.71003 15.2146 9.41159 15.2146 9.16914 15.3562L4.39149 18.1477C4.14903 18.2893 4 18.5507 4 18.834V24.4169C4 24.6997 4.14941 24.9619 4.39149 25.1032L9.16952 27.8946ZM5.5667 20.2069L8.77803 22.0832V25.8358L5.5667 23.9595V20.2069ZM10.3444 25.8354V22.0828L13.5557 20.2065V23.9591L10.3444 25.8354ZM9.56138 16.9577L12.7727 18.834L9.56138 20.7103L6.35005 18.834L9.56138 16.9577Z" fill="#2690D4"/>
<path d="M22.0476 27.8946C22.1686 27.9654 22.304 28.0007 22.4391 28.0007C22.5745 28.0007 22.7095 27.9654 22.8306 27.8946L27.6086 25.1032C27.851 24.9616 28.0001 24.6997 28.0001 24.4169V18.834C28.0001 18.5507 27.8507 18.2889 27.6086 18.1477L22.8306 15.3562C22.5881 15.2146 22.2897 15.2146 22.0472 15.3562L17.2692 18.1477C17.0267 18.2893 16.8777 18.5507 16.8777 18.834V24.4169C16.8777 24.6997 17.0271 24.9619 17.2692 25.1032L22.0476 27.8946ZM18.4444 20.2069L21.6557 22.0832V25.8358L18.4444 23.9595V20.2069ZM23.2224 25.8354V22.0828L26.4337 20.2065V23.9591L23.2224 25.8354ZM22.4391 16.9577L25.6504 18.834L22.4391 20.7103L19.2277 18.834L22.4391 16.9577Z" fill="#2690D4"/>
</svg>
