<svg width="36" height="36" viewBox="0 0 36 36" fill="none" xmlns="http://www.w3.org/2000/svg">
<g clip-path="url(#clip0_109_2963)">
<path d="M7.84738 10.455H10.0881L11.4773 8.36291C11.4986 8.33104 11.5222 8.29976 11.547 8.27085C11.56 8.25609 11.5729 8.24193 11.5865 8.22836C11.7181 8.09203 11.8881 8.00056 12.0746 7.96515L12.123 7.95807C12.1513 7.95394 12.179 7.9504 12.2073 7.94922C12.2215 7.94863 12.2351 7.94863 12.2492 7.94863H12.2557C12.5679 7.95099 12.8583 8.11092 13.0282 8.37353L14.3631 10.4437L15.9506 7.71434C15.9506 7.71434 16.7886 6.59602 17.6933 7.85361L19.8668 10.874L22.0073 8.40894C22.0073 8.40894 22.8311 7.28118 23.6136 8.31865L25.6207 10.982H27.8756C28.3159 10.1947 28.6505 9.35671 28.8576 8.48035C29.1763 7.13069 29.0718 6.30272 29.0465 6.14574C28.7225 2.58423 26.202 0.00059017 23.0471 0.00059017C20.9456 0.00059017 19.0211 1.1313 17.9382 2.94422C16.8653 1.1077 15.02 0 12.9521 0C9.7978 0 7.27671 2.58364 6.9539 6.14515C6.92852 6.30272 6.82348 7.1301 7.14216 8.48035C7.30326 9.16373 7.54286 9.82351 7.84738 10.455Z" fill="#2690D4"/>
<path d="M25.117 12.8335C24.8036 12.8335 24.5115 12.6747 24.3404 12.4121L22.9406 10.2581L20.426 13.0453C20.41 13.0766 20.403 13.1185 20.3729 13.1368C19.3714 13.7464 18.7016 12.8671 18.7016 12.8671L16.5753 10.0273L15.3631 12.7644C15.3112 12.8813 15.2374 12.9834 15.1466 13.0678C15.1165 13.0955 15.0846 13.1215 15.051 13.1451C14.917 13.2401 14.7582 13.2991 14.5883 13.3127C14.2495 13.3392 13.9214 13.1769 13.7373 12.8913L12.2389 10.5685L11.3573 11.8946C11.3136 11.9601 11.2634 12.0179 11.2079 12.0681C11.1985 12.0769 11.1885 12.0858 11.1784 12.0934C11.1454 12.1218 11.11 12.1471 11.0734 12.1696C11.0628 12.1761 11.0516 12.1831 11.0409 12.1884C11.0333 12.1938 11.025 12.1979 11.0173 12.202C11.0002 12.2109 10.9837 12.2197 10.9666 12.2268C10.9347 12.2416 10.9017 12.254 10.8686 12.2646C10.8515 12.2699 10.835 12.2752 10.8173 12.2799C10.8084 12.2823 10.799 12.284 10.7901 12.2858C10.7795 12.2888 10.7683 12.2905 10.7571 12.2929C10.7051 12.3029 10.6526 12.3088 10.6001 12.3088H9.01025C9.37083 12.7662 9.76918 13.2011 10.2124 13.6024L17.935 20.6104L25.7898 13.603C26.0589 13.3593 26.3073 13.1008 26.5457 12.8358H25.117V12.8335Z" fill="#2690D4"/>
<path d="M34.5407 24.8347C33.3256 22.6158 31.0601 24.1177 31.0601 24.1177L25.0359 27.498C24.8683 27.5919 24.7125 27.7117 24.5732 27.8445C18.5255 33.6149 12.9421 29.1245 12.9421 29.1245C16.7214 30.4517 20.3679 29.3776 22.0038 28.0286C23.4998 26.8442 23.4484 25.4219 20.5479 25.226C16.2387 24.9345 14.8017 24.1738 14.3237 23.681C13.8203 23.1623 13.2821 22.6707 12.6388 22.3414C6.75626 19.3293 1.03955 24.437 1.03955 24.437L1.37829 25.0649L5.20123 32.1655L5.79079 33.2614C5.80908 33.2956 5.85039 33.3133 5.88639 33.2997H5.88698C6.39155 33.1079 6.85481 32.7645 7.28267 32.4204C8.27883 31.6202 9.24548 31.6585 10.3437 32.2652C12.2487 33.3192 14.218 34.2552 16.1378 35.2844C16.5585 35.5104 16.9746 35.691 17.3865 35.8238C17.3894 35.8244 17.3918 35.8249 17.3948 35.8261C18.9787 36.1802 20.3708 35.94 21.4119 35.5771C22.5933 35.1663 23.3233 34.5986 23.3688 34.562C23.3705 34.5609 23.3723 34.5597 23.3741 34.5585L33.5381 27.8698C34.0161 27.5382 34.3619 27.2124 34.5992 26.902C35.2507 26.0504 34.886 25.4656 34.5407 24.8347Z" fill="#000248"/>
</g>
<defs>
<clipPath id="clip0_109_2963">
<rect width="36" height="36" fill="white"/>
</clipPath>
</defs>
</svg>
