<svg width="60" height="60" viewBox="0 0 60 60" fill="none" xmlns="http://www.w3.org/2000/svg">
<g filter="url(#filter0_d_149_1195)">
<rect x="6" y="4" width="48" height="48" rx="6" fill="white"/>
<g clip-path="url(#clip0_149_1195)">
<path d="M46.4502 18.6917C46.4624 18.737 46.4686 18.7838 46.4688 18.8307V26.1287C46.4688 26.2224 46.4441 26.3144 46.3973 26.3954C46.3505 26.4765 46.2831 26.5437 46.2021 26.5903L40.0934 30.1169V37.107C40.0934 37.2972 39.9926 37.4728 39.8281 37.5686L27.0767 44.9291C27.0475 44.9458 27.0156 44.9564 26.9838 44.9677C26.9719 44.9717 26.9606 44.979 26.948 44.9823C26.8588 45.0059 26.7651 45.0059 26.676 44.9823C26.6614 44.9784 26.6481 44.9704 26.6342 44.965C26.605 44.9544 26.5745 44.9451 26.5467 44.9291L13.7979 37.5686C13.7169 37.5219 13.6496 37.4547 13.6028 37.3737C13.556 37.2926 13.5313 37.2006 13.5312 37.107V15.213C13.5312 15.1651 13.5379 15.1185 13.5498 15.0733C13.5538 15.058 13.5631 15.044 13.5684 15.0287C13.5783 15.0008 13.5876 14.9722 13.6022 14.9462C13.6122 14.9289 13.6268 14.915 13.6387 14.899C13.654 14.8777 13.6679 14.8558 13.6858 14.8372C13.7011 14.8219 13.721 14.8105 13.7382 14.7972C13.7574 14.7813 13.7747 14.764 13.7966 14.7514L20.1719 11.0711C20.2527 11.0245 20.3442 11 20.4373 11C20.5304 11 20.6219 11.0245 20.7026 11.0711L27.0773 14.7514H27.0786C27.0999 14.7647 27.1178 14.7813 27.137 14.7966C27.1543 14.8099 27.1735 14.8219 27.1888 14.8365C27.2073 14.8558 27.2206 14.8777 27.2365 14.899C27.2478 14.915 27.2631 14.9289 27.2723 14.9462C27.2876 14.9728 27.2962 15.0008 27.3068 15.0287C27.3121 15.044 27.3214 15.058 27.3254 15.0739C27.3376 15.1193 27.3439 15.166 27.344 15.213V28.8877L32.656 25.8207V18.83C32.656 18.7835 32.6626 18.7363 32.6746 18.6917C32.6792 18.6757 32.6879 18.6618 32.6932 18.6465C32.7038 18.6185 32.7131 18.5899 32.7277 18.564C32.7376 18.5467 32.7522 18.5327 32.7635 18.5168C32.7794 18.4955 32.7927 18.4735 32.8112 18.4549C32.8265 18.4396 32.8457 18.4283 32.863 18.415C32.8829 18.399 32.9001 18.3817 32.9214 18.3691L39.2974 14.6888C39.3781 14.6422 39.4696 14.6176 39.5627 14.6176C39.6559 14.6176 39.7474 14.6422 39.8281 14.6888L46.2028 18.3691C46.2253 18.3824 46.2425 18.399 46.2625 18.4143C46.279 18.4276 46.2983 18.4396 46.3135 18.4542C46.3321 18.4735 46.3454 18.4955 46.3613 18.5168C46.3732 18.5327 46.3878 18.5467 46.3971 18.564C46.4124 18.5899 46.421 18.6185 46.4316 18.6465C46.4376 18.6618 46.4462 18.6757 46.4502 18.6917ZM45.4061 25.8207V19.7519L43.1753 21.0397L40.0934 22.8189V28.8877L45.4067 25.8207H45.4061ZM39.0314 36.799V30.7262L35.9999 32.4623L27.3433 37.4163V43.5463L39.0314 36.799ZM14.5939 16.1342V36.799L26.2807 43.5456V37.4169L20.1753 33.9522L20.1733 33.9509L20.1706 33.9495C20.1501 33.9376 20.1328 33.9203 20.1136 33.9056C20.097 33.8923 20.0778 33.8817 20.0632 33.8671L20.0618 33.8651C20.0446 33.8484 20.0326 33.8278 20.0181 33.8092C20.0048 33.7912 19.9889 33.7759 19.9783 33.7573L19.9776 33.7553C19.9657 33.7353 19.9584 33.7114 19.9497 33.6888C19.9411 33.6688 19.9298 33.6502 19.9245 33.6289C19.9179 33.6037 19.9166 33.5764 19.9139 33.5504C19.9113 33.5305 19.906 33.5105 19.906 33.4906V19.2012L16.8247 17.4213L14.5939 16.1342ZM20.4379 12.1473L15.1266 15.213L20.4366 18.2786L25.7473 15.2123L20.4366 12.1473H20.4379ZM23.2001 31.2796L26.2813 29.501V16.1342L24.0505 17.4219L20.9686 19.2012V32.568L23.2001 31.2796ZM39.5627 15.765L34.252 18.8307L39.5627 21.8964L44.8728 18.83L39.5627 15.765ZM39.0314 22.8189L35.9495 21.0397L33.7187 19.7519V25.8207L36.7999 27.5994L39.0314 28.8877V22.8189ZM26.8113 36.4951L34.6009 32.0359L38.4947 29.8076L33.188 26.744L27.078 30.2713L21.5092 33.4859L26.8113 36.4951Z" fill="#FF2D20"/>
</g>
</g>
<defs>
<filter id="filter0_d_149_1195" x="0" y="0" width="60" height="60" filterUnits="userSpaceOnUse" color-interpolation-filters="sRGB">
<feFlood flood-opacity="0" result="BackgroundImageFix"/>
<feColorMatrix in="SourceAlpha" type="matrix" values="0 0 0 0 0 0 0 0 0 0 0 0 0 0 0 0 0 0 127 0" result="hardAlpha"/>
<feOffset dy="2"/>
<feGaussianBlur stdDeviation="3"/>
<feComposite in2="hardAlpha" operator="out"/>
<feColorMatrix type="matrix" values="0 0 0 0 0 0 0 0 0 0.00784314 0 0 0 0 0.282353 0 0 0 0.15 0"/>
<feBlend mode="normal" in2="BackgroundImageFix" result="effect1_dropShadow_149_1195"/>
<feBlend mode="normal" in="SourceGraphic" in2="effect1_dropShadow_149_1195" result="shape"/>
</filter>
<clipPath id="clip0_149_1195">
<rect width="34" height="34" fill="white" transform="translate(13 11)"/>
</clipPath>
</defs>
</svg>
