<svg width="192" height="72" viewBox="0 0 192 72" fill="none" xmlns="http://www.w3.org/2000/svg">
<g clip-path="url(#clip0_1_745)">
<path d="M84.2953 28.3086C81.9779 28.3086 79.6025 29.0332 78.4728 30.0477C78.4477 30.0665 78.4172 30.0767 78.3859 30.0767C78.3546 30.0767 78.3241 30.0665 78.299 30.0477C77.3431 28.9463 75.605 28.3086 73.5193 28.3086C71.8094 28.3093 70.1446 28.8578 68.7687 29.8738C68.7107 29.9318 68.6818 29.9318 68.6238 29.9028C68.6045 29.8906 68.5888 29.8734 68.5786 29.853C68.5684 29.8325 68.564 29.8096 68.5659 29.7869V29.0042C68.5644 28.9048 68.5242 28.8098 68.4539 28.7395C68.3836 28.6691 68.2887 28.6289 68.1893 28.6274H65.6981C65.5987 28.6289 65.5038 28.6691 65.4335 28.7395C65.3632 28.8098 65.323 28.9048 65.3215 29.0042V42.8303C65.323 42.9298 65.3632 43.0248 65.4335 43.0951C65.5038 43.1655 65.5987 43.2056 65.6981 43.2071H68.1893C68.2887 43.2056 68.3836 43.1655 68.4539 43.0951C68.5242 43.0248 68.5644 42.9298 68.5659 42.8303V33.9028C68.8556 32.2506 70.6805 31.0332 72.8531 31.0332C75.1995 31.0332 76.3002 31.9608 76.3002 34.0187V42.8303C76.3017 42.9298 76.3419 43.0248 76.4122 43.0951C76.4825 43.1655 76.5774 43.2056 76.6768 43.2071H79.197C79.2964 43.2056 79.3913 43.1655 79.4616 43.0951C79.5319 43.0248 79.5721 42.9298 79.5736 42.8303V33.8738C79.6894 32.2216 81.5144 31.0332 83.8608 31.0332C86.2071 31.0332 87.3369 31.9608 87.3369 33.9608V42.8593C87.3384 42.9588 87.3785 43.0538 87.4488 43.1241C87.5191 43.1945 87.614 43.2346 87.7134 43.2361H90.2046C90.3137 43.2228 90.4162 43.177 90.4988 43.1046C90.5815 43.0323 90.6405 42.9367 90.6681 42.8303V33.9898C90.6681 31.555 90.0019 28.3086 84.2953 28.3086Z" fill="#102D42"/>
<path d="M109.497 28.6566H107.006C106.906 28.6581 106.812 28.6983 106.741 28.7686C106.671 28.839 106.631 28.934 106.629 29.0334V30.0769C106.629 30.1639 106.6 30.1928 106.571 30.1928C106.521 30.2004 106.47 30.1901 106.427 30.1639C105.036 29.0044 102.979 28.3378 100.778 28.3378C95.9693 28.3378 92.8408 31.2073 92.8408 35.6131C92.8408 40.4247 96.23 43.5262 101.473 43.5262C103.414 43.5262 105.181 42.9175 106.398 41.845C106.416 41.8257 106.439 41.8126 106.465 41.8074C106.491 41.8022 106.518 41.8052 106.542 41.816C106.571 41.816 106.629 41.845 106.629 41.932V42.8595C106.631 42.959 106.671 43.054 106.741 43.1243C106.812 43.1946 106.906 43.2348 107.006 43.2363H109.497C109.597 43.2348 109.691 43.1946 109.762 43.1243C109.832 43.054 109.872 42.959 109.874 42.8595V29.0334C109.872 28.934 109.832 28.839 109.762 28.7686C109.691 28.6983 109.597 28.6581 109.497 28.6566ZM106.629 35.932V36.1349C106.542 39.0044 104.544 40.8885 101.56 40.8885C98.4315 40.8885 96.3169 38.8595 96.3169 35.787C96.3169 33.3523 97.8811 30.9175 101.357 30.9175C104.486 30.9175 106.658 32.9754 106.629 35.932Z" fill="#102D42"/>
<path d="M127.775 28.6278H125.081C125.007 28.6278 124.934 28.6498 124.872 28.6911C124.811 28.7324 124.762 28.791 124.734 28.8597L119.896 39.3235C119.891 39.3498 119.877 39.3734 119.855 39.3895C119.834 39.4056 119.807 39.4131 119.78 39.4104C119.755 39.4063 119.732 39.3963 119.712 39.3812C119.692 39.366 119.675 39.3462 119.664 39.3235L114.885 28.8597C114.856 28.791 114.808 28.7324 114.746 28.6911C114.684 28.6498 114.612 28.6278 114.537 28.6278H111.872C111.808 28.6262 111.745 28.6414 111.69 28.6719C111.634 28.7025 111.587 28.7472 111.554 28.8017C111.514 28.8555 111.49 28.9193 111.485 28.986C111.48 29.0526 111.494 29.1193 111.525 29.1785L118.071 42.28C118.085 42.2959 118.093 42.3166 118.093 42.338C118.093 42.3593 118.085 42.38 118.071 42.3959C116.884 45.0336 115.696 46.8017 113.842 46.8017C113.33 46.788 112.823 46.7001 112.336 46.5409C112.288 46.5268 112.238 46.5224 112.189 46.528C112.14 46.5336 112.092 46.549 112.049 46.5733C112.006 46.5976 111.968 46.6304 111.937 46.6696C111.907 46.7088 111.885 46.7538 111.872 46.8017L111.322 48.4829C111.288 48.5714 111.291 48.6694 111.329 48.7561C111.367 48.8427 111.437 48.9111 111.525 48.9467C112.309 49.251 113.146 49.3987 113.987 49.3814C117.347 49.3814 119.201 46.9756 121.287 42.8307L128.123 29.1785C128.147 29.1176 128.157 29.0521 128.152 28.9868C128.147 28.9216 128.127 28.8583 128.094 28.8017C128.063 28.745 128.017 28.6984 127.96 28.6675C127.904 28.6367 127.84 28.6229 127.775 28.6278Z" fill="#102D42"/>
<path d="M144.837 28.6566H142.346C142.247 28.6581 142.152 28.6983 142.082 28.7686C142.011 28.839 141.971 28.934 141.97 29.0334V30.0769C141.97 30.1639 141.941 30.1928 141.912 30.1928C141.862 30.2004 141.81 30.1901 141.767 30.1639C140.376 29.0044 138.32 28.3378 136.118 28.3378C131.31 28.3378 128.181 31.2073 128.181 35.6131C128.181 40.4247 131.57 43.5262 136.813 43.5262C138.754 43.5262 140.521 42.9175 141.767 41.845C141.785 41.8257 141.809 41.8126 141.835 41.8074C141.861 41.8022 141.888 41.8052 141.912 41.816C141.941 41.816 141.999 41.845 141.999 41.932V42.8595C142 42.959 142.04 43.054 142.111 43.1243C142.181 43.1946 142.276 43.2348 142.375 43.2363H144.837C144.937 43.2348 145.032 43.1946 145.102 43.1243C145.172 43.054 145.213 42.959 145.214 42.8595V29.0334C145.213 28.934 145.172 28.839 145.102 28.7686C145.032 28.6983 144.937 28.6581 144.837 28.6566ZM141.97 35.932V36.1349C141.883 39.0044 139.884 40.8885 136.9 40.8885C133.772 40.8885 131.657 38.8595 131.657 35.787C131.657 33.3523 133.221 30.9175 136.698 30.9175C139.826 30.9175 141.999 32.9754 141.97 35.932Z" fill="#102D42"/>
<path d="M7.9371 41.0327L1.50631 37.3516L0 39.9603L6.43079 43.6414C6.54836 43.7098 6.64032 43.8149 6.69263 43.9405C6.74493 44.0661 6.75471 44.2054 6.72047 44.3371L4.77964 51.4965L7.6764 52.2791L9.61722 45.1197C9.83997 44.3487 9.79513 43.525 9.49002 42.7828C9.18491 42.0406 8.63752 41.4237 7.9371 41.0327Z" fill="#0099CC"/>
<path d="M18.3073 16.4247C18.245 16.548 18.1407 16.645 18.0132 16.6981C17.8858 16.7512 17.7435 16.7571 17.6121 16.7146L10.4571 14.7725L9.67502 17.6711L16.83 19.6131C17.6082 19.8129 18.4303 19.7541 19.1722 19.4456C19.9142 19.1372 20.5358 18.5958 20.9434 17.903L24.6223 11.4682L22.0152 9.96094L18.3073 16.4247Z" fill="#0099CC"/>
<path d="M6.43079 28.28L0 31.9611L1.50631 34.5698L7.9371 30.8886C8.6389 30.4905 9.188 29.8696 9.49754 29.1241C9.80708 28.3787 9.85939 27.5512 9.64619 26.7727L7.70536 19.6133L4.80861 20.3959L6.74944 27.5553C6.78163 27.6943 6.76799 27.84 6.71055 27.9707C6.65312 28.1013 6.55497 28.2098 6.43079 28.28Z" fill="#0099CC"/>
<path d="M16.8008 52.3086L9.64584 54.2506L10.428 57.1492L17.5829 55.2071C17.7146 55.1729 17.8538 55.1827 17.9793 55.235C18.1048 55.2873 18.2098 55.3794 18.2782 55.497L21.957 61.9318L24.5641 60.4245L20.8852 53.9897C20.4866 53.2965 19.8692 52.7554 19.13 52.4511C18.3908 52.1468 17.5716 52.0967 16.8008 52.3086Z" fill="#0099CC"/>
<path d="M45.5074 43.6414L51.9382 39.9603L50.4319 37.3516L44.0011 41.0327C43.2993 41.4309 42.7502 42.0518 42.4407 42.7972C42.1311 43.5427 42.0788 44.3701 42.292 45.1487L44.2328 52.3081L47.1296 51.5255L45.1888 44.3661C45.1702 44.2276 45.19 44.0867 45.2463 43.9589C45.3025 43.8311 45.3928 43.7212 45.5074 43.6414Z" fill="#0099CC"/>
<path d="M34.1814 19.7292C34.5038 19.7336 34.8253 19.6946 35.1373 19.6133L42.2923 17.6713L41.5101 14.7727L34.3552 16.7148C34.2238 16.7573 34.0815 16.7514 33.9541 16.6983C33.8266 16.6451 33.7223 16.5482 33.6599 16.4249L29.9811 9.99011L27.374 11.4974L31.0529 17.9321C31.3712 18.4798 31.8278 18.934 32.3769 19.2494C32.926 19.5648 33.5482 19.7303 34.1814 19.7292Z" fill="#0099CC"/>
<path d="M45.2469 27.5844L47.1877 20.4249L44.291 19.6423L42.3502 26.8018C42.1274 27.5727 42.1723 28.3965 42.4774 29.1386C42.7825 29.8808 43.3299 30.4977 44.0303 30.8887L50.4611 34.5699L51.9674 31.9612L45.5366 28.28C45.419 28.2116 45.3271 28.1066 45.2748 27.981C45.2225 27.8554 45.2127 27.7161 45.2469 27.5844Z" fill="#0099CC"/>
<path d="M31.0529 54.0188L27.374 60.4536L29.9811 61.9608L33.66 55.5261C33.7283 55.4084 33.8333 55.3164 33.9588 55.2641C34.0844 55.2117 34.2236 55.2019 34.3552 55.2362L41.5102 57.1782L42.2923 54.2797L35.1373 52.3376C34.3669 52.1121 33.5427 52.1556 32.8003 52.4612C32.058 52.7668 31.4417 53.3161 31.0529 54.0188Z" fill="#0099CC"/>
<path d="M170.097 28.9765C170.081 28.9112 170.044 28.8531 169.992 28.8112C169.939 28.7693 169.874 28.7458 169.807 28.7446H167.866C167.804 28.7494 167.745 28.7707 167.694 28.8064C167.643 28.8421 167.603 28.8908 167.577 28.9475L162.942 39.2663C162.916 39.3251 162.873 39.375 162.819 39.41C162.765 39.4451 162.702 39.4637 162.638 39.4637C162.574 39.4637 162.511 39.4451 162.457 39.41C162.403 39.375 162.36 39.3251 162.334 39.2663L157.67 28.9475C157.644 28.8908 157.604 28.8421 157.553 28.8064C157.502 28.7707 157.442 28.7494 157.38 28.7446H155.41C155.339 28.7408 155.268 28.7618 155.21 28.804C155.152 28.8462 155.11 28.9071 155.092 28.9765L151.558 42.7446C151.546 42.7928 151.546 42.843 151.557 42.8914C151.568 42.9398 151.589 42.9851 151.62 43.0241C151.65 43.0631 151.689 43.0946 151.734 43.1165C151.778 43.1384 151.827 43.1499 151.876 43.1504H153.962C154.036 43.1479 154.108 43.121 154.166 43.0739C154.223 43.0267 154.264 42.9619 154.281 42.8895L156.54 33.7301C156.555 33.6639 156.591 33.6042 156.641 33.5594C156.692 33.5146 156.756 33.487 156.823 33.4806C156.891 33.4742 156.959 33.4892 157.017 33.5236C157.075 33.558 157.121 33.61 157.149 33.6721L161.32 42.9475C161.346 43.0041 161.386 43.0528 161.437 43.0885C161.488 43.1242 161.548 43.1456 161.61 43.1504H163.579C163.641 43.1456 163.701 43.1242 163.752 43.0885C163.803 43.0528 163.843 43.0041 163.869 42.9475L168.069 33.6141C168.098 33.5535 168.144 33.5031 168.202 33.4699C168.26 33.4367 168.327 33.4223 168.394 33.4286C168.46 33.435 168.523 33.4618 168.574 33.5054C168.625 33.549 168.661 33.6072 168.678 33.6721L170.879 42.8895C170.896 42.9619 170.937 43.0267 170.994 43.0739C171.052 43.121 171.123 43.1479 171.198 43.1504H173.341C173.391 43.1499 173.44 43.1384 173.484 43.1165C173.529 43.0946 173.568 43.0631 173.598 43.0241C173.629 42.9851 173.65 42.9398 173.661 42.8914C173.672 42.843 173.671 42.7928 173.66 42.7446L170.097 28.9765Z" fill="#0099CC"/>
<path d="M182.582 28.744H176.267C176.183 28.7448 176.102 28.7786 176.043 28.8382C175.983 28.8979 175.949 28.9785 175.949 29.0629V42.86C175.949 42.9443 175.983 43.0249 176.043 43.0846C176.102 43.1442 176.183 43.178 176.267 43.1788H183.306C187.449 43.1788 191.562 41.2947 191.533 35.9034C191.591 30.831 188.028 28.744 182.582 28.744ZM182.872 41.1788H179.135C179.051 41.178 178.97 41.1442 178.91 41.0846C178.851 41.0249 178.817 40.9443 178.816 40.86V31.0918C178.816 31.0044 178.849 30.9201 178.908 30.8556C178.967 30.7911 179.048 30.7513 179.135 30.744H182.872C185.797 30.744 188.405 31.9324 188.405 35.8745C188.405 39.1498 186.522 41.1788 182.872 41.1788Z" fill="#0099CC"/>
</g>
<defs>
<clipPath id="clip0_1_745">
<rect width="191.533" height="52" fill="white" transform="translate(0 9.96094)"/>
</clipPath>
</defs>
</svg>
