<svg width="44" height="44" viewBox="0 0 44 44" fill="none" xmlns="http://www.w3.org/2000/svg">
<path d="M3.33476 15.8941H9.58452C11.4189 15.9095 12.7481 16.4384 13.5722 17.4799C14.3964 18.5214 14.6683 19.9439 14.3884 21.7474C14.2798 22.5716 14.0386 23.3798 13.6655 24.1727C13.3078 24.9656 12.8106 25.6806 12.173 26.3182C11.3956 27.1264 10.564 27.6395 9.6778 27.8573C8.79164 28.0751 7.87424 28.1838 6.92604 28.1838H4.12764L3.24148 32.6146H0L3.33476 15.8941ZM6.0632 18.5526L4.664 25.5486C4.75728 25.564 4.85056 25.5719 4.94384 25.5719C5.05252 25.5719 5.16164 25.5719 5.27032 25.5719C6.7628 25.5873 8.00668 25.4399 9.00152 25.1288C9.99636 24.8024 10.6652 23.6676 11.007 21.7241C11.2869 20.0917 11.007 19.151 10.1675 18.9024C9.3434 18.6538 8.30984 18.5372 7.06596 18.5526C6.8794 18.568 6.70076 18.5759 6.5296 18.5759C6.37428 18.5759 6.21104 18.5759 6.03988 18.5759L6.0632 18.5526Z" fill="white"/>
<path d="M18.0809 11.44H21.2991L20.3896 15.8941H23.2813C24.867 15.9254 26.0484 16.2518 26.8259 16.8736C27.6188 17.4953 27.852 18.6771 27.5255 20.4182L25.9631 28.1838H22.6983L24.1908 20.768C24.3461 19.9905 24.2994 19.4388 24.0508 19.1123C23.8022 18.7858 23.2659 18.6226 22.4418 18.6226L19.8532 18.5992L17.941 28.1838H14.7228L18.0809 11.44Z" fill="white"/>
<path d="M30.9813 15.8941H37.231C39.0654 15.9095 40.3946 16.4384 41.2188 17.4799C42.0429 18.5214 42.3148 19.9439 42.035 21.7474C41.9263 22.5716 41.6852 23.3798 41.312 24.1727C40.9543 24.9656 40.4571 25.6806 39.8196 26.3182C39.0421 27.1264 38.2105 27.6395 37.3243 27.8573C36.4382 28.0751 35.5208 28.1838 34.5726 28.1838H31.7742L30.888 32.6146H27.6465L30.9813 15.8941ZM33.7097 18.5526L32.3105 25.5486C32.4038 25.564 32.4971 25.5719 32.5904 25.5719C32.699 25.5719 32.8082 25.5719 32.9168 25.5719C34.4093 25.5873 35.6532 25.4399 36.648 25.1288C37.6429 24.8024 38.3117 23.6676 38.6536 21.7241C38.9334 20.0917 38.6536 19.151 37.814 18.9024C36.9899 18.6538 35.9564 18.5372 34.7125 18.5526C34.5259 18.568 34.3473 18.5759 34.1761 18.5759C34.0208 18.5759 33.8576 18.5759 33.6864 18.5759L33.7097 18.5526Z" fill="white"/>
</svg>
