<svg width="32" height="32" viewBox="0 0 32 32" fill="none" xmlns="http://www.w3.org/2000/svg">
<g clip-path="url(#clip0_3_3249)">
<mask id="mask0_3_3249" style="mask-type:luminance" maskUnits="userSpaceOnUse" x="-1" y="7" width="33" height="17">
<path d="M-0.00012207 15.6984C-0.00012207 20.2832 7.16343 24 15.9998 24C24.8361 24 31.9997 20.2832 31.9997 15.6984C31.9997 11.1137 24.8361 7.39686 15.9998 7.39686C7.16343 7.39686 -0.00012207 11.1137 -0.00012207 15.6984Z" fill="white"/>
</mask>
<g mask="url(#mask0_3_3249)">
<path d="M-0.00012207 15.6984C-0.00012207 20.2832 7.16343 24 15.9998 24C24.8361 24 31.9997 20.2832 31.9997 15.6984C31.9997 11.1137 24.8361 7.39686 15.9998 7.39686C7.16343 7.39686 -0.00012207 11.1137 -0.00012207 15.6984Z" fill="url(#paint0_radial_3_3249)"/>
</g>
<mask id="mask1_3_3249" style="mask-type:luminance" maskUnits="userSpaceOnUse" x="-1" y="6" width="34" height="19">
<path d="M-0.666626 6.45172H32.6665V24.9453H-0.666626V6.45172Z" fill="white"/>
</mask>
<g mask="url(#mask1_3_3249)">
<path d="M15.9998 23.3838C24.491 23.3838 31.3747 19.9431 31.3747 15.6987C31.3747 11.4543 24.491 8.01355 15.9998 8.01355C7.50851 8.01355 0.624878 11.4543 0.624878 15.6987C0.624878 19.9431 7.50851 23.3838 15.9998 23.3838Z" fill="#777BB3"/>
</g>
<mask id="mask2_3_3249" style="mask-type:luminance" maskUnits="userSpaceOnUse" x="-1" y="6" width="34" height="19">
<path d="M-0.666626 6.45172H32.6665V24.9453H-0.666626V6.45172Z" fill="white"/>
</mask>
<g mask="url(#mask2_3_3249)">
<path d="M8.69294 16.6513C9.39114 16.6513 9.91238 16.5243 10.2421 16.274C10.5684 16.0263 10.7937 15.597 10.9118 14.9982C11.022 14.4384 10.98 14.0476 10.7872 13.8367C10.59 13.6213 10.1638 13.5121 9.52025 13.5121H8.40452L7.78589 16.6514H8.69288L8.69294 16.6513ZM5.04343 20.5184C4.99163 20.5184 4.94244 20.4956 4.90952 20.4561C4.89323 20.4366 4.88152 20.4138 4.87522 20.3894C4.86891 20.3649 4.86818 20.3393 4.87306 20.3146L6.5124 11.9953C6.52009 11.9563 6.54131 11.9211 6.5724 11.8959C6.60349 11.8706 6.64253 11.8568 6.68283 11.8568H10.216C11.3264 11.8568 12.1529 12.1536 12.6724 12.7407C13.1947 13.3304 13.356 14.1547 13.1518 15.1906C13.0687 15.6126 12.9257 16.0045 12.727 16.3556C12.5279 16.7069 12.265 17.0319 11.9452 17.3219C11.5623 17.6753 11.129 17.9316 10.6584 18.0824C10.1952 18.2312 9.60052 18.3067 8.89057 18.3067H7.4599L7.05134 20.38C7.04366 20.419 7.02246 20.4541 6.99138 20.4794C6.96029 20.5047 6.92126 20.5185 6.88097 20.5186H5.04343V20.5184Z" fill="black"/>
<path d="M8.5476 13.6829H9.52028C10.2969 13.6829 10.5667 13.851 10.6584 13.9512C10.8105 14.1175 10.8392 14.4682 10.7415 14.9653C10.6316 15.5219 10.428 15.9165 10.1362 16.138C9.83752 16.3649 9.35188 16.4798 8.69297 16.4798H7.99645L8.5476 13.6829ZM10.216 11.6852H6.6828C6.60221 11.6852 6.52414 11.7128 6.46197 11.7634C6.39979 11.814 6.35738 11.8843 6.342 11.9623L4.70266 20.2817C4.6929 20.3313 4.69437 20.3824 4.70698 20.4313C4.71959 20.4803 4.74301 20.5258 4.77558 20.5648C4.80815 20.6038 4.84906 20.6352 4.89537 20.6567C4.94168 20.6783 4.99225 20.6894 5.04346 20.6895H6.88083C6.96142 20.6895 7.0395 20.6618 7.10169 20.6112C7.16388 20.5607 7.2063 20.4904 7.22168 20.4123L7.60293 18.4776H8.89054C9.61866 18.4776 10.2316 18.3993 10.7123 18.2449C11.2065 18.0865 11.6614 17.818 12.0638 17.4467C12.3966 17.1447 12.6714 16.8056 12.8786 16.4389C13.0858 16.0722 13.2356 15.663 13.3223 15.223C13.5373 14.1326 13.3627 13.2594 12.8032 12.6278C12.2493 12.0024 11.3788 11.6852 10.2161 11.6852M7.57533 16.8224H8.69297C9.4337 16.8224 9.98555 16.6848 10.3481 16.4094C10.7105 16.1341 10.9552 15.6745 11.0823 15.0306C11.2038 14.4123 11.1485 13.976 10.9162 13.7218C10.6839 13.4675 10.2183 13.3405 9.52039 13.3405H8.26149L7.57538 16.8223M10.2162 12.0277C11.2791 12.0277 12.0545 12.3028 12.5418 12.853C13.0292 13.4033 13.1759 14.1714 12.9815 15.1576C12.9014 15.5638 12.7661 15.9352 12.5755 16.2718C12.385 16.6083 12.1356 16.9164 11.8277 17.1955C11.4608 17.5342 11.0533 17.7755 10.6048 17.9193C10.1563 18.0634 9.58509 18.1352 8.89065 18.1352H7.31682L6.88106 20.347H5.04369L6.6828 12.0277H10.216" fill="white"/>
<path d="M17.3648 18.3066C17.3129 18.3066 17.2638 18.2838 17.2309 18.2443C17.1979 18.2048 17.1845 18.1529 17.1944 18.1027L17.9195 14.4217C17.9885 14.0716 17.9715 13.8203 17.8717 13.7142C17.8106 13.6493 17.627 13.5404 17.0842 13.5404H15.7705L14.8587 18.1679C14.851 18.207 14.8298 18.2421 14.7987 18.2674C14.7676 18.2927 14.7286 18.3065 14.6883 18.3065H12.8654C12.8398 18.3065 12.8145 18.3009 12.7913 18.2902C12.7682 18.2794 12.7477 18.2637 12.7314 18.2442C12.7151 18.2247 12.7034 18.2019 12.6971 18.1775C12.6908 18.153 12.6901 18.1274 12.695 18.1026L14.3343 9.78338C14.342 9.74437 14.3632 9.70921 14.3943 9.68394C14.4254 9.65866 14.4644 9.64484 14.5047 9.64485H16.3276C16.3532 9.64485 16.3785 9.65043 16.4017 9.6612C16.4248 9.67198 16.4453 9.68767 16.4616 9.70715C16.4779 9.72664 16.4896 9.74944 16.4959 9.77391C16.5022 9.79839 16.5029 9.82394 16.4981 9.84873L16.1025 11.8567H17.5158C18.5924 11.8567 19.3225 12.0439 19.7478 12.429C20.1818 12.822 20.3165 13.4502 20.1498 14.2967L19.3871 18.1681C19.3794 18.2071 19.3582 18.2422 19.3271 18.2675C19.296 18.2928 19.257 18.3066 19.2167 18.3066H17.3648L17.3648 18.3066Z" fill="black"/>
<path d="M16.3275 9.47338H14.5046C14.424 9.47338 14.346 9.50103 14.2838 9.55159C14.2216 9.60215 14.1792 9.67247 14.1638 9.7505L12.5244 18.0698C12.5147 18.1193 12.5161 18.1704 12.5288 18.2194C12.5414 18.2684 12.5648 18.314 12.5974 18.3529C12.63 18.3919 12.6709 18.4233 12.7172 18.4448C12.7635 18.4664 12.8141 18.4775 12.8653 18.4775H14.6882C14.7688 18.4775 14.8469 18.4499 14.9091 18.3993C14.9713 18.3488 15.0137 18.2785 15.029 18.2004L15.9135 13.7114H17.0842C17.626 13.7114 17.7397 13.8256 17.7443 13.8305C17.7772 13.8653 17.8204 14.0269 17.7491 14.3887L17.0239 18.0698C17.0142 18.1193 17.0157 18.1704 17.0283 18.2194C17.0409 18.2684 17.0643 18.314 17.0969 18.3529C17.1295 18.3919 17.1704 18.4233 17.2167 18.4448C17.263 18.4664 17.3136 18.4775 17.3648 18.4775H19.2166C19.2972 18.4775 19.3753 18.4499 19.4375 18.3993C19.4997 18.3488 19.5421 18.2785 19.5575 18.2004L20.3202 14.329C20.4992 13.4203 20.3461 12.7386 19.8654 12.3027C19.4066 11.8872 18.6381 11.6851 17.5158 11.6851H16.3131L16.6686 9.88116C16.6783 9.83157 16.6769 9.78046 16.6643 9.7315C16.6517 9.68254 16.6282 9.63694 16.5956 9.59796C16.5631 9.55898 16.5222 9.52759 16.4758 9.50604C16.4295 9.4845 16.3789 9.47332 16.3277 9.47333M16.3277 9.8158L15.8919 12.0276H17.5159C18.5377 12.0276 19.2425 12.2035 19.6305 12.5549C20.0184 12.9063 20.1345 13.4762 19.9795 14.2637L19.2168 18.1351H17.365L18.0901 14.4542C18.1726 14.0354 18.1423 13.7498 17.999 13.5975C17.8557 13.4452 17.5507 13.369 17.0844 13.369H15.6273L14.6883 18.1351H12.8654L14.5047 9.8158H16.3277" fill="white"/>
<path d="M23.0341 16.6513C23.7323 16.6513 24.2535 16.5243 24.5832 16.274C24.9095 16.0263 25.1349 15.5971 25.253 14.9982C25.3632 14.4384 25.3212 14.0476 25.1283 13.8367C24.9312 13.6213 24.5049 13.5121 23.8614 13.5121H22.7456L22.127 16.6514H23.034L23.0341 16.6513ZM19.3847 20.5184C19.3329 20.5184 19.2837 20.4956 19.2507 20.4561C19.2345 20.4366 19.2227 20.4138 19.2164 20.3894C19.2101 20.3649 19.2094 20.3393 19.2142 20.3146L20.8536 11.9953C20.8613 11.9563 20.8825 11.9211 20.9136 11.8958C20.9447 11.8706 20.9838 11.8567 21.0241 11.8568H24.5572C25.6677 11.8568 26.4941 12.1536 27.0137 12.7407C27.5359 13.3304 27.6971 14.1546 27.493 15.1906C27.4098 15.6126 27.2669 16.0045 27.0681 16.3556C26.869 16.7069 26.6061 17.0319 26.2863 17.3219C25.9034 17.6753 25.4701 17.9316 24.9995 18.0824C24.5364 18.2312 23.9416 18.3067 23.2317 18.3067H21.8008L21.3925 20.38C21.3848 20.419 21.3636 20.4542 21.3324 20.4795C21.3013 20.5047 21.2623 20.5186 21.222 20.5186H19.3846L19.3847 20.5184Z" fill="black"/>
<path d="M22.8889 13.6829H23.8615C24.6381 13.6829 24.908 13.851 24.9997 13.9512C25.1519 14.1175 25.1805 14.4682 25.0827 14.9653C24.9729 15.5218 24.7692 15.9165 24.4775 16.138C24.1788 16.3649 23.6931 16.4798 23.0342 16.4798H22.3379L22.8889 13.6829ZM24.5572 11.6852H21.024C20.9435 11.6852 20.8654 11.7128 20.8032 11.7634C20.741 11.814 20.6986 11.8843 20.6833 11.9623L19.044 20.2817C19.0342 20.3313 19.0357 20.3824 19.0483 20.4313C19.0609 20.4803 19.0843 20.5258 19.1169 20.5648C19.1495 20.6038 19.1904 20.6352 19.2367 20.6567C19.283 20.6783 19.3336 20.6894 19.3848 20.6895H21.2221C21.3027 20.6895 21.3808 20.6618 21.443 20.6112C21.5052 20.5607 21.5476 20.4904 21.563 20.4123L21.9442 18.4776H23.2318C23.9599 18.4776 24.5729 18.3993 25.0535 18.2449C25.5477 18.0865 26.0026 17.818 26.4051 17.4466C26.738 17.1447 27.0121 16.8056 27.2198 16.4389C27.4276 16.0722 27.5769 15.663 27.6636 15.223C27.8786 14.1325 27.7039 13.2593 27.1445 12.6278C26.5906 12.0024 25.7201 11.6852 24.5574 11.6852M21.9166 16.8224H23.0342C23.775 16.8224 24.3268 16.6848 24.6893 16.4094C25.0518 16.1341 25.2965 15.6745 25.4236 15.0306C25.5452 14.4123 25.4898 13.976 25.2575 13.7218C25.0251 13.4675 24.5596 13.3405 23.8616 13.3405H22.6027L21.9167 16.8223M24.5574 12.0277C25.6203 12.0277 26.3957 12.3028 26.8831 12.853C27.3705 13.4033 27.5172 14.1714 27.3227 15.1576C27.2427 15.5638 27.1073 15.9352 26.9168 16.2718C26.7262 16.6083 26.4768 16.9164 26.169 17.1955C25.8021 17.5342 25.3945 17.7755 24.946 17.9193C24.4975 18.0634 23.9263 18.1352 23.2319 18.1352H21.6581L21.2223 20.347H19.3849L21.0243 12.0277H24.5575" fill="white"/>
</g>
</g>
<defs>
<radialGradient id="paint0_radial_3_3249" cx="0" cy="0" r="1" gradientUnits="userSpaceOnUse" gradientTransform="translate(9.6063 10.3155) scale(21.0102 20.723)">
<stop stop-color="#AEB2D5"/>
<stop offset="0.3" stop-color="#AEB2D5"/>
<stop offset="0.75" stop-color="#484C89"/>
<stop offset="1" stop-color="#484C89"/>
</radialGradient>
<clipPath id="clip0_3_3249">
<rect width="32" height="32" fill="white"/>
</clipPath>
</defs>
</svg>
