<svg width="32" height="32" viewBox="0 0 32 32" fill="none" xmlns="http://www.w3.org/2000/svg">
<path fill-rule="evenodd" clip-rule="evenodd" d="M24.9309 4.30133C25.8975 4.81338 26.6876 5.60358 27.1985 6.56933C27.7216 7.54733 28.0002 8.51733 28.0002 11.1913V15.888C28.0002 15.9486 27.9635 16.0033 27.9074 16.0265C27.8512 16.0497 27.7866 16.0368 27.7436 15.994V15.9933L25.9698 14.22C25.829 14.0792 25.7499 13.8883 25.75 13.6893V11.5187C25.75 9.51267 25.5409 8.78534 25.1487 8.052C24.7654 7.32776 24.1728 6.73523 23.4477 6.35133C22.7225 5.9628 22.0025 5.75441 20.0445 5.75007L17.1121 5.75C17.0514 5.74968 16.9969 5.71304 16.9738 5.65708C16.9508 5.60112 16.9636 5.53681 17.0065 5.494L18.7803 3.72C18.9206 3.57933 19.1117 3.5 19.3108 3.5H20.3083C22.9827 3.5 23.9528 3.77867 24.9309 4.30133ZM21.2503 7.25C22.9072 7.25 24.2501 8.59334 24.2501 10.25V12.1493C24.2498 12.2092 24.2139 12.2631 24.1587 12.2866C24.1036 12.3101 24.0397 12.2986 23.9962 12.2573L21.5777 9.94534C21.4173 9.78534 21.2303 9.66934 21.0305 9.59667C20.861 9.5326 20.6813 9.49985 20.5 9.5H13.3606C13.2999 9.49995 13.2451 9.4634 13.2219 9.40739C13.1986 9.35137 13.2115 9.2869 13.2544 9.244L15.0309 7.46933C15.1712 7.32933 15.3616 7.25 15.5607 7.25H21.2503Z" fill="#E55638"/>
<path fill-rule="evenodd" clip-rule="evenodd" d="M26.0057 16.5074L27.7801 18.2814C27.9204 18.4221 28 18.6134 28 18.8121V19.8101C28 22.4841 27.7214 23.4541 27.1982 24.4321C26.6874 25.3979 25.8973 26.1881 24.9307 26.7001C23.9526 27.2221 22.9825 27.5008 20.308 27.5008H15.6119C15.5513 27.5004 15.4968 27.4638 15.4737 27.4078C15.4506 27.3519 15.4635 27.2876 15.5064 27.2448V27.2454L17.2802 25.4714C17.4205 25.3308 17.6116 25.2514 17.8107 25.2514H19.9813C21.987 25.2514 22.7139 25.0428 23.4475 24.6501C24.1725 24.2662 24.7652 23.6737 25.1485 22.9494C25.5407 22.2161 25.7498 21.4888 25.7498 19.4828V16.6134C25.7501 16.5531 25.7866 16.4988 25.8425 16.4757C25.8983 16.4526 25.9626 16.4651 26.0057 16.5074ZM22.2562 12.7568L24.0307 14.5328C24.171 14.6734 24.2499 14.8641 24.2499 15.0634V20.7528C24.2499 22.4094 22.907 23.7528 21.2501 23.7528H19.3507C19.2907 23.7525 19.2366 23.7166 19.2131 23.6616C19.1896 23.6065 19.2011 23.5428 19.2424 23.4994V23.4988L21.5541 21.0794C21.7144 20.9194 21.8307 20.7328 21.9035 20.5328C21.9673 20.3633 21.9999 20.1838 21.9997 20.0028V12.8628C21.9997 12.8021 22.0364 12.7475 22.0925 12.7243C22.1486 12.7011 22.2133 12.7139 22.2562 12.7568Z" fill="#F4C942"/>
<path fill-rule="evenodd" clip-rule="evenodd" d="M4.25588 15.0061L6.03104 16.7801C6.17134 16.9208 6.25085 17.1121 6.25085 17.3108V19.4814C6.25085 21.4874 6.4593 22.2148 6.85214 22.9481C7.23527 23.6722 7.82767 24.2648 8.55247 24.6488C9.28605 25.0414 10.0136 25.2501 12.0193 25.2501H14.8881C14.949 25.2499 15.004 25.2863 15.0274 25.3424C15.0508 25.3985 15.038 25.4631 14.995 25.5061L13.2199 27.2801C13.0796 27.4208 12.8885 27.5001 12.6901 27.5001H11.6919C9.01748 27.5001 8.04805 27.2214 7.06995 26.6988C6.10306 26.1868 5.31278 25.3966 4.80173 24.4308C4.28383 23.4626 4.0056 22.5022 4.00008 19.8885L4 15.1121C4.00032 15.0518 4.03684 14.9975 4.09269 14.9744C4.14853 14.9512 4.21283 14.9637 4.25588 15.0061ZM8.00396 18.7428H8.00329L10.4232 21.0548C10.5828 21.2148 10.7706 21.3308 10.9697 21.4034C11.134 21.4661 11.3131 21.5001 11.5002 21.5001H18.6395C18.7002 21.5004 18.7547 21.5371 18.7778 21.593C18.8008 21.649 18.7879 21.7133 18.7451 21.7561L16.9693 23.5308C16.829 23.6708 16.6379 23.7501 16.4395 23.7501H10.7499C9.95339 23.7492 9.18989 23.4327 8.62731 22.87C8.06474 22.3074 7.74919 21.5449 7.75008 20.7501V18.8508C7.75037 18.7909 7.78628 18.737 7.84145 18.7135C7.89662 18.69 7.96049 18.7015 8.00396 18.7428Z" fill="#7B8FEA"/>
<path fill-rule="evenodd" clip-rule="evenodd" d="M12.6493 7.25C12.7093 7.25029 12.7633 7.28612 12.7869 7.34117C12.8104 7.39622 12.7989 7.45996 12.7575 7.50333L10.4452 9.92334C10.2849 10.0833 10.1693 10.27 10.0965 10.47C10.0324 10.6394 9.99956 10.8189 9.99959 11V18.14C9.99901 18.2002 9.96239 18.2543 9.9066 18.2772C9.85081 18.3002 9.78667 18.2876 9.74371 18.2453L7.96922 16.4693C7.82877 16.3286 7.74997 16.138 7.75008 15.9393V10.25C7.75008 8.59334 9.09297 7.25 10.7499 7.25H12.6493ZM16.388 3.5C16.4487 3.50032 16.5032 3.53697 16.5262 3.59292C16.5493 3.64888 16.5364 3.71319 16.4936 3.756L14.7198 5.53C14.5788 5.67067 14.3884 5.75 14.1893 5.75H12.0186C10.013 5.75 9.28539 5.95867 8.55181 6.35133C7.82676 6.73523 7.23411 7.32776 6.85081 8.052C6.46276 8.77762 6.25394 9.49736 6.24958 11.4557L6.24951 14.388C6.24919 14.4483 6.21267 14.5026 6.15683 14.5257C6.10098 14.5489 6.03668 14.5364 5.99363 14.494L4.22047 12.72C4.07938 12.5793 4 12.3884 4 12.1893V11.1913C4 8.51733 4.2786 7.54733 4.80173 6.56933C5.3126 5.60358 6.10264 4.81338 7.06928 4.30133C8.0376 3.78389 8.99807 3.5056 11.6115 3.50008L16.388 3.5Z" fill="#D97EE8"/>
</svg>
