<svg width="21" height="16" viewBox="0 0 21 16" fill="none" xmlns="http://www.w3.org/2000/svg">
<path d="M4.6921 15.6213C3.28065 15.6213 2.13624 15.1253 1.25886 14.1335C0.419619 13.1035 0 11.7684 0 10.1281C0 7.99182 0.629428 6.00817 1.88828 4.17711C3.14714 2.3079 4.71117 0.915531 6.58038 0L6.92371 0.686646C6.12262 1.297 5.41689 2.07902 4.80654 3.0327C4.19619 3.98637 3.75749 5.16893 3.49046 6.58038L4.6921 6.86649C6.02725 7.17166 7.05722 7.74387 7.78202 8.5831C8.54496 9.38419 8.92643 10.3569 8.92643 11.5014C8.92643 12.7221 8.50681 13.7139 7.66757 14.4768C6.86648 15.2398 5.87466 15.6213 4.6921 15.6213ZM16.7657 15.6213C15.3542 15.6213 14.2098 15.1253 13.3324 14.1335C12.4932 13.1035 12.0736 11.7684 12.0736 10.1281C12.0736 7.99182 12.703 6.00817 13.9619 4.17711C15.2207 2.3079 16.7847 0.915531 18.654 0L18.9973 0.686646C18.1962 1.297 17.4905 2.07902 16.8801 3.0327C16.2698 3.98637 15.8311 5.16893 15.564 6.58038L16.7657 6.86649C18.1008 7.17166 19.1308 7.74387 19.8556 8.5831C20.6185 9.38419 21 10.3569 21 11.5014C21 12.7221 20.5804 13.7139 19.7411 14.4768C18.9401 15.2398 17.9482 15.6213 16.7657 15.6213Z" fill="#000248"/>
</svg>
