<svg width="36" height="36" viewBox="0 0 36 36" fill="none" xmlns="http://www.w3.org/2000/svg">
<g clip-path="url(#clip0_109_3011)">
<path d="M35.2324 23.1619C34.0583 27.1957 31.6694 30.4637 28.1334 32.876C21.1807 37.6173 13.153 36.3623 8.19141 33.083C8.75039 32.6665 9.32073 32.2428 9.88986 31.8311C11.9693 33.036 14.1241 33.737 16.2997 33.9143C19.5897 34.1827 22.5537 33.6894 25.1103 32.4458C27.7058 31.1837 29.8904 29.1456 31.6055 26.387C33.1804 23.8539 34.0051 21.1941 34.0571 18.4825C34.1084 15.8363 33.424 13.1253 32.0224 10.4232C31.9848 10.3506 31.9483 10.2899 31.9041 10.2191C31.8844 10.1864 31.8605 10.1483 31.8337 10.1025L31.372 9.3289L29.9967 10.3964L30.232 6.11328L34.3258 7.09213L32.9773 8.07574L33.3344 8.6922C36.0732 13.4127 36.6931 18.1457 35.2324 23.1619Z" fill="#2690D4"/>
<path d="M0.66192 13.1973C1.75123 9.14034 4.07018 5.82357 7.55489 3.33747C14.4067 -1.54843 22.4588 -0.461883 27.4879 2.71327C26.9379 3.14111 26.3765 3.57668 25.8163 4.00035C23.7123 2.83942 21.5427 2.18368 19.3641 2.05218C16.0693 1.85284 13.1167 2.40801 10.5863 3.70461C8.01773 5.02085 5.87674 7.1041 4.22008 9.89783C2.69899 12.4631 1.93099 15.1396 1.93576 17.8518C1.93994 20.4985 2.68168 23.1947 4.13946 25.8664C4.17828 25.9378 4.2165 25.9979 4.26189 26.0681C4.28219 26.1009 4.30668 26.1384 4.33475 26.183L4.81251 26.9464L6.16519 25.8504L6.02007 30.1376L1.9059 29.2451L3.2335 28.2335L2.86323 27.6248C0.027088 22.9626 -0.692547 18.2439 0.66192 13.1973Z" fill="#2690D4"/>
<path d="M26.1978 12.3815V8.65894C26.1978 8.39891 25.9858 8.18767 25.7248 8.18767H22.8869C22.6259 8.18767 22.4139 8.39831 22.4139 8.65894V10.0466L19.0707 7.98357C18.4048 7.57299 17.5616 7.57299 16.8951 7.98476L6.73242 14.2684V19.1103L8.62617 17.9398V26.731C8.62617 27.6129 9.3458 28.3299 10.2309 28.3299H25.7642C26.6493 28.3299 27.3689 27.6129 27.3689 26.731V17.9428L29.2657 19.1127V14.2744L26.1978 12.3815ZM25.2435 26.2109H20.6856V18.21C20.6856 17.9143 20.4449 17.6744 20.1481 17.6744H15.8482C15.5514 17.6744 15.3107 17.9143 15.3107 18.21V20.8877H16.9232C17.22 20.8877 17.4607 21.1275 17.4607 21.4232C17.4607 21.719 17.22 21.9588 16.9232 21.9588H15.3107V26.2109H10.7528V16.6248L12.6519 15.4508L16.0787 13.3318L17.9862 12.1524L19.8973 13.3318L23.3312 15.4508L25.2435 16.6307V26.2109Z" fill="#000248"/>
</g>
<defs>
<clipPath id="clip0_109_3011">
<rect width="36" height="36" fill="white"/>
</clipPath>
</defs>
</svg>
