<svg width="181" height="72" viewBox="0 0 181 72" fill="none" xmlns="http://www.w3.org/2000/svg">
<path d="M177.308 29.8697L180.157 24.7619V24.6699H172.69V24.7619L175.356 30.416C175.495 30.675 175.576 30.9632 175.593 31.2596C175.547 31.5499 175.468 31.8332 175.356 32.1032L171.818 41.0859L167.415 28.3176C167.342 28.1498 167.31 27.9648 167.325 27.7809C167.342 27.5968 167.402 27.4203 167.503 27.2685L169.248 24.7619V24.6699H157.929V24.7619L159.109 26.9494C159.4 27.5587 159.618 28.0608 159.764 28.4555L167.889 49.9793L167.63 50.7094C167.175 51.8124 166.616 52.8642 165.956 53.8488C165.744 54.1056 165.456 54.2816 165.136 54.349C165.221 53.9898 165.264 53.6213 165.266 53.2512C165.289 52.2838 165.035 51.3311 164.537 50.5148C164.039 49.6986 163.32 49.0559 162.471 48.6687C161.62 48.2816 160.68 48.1677 159.768 48.3416C158.857 48.5153 158.015 48.9691 157.351 49.6447C156.688 50.3203 156.232 51.187 156.042 52.1343C155.853 53.0817 155.937 54.0664 156.287 54.9629C156.636 55.8594 157.234 56.6268 158.002 57.1673C158.771 57.7077 159.677 57.9964 160.604 57.9967H160.71H160.811C161.989 58.0353 163.15 57.7098 164.152 57.0611C165.069 56.4393 165.978 55.3983 166.882 53.938C168.342 51.5331 169.598 48.9997 170.636 46.3669L176.228 32.2302C176.522 31.4068 176.887 30.6131 177.319 29.8589L177.308 29.8697ZM173.763 44.1144C173.759 44.7355 173.932 45.3438 174.26 45.8621C174.588 46.3804 175.056 46.7854 175.604 47.0258C176.153 47.2661 176.758 47.3309 177.342 47.2121C177.926 47.0931 178.462 46.7959 178.885 46.358C179.307 45.9201 179.595 45.3612 179.712 44.7523C179.83 44.1433 179.771 43.5117 179.545 42.9374C179.317 42.3631 178.932 41.8721 178.438 41.5266C177.944 41.1812 177.362 40.9967 176.767 40.9967C176.373 40.9927 175.982 41.0706 175.617 41.2257C175.252 41.3806 174.921 41.6099 174.641 41.8998C174.361 42.1899 174.14 42.535 173.988 42.9153C173.838 43.2953 173.762 43.703 173.763 44.1144ZM174.104 44.1144C174.111 43.5662 174.274 43.0323 174.57 42.5798C174.866 42.1272 175.284 41.7765 175.771 41.5715C176.258 41.3665 176.793 41.3164 177.306 41.4277C177.821 41.5389 178.292 41.8062 178.662 42.1963C179.03 42.5864 179.28 43.0819 179.381 43.6201C179.48 44.1583 179.426 44.7153 179.224 45.2212C179.021 45.7271 178.679 46.1592 178.243 46.4632C177.806 46.767 177.293 46.9292 176.767 46.9292C176.415 46.9271 176.067 46.8526 175.742 46.7099C175.419 46.5674 175.124 46.3594 174.877 46.0979C174.63 45.8365 174.435 45.5268 174.302 45.1864C174.169 44.846 174.102 44.4818 174.104 44.1144ZM177.013 42.7273H175.835V45.488H176.298V44.5254H176.88L177.531 45.488H178.083L177.368 44.4416C177.551 44.4017 177.713 44.2961 177.828 44.1433C177.944 43.9906 178.002 43.8003 177.997 43.606C178 43.4967 177.982 43.3877 177.944 43.2857C177.907 43.1836 177.849 43.0902 177.777 43.0111C177.671 42.915 177.548 42.8417 177.414 42.7953C177.28 42.7489 177.14 42.7304 177.001 42.7408L177.013 42.7273ZM176.964 43.1815C177.306 43.1815 177.51 43.3438 177.51 43.6385C177.51 43.9089 177.298 44.1009 176.966 44.1009H176.285V43.1734L176.964 43.1815Z" fill="black"/>
<path fill-rule="evenodd" clip-rule="evenodd" d="M156.329 44.5227C157.916 42.4876 158.709 39.6448 158.709 35.9943C158.709 32.5007 157.829 29.6742 156.069 27.5146C155.254 26.4737 154.222 25.6404 153.052 25.0781C151.883 24.5159 150.606 24.2394 149.319 24.2698C146.61 24.2698 144.732 25.4857 143.685 27.9175H143.642V14L133.997 15.1816V15.2736L136.093 17.3719C136.228 17.5241 136.333 17.7034 136.401 17.899C136.468 18.0947 136.497 18.3026 136.486 18.5103V44.4146C136.429 44.6067 136.324 44.7793 136.18 44.9149L133.997 47.1483V47.2402H143.694V42.9571C144.973 46.0595 147.113 47.6099 150.114 47.6081C152.674 47.6081 154.746 46.5895 156.329 44.5525V44.5227ZM151.15 35.797C151.15 38.7137 150.75 40.8417 149.951 42.1812C149.152 43.5205 148.082 44.1893 146.74 44.1875C145.544 44.1875 144.526 43.6097 143.684 42.4543V28.3637C144.013 27.9052 144.446 27.5371 144.941 27.2908C145.438 27.0446 145.984 26.9274 146.533 26.9494C147.87 26.9494 148.977 27.6571 149.85 29.0722C150.724 30.4872 151.161 32.7288 151.161 35.797H151.15Z" fill="black"/>
<path fill-rule="evenodd" clip-rule="evenodd" d="M133.427 45.1006C133.663 44.5881 133.782 44.0252 133.774 43.4565H133.689C133.586 43.7035 133.414 43.9128 133.196 44.0573C132.978 44.2018 132.724 44.2751 132.466 44.2678C131.591 44.2678 131.197 43.3863 131.285 41.6233L131.544 35.1336C131.544 35.103 131.552 34.8678 131.568 34.428C131.568 34.1593 131.575 33.9379 131.581 33.765C131.585 33.6541 131.588 33.563 131.588 33.4922C131.588 30.1808 130.861 27.8094 129.405 26.3781C127.979 24.981 125.722 24.2816 122.635 24.2798C119.842 24.2798 116.9 24.8575 113.812 26.013L116.565 32.5351H116.65L120.188 25.694C120.279 25.5154 120.407 25.3596 120.561 25.237C120.822 25.1549 121.096 25.1247 121.369 25.1478C123.496 25.1478 124.559 26.8955 124.557 30.3909V30.618L124.469 35.4987C123.364 34.6767 121.821 34.2666 119.841 34.2684C117.975 34.2362 116.158 34.89 114.708 36.1152C113.237 37.3446 112.501 39.0237 112.501 41.1528C112.501 43.1591 113.069 44.7329 114.205 45.874C114.768 46.4379 115.432 46.8795 116.159 47.1729C116.887 47.4663 117.663 47.6056 118.442 47.5829C119.755 47.6049 121.041 47.1874 122.11 46.3913C123.179 45.5952 123.976 44.4625 124.383 43.1591C124.44 44.558 124.92 45.645 125.823 46.4201C126.762 47.209 127.939 47.6214 129.143 47.5829C131.215 47.5829 132.642 46.7474 133.424 45.0763L133.427 45.1006ZM124.469 35.9557L124.383 42.6129V42.6589C123.713 43.7207 122.883 44.2525 121.892 44.2543C121.525 44.2581 121.163 44.166 120.84 43.9865C120.516 43.8071 120.24 43.5458 120.037 43.2268C119.556 42.5453 119.315 41.5954 119.315 40.3767C119.315 39.0086 119.628 37.8864 120.255 37.0021C120.549 36.5759 120.939 36.2322 121.391 36.0015C121.843 35.7708 122.342 35.6603 122.845 35.6799C123.394 35.6773 123.94 35.7687 124.461 35.9502L124.469 35.9557Z" fill="black"/>
<path fill-rule="evenodd" clip-rule="evenodd" d="M108.894 44.5227C110.48 42.4876 111.274 39.6448 111.274 35.9943C111.274 32.5007 110.393 29.6742 108.632 27.5146C107.817 26.4737 106.786 25.6404 105.616 25.0781C104.447 24.5159 103.17 24.2394 101.883 24.2698C99.174 24.2698 97.2964 25.4857 96.25 27.9175H96.206V14L86.5615 15.1816V15.2736L88.6567 17.3719C88.7925 17.5241 88.8973 17.7034 88.965 17.899C89.0327 18.0947 89.0616 18.3026 89.0503 18.5103V44.4146C88.9928 44.6067 88.8873 44.7793 88.7447 44.9149L86.5615 47.1483V47.2402H96.2578V42.9571C97.5371 46.0595 99.6772 47.6099 102.678 47.6081C105.238 47.6081 107.31 46.5895 108.894 44.5525V44.5227ZM103.714 35.797C103.714 38.7137 103.314 40.8417 102.515 42.1812C101.716 43.5205 100.645 44.1893 99.3035 44.1875C98.1087 44.1875 97.09 43.6097 96.2475 42.4543V28.3637C96.5777 27.9052 97.0092 27.5371 97.5053 27.2908C98.0015 27.0446 98.5474 26.9274 99.0963 26.9494C100.434 26.9494 101.54 27.6571 102.414 29.0722C103.288 30.4872 103.724 32.7288 103.724 35.797H103.714Z" fill="black"/>
<path d="M75.7829 25.9475C75.1129 26.4955 74.778 27.286 74.778 28.3188H74.7884C74.7732 28.7483 74.8498 29.1758 75.0123 29.5704C75.175 29.9651 75.4196 30.3172 75.7285 30.6011C76.3552 31.1798 77.3817 31.8025 78.8078 32.4695L81.6022 33.7459C83.1734 34.4453 84.3742 35.2663 85.2047 36.2091C86.0352 37.1519 86.4504 38.4291 86.4504 40.0407C86.4366 42.4527 85.5422 44.3194 83.7674 45.6408C81.9924 46.9621 79.6193 47.6228 76.6479 47.6228C73.9141 47.6324 71.1989 47.1541 68.6194 46.2085L71.0228 39.1403H71.1109L74.6045 46.2085C74.6784 46.3955 74.8067 46.5535 74.9711 46.6602C75.1356 46.7669 75.328 46.8171 75.5213 46.8034H76.5288C77.7788 46.8034 78.7758 46.4987 79.5201 45.8895C79.8772 45.609 80.1649 45.243 80.3586 44.8224C80.5524 44.4017 80.6467 43.9386 80.6336 43.4722C80.6497 43.0742 80.5771 42.6779 80.4217 42.3142C80.2662 41.9506 80.032 41.6296 79.7375 41.3766C79.1401 40.8573 78.0411 40.2184 76.4406 39.4595L73.4702 38.002C70.6455 36.5923 69.2331 34.4291 69.2331 31.5123C69.2297 29.3221 70.0309 27.5735 71.6366 26.2666C73.2423 24.9596 75.4263 24.3062 78.1888 24.3062C80.7956 24.3135 83.3867 24.7291 85.8755 25.5392L83.4281 32.1504H83.3427L79.9448 25.8204C79.8535 25.621 79.7116 25.4517 79.5343 25.3311C79.357 25.2104 79.1514 25.143 78.9399 25.1363H78.3158C77.4076 25.0979 76.5142 25.384 75.7829 25.9475Z" fill="black"/>
<path fill-rule="evenodd" clip-rule="evenodd" d="M58.3317 47.2457H68.0279V47.1537L65.8343 44.9256C65.6966 44.7838 65.59 44.6124 65.5221 44.4234C65.4541 44.2343 65.4263 44.032 65.4407 43.8305V14L55.7884 15.1816V15.2736L57.8862 17.3719C58.0336 17.5173 58.1488 17.6944 58.224 17.891C58.299 18.0876 58.3322 18.2989 58.3213 18.5103V27.9499C57.2732 25.5181 55.3956 24.3023 52.6884 24.3023C51.4012 24.2719 50.1243 24.5483 48.9548 25.1106C47.7853 25.6728 46.754 26.5061 45.9392 27.547C44.1782 29.7102 43.2976 32.5368 43.2976 36.0268C43.2976 39.6772 44.091 42.52 45.6777 44.5552C47.2645 46.5904 49.3363 47.6089 51.8932 47.6107C54.8923 47.6107 57.0323 46.0604 58.3135 42.9599L58.3317 47.2457ZM58.3317 42.4569C57.4874 43.6143 56.4687 44.1919 55.2757 44.1901C53.9342 44.1901 52.8636 43.5214 52.0643 42.1838C51.2649 40.8462 50.8643 38.7181 50.8627 35.7997C50.8627 32.7351 51.2994 30.4935 52.173 29.0749C53.0467 27.6561 54.1534 26.9486 55.4932 26.9522C56.0422 26.9304 56.588 27.0475 57.0841 27.2939C57.5802 27.54 58.0117 27.9081 58.342 28.3664L58.3317 42.4569Z" fill="black"/>
<path fill-rule="evenodd" clip-rule="evenodd" d="M41.0694 34.9203C41.0978 34.5553 41.1134 34.2199 41.1134 33.917C41.1509 32.3407 40.8675 30.7739 40.282 29.3203C39.8065 28.1296 39.0294 27.0966 38.034 26.3324C37.1101 25.6465 36.0847 25.1231 34.9988 24.783C33.8756 24.4491 32.7117 24.2878 31.5439 24.3044C28.3688 24.3044 25.7479 25.2778 23.6812 27.2247C21.6146 29.1716 20.5787 32.1352 20.5735 36.1155C20.5735 39.8848 21.6094 42.743 23.6812 44.6898C25.7531 46.6368 28.2877 47.6092 31.285 47.6074C36.6149 47.6074 39.8331 44.7953 40.9399 39.171H40.8519C39.5102 41.9705 37.2968 43.3694 34.2115 43.3676C33.3609 43.3928 32.5155 43.2197 31.7373 42.8603C30.9591 42.501 30.2674 41.9649 29.713 41.291C28.5474 39.9101 27.9656 37.8198 27.9674 35.0204V34.9203H41.0694ZM34.4316 32.7303C34.4316 33.2494 34.416 33.7037 34.3877 34.0984H27.9674C27.995 30.9077 28.3007 28.6202 28.8842 27.2357C29.4677 25.8513 30.3268 25.1599 31.4611 25.1617C32.4227 25.1617 33.1584 25.7161 33.6676 26.8247C34.1769 27.9333 34.4316 29.9018 34.4316 32.7303Z" fill="black"/>
<path d="M19.4222 25.9873C19.9201 26.8036 20.1737 27.7563 20.1506 28.7238C20.1328 29.9978 19.6322 31.2124 18.7585 32.1018C17.8848 32.9913 16.7091 33.483 15.4889 33.4693C14.5619 33.4689 13.6562 33.1802 12.8872 32.6398C12.1183 32.0993 11.5211 31.3319 11.172 30.4355C10.8228 29.539 10.7376 28.5542 10.9271 27.6069C11.1166 26.6596 11.5723 25.7927 12.236 25.1172C12.8996 24.4416 13.7411 23.9879 14.653 23.814C15.5648 23.6402 16.5056 23.7541 17.355 24.1412C18.2045 24.5284 18.9243 25.1711 19.4222 25.9873Z" fill="black"/>
<path d="M10.3515 44.5524L14.6326 47.151V47.2429H0V47.151L2.14178 45.0554C2.27922 44.9134 2.38539 44.7419 2.45292 44.5528C2.52046 44.3638 2.54773 44.1615 2.53284 43.9603V28.1824C2.54642 27.764 2.40656 27.3558 2.14178 27.0413L0 24.7619V24.6699H9.69632V43.414C9.70249 43.6467 9.76604 43.8736 9.88083 44.073C9.99561 44.2725 10.1577 44.4376 10.3515 44.5524Z" fill="black"/>
</svg>
