<svg width="192" height="72" viewBox="0 0 192 72" fill="none" xmlns="http://www.w3.org/2000/svg">
<g clip-path="url(#clip0_3_362)">
<path d="M56.8984 47.288C56.8984 42.881 59.893 39.631 64.1373 39.631C66.1116 39.631 67.5608 40.1985 68.6034 40.8691V44.8708H68.5665C67.4647 43.957 66.082 43.2863 64.6105 43.2863C62.5328 43.2863 61.0465 44.915 61.0465 47.2512C61.0465 49.7716 62.5919 51.275 64.6549 51.275C66.2669 51.275 67.6496 50.6265 68.7957 49.7716L68.877 49.8084L68.426 53.7733C67.302 54.4218 65.9193 54.9082 63.9451 54.9082C59.9892 54.9082 56.9132 51.9825 56.9132 47.288M106.669 39.8742H110.662V54.665H106.669V39.8742ZM121.568 54.665H115.165V39.8742H121.502C124.807 39.8742 126.619 41.4218 126.619 43.7948C126.619 45.1582 125.901 46.271 124.578 46.9859C126.086 47.6123 127.107 48.7325 127.107 50.4201C127.107 53.1395 124.763 54.665 121.561 54.665M118.958 45.9099H120.918C122.145 45.9099 122.855 45.2982 122.855 44.3033C122.855 43.3084 122.145 42.8442 120.999 42.8442H118.958V45.9099ZM121.117 51.7393C122.419 51.7393 123.195 51.1276 123.195 50.1106C123.195 49.0125 122.419 48.4893 121.058 48.4893H118.958V51.7393H121.117ZM137.037 54.665H130.634V39.8742H136.97C140.276 39.8742 142.087 41.4218 142.087 43.7948C142.087 45.1582 141.377 46.271 140.046 46.9859C141.555 47.6123 142.575 48.7325 142.575 50.4201C142.575 53.1395 140.231 54.665 137.03 54.665M134.427 45.9099H136.386C137.606 45.9099 138.324 45.2982 138.324 44.3033C138.324 43.3084 137.614 42.8442 136.468 42.8442H134.427V45.9099ZM136.593 51.7393C137.895 51.7393 138.671 51.1276 138.671 50.1106C138.671 49.0125 137.895 48.4893 136.534 48.4893H134.434V51.7393H136.593ZM145.895 39.8742H155.744L156.277 43.2274H149.873V45.7257H155.256V48.6883H149.873V51.3118H156.336L155.804 54.665H145.895V39.8742ZM177.498 39.8742H181.654L187.643 47.6713L187.599 39.8742H191.496V54.7019H188.257L181.343 45.7404L181.388 54.6577H177.491V39.8668L177.498 39.8742ZM103.534 54.665L99.1046 49.4252C100.901 48.644 102.025 47.1259 102.025 44.974C102.025 41.5397 99.6 39.8742 95.866 39.8742H90.3646V54.665H94.3797V50.0222H94.986L98.7867 54.665H103.534ZM94.3206 47.148V43.0874H95.7698C97.2339 43.0874 98.0916 43.7801 98.0916 45.055C98.0916 46.33 97.2117 47.148 95.7255 47.148H94.3206ZM163.568 51.9825L162.628 54.665H158.532L164.196 39.8374H168.884L174.548 54.665H170.452L169.512 51.9825H163.56H163.568ZM168.536 48.8578L166.54 43.2716L164.544 48.8578H168.536ZM76.2638 51.9825L75.3248 54.665H71.2284L76.8924 39.8374H81.5803L87.2443 54.665H83.1479L82.2088 51.9825H76.2565H76.2638ZM81.2328 48.8578L79.2363 43.2716L77.2399 48.8578H81.2328ZM79.0958 32.7846C74.7111 32.7846 71.7164 29.4757 71.7164 25.1055C71.7164 20.7353 74.7924 17.3821 79.118 17.3821C83.4436 17.3821 86.4975 20.6911 86.4975 25.0613C86.4975 29.4315 83.4436 32.7773 79.0958 32.7773M79.0737 20.9417C77.1807 20.9417 75.8128 22.5851 75.8128 25.0686C75.8128 27.5522 77.1586 29.2325 79.118 29.2325C81.0775 29.2325 82.4011 27.6038 82.4011 25.1055C82.4011 22.6072 81.0109 20.9417 79.0811 20.9417M96.6202 26.7563V32.4825H92.6273V26.771L87.4735 17.6917H92.021L94.7346 23.0715L97.4483 17.6917H101.767L96.6276 26.7489L96.6202 26.7563ZM119.838 17.6917H123.853V28.9451H130.286L129.724 32.4825H119.838V17.6917ZM70.3115 32.4825L65.8824 27.2427C67.6792 26.4615 68.8031 24.9434 68.8031 22.7914C68.8031 19.3572 66.3778 17.6917 62.6511 17.6917H57.1498V32.4825H61.1648V27.8396H61.7712L65.5718 32.4825H70.3189H70.3115ZM61.0983 24.9655V20.9048H62.5476C64.0116 20.9048 64.8693 21.5976 64.8693 22.8725C64.8693 24.1474 63.9968 24.9655 62.5032 24.9655H61.0983ZM106.011 29.7999L105.072 32.4825H100.975L106.639 17.6548H111.327L116.991 32.4825H112.895L111.956 29.7999H106.003H106.011ZM110.98 26.6752L108.983 21.0891L106.987 26.6752H110.98ZM1.51559 26.4099L0.0367432 11.1696L9.07989 17.6769L5.87818 21.2291L10.9654 24.7149L18.5963 21.3175L15.6534 17.5369L23.4838 9.96094L31.3143 17.5295L28.3714 21.3101L36.0023 24.7075L41.0895 21.2217L37.8878 17.6696L46.9235 11.1696L45.4447 26.4099H1.51559ZM1.78178 29.1588L2.2698 34.2291H18.5593V51.7761H10.6327C8.86545 51.7761 7.33485 50.4201 7.33485 48.8357C7.33485 47.2512 9.02073 45.8804 10.8767 44.8266L2.75043 39.2183L4.24406 54.6724L23.4764 61.9609L42.7088 54.6724L44.2025 39.2183L36.0762 44.8266C37.9322 45.8878 39.618 47.2586 39.618 48.8357C39.618 50.4128 38.0874 51.7761 36.3202 51.7761H28.401V34.2291H44.6831L45.1785 29.1588H1.78178Z" fill="#001871"/>
</g>
<defs>
<clipPath id="clip0_3_362">
<rect width="191.533" height="52" fill="white" transform="translate(0 9.96094)"/>
</clipPath>
</defs>
</svg>
