<svg width="167" height="100" viewBox="0 0 167 100" fill="none" xmlns="http://www.w3.org/2000/svg">
<g clip-path="url(#clip0_87_2356)">
<path d="M53.3937 58.8715C53.3937 55.4201 55.739 52.8749 59.0629 52.8749C60.609 52.8749 61.744 53.3193 62.5605 53.8445V56.9785H62.5316C61.6688 56.2628 60.5859 55.7376 59.4335 55.7376C57.8063 55.7376 56.6423 57.0131 56.6423 58.8427C56.6423 60.8165 57.8526 61.9939 59.4683 61.9939C60.7306 61.9939 61.8135 61.486 62.7111 60.8165L62.7748 60.8454L62.4216 63.9505C61.5414 64.4584 60.4585 64.8393 58.9123 64.8393C55.8142 64.8393 53.4053 62.548 53.4053 58.8715M92.3717 53.0653H95.4987V64.6488H92.3717V53.0653ZM104.04 64.6488H99.0253V53.0653H103.988C106.577 53.0653 107.995 54.2774 107.995 56.1358C107.995 57.2035 107.434 58.075 106.397 58.6349C107.578 59.1255 108.377 60.0027 108.377 61.3244C108.377 63.4541 106.542 64.6488 104.034 64.6488M101.996 57.7922H103.531C104.492 57.7922 105.048 57.3132 105.048 56.534C105.048 55.7549 104.492 55.3913 103.594 55.3913H101.996V57.7922ZM103.687 62.3575C104.706 62.3575 105.314 61.8785 105.314 61.082C105.314 60.2221 104.706 59.8123 103.641 59.8123H101.996V62.3575H103.687ZM116.155 64.6488H111.14V53.0653H116.102C118.691 53.0653 120.11 54.2774 120.11 56.1358C120.11 57.2035 119.554 58.075 118.511 58.6349C119.693 59.1255 120.492 60.0027 120.492 61.3244C120.492 63.4541 118.656 64.6488 116.149 64.6488M114.11 57.7922H115.645C116.6 57.7922 117.162 57.3132 117.162 56.534C117.162 55.7549 116.606 55.3913 115.709 55.3913H114.11V57.7922ZM115.807 62.3575C116.826 62.3575 117.434 61.8785 117.434 61.082C117.434 60.2221 116.826 59.8123 115.761 59.8123H114.116V62.3575H115.807ZM123.092 53.0653H130.805L131.222 55.6914H126.207V57.648H130.423V59.9681H126.207V62.0228H131.269L130.852 64.6488H123.092V53.0653ZM147.842 53.0653H151.096L155.787 59.1716L155.752 53.0653H158.804V64.6777H156.268L150.853 57.6595L150.888 64.6431H147.836V53.0596L147.842 53.0653ZM89.9164 64.6488L86.4477 60.5453C87.8548 59.9335 88.735 58.7445 88.735 57.0593C88.735 54.3697 86.8357 53.0653 83.9113 53.0653H79.6029V64.6488H82.7473V61.0128H83.2222L86.1987 64.6488H89.9164ZM82.701 58.7619V55.5817H83.836C84.9826 55.5817 85.6543 56.1243 85.6543 57.1227C85.6543 58.1212 84.9652 58.7619 83.8013 58.7619H82.701ZM136.932 62.548L136.197 64.6488H132.988L137.424 53.0365H141.096L145.531 64.6488H142.323L141.588 62.548H136.926H136.932ZM140.823 60.1009L139.26 55.726L137.696 60.1009H140.823ZM68.5598 62.548L67.8244 64.6488H64.6163L69.0521 53.0365H72.7234L77.1592 64.6488H73.9511L73.2156 62.548H68.554H68.5598ZM72.4513 60.1009L70.8877 55.726L69.3242 60.1009H72.4513ZM70.7777 47.5131C67.3438 47.5131 64.9985 44.9217 64.9985 41.4992C64.9985 38.0767 67.4075 35.4506 70.7951 35.4506C74.1827 35.4506 76.5743 38.042 76.5743 41.4646C76.5743 44.8871 74.1827 47.5074 70.7777 47.5074M70.7603 38.2383C69.2779 38.2383 68.2066 39.5253 68.2066 41.4703C68.2066 43.4153 69.2605 44.7312 70.7951 44.7312C72.3297 44.7312 73.3662 43.4557 73.3662 41.4992C73.3662 39.5426 72.2775 38.2383 70.7661 38.2383M84.5019 42.792V47.2765H81.3749V42.8036L77.3387 35.693H80.9001L83.0253 39.9062L85.1505 35.693H88.5324L84.5077 42.7862L84.5019 42.792ZM102.685 35.693H105.83V44.5062H110.868L110.427 47.2765H102.685V35.693ZM63.8982 47.2765L60.4295 43.1729C61.8367 42.5611 62.7169 41.3722 62.7169 39.6869C62.7169 36.9974 60.8175 35.693 57.8989 35.693H53.5906V47.2765H56.735V43.6404H57.2098L60.1863 47.2765H63.904H63.8982ZM56.6829 41.3895V38.2094H57.8179C58.9644 38.2094 59.6362 38.7519 59.6362 39.7504C59.6362 40.7489 58.9529 41.3895 57.7831 41.3895H56.6829ZM91.8563 45.1757L91.1209 47.2765H87.9127L92.3485 35.6642H96.0199L100.456 47.2765H97.2475L96.5121 45.1757H91.8505H91.8563ZM95.7477 42.7285L94.1842 38.3537L92.6207 42.7285H95.7477ZM10.0205 42.5207L8.8623 30.5852L15.9445 35.6815L13.437 38.4634L17.4211 41.1933L23.3973 38.5326L21.0925 35.5718L27.225 29.6387L33.3575 35.566L31.0527 38.5268L37.0288 41.1875L41.0129 38.4576L38.5055 35.6757L45.5819 30.5852L44.4237 42.5207H10.0205ZM10.2289 44.6735L10.6111 48.6444H23.3683V62.3864H17.1605C15.7765 62.3864 14.5778 61.3244 14.5778 60.0835C14.5778 58.8427 15.8981 57.7692 17.3516 56.9438L10.9875 52.5517L12.1573 64.6546L27.2192 70.3627L42.2811 64.6546L43.4509 52.5517L37.0867 56.9438C38.5402 57.7749 39.8605 58.8484 39.8605 60.0835C39.8605 61.3187 38.6618 62.3864 37.2778 62.3864H31.0759V48.6444H43.8273L44.2152 44.6735H10.2289Z" fill="white"/>
</g>
<defs>
<clipPath id="clip0_87_2356">
<rect width="150" height="40.724" fill="white" transform="translate(8.83301 29.6387)"/>
</clipPath>
</defs>
</svg>
