<svg width="120" height="100" viewBox="0 0 120 100" fill="none" xmlns="http://www.w3.org/2000/svg">
<path d="M49.1914 46.6619C47.4213 35.7379 38.0145 28 27.2928 28C26.079 28 24.8652 28.1012 23.6514 28.3035C11.5136 30.2759 3.32058 41.7562 5.29298 53.8435C7.06308 64.7169 16.5205 72.4548 27.1916 72.4548C28.4054 72.4548 29.6192 72.3536 30.833 72.1513C43.0214 70.1789 51.2144 58.7492 49.1914 46.6619ZM21.7296 61.4802H21.679C19.7066 61.4802 18.1388 59.9124 18.1388 57.94C18.1388 57.8894 18.1388 57.8388 18.1388 57.7883C18.1388 57.2319 18.3411 56.625 18.594 56.1193L21.2744 51.6182C21.3756 51.4665 21.5273 51.3653 21.679 51.3653C21.8308 51.3653 21.9825 51.4665 22.0836 51.6182L24.7641 56.1193C25.0675 56.625 25.2192 57.1814 25.2192 57.7883C25.2192 57.8388 25.2192 57.8894 25.2192 57.94C25.2698 59.8618 23.702 61.4802 21.7296 61.4802ZM37.5593 61.025C37.5088 61.1767 37.357 61.2779 37.2053 61.3285C36.6996 61.4296 36.0421 61.4802 35.4858 61.4802C35.0306 61.4802 34.6766 61.4296 34.3732 61.379C30.833 60.7216 28.81 58.4963 27.6468 56.8779C26.9388 55.8664 26.0284 54.3998 26.0284 54.3998L23.6009 50.3538C23.4997 50.2021 23.4997 50.0504 23.6009 49.8987C23.702 49.747 23.8537 49.6458 24.0054 49.6458H28.7089C29.6192 49.6458 30.3778 49.3424 30.9341 48.7355C31.4399 48.2297 31.6927 47.5217 31.6927 46.7631C31.6927 46.0045 31.4399 45.347 30.9341 44.7907C30.3778 44.1838 29.6192 43.8803 28.7089 43.8803H23.5503C22.1342 43.8803 20.8193 43.3746 19.8584 42.5148C18.9986 41.7056 18.4423 40.6436 18.24 39.4804C18.24 39.3287 18.24 39.2275 18.3411 39.1264C18.4423 39.0252 18.5434 38.9746 18.6952 38.9746H28.5571C29.7203 38.9746 30.833 39.1264 31.7939 39.3792C32.8054 39.6827 33.6651 40.0873 34.3732 40.6942C35.941 41.9585 36.7502 43.8298 36.8007 46.3079C36.8007 48.3309 36.3961 49.9492 35.6375 51.2136C34.9295 52.3768 33.8674 53.186 32.4513 53.5906L32.249 53.6412L32.0973 53.6917L32.1985 53.7929L32.2996 53.9446L37.5088 60.5698C37.6099 60.7216 37.6099 60.8733 37.5593 61.025Z" fill="white"/>
<path d="M66.8419 41.7562H63.2511L60.5707 38.0137H59.4581V41.7562H56.2213V30.2253H61.8351C64.7684 30.2253 66.3362 32.0965 66.3362 34.1701C66.3362 35.5861 65.8304 36.7999 63.9086 37.6597L66.8925 41.5539V41.7562H66.8419ZM59.4581 32.8046V35.5861H61.8856C62.7454 35.5861 63.0994 34.9287 63.0994 34.2712C63.0994 33.5632 62.6948 32.8551 61.8351 32.8551H59.4581V32.8046Z" fill="white"/>
<path d="M78.8785 30.2253V36.6482C78.8785 40.0367 76.805 41.9585 73.4671 41.9585C70.1292 41.9585 68.0557 40.1378 68.0557 36.5976V30.2253H71.2924V36.6482C71.2924 38.4689 72.1522 39.2275 73.4671 39.2275C74.782 39.2275 75.6418 38.4183 75.6418 36.6988V30.2253H78.8785Z" fill="white"/>
<path d="M87.982 33.4114C87.1728 32.8046 86.2625 32.6023 85.3015 32.6023C84.4924 32.6023 83.7338 32.8551 83.7338 33.462C83.7338 34.2712 84.4924 34.3724 85.6556 34.4735C87.9314 34.7264 90.3084 35.6367 90.3084 38.3172C90.3084 40.947 87.8303 42.0596 85.251 42.0596C83.1774 42.0596 81.7108 41.7056 80.0924 40.0367L81.8625 37.9631C82.9751 39.0758 84.2901 39.2781 85.251 39.2781C86.313 39.2781 87.0716 38.924 87.0716 38.2666C87.0716 37.7103 86.4142 37.3057 85.1498 37.2045C82.6211 36.9516 80.4464 36.3448 80.4464 33.462C80.4464 31.0345 82.8234 29.9724 85.251 29.9724C86.9705 29.9724 88.336 30.377 89.5498 31.3379L87.982 33.4114Z" fill="white"/>
<path d="M99.1083 41.7562V37.4068H94.9612V41.7562H91.7245V30.2253H94.9612V34.6252H99.1083V30.2253H102.345V41.7562H99.1083Z" fill="white"/>
<path d="M61.9362 56.3216C58.1431 56.3216 55.5132 54.1469 55.5132 50.3032C55.5132 46.5102 58.1431 44.2849 61.9362 44.2849C65.7292 44.2849 68.3591 46.5102 68.3591 50.3032C68.3591 54.0963 65.7292 56.3216 61.9362 56.3216ZM61.9362 47.0159C60.0649 47.0159 58.8006 48.3814 58.8006 50.2527C58.8006 52.1745 60.1155 53.4894 61.9362 53.4894C63.858 53.4894 65.0718 52.1239 65.0718 50.2527C65.1223 48.2803 63.858 47.0159 61.9362 47.0159Z" fill="white"/>
<path d="M80.5476 56.0181H76.9568L74.2764 52.2756H73.1638V56.0181H69.927V44.4872H75.5407C78.4741 44.4872 80.0419 46.3585 80.0419 48.432C80.0419 49.8481 79.5361 51.0619 77.6143 51.9216L80.5982 55.8158V56.0181H80.5476ZM73.1638 47.1171V49.8987H75.5913C76.4511 49.8987 76.8051 49.2412 76.8051 48.5837C76.8051 47.8757 76.4005 47.1676 75.5407 47.1676H73.1638V47.1171Z" fill="white"/>
<path d="M86.8187 44.4872C90.8646 44.4872 92.837 46.9653 92.837 50.1515C92.837 53.3377 90.9152 56.0181 86.8187 56.0181H81.8624V44.4872H86.8187ZM85.0992 53.2871H86.8187C88.8922 53.2871 89.6003 51.7193 89.6003 50.1515C89.6003 48.5837 88.7911 47.2182 86.8187 47.2182H85.0992V53.2871Z" fill="white"/>
<path d="M103.609 56.0181H94.4049V44.4872H103.407V47.2182H97.6417V48.8872H103.053V51.517H97.5911V53.2871H103.609V56.0181Z" fill="white"/>
<path d="M115.95 56.0181H112.359L109.678 52.2756H108.566V56.0181H105.329V44.4872H110.943C113.876 44.4872 115.444 46.3585 115.444 48.432C115.444 49.8481 114.938 51.0619 113.016 51.9216L116 55.8158V56.0181H115.95ZM108.566 47.1171V49.8987H110.993C111.853 49.8987 112.207 49.2412 112.207 48.5837C112.207 47.8757 111.802 47.1676 110.943 47.1676H108.566V47.1171Z" fill="white"/>
<path d="M58.6489 61.4296H55.311V58.7491H65.2741V61.4296H61.8856V70.2801H58.6489V61.4296Z" fill="white"/>
<path d="M75.7428 70.2801H66.5383V58.7491H75.5405V61.4802H69.7751V63.1491H75.2371V65.779H69.7751V67.5491H75.7428V70.2801Z" fill="white"/>
<path d="M86.6164 70.2801H77.4119V58.7491H86.4141V61.4802H80.6486V63.1491H86.1106V65.779H80.6486V67.5491H86.667V70.2801H86.6164Z" fill="white"/>
<path d="M95.4163 61.9859C94.6071 61.379 93.6968 61.1767 92.7359 61.1767C91.9267 61.1767 91.1681 61.4296 91.1681 62.0365C91.1681 62.8457 91.9267 62.9468 93.0899 63.048C95.3657 63.3008 97.7427 64.2112 97.7427 66.8916C97.7427 69.5215 95.2646 70.6341 92.6853 70.6341C90.6118 70.6341 89.1451 70.2801 87.5267 68.6111L89.2968 66.5376C90.4095 67.6502 91.7244 67.8525 92.6853 67.8525C93.7474 67.8525 94.506 67.4985 94.506 66.841C94.506 66.2847 93.8485 65.8801 92.5842 65.779C90.0554 65.5261 87.8808 64.9192 87.8808 62.0365C87.8808 59.6089 90.2577 58.5469 92.6853 58.5469C94.4048 58.5469 95.7703 58.9514 96.9841 59.9124L95.4163 61.9859Z" fill="white"/>
</svg>
