<svg width="167" height="100" viewBox="0 0 167 100" fill="none" xmlns="http://www.w3.org/2000/svg">
<g clip-path="url(#clip0_87_2364)">
<path d="M38.4759 84.7188V81.4787H39.6886C39.9632 81.4787 40.1993 81.5234 40.3968 81.6129C40.5943 81.6993 40.7455 81.8259 40.8504 81.9925C40.9584 82.156 41.0124 82.3551 41.0124 82.5896C41.0124 82.8179 40.9584 83.0154 40.8504 83.182C40.7455 83.3456 40.5943 83.4721 40.3968 83.5616C40.1993 83.6511 39.9632 83.6958 39.6886 83.6958H38.6657L38.8184 83.5338V84.7188H38.4759ZM38.8184 83.5616L38.6657 83.395H39.6794C40.0034 83.395 40.2487 83.3255 40.4153 83.1867C40.585 83.0447 40.6699 82.8457 40.6699 82.5896C40.6699 82.3304 40.585 82.1298 40.4153 81.9879C40.2487 81.8459 40.0034 81.7749 39.6794 81.7749H38.6657L38.8184 81.6129V83.5616Z" fill="#CDA573"/>
<path d="M41.89 84.7188V81.4787H43.1027C43.3773 81.4787 43.6134 81.5234 43.8109 81.6129C44.0083 81.6993 44.1595 81.8259 44.2645 81.9925C44.3725 82.156 44.4265 82.3551 44.4265 82.5896C44.4265 82.8179 44.3725 83.0154 44.2645 83.182C44.1595 83.3456 44.0083 83.4721 43.8109 83.5616C43.6134 83.648 43.3773 83.6912 43.1027 83.6912H42.0797L42.2325 83.5338V84.7188H41.89ZM44.1025 84.7188L43.2693 83.5431H43.6396L44.4774 84.7188H44.1025ZM42.2325 83.5616L42.0797 83.3996H43.0934C43.4174 83.3996 43.6627 83.3286 43.8294 83.1867C43.9991 83.0447 44.0839 82.8457 44.0839 82.5896C44.0839 82.3304 43.9991 82.1298 43.8294 81.9879C43.6627 81.8459 43.4174 81.7749 43.0934 81.7749H42.0797L42.2325 81.6129V83.5616Z" fill="#CDA573"/>
<path d="M45.7814 82.9275H47.494V83.2191H45.7814V82.9275ZM45.8184 84.4225H47.7671V84.7188H45.4759V81.4787H47.6977V81.7749H45.8184V84.4225Z" fill="#CDA573"/>
<path d="M48.5491 84.7188V81.4787H48.8315L50.3127 84.0059H50.1645L51.6318 81.4787H51.9142V84.7188H51.5855V81.9925H51.6642L50.3127 84.3068H50.1507L48.7898 81.9925H48.8778V84.7188H48.5491Z" fill="#CDA573"/>
<path d="M53.1575 84.7188V81.4787H53.5001V84.7188H53.1575Z" fill="#CDA573"/>
<path d="M55.999 84.7465C55.5855 84.7465 55.2599 84.6277 55.0223 84.3901C54.7847 84.1525 54.6659 83.8007 54.6659 83.3348V81.4787H55.0084V83.3209C55.0084 83.7035 55.0948 83.9859 55.2676 84.1679C55.4404 84.35 55.6842 84.441 55.999 84.441C56.3168 84.441 56.5621 84.35 56.7349 84.1679C56.9077 83.9859 56.9941 83.7035 56.9941 83.3209V81.4787H57.3274V83.3348C57.3274 83.8007 57.2086 84.1525 56.971 84.3901C56.7365 84.6277 56.4124 84.7465 55.999 84.7465Z" fill="#CDA573"/>
<path d="M58.2796 84.7188V81.4787H58.562L60.0431 84.0059H59.895L61.3623 81.4787H61.6446V84.7188H61.316V81.9925H61.3947L60.0431 84.3068H59.8811L58.5203 81.9925H58.6083V84.7188H58.2796Z" fill="#CDA573"/>
<path d="M66.6241 81.4787H66.962V84.7188H66.6241V81.4787ZM64.5967 84.7188H64.2542V81.4787H64.5967V84.7188ZM66.6565 83.2237H64.5597V82.9228H66.6565V83.2237Z" fill="#CDA573"/>
<path d="M67.6626 84.7188L69.1437 81.4787H69.4816L70.9628 84.7188H70.6018L69.2409 81.6777H69.3798L68.019 84.7188H67.6626ZM68.2458 83.8532L68.3476 83.5755H70.2315L70.3333 83.8532H68.2458Z" fill="#CDA573"/>
<path d="M72.1131 84.7465C71.931 84.7465 71.7598 84.7064 71.5993 84.6262C71.4419 84.5459 71.3154 84.4318 71.2198 84.2837L71.4188 84.0522C71.5083 84.1818 71.6117 84.2806 71.7289 84.3485C71.8462 84.4163 71.9758 84.4503 72.1177 84.4503C72.5189 84.4503 72.7194 84.2127 72.7194 83.7375V81.7749H71.5345V81.4787H73.0573V83.7236C73.0573 84.0661 72.9771 84.3222 72.8166 84.4919C72.6593 84.6617 72.4248 84.7465 72.1131 84.7465Z" fill="#CDA573"/>
<path d="M74.6746 84.7465C74.4926 84.7465 74.3213 84.7064 74.1608 84.6262C74.0035 84.5459 73.8769 84.4318 73.7813 84.2837L73.9803 84.0522C74.0698 84.1818 74.1732 84.2806 74.2904 84.3485C74.4077 84.4163 74.5373 84.4503 74.6792 84.4503C75.0804 84.4503 75.281 84.2127 75.281 83.7375V81.7749H74.096V81.4787H75.6189V83.7236C75.6189 84.0661 75.5386 84.3222 75.3782 84.4919C75.2208 84.6617 74.9863 84.7465 74.6746 84.7465Z" fill="#CDA573"/>
<path d="M79.0401 84.7465C78.8303 84.7465 78.6436 84.7126 78.4801 84.6447C78.3165 84.5737 78.1869 84.4765 78.0912 84.3531C77.9987 84.2297 77.9524 84.0862 77.9524 83.9226C77.9524 83.7838 77.9832 83.6572 78.045 83.5431C78.1067 83.4258 78.2054 83.3116 78.3412 83.2006C78.4801 83.0864 78.6637 82.9676 78.892 82.8442C79.0864 82.7362 79.2376 82.6436 79.3456 82.5664C79.4567 82.4862 79.5354 82.4106 79.5817 82.3396C79.628 82.2656 79.6511 82.1869 79.6511 82.1036C79.6511 81.9832 79.6094 81.886 79.5261 81.812C79.4459 81.7379 79.3302 81.7009 79.179 81.7009C79.0154 81.7009 78.8889 81.7425 78.7994 81.8259C78.7099 81.9061 78.6652 82.011 78.6652 82.1406C78.6652 82.2054 78.6745 82.2671 78.693 82.3257C78.7146 82.3844 78.7531 82.4492 78.8087 82.5201C78.8673 82.5911 78.9475 82.6806 79.0494 82.7886L80.762 84.5521L80.5722 84.7697L78.7855 82.9321C78.6775 82.8179 78.5911 82.7192 78.5263 82.6359C78.4646 82.5495 78.4214 82.4677 78.3967 82.3905C78.3721 82.3134 78.3597 82.2316 78.3597 82.1452C78.3597 82.0064 78.3921 81.886 78.4569 81.7842C78.5248 81.6793 78.6205 81.599 78.7439 81.5435C78.8673 81.4849 79.0123 81.4556 79.179 81.4556C79.3302 81.4556 79.4613 81.4818 79.5724 81.5342C79.6866 81.5836 79.7745 81.6561 79.8362 81.7518C79.901 81.8475 79.9334 81.9632 79.9334 82.0989C79.9334 82.2162 79.9041 82.3257 79.8455 82.4276C79.79 82.5294 79.6974 82.6297 79.5678 82.7284C79.4382 82.8241 79.2623 82.9321 79.0401 83.0524C78.8457 83.1604 78.6914 83.2592 78.5773 83.3487C78.4662 83.4382 78.3875 83.5261 78.3412 83.6125C78.2949 83.6958 78.2718 83.7884 78.2718 83.8902C78.2718 84.0075 78.3042 84.1109 78.369 84.2003C78.4369 84.2867 78.5294 84.3546 78.6467 84.404C78.767 84.4503 78.9043 84.4734 79.0586 84.4734C79.2746 84.4734 79.4675 84.4287 79.6372 84.3392C79.8069 84.2497 79.9489 84.1139 80.063 83.9319C80.1803 83.7498 80.2652 83.5215 80.3176 83.2468L80.5815 83.3302C80.5228 83.6387 80.4225 83.8979 80.2806 84.1078C80.1386 84.3176 79.9628 84.4765 79.7529 84.5845C79.5431 84.6925 79.3055 84.7465 79.0401 84.7465Z" fill="#CDA573"/>
<path d="M84.1679 84.7465C83.7544 84.7465 83.4289 84.6277 83.1913 84.3901C82.9537 84.1525 82.8349 83.8007 82.8349 83.3348V81.4787H83.1774V83.3209C83.1774 83.7035 83.2638 83.9859 83.4366 84.1679C83.6094 84.35 83.8532 84.441 84.1679 84.441C84.4857 84.441 84.7311 84.35 84.9039 84.1679C85.0767 83.9859 85.1631 83.7035 85.1631 83.3209V81.4787H85.4963V83.3348C85.4963 83.8007 85.3775 84.1525 85.1399 84.3901C84.9054 84.6277 84.5814 84.7465 84.1679 84.7465Z" fill="#CDA573"/>
<path d="M86.6185 84.7188V81.4787H86.9008L88.382 84.0059H88.2339L89.7012 81.4787H89.9835V84.7188H89.6549V81.9925H89.7336L88.382 84.3068H88.22L86.8592 81.9925H86.9471V84.7188H86.6185Z" fill="#CDA573"/>
<path d="M91.2279 84.7188V81.4787H92.4406C92.7152 81.4787 92.9513 81.5234 93.1487 81.6129C93.3462 81.6993 93.4974 81.8259 93.6024 81.9925C93.7104 82.156 93.7644 82.3551 93.7644 82.5896C93.7644 82.8179 93.7104 83.0154 93.6024 83.182C93.4974 83.3456 93.3462 83.4721 93.1487 83.5616C92.9513 83.648 92.7152 83.6912 92.4406 83.6912H91.4176L91.5704 83.5338V84.7188H91.2279ZM93.4403 84.7188L92.6072 83.5431H92.9775L93.8153 84.7188H93.4403ZM91.5704 83.5616L91.4176 83.3996H92.4313C92.7553 83.3996 93.0006 83.3286 93.1673 83.1867C93.337 83.0447 93.4218 82.8457 93.4218 82.5896C93.4218 82.3304 93.337 82.1298 93.1673 81.9879C93.0006 81.8459 92.7553 81.7749 92.4313 81.7749H91.4176L91.5704 81.6129V83.5616Z" fill="#CDA573"/>
<path d="M94.1235 84.7188L95.6047 81.4787H95.9426L97.4237 84.7188H97.0627L95.7019 81.6777H95.8407L94.4799 84.7188H94.1235ZM94.7067 83.8532L94.8086 83.5755H96.6924L96.7942 83.8532H94.7067Z" fill="#CDA573"/>
<path d="M100.426 81.4787H100.764V84.7188H100.426V81.4787ZM98.3985 84.7188H98.056V81.4787H98.3985V84.7188ZM100.458 83.2237H98.3615V82.9228H100.458V83.2237Z" fill="#CDA573"/>
<path d="M103.866 84.7465C103.684 84.7465 103.513 84.7064 103.352 84.6262C103.195 84.5459 103.068 84.4318 102.973 84.2837L103.172 84.0522C103.261 84.1818 103.365 84.2806 103.482 84.3485C103.599 84.4163 103.729 84.4503 103.871 84.4503C104.272 84.4503 104.472 84.2127 104.472 83.7375V81.7749H103.287V81.4787H104.81V83.7236C104.81 84.0661 104.73 84.3222 104.57 84.4919C104.412 84.6617 104.178 84.7465 103.866 84.7465Z" fill="#CDA573"/>
<path d="M107.326 84.7465C107.082 84.7465 106.855 84.7064 106.645 84.6262C106.439 84.5429 106.258 84.4271 106.104 84.279C105.953 84.1278 105.834 83.9535 105.747 83.756C105.664 83.5554 105.623 83.3363 105.623 83.0987C105.623 82.8611 105.664 82.6436 105.747 82.4461C105.834 82.2455 105.953 82.0712 106.104 81.9231C106.258 81.7719 106.439 81.6561 106.645 81.5759C106.852 81.4926 107.079 81.4509 107.326 81.4509C107.57 81.4509 107.795 81.4926 108.002 81.5759C108.208 81.6561 108.387 81.7703 108.539 81.9184C108.693 82.0665 108.812 82.2409 108.895 82.4415C108.981 82.642 109.025 82.8611 109.025 83.0987C109.025 83.3363 108.981 83.5554 108.895 83.756C108.812 83.9566 108.693 84.1309 108.539 84.279C108.387 84.4271 108.208 84.5429 108.002 84.6262C107.795 84.7064 107.57 84.7465 107.326 84.7465ZM107.326 84.441C107.52 84.441 107.699 84.4086 107.863 84.3438C108.029 84.2759 108.173 84.1818 108.293 84.0615C108.417 83.9381 108.512 83.7961 108.58 83.6356C108.648 83.4721 108.682 83.2931 108.682 83.0987C108.682 82.9043 108.648 82.7269 108.58 82.5664C108.512 82.4029 108.417 82.2609 108.293 82.1406C108.173 82.0172 108.029 81.9231 107.863 81.8583C107.699 81.7904 107.52 81.7564 107.326 81.7564C107.131 81.7564 106.951 81.7904 106.784 81.8583C106.618 81.9231 106.473 82.0172 106.349 82.1406C106.229 82.2609 106.133 82.4029 106.062 82.5664C105.994 82.7269 105.96 82.9043 105.96 83.0987C105.96 83.29 105.994 83.4675 106.062 83.631C106.133 83.7946 106.229 83.9381 106.349 84.0615C106.473 84.1818 106.618 84.2759 106.784 84.3438C106.951 84.4086 107.131 84.441 107.326 84.441Z" fill="#CDA573"/>
<path d="M111.142 84.7465C110.728 84.7465 110.402 84.6277 110.165 84.3901C109.927 84.1525 109.808 83.8007 109.808 83.3348V81.4787H110.151V83.3209C110.151 83.7035 110.237 83.9859 110.41 84.1679C110.583 84.35 110.827 84.441 111.142 84.441C111.459 84.441 111.705 84.35 111.877 84.1679C112.05 83.9859 112.137 83.7035 112.137 83.3209V81.4787H112.47V83.3348C112.47 83.8007 112.351 84.1525 112.114 84.3901C111.879 84.6277 111.555 84.7465 111.142 84.7465Z" fill="#CDA573"/>
<path d="M113.592 84.7188V81.4787H114.805C115.079 81.4787 115.316 81.5234 115.513 81.6129C115.71 81.6993 115.862 81.8259 115.967 81.9925C116.075 82.156 116.129 82.3551 116.129 82.5896C116.129 82.8179 116.075 83.0154 115.967 83.182C115.862 83.3456 115.71 83.4721 115.513 83.5616C115.316 83.648 115.079 83.6912 114.805 83.6912H113.782L113.935 83.5338V84.7188H113.592ZM115.805 84.7188L114.971 83.5431H115.342L116.18 84.7188H115.805ZM113.935 83.5616L113.782 83.3996H114.796C115.12 83.3996 115.365 83.3286 115.532 83.1867C115.701 83.0447 115.786 82.8457 115.786 82.5896C115.786 82.3304 115.701 82.1298 115.532 81.9879C115.365 81.8459 115.12 81.7749 114.796 81.7749H113.782L113.935 81.6129V83.5616Z" fill="#CDA573"/>
<path d="M117.006 84.7188V81.4787H117.289L119.524 84.2929H119.376V81.4787H119.714V84.7188H119.432L117.201 81.9045H117.349V84.7188H117.006Z" fill="#CDA573"/>
<path d="M121.238 82.9275H122.951V83.2191H121.238V82.9275ZM121.275 84.4225H123.224V84.7188H120.933V81.4787H123.155V81.7749H121.275V84.4225Z" fill="#CDA573"/>
<path d="M124.779 84.7188V83.5153L124.858 83.7282L123.483 81.4787H123.849L125.057 83.4551H124.862L126.071 81.4787H126.413L125.038 83.7282L125.117 83.5153V84.7188H124.779Z" fill="#CDA573"/>
<path d="M127.973 84.7465C127.732 84.7465 127.501 84.7079 127.278 84.6308C127.059 84.5506 126.89 84.4487 126.769 84.3253L126.904 84.0615C127.018 84.1726 127.17 84.2667 127.362 84.3438C127.556 84.4179 127.76 84.4549 127.973 84.4549C128.176 84.4549 128.341 84.4302 128.468 84.3809C128.598 84.3284 128.692 84.259 128.75 84.1726C128.812 84.0862 128.843 83.9905 128.843 83.8856C128.843 83.7591 128.806 83.6572 128.732 83.5801C128.661 83.503 128.567 83.4428 128.449 83.3996C128.332 83.3533 128.203 83.3132 128.061 83.2792C127.919 83.2453 127.777 83.2098 127.635 83.1728C127.493 83.1327 127.362 83.0802 127.241 83.0154C127.124 82.9506 127.029 82.8658 126.954 82.7608C126.883 82.6528 126.848 82.5124 126.848 82.3396C126.848 82.1792 126.89 82.0326 126.973 81.8999C127.059 81.7641 127.191 81.6561 127.366 81.5759C127.542 81.4926 127.768 81.4509 128.042 81.4509C128.224 81.4509 128.405 81.4772 128.584 81.5296C128.763 81.579 128.917 81.6484 129.047 81.7379L128.931 82.011C128.792 81.9184 128.644 81.8505 128.487 81.8073C128.332 81.7641 128.183 81.7425 128.038 81.7425C127.843 81.7425 127.683 81.7688 127.556 81.8212C127.43 81.8737 127.336 81.9447 127.274 82.0341C127.215 82.1205 127.186 82.2193 127.186 82.3304C127.186 82.4569 127.221 82.5587 127.292 82.6359C127.366 82.713 127.462 82.7732 127.579 82.8164C127.7 82.8596 127.831 82.8982 127.973 82.9321C128.115 82.966 128.255 83.0031 128.394 83.0432C128.536 83.0833 128.666 83.1358 128.783 83.2006C128.903 83.2623 128.999 83.3456 129.07 83.4505C129.144 83.5554 129.181 83.6927 129.181 83.8625C129.181 84.0198 129.138 84.1664 129.051 84.3022C128.965 84.4349 128.832 84.5429 128.653 84.6262C128.477 84.7064 128.25 84.7465 127.973 84.7465Z" fill="#CDA573"/>
<path d="M112.296 67.9863C115.012 67.9863 116.905 69.9448 116.905 72.7399C116.905 75.5349 115.012 77.4934 112.296 77.4934C109.58 77.4934 107.687 75.5349 107.687 72.7399C107.687 69.9448 109.579 67.9863 112.296 67.9863ZM112.296 68.6654C110.646 68.6654 109.308 70.4896 109.308 72.7399C109.308 74.9901 110.646 76.8144 112.296 76.8144C113.946 76.8144 115.283 74.9901 115.283 72.7399C115.283 70.4896 113.946 68.6654 112.296 68.6654Z" fill="white"/>
<path d="M122.88 67.9863C125.596 67.9863 127.489 69.9448 127.489 72.7399C127.489 75.5349 125.596 77.4934 122.88 77.4934C120.163 77.4934 118.271 75.5349 118.271 72.7399C118.271 69.9448 120.163 67.9863 122.88 67.9863ZM122.88 68.6654C121.23 68.6654 119.892 70.4896 119.892 72.7399C119.892 74.9901 121.23 76.8144 122.88 76.8144C124.53 76.8144 125.867 74.9901 125.867 72.7399C125.867 70.4896 124.53 68.6654 122.88 68.6654Z" fill="white"/>
<path d="M65.8607 68.1562H68.3361C69.4457 68.1562 70.8115 69.1456 70.8115 70.7452C70.8115 72.0757 69.8315 73.0011 68.9336 73.2493L71.4943 77.3238H69.7018L67.3971 73.3342H65.8607V77.3238H64.3242V68.1562H65.8607ZM65.8607 72.5703H67.6532C68.5961 72.5703 69.275 71.7532 69.275 70.7452C69.275 69.7373 68.5961 68.9202 67.6532 68.9202H65.8607V72.5703Z" fill="white"/>
<path d="M130.819 68.1562H133.294C134.404 68.1562 135.769 69.1456 135.769 70.7452C135.769 72.0757 134.79 73.0011 133.892 73.2493L136.452 77.3238H134.66L132.355 73.3342H130.819V77.3238H129.282V68.1562H130.819ZM130.819 72.5703H132.611C133.554 72.5703 134.233 71.7532 134.233 70.7452C134.233 69.7373 133.554 68.9202 132.611 68.9202H130.819V72.5703Z" fill="white"/>
<path d="M47.5939 77.3238H45.8014L44.6064 74.6924H40.7652L39.6556 77.3238H38.5459L42.4724 68.1562H43.4967L47.5939 77.3238ZM41.064 73.8435H44.2649L42.6858 70.0237L41.064 73.8435Z" fill="white"/>
<path d="M63.1281 77.3238H61.3356L60.1405 74.6924H56.2994L55.1897 77.3238H54.0801L58.0066 68.1562H59.0309L63.1281 77.3238ZM56.5982 73.8435H59.7991L58.22 70.0237L56.5982 73.8435Z" fill="white"/>
<path d="M92.6201 73.5889V72.5703H96.3759V73.5889H92.6201Z" fill="white"/>
<path d="M48.7891 77.3238V68.1562H54.6788V69.0051H50.4109V72.1458H53.8252V72.9947H50.4109V77.3238H48.7891Z" fill="white"/>
<path d="M86.3457 77.3238V68.1562H87.9675V76.475H92.4062V77.3238H86.3457Z" fill="white"/>
<path d="M98.2969 77.3238V68.1562H99.6626L105.04 74.8006V68.1562H105.894V77.3238H104.955L99.3212 70.1935V77.3238H98.2969Z" fill="white"/>
<path d="M33.7677 68.0739C32.2811 68.3794 31.4083 69.3811 31.4083 70.6035C31.4083 71.8767 32.1773 72.6916 34.3815 73.5065C35.9706 74.0837 36.4162 74.4402 36.4162 75.1193C36.4162 75.374 36.4162 75.7984 36.0731 76.121C35.0492 76.9019 33.5968 76.817 32.3152 75.9682L31.6318 75.5437L31.1191 76.4775C31.1191 76.4775 31.1192 76.4775 31.5463 76.7321C32.4007 77.2415 33.255 77.4961 34.3815 77.4961C36.2171 77.4961 37.5294 76.817 37.9186 75.4249C38.004 75.1193 38.0608 74.5251 37.8686 74.0158C37.6123 73.3367 36.9288 72.4879 35.1346 71.9786C34.2346 71.7231 33.5113 71.3844 33.0842 70.9599C32.7424 70.4506 32.8576 69.6018 33.2196 69.2623C33.8531 68.6681 35.7327 68.5153 37.0142 69.7716C37.0142 69.7716 37.356 69.2283 37.5268 68.9227C37.5268 68.9227 37.1665 68.5832 36.587 68.3285C35.8181 67.9906 34.5707 67.9211 33.7677 68.0739Z" fill="white"/>
<path d="M81.0542 68.1562L83.1003 72.8321C84.065 72.3443 84.9336 71.7846 85.5784 71.2121C85.1485 71.8727 84.3247 72.6338 83.3125 73.317L85.0661 77.3238H83.2735L81.931 74.1347C81.0697 74.5772 80.1502 74.9308 79.2615 75.1168C78.8132 75.2107 78.4056 75.275 78.035 75.3149L77.2131 77.3238H76.1034L76.943 75.3632C75.6565 75.326 74.9983 74.9161 74.652 74.5226C73.9492 73.7241 73.9693 71.3819 77.2134 70.8736C74.3108 71.7214 74.9933 73.5889 75.6765 74.0133C76.1045 74.2793 76.6816 74.4039 77.3486 74.4162L80.0299 68.1562H81.0542ZM78.4296 74.3509C79.4437 74.2205 80.5688 73.9063 81.6551 73.4791L80.2006 70.0237L78.4296 74.3509Z" fill="white"/>
<path d="M88.737 14.5378C85.4365 14.2549 78.4428 15.7093 76.8722 23.7903C76.2462 27.3272 77.299 34.8933 86.5177 36.8626C89.4199 37.3719 96.4187 36.0986 98.8947 29.1381C98.3825 31.2602 98.1849 33.4672 94.2847 36.2684C92.6629 37.4332 89.59 39.3242 83.8716 38.1359C87.0292 39.4181 92.8336 38.73 96.6747 34.4858C94.3701 37.7114 90.3582 40.7673 83.7009 38.815C77.424 36.9743 75.5329 32.3637 74.7382 30.0718C73.8846 27.6102 73.6456 20.3101 78.8354 16.9147C76.673 17.905 72.3484 21.7743 72.0924 27.4404C71.8041 33.8187 75.0446 37.3533 76.4718 38.6059C74.6721 36.8834 71.9746 32.0715 73.2011 26.5066C73.2011 29.1381 74.3108 33.8633 77.8958 37.2021C79.901 39.0696 85.152 41.786 90.4442 40.0883C88.8583 41.1673 86.2931 43.3015 80.5139 40.7766C83.7197 42.2353 87.8794 44.5918 85.7495 48.7465C85.7495 47.9826 85.0666 45.8726 82.2498 44.6721C79.2622 43.3988 77.8111 42.3962 76.2747 41.4464C74.1692 40.1449 69.8236 36.0986 69.6167 30.0718C69.4039 23.8752 72.2712 20.3949 73.8846 18.6123C76.1893 16.0657 82.1647 12.6704 88.737 14.5378Z" fill="#CDA573"/>
<path d="M88.4802 47.3873C86.9438 47.0054 86.1187 48.0665 85.7488 48.7455C84.9976 50.1716 85.0944 51.377 85.2366 51.8014C85.5643 51.041 86.2415 50.4652 86.7179 50.1349C86.9207 49.9942 87.1431 49.8754 87.3869 49.8367C88.2965 49.6925 88.8689 50.4096 88.5656 50.9525C87.5413 52.7861 86.0902 53.7821 85.4073 54.0933C82.8466 55.2605 82.3344 52.82 82.3344 51.7165C81.7369 51.8863 80.8952 53.3293 80.7126 53.6689C79.142 56.5889 76.9853 58.2244 76.0179 58.762C71.5109 61.3425 67.7381 59.7806 65.2627 57.9131C66.7138 60.3748 70.6118 61.167 72.1767 61.3934C70.333 61.3934 69.1038 61.0539 67.3113 60.205C68.9331 61.5632 71.5792 61.8178 72.945 61.9027C72.467 62.0385 71.4939 62.0159 71.0671 61.9876C72.006 62.3071 74.987 62.5818 77.5543 60.6294C80.1151 58.6821 81.3101 56.0173 81.8223 54.7723C82.3003 56.538 83.3587 56.9794 84.2123 56.9794C85.322 56.9794 87.3878 56.2356 89.0778 52.6503C90.1874 50.2961 89.9313 47.748 88.4802 47.3873Z" fill="#CDA573"/>
<path d="M87.0286 45.8604C86.9603 44.7739 86.4311 43.9363 86.175 43.6534C97.2717 38.5603 98.8935 31.8544 99.3203 27.3555C100.942 37.7114 92.4916 42.9743 87.0286 45.8604Z" fill="white"/>
<path d="M84.3825 47.3034C83.9045 46.6244 82.9314 45.9453 82.5046 45.6906C80.8657 46.3697 78.5781 47.9259 77.6391 48.6616C77.0131 49.1143 75.0613 50.7158 72.6029 53.1605C70.1446 55.6052 68.1928 55.1977 67.4815 54.6884C64.9994 52.9996 67.7342 47.9661 69.4708 45.501C69.5238 45.4257 69.443 45.3411 69.3684 45.3952C68.1311 46.2923 67.0129 48.1956 66.5426 49.0011C65.945 49.9915 64.9208 52.8209 65.7743 55.028C66.7985 57.6764 68.7618 57.7104 69.8715 57.4896C71.4079 57.1841 72.7737 56.3398 75.5051 53.5C78.5098 50.3763 82.6469 48.0674 84.3825 47.3034Z" fill="white"/>
<path d="M76.8709 44.0778L75.5051 45.9453L77.5537 47.4732L78.9195 45.6057C78.3732 44.9946 77.2977 44.3325 76.8709 44.0778Z" fill="white"/>
<path d="M87.4554 52.6512C84.98 52.2268 85.2361 49.9632 85.7482 48.7465C83.5289 52.057 84.7239 54.6884 86.4311 55.028C89.3333 55.6052 91.3509 54.264 92.7476 52.9907C97.4424 48.7111 99.7471 48.4918 101.625 48.4918L102.308 45.9453C101.682 46.0019 100.003 45.7585 97.9545 44.672C96.0091 43.6402 94.3695 43.8232 93.7719 44.1627C91.8702 45.1083 91.5132 48.1021 91.7449 49.3413C91.7579 49.4108 91.8462 49.4065 91.8615 49.3375C92.1355 48.102 92.6599 47.135 93.4305 46.7092C94.8133 45.9453 96.3327 46.7092 97.4424 47.2186C96.0766 47.7618 95.1377 48.4918 93.7719 49.5953C92.7476 50.614 89.6747 53.0317 87.4554 52.6512Z" fill="white"/>
<path d="M95.4795 53.3292C94.0284 55.0269 92.4066 56.3002 90.8701 57.149C92.8334 56.8944 94.2845 55.5079 95.138 54.6874C95.9916 53.7536 96.3331 53.7536 96.6745 53.7536C96.9306 53.7536 97.1013 53.9234 97.5281 53.9234C98.0659 53.9234 98.3962 53.5796 98.5813 53.2633C98.6108 53.213 98.6812 53.2015 98.7309 53.2319C99.0103 53.4026 99.4676 53.3563 99.5767 53.3292C100.26 53.1595 100.26 52.1408 100.26 51.4617C100.26 51.1221 99.8328 51.1222 99.8328 51.4618C99.8328 51.7319 99.8328 51.9418 99.8171 52.0882C99.8006 52.2423 99.6672 52.3462 99.5125 52.3361C99.1141 52.3099 99.07 51.8632 99.0652 51.5053C99.0647 51.4701 99.0176 51.4576 98.9997 51.4877C98.344 52.589 97.776 52.9432 97.5281 52.8199C96.5473 52.3323 95.7817 52.9756 95.4795 53.3292Z" fill="#CDA573"/>
<path d="M88.737 14.5378C85.4365 14.2549 78.4428 15.7093 76.8722 23.7903C76.2462 27.3272 77.299 34.8933 86.5177 36.8626C89.4199 37.3719 96.4187 36.0986 98.8947 29.1381C98.3825 31.2602 98.1849 33.4672 94.2847 36.2684C92.6629 37.4332 89.59 39.3242 83.8716 38.1359C87.0292 39.4181 92.8336 38.73 96.6747 34.4858C94.3701 37.7114 90.3582 40.7673 83.7009 38.815C77.424 36.9743 75.5329 32.3637 74.7382 30.0718C73.8846 27.6102 73.6456 20.3101 78.8354 16.9147C76.673 17.905 72.3484 21.7743 72.0924 27.4404C71.8041 33.8187 75.0446 37.3533 76.4718 38.6059C74.6721 36.8834 71.9746 32.0715 73.2011 26.5066C73.2011 29.1381 74.3108 33.8633 77.8958 37.2021C79.901 39.0696 85.152 41.786 90.4442 40.0883C88.8583 41.1673 86.2931 43.3015 80.5139 40.7766C83.7197 42.2353 87.8794 44.5918 85.7495 48.7465C85.7495 47.9826 85.0666 45.8726 82.2498 44.6721C79.2622 43.3988 77.8111 42.3962 76.2747 41.4464C74.1692 40.1449 69.8236 36.0986 69.6167 30.0718C69.4039 23.8752 72.2712 20.3949 73.8846 18.6123C76.1893 16.0657 82.1647 12.6704 88.737 14.5378Z" fill="#CDA573"/>
<path d="M93.6016 35.4277C90.9575 36.8816 88.1172 37.1448 86.5186 36.8643L86.5176 36.8633V31.4307L93.6016 28.2051V35.4277Z" fill="#CDA573"/>
<path d="M86.5176 31.4307V36.8633C83.2591 36.167 81.0219 34.7712 79.5176 33.1016V28.2051L86.5176 31.4307Z" fill="white"/>
<path d="M86.517 22.6866V21.668L79.5176 24.8087V27.1006L86.517 30.2414V27.6948L80.9687 25.1483L86.517 22.6866Z" fill="white"/>
<path d="M86.5168 22.6866V21.668L93.6016 24.8087V27.1006L86.5168 30.2414V27.6948L92.1505 25.1483L86.5168 22.6866Z" fill="#CDA573"/>
</g>
<defs>
<clipPath id="clip0_87_2364">
<rect width="105.429" height="72" fill="white" transform="translate(31.1191 14)"/>
</clipPath>
</defs>
</svg>
