<svg width="32" height="32" viewBox="0 0 32 32" fill="none" xmlns="http://www.w3.org/2000/svg">
<path d="M8.53004 7.0625C8.53004 10.2986 10.6065 12.2241 14.7635 13.2395L19.1685 14.2225C23.1028 15.0922 25.4986 17.2523 25.4986 20.7716C25.5292 22.3048 25.0113 23.8016 24.0317 25.011C24.0317 21.4998 22.1444 19.6026 17.5923 18.4618L13.2671 17.5153C9.80366 16.7548 7.13037 14.9789 7.13037 11.1562C7.11214 9.68002 7.60454 8.23988 8.53004 7.0625Z" fill="#F03E2F"/>
<path d="M21.3249 19.9104C23.2038 21.0674 24.0276 22.6855 24.0276 25.0074C22.4724 26.9247 19.7403 28.0007 16.529 28.0007C11.1236 28.0007 7.34066 25.4402 6.5 20.9905H11.691C12.3594 23.0333 14.1289 23.9799 16.4912 23.9799C19.3746 23.9799 21.2913 22.4994 21.3291 19.9023" fill="#F37368"/>
<path d="M11.2288 11.8598C10.3709 11.3691 9.66696 10.664 9.19186 9.81926C8.71676 8.97457 8.48813 8.02184 8.53033 7.06219C10.0309 5.16096 12.6411 4 15.823 4C21.3293 4 24.5153 6.79926 25.3013 10.7393H20.3079C19.7572 9.18592 18.3786 7.97641 15.865 7.97641C13.1791 7.97641 11.3465 9.48122 11.2414 11.8598" fill="#F37368"/>
</svg>
