<svg width="62" height="62" viewBox="0 0 62 62" fill="none" xmlns="http://www.w3.org/2000/svg">
<g clip-path="url(#clip0_4774_1594)">
<path d="M62 0H0V62H62V0Z" fill="#F03E2F"/>
<path d="M19.0979 16.0632C19.0979 21.3906 22.4465 24.5604 29.1505 26.2319L36.2544 27.8501C42.5992 29.2819 46.4629 32.8379 46.4629 38.6315C46.5123 41.1555 45.677 43.6194 44.0972 45.6103C44.0972 39.8301 41.0537 36.707 33.7125 34.829L26.7373 33.2708C21.1518 32.0188 16.8406 29.0954 16.8406 22.8024C16.8112 20.3722 17.6053 18.0015 19.0979 16.0632Z" fill="white"/>
<path d="M39.7283 37.213C42.7583 39.1176 44.0869 41.7813 44.0869 45.6037C41.5788 48.76 37.1728 50.5314 31.994 50.5314C23.2767 50.5314 17.176 46.3162 15.8203 38.9911H24.1918C25.2696 42.354 28.1234 43.9123 31.9329 43.9123C36.583 43.9123 39.6741 41.4749 39.7351 37.1997" fill="#F9B1AB"/>
<path d="M23.4457 23.9611C22.0621 23.1533 20.9269 21.9925 20.1607 20.602C19.3946 19.2114 19.0259 17.643 19.0939 16.0633C21.5138 12.9334 25.7233 11.0222 30.8547 11.0222C39.7346 11.0222 44.8728 15.6304 46.1403 22.1165H38.0874C37.1994 19.5594 34.9761 17.5683 30.9225 17.5683C26.591 17.5683 23.6355 20.0455 23.4661 23.9611" fill="#F9B1AB"/>
</g>
<defs>
<clipPath id="clip0_4774_1594">
<rect width="62" height="62" fill="white"/>
</clipPath>
</defs>
</svg>
