<svg width="25" height="26" viewBox="0 0 25 26" fill="none" xmlns="http://www.w3.org/2000/svg">
<path d="M15.0997 20.028L8.28632 16.312C7.63231 16.9612 6.80073 17.4022 5.89643 17.5795C4.99213 17.7568 4.05559 17.6623 3.20488 17.3081C2.35417 16.9539 1.62737 16.3557 1.11611 15.5891C0.604857 14.8224 0.332031 13.9215 0.332031 13C0.332031 12.0785 0.604857 11.1776 1.11611 10.4109C1.62737 9.64423 2.35417 9.04607 3.20488 8.69185C4.05559 8.33763 4.99213 8.24321 5.89643 8.42048C6.80073 8.59775 7.63231 9.03879 8.28632 9.68798L15.0997 5.97198C14.866 4.87563 15.0347 3.7318 15.5751 2.74966C16.1155 1.76751 16.9913 1.01269 18.0424 0.623229C19.0936 0.233765 20.2498 0.235683 21.2997 0.628633C22.3495 1.02158 23.2228 1.7793 23.7599 2.76323C24.297 3.74716 24.462 4.89155 24.2247 5.98712C23.9874 7.08269 23.3636 8.05624 22.4675 8.72972C21.5714 9.4032 20.4628 9.73162 19.3445 9.65491C18.2261 9.57821 17.1728 9.10151 16.377 8.31198L9.56365 12.028C9.69993 12.6684 9.69993 13.3303 9.56365 13.9707L16.377 17.688C17.1728 16.8985 18.2261 16.4218 19.3445 16.3451C20.4628 16.2684 21.5714 16.5968 22.4675 17.2703C23.3636 17.9437 23.9874 18.9173 24.2247 20.0128C24.462 21.1084 24.297 22.2528 23.7599 23.2367C23.2228 24.2207 22.3495 24.9784 21.2997 25.3713C20.2498 25.7643 19.0936 25.7662 18.0424 25.3767C16.9913 24.9873 16.1155 24.2325 15.5751 23.2503C15.0347 22.2682 14.866 21.1243 15.0997 20.028Z" fill="#2690D4"/>
</svg>
