<svg width="167" height="100" viewBox="0 0 167 100" fill="none" xmlns="http://www.w3.org/2000/svg">
<path d="M68.8388 39.604C67.852 39.0268 66.7337 38.5343 65.4839 38.1257C64.185 37.6694 63.0312 37.2668 62.021 36.9178C61.0107 36.5696 60.2174 36.1307 59.6401 35.602C59.0628 35.0739 58.7741 34.3163 58.7741 33.3305C58.7741 32.2254 59.164 31.3597 59.9461 30.7343C60.7274 30.1096 61.7187 29.8097 62.9217 29.8331C63.8601 29.8331 64.6535 30.0258 65.3026 30.4102C65.9516 30.7947 66.4443 31.2819 66.7813 31.8704C67.1175 32.4596 67.286 33.0782 67.286 33.7271H71.3255C71.3013 32.3085 70.9409 31.0644 70.2435 29.9948C69.5453 28.9252 68.5781 28.0897 67.3397 27.4884C66.1005 26.8879 64.6883 26.5873 63.029 26.5873C61.3697 26.5873 59.9212 26.8819 58.6827 27.4703C57.4435 28.0595 56.4824 28.8829 55.7971 29.9404C55.1117 30.9987 54.7808 32.2367 54.805 33.6546C54.805 35.3376 55.2916 36.6957 56.2655 37.7291C57.2395 38.7632 58.7001 39.6047 60.648 40.2536C61.6341 40.5905 62.5718 40.9024 63.4619 41.191C64.3513 41.4796 65.1394 41.8044 65.8247 42.1647C66.51 42.525 67.051 42.982 67.4477 43.5349C67.8452 44.0879 68.0431 44.8093 68.0431 45.6983C68.0431 46.8042 67.6283 47.7122 66.7987 48.4207C65.969 49.13 64.8205 49.4843 63.3539 49.4843C61.6946 49.4843 60.4078 49.0152 59.4942 48.0778C58.58 47.1404 58.1107 45.999 58.0873 44.6521H54.0478C54.0713 46.311 54.474 47.7416 55.2561 48.9435C56.0374 50.146 57.1254 51.0714 58.5203 51.7202C59.9151 52.3691 61.5381 52.6939 63.3901 52.6939H63.3924C65.292 52.6932 66.8908 52.351 68.1897 51.6658C69.4886 50.9807 70.4626 50.0916 71.1117 48.9971C71.7607 47.9033 72.0856 46.7196 72.0856 45.4453C72.0856 44.0033 71.7902 42.8128 71.2016 41.8754C70.6114 40.938 69.8249 40.1811 68.8388 39.604ZM74.1129 52.2611H77.9363V34.3752H74.1129V52.2611ZM77.8101 26.965C77.3409 26.5208 76.7462 26.298 76.0246 26.298C75.303 26.298 74.7083 26.5208 74.2391 26.965C73.7699 27.4099 73.5356 27.9681 73.5356 28.6419C73.5356 29.3157 73.7699 29.8747 74.2391 30.3188C74.7083 30.7638 75.303 30.9858 76.0246 30.9858C76.7462 30.9858 77.3409 30.7638 77.8101 30.3188C78.2793 29.8739 78.5136 29.3149 78.5136 28.6419C78.5136 27.9689 78.2786 27.4099 77.8101 26.965ZM102.507 33.9439C101.232 33.9439 100.048 34.2445 98.9542 34.8451C97.8593 35.4463 96.9881 36.2637 96.339 37.297C95.2328 35.0611 93.2607 33.9431 90.4234 33.9431C89.1729 33.9431 88.0727 34.2075 87.1229 34.7363C86.1731 35.2651 85.4099 35.9864 84.8327 36.8997L84.5078 34.3752H81.1174V52.2611L84.9407 52.2618V43.0304C84.9407 41.1555 85.3676 39.7135 86.2215 38.7035C87.0745 37.6936 88.1626 37.189 89.4857 37.189C92.1552 37.189 93.4896 38.9196 93.4896 42.3815V52.2618H97.313V43.0304C97.313 41.1555 97.7399 39.7135 98.5937 38.7035C99.4468 37.6936 100.547 37.189 101.894 37.189C104.539 37.189 105.862 38.9196 105.862 42.3815V52.2618H109.685V41.9849C109.685 39.3162 109.048 37.3099 107.774 35.963C106.498 34.6169 104.744 33.9439 102.507 33.9439ZM126.698 35.1691C125.375 34.3526 123.848 33.9431 122.116 33.9431C120.529 33.9431 119.231 34.268 118.221 34.9168C117.21 35.5665 116.417 36.3113 115.84 37.1527L115.443 34.376H112.016V60.1941H115.841V49.5206C116.466 50.5305 117.314 51.3116 118.384 51.8645C119.454 52.4174 120.686 52.6939 122.081 52.6939C123.835 52.6939 125.375 52.2913 126.698 51.4861C128.02 50.6808 129.06 49.575 129.818 48.1684C130.575 46.7619 130.954 45.1575 130.954 43.3544C130.954 41.5513 130.575 39.9409 129.818 38.5223C129.06 37.1037 128.02 35.9857 126.698 35.1684V35.1691ZM125.47 47.6993C124.412 48.8173 123.065 49.3763 121.43 49.3763H121.429C119.793 49.377 118.453 48.8181 117.407 47.7001C116.36 46.5821 115.837 45.0978 115.837 43.3189C115.837 41.54 116.361 40.0859 117.407 38.9558C118.453 37.8258 119.793 37.2608 121.429 37.2608C122.535 37.2608 123.509 37.5191 124.351 38.0358C125.193 38.5525 125.854 39.2678 126.335 40.1811C126.816 41.0951 127.057 42.1405 127.057 43.3181C127.057 45.1212 126.528 46.5814 125.47 47.6993ZM132.605 52.2611L136.428 52.2618V26.2987H132.605V52.2611ZM154.751 38.2337C154.029 36.936 153.02 35.8966 151.721 35.1147C150.422 34.3344 148.943 33.9431 147.14 33.9431C145.337 33.9431 143.755 34.3397 142.397 35.1329C141.038 35.926 139.98 37.0326 139.223 38.4505C138.465 39.8691 138.086 41.5385 138.086 43.3907C138.086 45.2429 138.471 46.8654 139.241 48.2591C140.01 49.6535 141.075 50.7413 142.433 51.5223C143.792 52.3026 145.349 52.6939 147.104 52.6939C149.22 52.6939 150.993 52.1281 152.424 50.9981C153.855 49.8688 154.811 48.4623 155.292 46.7793H151.469C151.108 47.6208 150.56 48.2878 149.827 48.7803C149.094 49.2736 148.186 49.5198 147.104 49.5198C145.757 49.5198 144.573 49.0688 143.551 48.1677C142.528 47.2665 141.958 45.9499 141.838 44.2193H155.76C155.785 43.8832 155.803 43.5765 155.815 43.3C155.827 43.0243 155.833 42.766 155.833 42.525C155.833 40.9621 155.473 39.5322 154.751 38.2337ZM141.91 41.6238C142.127 40.1093 142.728 38.9732 143.714 38.2163C144.699 37.4587 145.83 37.0802 147.104 37.0802C148.475 37.0802 149.617 37.4889 150.531 38.3062C151.444 39.1235 151.938 40.2302 152.01 41.6238H141.91ZM28.6664 25.3145C22.1734 25.3145 16.9099 30.5764 16.9099 37.0674H40.4228C40.4228 30.5764 35.1593 25.3145 28.6664 25.3145ZM40.422 37.0772C40.4168 43.5636 35.1555 48.8211 28.6656 48.8211C22.1757 48.8211 16.9144 43.5644 16.9092 37.0772H11.833C11.8383 46.3669 19.3724 53.8965 28.6664 53.8965C37.9603 53.8965 45.4944 46.3669 45.4997 37.0772H40.422Z" fill="white"/>
<path d="M56.7403 65.2553H57.9768L60.8379 72.8514H59.6853L59.0879 71.2065H55.5978L55.0109 72.8514H53.9209L56.7403 65.2553ZM55.9227 70.2949H58.7525L57.3272 66.3344L55.9227 70.2949ZM66.9411 72.8514L64.8447 66.2297V72.8514H63.7759V65.2553H65.568L67.5068 71.5837L69.4457 65.2553H71.238V72.8514H70.1689V66.2297L68.0728 72.8514H66.9411ZM73.1766 65.2553V66.4078H72.223V65.2553H73.1766ZM73.1766 67.2146V72.8514H72.223V67.2146H73.1766ZM76.4782 71.5312L78.0083 67.2146H78.9935L76.866 72.8514H76.0169L73.8894 67.2146H74.9481L76.4782 71.5312ZM79.0081 71.3636C79.0081 70.033 80.5173 69.6348 82.8229 69.3834V69.2472C82.8229 68.2099 82.2572 67.8746 81.5444 67.8746C80.748 67.8746 80.2971 68.2937 80.2553 68.9957H79.2701C79.354 67.7803 80.4439 67.0993 81.5339 67.0993C83.0956 67.0993 83.7873 67.8327 83.7768 69.4253L83.7664 70.7245C83.7559 71.6779 83.7977 72.317 83.9132 72.8514H82.9488C82.9175 72.6419 82.8859 72.4114 82.8754 72.0761C82.5296 72.6629 81.9531 72.9876 80.947 72.9876C79.8886 72.9876 79.0081 72.4008 79.0081 71.3636ZM82.8963 70.1377C81.1672 70.3054 80.0668 70.5674 80.0668 71.3427C80.0668 71.877 80.4753 72.2332 81.1567 72.2332C82.0474 72.2332 82.8963 71.8247 82.8963 70.494V70.1377ZM93.7574 70.4311C93.422 72.1075 92.1119 72.9876 90.4666 72.9876C88.2866 72.9876 87.0183 71.3427 87.0183 69.0376C87.0183 66.6907 88.4123 65.1191 90.5502 65.1191C92.1223 65.1191 93.38 66.0516 93.7154 67.6755H92.6779C92.4577 66.7222 91.7031 66.0201 90.4979 66.0201C89.1564 66.0201 88.1082 67.0679 88.1082 69.0376C88.1082 70.9655 89.1144 72.0866 90.5293 72.0866C91.7452 72.0866 92.4789 71.4056 92.7197 70.4311H93.7574ZM99.7953 70.0539C99.7953 72.097 98.4013 72.9876 97.0913 72.9876C95.7812 72.9876 94.3874 72.097 94.3874 70.0539C94.3874 68.0108 95.7812 67.1202 97.0913 67.1202C98.4013 67.1202 99.7953 68.0108 99.7953 70.0539ZM97.0913 72.1494C97.9611 72.1494 98.7787 71.4999 98.7787 70.0539C98.7787 68.5452 97.9611 67.9584 97.0913 67.9584C96.2213 67.9584 95.404 68.5137 95.404 70.0539C95.404 71.5627 96.2213 72.1494 97.0913 72.1494ZM101.659 72.8514H100.705V67.2146H101.659V68.0633C101.984 67.5289 102.508 67.1202 103.357 67.1202C104.226 67.1202 104.73 67.487 104.981 68.1156C105.432 67.4136 106.082 67.1202 106.878 67.1202C108.188 67.1202 108.702 68.0003 108.702 69.2891V72.8514H107.748V69.572C107.748 68.7024 107.58 67.948 106.543 67.948C105.715 67.948 105.18 68.5766 105.18 69.792V72.8514H104.226V69.572C104.226 68.7024 104.059 67.948 103.021 67.948C102.193 67.948 101.659 68.5766 101.659 69.792V72.8514ZM110.577 67.2146V68.1052C110.924 67.5079 111.51 67.1202 112.422 67.1202C113.722 67.1202 114.833 68.2099 114.833 70.0539C114.833 71.9294 113.722 72.9876 112.422 72.9876C111.51 72.9876 110.924 72.6 110.577 72.0028V74.685H109.624V67.2146H110.577ZM112.181 72.1704C113.156 72.1704 113.795 71.4056 113.795 70.0539C113.795 68.7024 113.156 67.9375 112.181 67.9375C111.332 67.9375 110.536 68.5662 110.536 70.0539C110.536 71.5418 111.332 72.1704 112.181 72.1704ZM115.315 71.3636C115.315 70.033 116.824 69.6348 119.13 69.3834V69.2472C119.13 68.2099 118.564 67.8746 117.851 67.8746C117.055 67.8746 116.604 68.2937 116.562 68.9957H115.577C115.661 67.7803 116.751 67.0993 117.841 67.0993C119.402 67.0993 120.094 67.8327 120.084 69.4253L120.073 70.7245C120.063 71.6779 120.104 72.317 120.22 72.8514H119.256C119.224 72.6419 119.193 72.4114 119.182 72.0761C118.836 72.6629 118.26 72.9876 117.254 72.9876C116.195 72.9876 115.315 72.4008 115.315 71.3636ZM119.203 70.1377C117.474 70.3054 116.373 70.5674 116.373 71.3427C116.373 71.877 116.782 72.2332 117.463 72.2332C118.354 72.2332 119.203 71.8247 119.203 70.494V70.1377ZM121.991 68.0633C122.316 67.5289 122.861 67.1202 123.814 67.1202C125.177 67.1202 125.669 68.0003 125.669 69.2891V72.8514H124.716V69.572C124.716 68.7024 124.569 67.948 123.479 67.948C122.557 67.948 121.991 68.5766 121.991 69.792V72.8514H121.037V67.2146H121.991V68.0633ZM130.91 67.2146L128.898 73.0924C128.478 74.3078 128.206 74.685 126.938 74.685H126.445V73.8887H126.833C127.462 73.8887 127.766 73.8468 128.017 72.9667L128.059 72.8514L126.026 67.2146H127.085L128.52 71.5627L129.914 67.2146H130.91Z" fill="white"/>
</svg>
