<svg width="31" height="29" viewBox="0 0 31 29" fill="none" xmlns="http://www.w3.org/2000/svg">
<path d="M14.6404 0.986211C14.8435 0.361036 15.7279 0.361038 15.9311 0.986213L18.9779 10.3634C19.0687 10.643 19.3293 10.8323 19.6233 10.8323L29.483 10.8323C30.1404 10.8323 30.4137 11.6734 29.8819 12.0598L21.9052 17.8552C21.6673 18.028 21.5678 18.3343 21.6587 18.6139L24.7055 27.9911C24.9086 28.6162 24.1931 29.1361 23.6613 28.7497L15.6846 22.9543C15.4467 22.7815 15.1247 22.7815 14.8869 22.9543L6.91016 28.7497C6.37836 29.1361 5.66282 28.6162 5.86595 27.9911L8.91278 18.6139C9.00362 18.3343 8.9041 18.028 8.66627 17.8552L0.689572 12.0598C0.157766 11.6734 0.43108 10.8323 1.08843 10.8323L10.9482 10.8323C11.2421 10.8323 11.5027 10.643 11.5935 10.3634L14.6404 0.986211Z" fill="#FACF38"/>
</svg>
