<svg width="32" height="32" viewBox="0 0 32 32" fill="none" xmlns="http://www.w3.org/2000/svg">
<g clip-path="url(#clip0_224_1341)">
<mask id="mask0_224_1341" style="mask-type:luminance" maskUnits="userSpaceOnUse" x="5" y="4" width="22" height="24">
<path d="M26.0905 4H5.90869V28H26.0905V4Z" fill="white"/>
</mask>
<g mask="url(#mask0_224_1341)">
<mask id="mask1_224_1341" style="mask-type:luminance" maskUnits="userSpaceOnUse" x="8" y="6" width="16" height="16">
<path d="M23.3996 6.7168H8.59961V21.6602H23.3996V6.7168Z" fill="white"/>
</mask>
<g mask="url(#mask1_224_1341)">
<path d="M23.8479 6.26367H8.15088V22.1127H23.8479V6.26367Z" fill="white"/>
</g>
<mask id="mask2_224_1341" style="mask-type:luminance" maskUnits="userSpaceOnUse" x="12" y="10" width="7" height="8">
<path d="M17.7929 12.3773C17.9723 12.2415 18.062 11.9698 18.062 11.5623C18.062 11.2453 17.9723 10.9736 17.8378 10.8377C17.7032 10.7019 17.479 10.6113 17.2547 10.6113H12.9941V12.6038H17.1651C17.3893 12.6491 17.6135 12.5132 17.7929 12.3773ZM17.6135 15.0491H12.9941V17.2679H17.5239C17.7929 17.2679 18.0172 17.1773 18.2414 16.9963C18.4208 16.8151 18.5105 16.5434 18.5105 16.2264C18.5105 15.9547 18.4208 15.683 18.2862 15.4113C18.1068 15.1849 17.8826 15.0491 17.6135 15.0491Z" fill="white"/>
</mask>
<g mask="url(#mask2_224_1341)">
<path d="M19.0036 10.2031H12.5454V17.7654H19.0036V10.2031Z" fill="#00B3B0"/>
</g>
<mask id="mask3_224_1341" style="mask-type:luminance" maskUnits="userSpaceOnUse" x="5" y="4" width="22" height="24">
<path d="M22.1433 18.8981C21.9191 19.3057 21.5603 19.6679 21.1567 19.9396C20.7082 20.2113 20.2149 20.483 19.6767 20.5736C19.1385 20.7095 18.5106 20.8453 17.8827 20.8453H9.6306V7.75849H18.9591C19.4076 7.75849 19.8112 7.84905 20.17 8.07547C20.5288 8.2566 20.8427 8.5283 21.1118 8.84528C21.65 9.47925 21.9191 10.2943 21.9191 11.1095C21.9191 11.6981 21.7397 12.2868 21.4706 12.8755C21.1567 13.4189 20.6633 13.8717 20.0803 14.1434C20.8427 14.3698 21.4258 14.7321 21.8294 15.2755C22.2331 15.8189 22.4573 16.5434 22.4573 17.4943C22.4573 17.9924 22.3227 18.4905 22.1433 18.8981ZM25.1931 4H6.93972C6.35669 4 5.9082 4.45283 5.9082 5.04151V23.4264C5.9082 23.9698 6.35669 24.3321 6.93972 24.3321H9.6306V28L12.9943 24.3321H25.1931C25.7312 24.3321 26.09 23.9698 26.09 23.3811V5.04151C26.09 4.49811 25.7312 4.04528 25.1931 4Z" fill="white"/>
</mask>
<g mask="url(#mask3_224_1341)">
<path d="M26.5388 3.54688H5.45996V28.4525H26.5388V3.54688Z" fill="#00B3B0"/>
</g>
</g>
</g>
<defs>
<clipPath id="clip0_224_1341">
<rect width="24" height="24" fill="white" transform="translate(4 4)"/>
</clipPath>
</defs>
</svg>
