<svg width="215" height="141" viewBox="0 0 215 141" fill="none" xmlns="http://www.w3.org/2000/svg">
<path d="M42.0351 80.515C41.0833 82.4024 40.6074 84.054 39.6556 85.4696C38.2279 87.8289 36.0864 89.7164 33.4689 89.2445C30.6136 88.7727 28.9479 87.1211 28.472 84.5258C28.2341 83.5821 27.9961 81.4587 27.9961 80.515C27.9961 69.1901 27.9961 57.6294 27.9961 46.3045C27.9961 45.8327 27.9961 45.5967 27.9961 44.8889H29.4238C33.7069 44.8889 37.99 44.8889 42.273 44.8889C42.9869 44.8889 43.2248 44.653 43.4627 44.4171C43.9386 43.4733 43.9386 42.7655 44.4145 41.5858H27.9961V23.183C26.8064 23.183 26.5685 23.183 26.3305 24.1267C25.8546 26.0142 25.1408 27.4298 24.189 29.0813C22.2854 31.9125 19.9059 34.036 17.5265 36.1594C13.4813 39.4624 8.96034 41.5858 3.72549 41.5858C3.24959 41.5858 1.82191 41.5858 0.870117 41.5858C0.870117 42.7655 0.870117 43.7092 0.870117 44.653H11.3398V46.0686C11.3398 55.7419 11.3398 65.1793 11.3398 74.8525C11.3398 76.2682 11.3398 77.4478 11.3398 78.8634C11.3398 79.8072 11.3398 80.7509 11.3398 81.9306V82.1665C11.5778 84.9977 12.2916 87.8289 13.9572 90.1883C17.7644 95.6148 22.9992 97.2663 29.4238 96.7944C37.5141 96.0866 42.7489 88.0649 42.9869 80.7509C42.9869 80.515 42.511 80.515 42.0351 80.515Z" fill="black"/>
<path d="M197.415 82.6382C196.939 85.7054 195.987 88.5366 193.846 90.8959C189.562 96.0865 181.472 96.3224 176.475 91.3678C172.668 87.8288 170.765 83.1101 169.575 78.3914C168.147 72.729 167.433 67.0666 167.433 59.0448C167.433 56.9214 167.909 52.6746 170.289 48.8997C175.048 41.3498 184.328 40.642 190.276 47.0122C193.608 50.5512 195.511 55.0339 196.701 59.5167C198.604 67.3025 199.08 74.8524 197.415 82.6382ZM213.833 62.8198C211.93 51.7309 204.791 44.6528 194.083 41.5857C185.279 39.2264 176.475 39.9342 167.909 43.4732C162.436 45.5966 157.915 49.3715 155.06 54.798C151.491 61.4042 151.015 68.7181 152.443 76.0321C153.87 82.8742 157.202 88.3006 162.912 92.3115C168.861 96.5583 175.524 97.9739 183.614 97.9739C184.566 97.9739 186.469 97.738 188.373 97.5021C195.035 96.5583 200.984 94.199 205.981 89.7162C213.357 82.1664 215.737 72.9649 213.833 62.8198Z" fill="black"/>
<path d="M158.153 44.6526C158.867 44.6526 159.343 44.4166 160.057 44.4166V41.3495C153.87 42.2932 147.684 42.2932 141.259 41.3495V44.4166C142.449 44.4166 143.4 44.4166 144.352 44.6526C147.446 44.8885 149.111 46.776 148.397 49.8431C147.921 51.9665 146.97 54.3259 146.018 56.2133C143.876 60.932 142.211 65.8866 140.783 70.8412C139.831 73.9084 138.879 76.5037 137.69 79.8067C137.69 79.8067 137.69 79.8067 137.69 80.0427L137.452 80.5145C137.452 80.5145 137.452 80.5145 137.452 80.7505C136.5 78.3911 135.548 76.2677 134.834 74.1443C131.979 66.8304 128.886 59.7523 126.03 52.4384C125.316 50.7868 124.841 49.1353 124.603 47.2478C124.365 46.3041 125.316 45.3604 126.268 45.1244C126.982 45.1244 127.934 44.8885 128.648 44.6526V41.5854C118.654 42.5292 108.66 42.5292 98.9043 41.5854V44.6526C99.1422 44.6526 99.8561 44.6526 100.094 44.6526C102.711 44.6526 104.853 45.8322 106.519 47.9556C106.994 48.6634 107.47 49.3712 107.708 50.079C110.802 57.6289 114.133 65.4148 117.226 72.9647C120.32 80.2786 123.175 87.8285 126.268 95.1425C126.506 95.8503 126.982 96.0862 127.696 96.0862C128.886 96.0862 130.313 96.0862 131.741 96.0862H132.455L130.551 102.456C125.554 117.556 119.844 125.814 114.371 130.533C113.895 131.004 113.181 131.24 112.229 131.24C108.184 131.004 102.473 125.106 97.0007 124.162C90.5761 122.983 82.4859 129.353 77.0131 126.522C76.0613 126.05 75.3475 126.994 75.8234 127.937C77.0131 129.825 78.6787 131.712 80.3444 133.364C81.5341 134.543 82.7238 135.723 84.1515 136.667C88.1966 139.262 90.3382 139.97 95.811 140.206C103.187 140.442 109.85 137.611 113.419 135.015C113.657 134.779 113.895 134.543 114.847 133.836C121.033 128.881 127.696 120.151 133.169 103.4L136.976 90.8956C140.069 82.6379 143.163 74.3803 146.018 66.1226C147.921 60.932 150.063 55.5055 152.205 50.315C153.394 47.4838 155.06 45.1244 158.153 44.6526Z" fill="black"/>
<path d="M58.4531 33.3278C63.9259 33.3278 67.971 29.081 67.971 23.4186C67.971 17.5202 63.688 12.8015 58.4531 12.8015C52.9803 12.8015 48.6973 17.2843 48.6973 22.7108C48.6973 28.6091 53.2183 33.3278 58.4531 33.3278Z" fill="black"/>
<path d="M104.379 95.8506C104.379 95.1428 104.379 94.199 104.379 93.2553C103.427 93.2553 102.475 93.2553 101.523 93.0194C101.285 93.0194 101.047 93.0194 100.81 93.0194C100.572 93.0194 100.334 93.0194 100.334 92.7834C100.096 92.7834 99.8577 92.5475 99.6198 92.5475C99.3819 92.5475 99.3819 92.3116 99.1439 92.3116C98.906 92.0756 98.906 92.0756 98.668 91.8397C98.4301 91.6038 98.4301 91.3678 98.1921 91.1319C98.1921 91.1319 98.1921 90.896 97.9542 90.896C97.7162 90.66 97.7162 90.1881 97.4783 89.9522V89.7163C97.2403 88.5366 97.0024 87.121 97.0024 85.7054C97.0024 57.8652 97.0024 30.2609 97.0024 2.4207V0.769165C96.5265 1.0051 96.2885 1.0051 95.8126 1.24103C92.7193 2.89257 89.3881 4.54411 86.2947 5.95971C82.0117 8.08312 77.4907 9.97059 72.9697 11.8581C72.4938 12.3299 72.2558 12.5659 72.2558 13.2737V14.6893C73.6835 14.6893 75.1112 14.4533 76.3009 14.4533C78.2045 14.4533 79.3942 15.1611 79.8701 17.2845C80.1081 18.4642 80.346 19.4079 80.346 20.5876C80.346 41.8217 80.346 63.2917 80.346 84.5257C80.346 86.1773 80.1081 87.8288 79.8701 89.2444C79.3942 92.0756 77.9666 93.2553 75.1112 93.4912C74.6353 93.4912 72.2558 93.4912 71.542 93.4912C68.9245 93.4912 67.4969 91.8397 67.021 89.4803C66.5451 87.5929 66.3071 85.7054 66.3071 83.582C66.3071 69.19 66.3071 54.5621 66.3071 40.1701V38.7545C65.8312 38.9905 65.3553 39.2264 65.1174 39.2264C57.9789 42.5295 50.8405 46.0685 43.4641 49.3716C41.5606 50.3153 41.5606 50.3153 41.7985 52.6746C42.9882 52.6746 44.4159 52.4387 45.6057 52.4387C47.2713 52.4387 48.699 53.3824 49.1749 55.034C49.6508 56.2137 49.8887 57.6293 49.8887 59.0449C49.8887 67.3026 49.8887 75.5602 49.8887 83.8179C49.8887 85.9413 49.6508 87.8288 49.1749 89.9522C48.699 91.8397 47.2713 93.2553 45.1298 93.4912C44.178 93.4912 43.2262 93.4912 42.2744 93.7272C42.2744 94.6709 42.2744 95.6146 42.2744 96.3224H72.4938H73.9214H102.475H104.379V95.8506Z" fill="black"/>
</svg>
