<svg width="281" height="371" viewBox="0 0 281 371" fill="none" xmlns="http://www.w3.org/2000/svg">
<g opacity="0.5">
<path d="M-258.599 167.555C-248.682 148.894 -237.647 130.828 -225.57 113.486C-220.202 105.777 -214.463 98.0489 -206.658 92.8217C-186.705 79.4598 -159.73 86.0294 -137.833 95.8867C-117.665 104.966 -98.5823 116.454 -81.1197 130.028C-63.8148 143.48 -47.789 159.166 -27.8252 168.214C-7.86213 177.262 17.9347 178.064 33.9509 163.101C43.48 154.199 48.1298 140.967 48.782 127.942C49.4342 114.918 46.4439 101.98 42.6232 89.5121C38.2483 75.2364 32.685 60.4824 35.355 45.7924C38.1193 30.5854 50.3872 17.5349 65.395 13.8375C86.745 8.57761 107.875 21.0292 127.773 30.3871C153.052 42.2757 181.558 49.7863 208.965 44.3814C236.373 38.9767 261.953 18.2217 266.592 -9.3259" stroke="white" stroke-miterlimit="10"/>
<path d="M-254.951 172.83C-245.271 154.582 -234.453 136.943 -222.588 120.045C-217.313 112.532 -211.675 105.012 -204.06 99.8837C-184.596 86.7777 -158.386 92.721 -136.981 101.873C-131.898 104.046 -126.882 106.375 -121.943 108.856C-107.72 116 -94.1271 124.4 -81.3785 133.927C-64.3581 146.647 -48.5448 161.553 -28.9828 170.188C-9.424 178.822 15.1653 179.044 31.4778 165.512C37.6147 160.421 42.4621 154.466 45.6906 147.508C47.8926 142.768 49.4513 137.656 50.2944 132.386C50.6821 129.976 50.9308 127.528 51.0458 125.038C51.498 115.079 49.5911 104.702 47.1504 94.6801C46.9083 93.6861 46.6617 92.6934 46.412 91.7032C42.5284 76.2795 38.3077 60.4436 41.8646 45.2911C45.291 30.6962 56.8399 17.9937 71.4795 14.309C92.3089 9.0651 112.934 20.7001 132.313 29.2788C133.841 29.9548 135.38 30.6148 136.93 31.2555C160.353 40.9408 186.096 46.3476 210.733 40.8878C236.999 35.0685 261.318 14.5775 265.449 -12.2891" stroke="white" stroke-miterlimit="10"/>
<path d="M-251.308 178.1C-241.866 160.266 -231.264 143.056 -219.611 126.599C-214.43 119.283 -208.894 111.971 -201.467 106.941C-182.494 94.0908 -157.047 99.4084 -136.134 107.855C-131.168 109.86 -126.264 112.019 -121.43 114.326C-107.51 120.969 -94.1783 128.843 -81.6428 137.823C-64.9071 149.812 -49.3069 163.937 -30.1451 172.159C-10.9905 180.38 12.5208 180.082 29.0007 167.919C35.6469 163.013 41.3594 157.952 45.4152 151.439C48.1839 147.003 50.381 142.09 51.8027 136.827C52.4574 134.419 52.9594 131.933 53.3016 129.356C54.6513 119.059 52.9966 107.84 50.8461 97.0864C50.6322 96.0201 50.4162 94.9556 50.1975 93.892C46.8053 77.3197 43.8911 60.4574 48.3708 44.7877C52.3651 30.8153 63.2885 18.4501 77.5601 14.7774C97.8687 9.55024 117.989 20.3686 136.85 28.1684C138.337 28.7832 139.834 29.3812 141.341 29.961C164.115 38.7209 188.928 43.2422 212.497 37.3913C237.624 31.1569 260.68 10.9299 264.303 -15.2553" stroke="white" stroke-miterlimit="10"/>
<path d="M-247.662 183.373C-238.458 165.953 -228.072 149.169 -216.63 133.156C-211.544 126.037 -206.107 118.932 -198.871 114.001C-180.386 101.407 -155.705 106.097 -135.284 113.84C-130.434 115.677 -125.641 117.665 -120.912 119.798C-107.295 125.941 -94.2253 133.289 -81.902 141.721C-65.4508 152.978 -50.0632 166.324 -31.303 174.132C-12.5528 181.939 10.0002 181.197 26.527 170.329C33.7218 165.597 40.2601 161.44 45.1431 155.373C48.4776 151.242 51.3146 146.527 53.3144 141.27C54.2356 138.864 54.9914 136.34 55.5598 133.677C57.8072 123.041 56.4052 110.981 54.5441 99.4965C54.3591 98.3587 54.1723 97.2213 53.986 96.0848C51.0844 78.3643 49.4393 60.5175 54.8804 44.2874C59.3557 30.9391 69.7402 18.9104 83.6446 15.2498C103.432 10.0384 123.048 20.0412 141.39 27.0618C142.836 27.6149 144.291 28.1522 145.755 28.6704C167.882 36.5051 191.765 40.1399 214.264 33.8984C238.251 27.2497 260.044 7.2875 263.16 -18.2177" stroke="white" stroke-miterlimit="10"/>
<path d="M-244.018 188.646C-235.052 171.639 -224.883 155.283 -213.653 139.712C-208.66 132.791 -203.325 125.893 -196.279 121.062C-178.283 108.723 -154.367 112.788 -134.438 119.824C-129.704 121.493 -125.022 123.31 -120.399 125.27C-107.086 130.912 -94.2769 137.735 -82.1667 145.619C-65.9994 156.145 -50.8256 168.711 -32.4657 176.105C-14.1205 183.499 7.57996 182.394 24.0488 172.738C31.8284 168.177 39.1563 164.928 44.8665 159.307C48.7677 155.48 52.2431 150.963 54.8217 145.713C56.0099 143.31 57.0191 140.746 57.8131 137.996C60.9581 127.022 59.809 114.12 58.2381 101.904C58.082 100.694 57.925 99.4847 57.7698 98.2749C55.3596 79.4058 54.9406 60.6059 61.3849 43.7853C66.261 31.0563 76.1878 19.3682 89.7234 15.7195C108.99 10.5241 128.101 19.711 145.925 25.9527C147.33 26.4448 148.743 26.9199 150.165 27.3774C171.644 34.2869 194.597 37.0361 216.028 30.4041C238.874 23.3403 259.404 3.64288 262.013 -21.1816" stroke="white" stroke-miterlimit="10"/>
<path d="M-240.38 193.917C-231.652 177.323 -221.7 161.396 -210.68 146.267C-205.782 139.542 -200.547 132.853 -193.692 128.12C-176.185 116.037 -153.034 119.475 -133.597 125.807C-128.979 127.309 -124.408 128.954 -119.891 130.741C-106.881 135.882 -94.3331 142.179 -82.4357 149.515C-66.5528 159.31 -51.5916 171.096 -33.6334 178.076C-15.6924 185.057 5.24365 183.672 21.5664 175.146C29.9633 170.76 38.0484 168.413 44.5857 163.238C49.0535 159.715 53.1671 155.398 56.3246 150.155C57.78 147.753 59.0422 145.151 60.0631 142.316C64.1058 131.003 63.2096 117.258 61.9281 104.312C61.8001 103.03 61.6739 101.748 61.5503 100.465C59.6315 80.4481 60.3956 60.7141 67.8855 43.283C73.0932 31.164 82.6308 19.8257 95.7989 16.1899C114.544 11.011 133.151 19.3809 150.456 24.8442C151.82 25.2742 153.191 25.6889 154.57 26.0848C175.401 32.0689 197.425 33.9317 217.786 26.9092C239.492 19.4303 258.76 -0.00234257 260.861 -24.146" stroke="white" stroke-miterlimit="10"/>
<path d="M-236.735 199.19C-228.244 183.01 -218.509 167.509 -207.701 152.825C-202.897 146.297 -197.762 139.815 -191.097 135.181C-174.08 123.354 -151.693 126.166 -132.749 131.792C-128.247 133.127 -123.787 134.601 -119.376 136.213C-106.67 140.854 -94.3838 146.626 -82.6985 153.413C-67.1001 162.476 -52.3522 173.483 -34.7943 180.05C-17.2575 186.617 2.98717 185.035 19.0898 177.556C28.1324 173.356 36.9454 171.902 44.3107 167.173C49.3454 163.954 54.098 159.835 57.8327 154.598C59.5543 152.199 61.0705 149.559 62.3172 146.636C67.2573 134.986 66.6143 120.398 65.6221 106.72C65.5229 105.367 65.4269 104.012 65.3339 102.657C63.9058 81.491 65.807 60.8323 74.3899 42.7826C79.8681 31.2616 89.0773 20.2859 101.878 16.6612C120.102 11.4983 138.203 19.0521 154.99 23.7367C156.314 24.1057 157.644 24.4583 158.979 24.7933C179.163 29.8522 200.256 30.8293 219.549 23.4156C240.115 15.5224 258.12 -3.64625 259.713 -27.1093" stroke="white" stroke-miterlimit="10"/>
<path d="M-233.091 204.463C-224.838 188.696 -215.319 173.624 -204.723 159.382C-200.012 153.051 -194.979 146.775 -188.504 142.241C-171.975 130.67 -150.353 132.856 -131.901 137.777C-127.516 138.943 -123.165 140.247 -118.861 141.685C-106.459 145.826 -94.4332 151.071 -82.961 157.312C-67.6473 165.643 -53.1117 175.87 -35.9555 182.023C-18.823 188.176 2.19503 189.179 16.613 179.965C26.8827 177.757 35.843 175.39 44.0355 171.107C49.6369 168.191 55.0278 164.272 59.3412 159.042C61.3299 156.645 63.0993 153.965 64.5724 150.956C70.4102 138.967 70.0193 123.537 69.3178 109.129C69.2477 107.704 69.1807 106.277 69.1196 104.848C68.1828 82.5342 71.1721 60.9492 80.8966 42.2806C86.5939 31.3431 95.5271 20.7439 107.959 17.132C125.662 11.9848 143.259 18.723 159.527 22.6277C160.81 22.9357 162.098 23.2268 163.39 23.5002C182.926 27.6336 203.09 27.7246 221.313 19.9203C240.739 11.612 257.481 -7.29192 258.567 -30.0742" stroke="white" stroke-miterlimit="10"/>
<path d="M-229.447 209.735C-221.433 194.381 -212.13 179.737 -201.745 165.938C-197.128 159.803 -192.196 153.736 -185.911 149.301C-169.871 137.985 -149.015 139.545 -131.054 143.76C-126.785 144.759 -122.546 145.892 -118.347 147.157C-106.249 150.796 -94.484 155.517 -83.2248 161.209C-68.1955 168.809 -53.8733 178.255 -37.1173 183.996C-20.3898 189.735 -0.0537669 190.766 14.1365 182.374C25.0634 180.607 34.7409 178.877 43.7606 175.039C49.9287 172.429 55.958 168.707 60.8502 163.484C63.1061 161.088 65.1286 158.371 66.8286 155.276C73.5641 142.949 73.4261 126.677 73.014 111.537C72.9719 110.041 72.9357 108.54 72.9062 107.039C72.46 83.5768 76.4883 61.055 87.4039 41.7798C93.2763 31.4092 101.977 21.2036 114.041 17.6029C131.224 12.471 148.315 18.3926 164.065 21.5181C165.307 21.7642 166.553 21.994 167.802 22.2068C186.691 25.4151 205.925 24.6202 223.079 16.4248C241.365 7.70217 256.844 -10.9379 257.423 -33.0392" stroke="white" stroke-miterlimit="10"/>
<path d="M-225.805 215.007C-218.028 200.067 -208.943 185.85 -198.769 172.494C-194.246 166.556 -189.414 160.697 -183.319 156.36C-167.769 145.3 -147.677 146.234 -130.208 149.743C-126.055 150.574 -121.927 151.536 -117.834 152.627C-106.039 155.766 -94.5353 159.96 -83.4892 165.105C-68.7436 171.974 -54.6349 180.641 -38.2804 185.967C-21.9573 191.293 -2.30416 192.353 11.6578 184.782C23.2419 183.455 33.6366 182.363 43.4836 178.971C50.2175 176.664 56.8865 173.142 62.3568 167.926C64.8797 165.533 67.1555 162.776 69.0812 159.594C76.7143 146.928 76.8292 129.814 76.7065 113.944C76.6934 112.375 76.687 110.803 76.6884 109.228C76.7336 84.6179 81.7479 61.1386 93.9069 41.2765C99.918 31.4574 108.423 21.6604 120.119 18.0724C136.781 12.9581 153.367 18.0631 168.598 20.4104C169.799 20.5954 171.004 20.7641 172.21 20.9158C190.45 23.1986 208.755 21.5177 224.84 12.9323C241.985 3.79456 256.202 -14.5815 256.272 -36.0015" stroke="white" stroke-miterlimit="10"/>
<path d="M-222.159 220.279C-214.62 205.753 -205.751 191.963 -195.788 179.05C-191.359 173.31 -186.628 167.658 -180.723 163.42C-165.661 152.614 -146.334 152.922 -129.359 155.727C-125.322 156.391 -121.305 157.181 -117.317 158.099C-105.826 160.738 -94.584 164.406 -83.7499 169.002C-69.289 175.139 -55.3926 183.027 -39.4393 187.94C-23.5204 192.852 -4.5501 193.94 9.18316 187.191C21.4245 186.306 32.5365 185.85 43.2106 182.905C50.5113 180.902 57.8186 177.578 63.8677 172.369C66.657 169.977 69.1867 167.182 71.3385 163.915C79.869 150.911 80.2371 132.954 80.4046 116.353C80.4203 114.713 80.444 113.067 80.4771 111.42C81.0137 85.661 86.9589 61.1957 100.417 40.7752C106.536 31.4904 114.875 22.1189 126.204 18.5431C142.344 13.4445 158.426 17.7338 173.138 19.302C174.299 19.4253 175.461 19.5333 176.624 19.6233C194.217 20.981 211.591 18.4143 226.608 9.43779C242.613 -0.11423 255.567 -18.2263 255.13 -38.9655" stroke="white" stroke-miterlimit="10"/>
<path d="M-218.517 225.551C-211.216 211.439 -202.564 198.077 -192.812 185.606C-188.477 180.062 -183.847 174.618 -178.132 170.479C-163.56 159.93 -144.998 159.612 -128.513 161.711C-124.593 162.206 -120.687 162.827 -116.805 163.57C-105.618 165.708 -94.6368 168.851 -84.0148 172.899C-69.8384 178.305 -56.1553 185.413 -40.6028 189.912C-25.0881 194.411 -6.80084 195.527 6.70491 189.599C19.6034 189.155 31.4318 189.336 42.9339 186.837C50.8013 185.138 58.7469 182.014 65.3747 176.811C68.431 174.422 71.214 171.588 73.5922 168.234C83.0204 154.892 83.6406 136.092 84.098 118.761C84.1428 117.048 84.1956 115.33 84.2603 113.611C85.2874 86.7032 92.1082 61.2125 106.921 40.2733C113.122 31.5061 121.321 22.5775 132.282 19.0137C147.901 13.9318 163.479 17.4046 177.673 18.1939C178.792 18.2559 179.913 18.3019 181.033 18.3311C197.977 18.7634 214.422 15.3104 228.369 5.94329C243.234 -4.02382 254.926 -21.8711 253.982 -41.9296" stroke="white" stroke-miterlimit="10"/>
<path d="M-214.866 230.826C-207.803 217.126 -199.367 204.192 -189.827 192.164C-185.586 186.817 -181.056 181.58 -175.531 177.54C-161.449 167.247 -143.651 166.303 -127.659 167.697C-123.855 168.024 -120.06 168.474 -116.284 169.043C-105.401 170.681 -94.6799 173.298 -84.271 176.798C-70.3792 181.473 -56.9085 187.801 -41.7572 191.887C-26.6473 195.971 -9.04221 197.117 4.23505 192.011C17.791 192.007 30.3364 192.826 42.6649 190.773C51.099 189.378 59.6837 186.451 66.8898 181.254C70.2133 178.867 73.2492 175.996 75.854 172.554C86.1798 158.874 87.0527 139.233 87.7998 121.169C87.8726 119.385 87.9561 117.595 88.0518 115.802C89.5702 87.7464 97.2062 61.1813 113.433 39.7721C119.698 31.5059 127.776 23.0363 138.369 19.4844C153.467 14.4184 168.541 17.0748 182.215 17.0857C183.294 17.0859 184.373 17.0713 185.45 17.0391C201.747 16.5461 217.263 12.2075 230.141 2.44916C243.866 -7.93305 254.295 -25.5156 252.842 -44.8934" stroke="white" stroke-miterlimit="10"/>
<path d="M-211.229 236.098C-204.402 222.812 -196.184 210.305 -186.855 198.721C-182.708 193.571 -178.28 188.541 -172.944 184.6C-159.351 174.563 -142.318 172.993 -126.818 173.681C-123.13 173.841 -119.447 174.119 -115.776 174.515C-105.197 175.652 -94.7368 177.743 -84.5409 180.696C-70.9328 184.639 -57.6762 190.187 -42.9258 193.86C-28.2202 197.531 -11.8431 196.381 1.75066 194.42C15.826 192.389 29.2275 196.312 42.3833 194.705C51.384 193.614 60.607 190.887 68.3919 185.697C71.9824 183.312 75.2716 180.401 78.1025 176.874C89.326 162.855 90.4518 142.372 91.489 123.578C91.5909 121.721 91.7042 119.859 91.8316 117.993C93.8408 88.7886 102.232 61.0913 119.933 39.2707C126.246 31.4878 134.219 23.4948 144.443 19.9556C159.021 14.9055 173.588 16.7459 186.746 15.9773C187.784 15.9165 188.82 15.8397 189.855 15.7466C205.504 14.3285 220.089 9.10334 231.898 -1.04479C244.483 -11.8413 253.649 -29.1599 251.689 -47.8569" stroke="white" stroke-miterlimit="10"/>
<path d="M-207.584 241.369C-200.995 228.496 -192.993 216.418 -183.876 205.275C-179.823 200.322 -175.495 195.5 -170.349 191.658C-157.245 181.877 -140.977 179.68 -125.969 179.663C-122.397 179.655 -118.824 179.762 -115.26 179.985C-104.984 180.622 -94.7858 182.186 -84.802 184.591C-71.4786 187.803 -58.4343 192.571 -44.0849 195.83C-29.7836 199.087 -13.9347 198.185 -0.723195 196.827C14.0945 195.304 28.1263 199.798 42.1093 198.636C51.6759 197.85 61.5381 195.32 69.9015 190.138C73.7583 187.755 77.3016 184.806 80.3589 181.192C92.4801 166.835 93.8588 145.509 95.1852 125.985C95.3158 124.057 95.4591 122.122 95.6175 120.182C98.118 89.8301 107.202 60.932 126.44 38.767C132.79 31.4502 140.668 23.9517 150.525 20.4239C164.582 15.3906 178.644 16.4143 191.283 14.8666C192.28 14.7438 193.275 14.6066 194.266 14.4519C209.268 12.1083 222.923 5.99762 233.664 -4.54161C245.108 -15.7532 253.012 -32.807 250.544 -50.8233" stroke="white" stroke-miterlimit="10"/>
<path d="M-203.941 246.642C-197.591 234.183 -189.805 222.532 -180.899 211.833C-176.94 207.077 -172.712 202.463 -167.757 198.719C-155.142 189.193 -139.639 186.371 -125.124 185.649C-121.667 185.473 -118.206 185.409 -114.747 185.458C-104.775 185.594 -94.8375 186.634 -85.0667 188.49C-72.0278 190.971 -59.1968 194.959 -45.2483 197.804C-31.3513 200.648 -16.0452 200.022 -3.20213 199.237C12.3526 198.286 27.0217 203.286 41.8328 202.571C51.9662 202.088 62.4674 199.758 71.4089 194.582C75.5329 192.201 79.3293 189.213 82.6129 185.513C95.6315 170.817 97.2634 148.649 98.8791 128.393C99.038 126.393 99.2113 124.385 99.4021 122.374C102.394 90.8729 112.106 60.6951 132.945 38.2662C139.326 31.3987 147.116 24.4108 156.605 20.8958C170.141 15.8783 183.699 16.0864 195.819 13.7597C196.775 13.576 197.728 13.3765 198.677 13.1609C213.031 9.89217 225.757 2.89514 235.427 -8.03482C245.731 -19.6608 252.372 -36.4505 249.397 -53.7862" stroke="white" stroke-miterlimit="10"/>
<path d="M-200.296 251.915C-194.182 239.869 -186.614 228.646 -177.919 218.39C-174.054 213.831 -169.927 209.424 -165.162 205.779C-153.036 196.509 -138.298 193.061 -124.274 191.633C-120.934 191.29 -117.583 191.055 -114.23 190.93C-104.563 190.566 -94.8862 191.08 -85.3283 192.388C-72.5738 194.137 -59.9553 197.345 -46.4079 199.778C-32.9151 202.208 -18.1733 201.884 -5.67744 201.647C10.6003 201.339 25.9216 206.775 41.5591 206.505C52.2594 206.325 63.3988 204.194 72.9191 199.025C77.3101 196.647 81.3598 193.62 84.8696 189.834C98.786 174.799 100.671 151.79 102.577 130.803C102.764 128.731 102.968 126.65 103.189 124.565C106.672 91.9166 116.95 60.3686 139.453 37.7657C145.86 31.3294 153.566 24.8702 162.688 21.3672C175.703 16.3656 188.756 15.7571 200.357 12.652C201.272 12.4063 202.183 12.1464 203.089 11.8694C216.795 7.67528 228.591 -0.207326 237.194 -11.5284C246.358 -23.5694 251.735 -40.0946 248.253 -56.7494" stroke="white" stroke-miterlimit="10"/>
<path d="M-196.652 257.187C-190.777 245.555 -183.424 234.759 -174.941 224.946C-171.17 220.584 -167.144 216.385 -162.569 212.839C-150.933 203.825 -136.959 199.75 -123.428 197.617C-120.204 197.106 -116.965 196.7 -113.717 196.401C-104.353 195.536 -94.9375 195.524 -85.5927 196.285C-73.1229 197.303 -60.7176 199.731 -47.5711 201.75C-34.4833 203.766 -20.3294 203.765 -8.1554 204.056C8.82571 204.461 24.8174 210.261 41.2827 210.438C52.5495 210.563 64.3272 208.631 74.4264 203.468C79.0836 201.091 83.3872 198.027 87.1236 194.153C101.937 178.781 104.074 154.928 106.271 133.21C106.487 131.066 106.72 128.914 106.974 126.756C110.948 92.9582 121.728 59.9401 145.958 37.263C152.392 31.2414 160.015 25.3282 168.768 21.8371C181.261 16.8521 193.81 15.4273 204.893 11.5433C205.768 11.2365 206.637 10.9144 207.5 10.5766C220.558 5.45723 231.424 -3.31114 238.957 -15.0227C246.981 -27.4781 251.096 -43.7393 247.106 -59.7133" stroke="white" stroke-miterlimit="10"/>
<path d="M-193.007 262.459C-187.369 251.24 -180.234 240.872 -171.962 231.502C-168.285 227.336 -164.36 223.345 -159.975 219.898C-148.827 211.14 -135.619 206.439 -122.579 203.601C-119.471 202.922 -116.343 202.345 -113.201 201.872C-104.141 200.507 -94.9859 199.969 -85.8541 200.182C-73.668 200.468 -61.4759 202.117 -48.7304 203.722C-36.0469 205.324 -22.513 205.661 -10.6303 206.464C7.02766 207.656 23.7169 213.747 41.0095 214.37C52.8429 214.799 65.2598 213.065 75.9368 207.91C80.8612 205.535 85.4182 202.431 89.3807 198.472C105.092 182.761 107.482 158.067 109.967 135.618C110.212 133.403 110.475 131.177 110.76 128.946C115.226 94.0007 126.45 59.4003 152.466 36.7611C158.93 31.1362 166.465 25.7862 174.85 22.3071C186.823 17.338 198.866 15.0973 209.43 10.4342C210.264 10.0656 211.091 9.6829 211.911 9.28344C224.321 3.23869 234.258 -6.41583 240.722 -18.5179C247.606 -31.3884 250.458 -47.3848 245.96 -62.6782" stroke="white" stroke-miterlimit="10"/>
<path d="M-189.363 267.732C-183.963 256.927 -177.045 246.987 -168.984 238.059C-165.401 234.091 -161.576 230.307 -157.382 226.96C-146.724 218.457 -134.28 213.13 -121.732 209.586C-118.742 208.74 -115.724 207.992 -112.687 207.346C-103.93 205.479 -95.0375 204.416 -86.1178 204.081C-74.2164 203.636 -62.2374 204.504 -49.8929 205.696C-37.6137 206.885 -24.7333 207.572 -13.1083 208.874C5.19418 210.925 22.6133 217.236 40.7331 218.305C53.1343 219.037 66.1894 217.502 77.4453 212.353C82.6369 209.98 87.4467 206.839 91.6357 202.793C108.245 186.743 110.888 161.207 113.662 138.027C113.936 135.739 114.229 133.442 114.545 131.137C119.501 95.0432 131.113 58.742 158.97 36.26C165.47 31.0144 172.912 26.2448 180.93 22.7787C192.381 17.8254 203.92 14.7691 213.965 9.32605C214.758 8.89627 215.544 8.45153 216.32 7.99122C228.083 1.0205 237.09 -9.51976 242.485 -22.0124C248.228 -35.298 249.818 -51.0296 244.813 -65.6422" stroke="white" stroke-miterlimit="10"/>
<path d="M-185.719 273.004C-180.556 262.613 -173.854 253.099 -166.005 244.615C-162.515 240.843 -158.792 237.267 -154.787 234.019C-144.619 225.772 -132.94 219.818 -120.884 215.57C-118.009 214.556 -115.102 213.637 -112.171 212.817C-103.718 210.45 -95.0863 208.861 -86.3788 207.978C-74.7618 206.801 -62.9954 206.89 -51.0519 207.668C-39.1769 208.444 -26.9867 209.488 -15.5822 211.284C3.32616 214.261 21.5137 220.724 40.4608 222.238C53.4269 223.275 67.1211 221.939 78.9559 216.797C84.4145 214.426 89.4777 211.245 93.893 207.113C111.399 190.726 114.295 164.347 117.36 140.436C117.663 138.077 117.986 135.706 118.334 133.329C123.781 96.0867 135.731 57.9547 165.48 35.7591C172.025 30.8754 179.364 26.7047 187.014 23.2497C197.944 18.3132 208.978 14.4393 218.506 8.21831C219.258 7.72675 220.001 7.22138 220.736 6.69964C231.85 -1.19572 239.927 -12.6223 244.254 -25.5061C248.857 -39.206 249.184 -54.6736 243.672 -68.6054" stroke="white" stroke-miterlimit="10"/>
<path d="M-182.073 278.278C-168.081 249.923 -141.484 228.785 -111.656 218.289C-81.8291 207.793 -49.0426 207.383 -18.0592 213.692C1.41252 217.657 20.4111 224.211 40.1854 226.171C59.9607 228.131 81.4421 224.798 96.148 211.433C114.552 194.707 117.7 167.486 121.055 142.844C126.572 102.321 138.284 58.4233 171.985 35.2563C188.772 23.7167 209.569 18.5343 225.145 5.40637C246.741 -12.7938 254.206 -45.8569 242.524 -71.5705" stroke="white" stroke-miterlimit="10"/>
</g>
</svg>
