<svg width="36" height="36" viewBox="0 0 36 36" fill="none" xmlns="http://www.w3.org/2000/svg">
<path d="M35.8896 16.9977L33.9123 17.4495C32.3763 17.8006 30.8112 16.9891 30.2137 15.531C30.1416 15.3549 30.2428 15.1547 30.4264 15.1033L34.38 13.9985C34.4469 13.9796 34.4686 13.8938 34.4183 13.8458C31.6118 11.1794 27.7205 9.95281 23.8698 10.5544L18 11.471L6.51712 13.2654C6.48396 13.2706 6.45079 13.2568 6.43078 13.2305L4.30415 10.3954C4.28699 10.3725 4.26012 10.3594 4.2321 10.3594C1.89504 10.3594 0 12.2544 0 14.5915V18.9139C0 20.1176 0.97611 21.0937 2.17981 21.0937H22.4991H24.3416H31.9921C33.5434 21.0937 34.8912 20.2068 35.5568 18.9139C35.8393 18.365 36 17.7434 36 17.0846C36 17.0275 35.9451 16.9846 35.8896 16.9977ZM10.9957 17.9401C10.2174 17.9401 9.5867 17.3094 9.5867 16.5311C9.5867 15.7529 10.2174 15.1221 10.9957 15.1221C11.7739 15.1221 12.4047 15.7529 12.4047 16.5311C12.4047 17.3094 11.7739 17.9401 10.9957 17.9401ZM17.1194 17.7422C16.3411 17.7422 15.7104 17.1115 15.7104 16.3333C15.7104 15.555 16.3411 14.9243 17.1194 14.9243C17.8976 14.9243 18.5284 15.555 18.5284 16.3333C18.5284 17.1115 17.8976 17.7422 17.1194 17.7422ZM23.4976 17.446C22.7193 17.446 22.0886 16.8153 22.0886 16.0371C22.0886 15.2588 22.7193 14.6281 23.4976 14.6281C24.2758 14.6281 24.9065 15.2588 24.9065 16.0371C24.9065 16.8153 24.2752 17.446 23.4976 17.446Z" fill="#000248"/>
<path d="M12.7165 22.1719L9.12826 27.4224C8.83549 27.8507 9.14256 28.4322 9.66121 28.4322H13.3226C13.4513 28.4322 13.5771 28.3939 13.6834 28.3219L22.8064 22.1719H12.7165Z" fill="#2690D4"/>
<path d="M11.7269 11.3588L18.9788 10.226L13.6671 6.64523C13.5716 6.58118 13.4595 6.54688 13.3446 6.54688H9.53106C9.06788 6.54688 8.7934 7.06609 9.0553 7.44865L11.7269 11.3588Z" fill="#2690D4"/>
</svg>
