<svg width="194" height="72" viewBox="0 0 194 72" fill="none" xmlns="http://www.w3.org/2000/svg">
<g clip-path="url(#clip0_3_4526)">
<g clip-path="url(#clip1_3_4526)">
<path d="M59.5456 45.9995V25.0849H56.0323V35.9555C56.0323 38.1049 55.619 40.3782 54.2963 41.7422C53.387 42.6929 52.2296 43.3129 50.8243 43.3129C47.5176 43.3129 46.3603 41.4529 46.3603 38.3115V25.0849H42.847V38.8075C42.847 43.6435 45.2443 46.4955 49.9976 46.4955C52.4363 46.4955 55.123 45.2142 56.1976 42.8169L56.487 45.9995H59.5456ZM83.6843 35.5422C83.6843 32.0702 82.651 28.8875 80.667 26.8622C79.303 25.4569 77.319 24.5889 74.7563 24.5889C72.4003 24.5889 69.7136 25.7462 68.515 27.8542L68.267 25.1262H65.167V54.9689H68.6803V43.6022C69.7963 45.5035 72.483 46.5782 74.7563 46.5782C77.195 46.5782 79.1376 45.7515 80.5016 44.4702C82.6096 42.4449 83.6843 39.1382 83.6843 35.5422ZM80.0883 35.5835C80.0883 39.4275 78.8483 43.6022 74.1776 43.6022C72.6483 43.6022 71.615 42.9822 70.7883 42.2382C69.0523 40.7089 68.4736 38.1875 68.4736 35.5835C68.4736 32.9795 69.0523 30.4582 70.7883 28.9289C71.615 28.1849 72.6483 27.5649 74.1776 27.5649C78.8483 27.5649 80.0883 31.7395 80.0883 35.5835Z" fill="#003425"/>
<path d="M95.2483 45.9999V43.0239C95.2483 43.0239 94.9589 43.0652 93.8016 43.0652C92.3549 43.0652 91.9003 42.3212 91.9003 40.9159V16.1572H88.3869V41.1226C88.3869 44.4292 89.7096 46.2479 92.7683 46.2479C94.4629 46.2479 95.2483 45.9999 95.2483 45.9999ZM102.916 20.2906V16.1572H98.8243V20.2906H102.916ZM102.668 45.9999V25.0852H99.0723V45.9999H102.668ZM124.39 39.9239C124.39 36.7826 122.034 34.6332 119.058 34.1372C116.826 33.7652 115.172 33.5999 114.015 33.4346C112.279 33.1866 111.204 32.4426 111.204 30.7066C111.204 29.5492 111.99 28.4332 113.312 27.8959C114.304 27.4826 114.924 27.4826 115.751 27.4826C117.156 27.4826 118.314 27.8132 119.182 28.5986C119.802 29.1359 120.339 30.1279 120.38 31.2026H123.894C123.894 29.5079 123.315 28.3092 122.406 27.1932C121 25.4159 118.52 24.5479 115.751 24.5479C113.147 24.5479 110.956 25.4572 109.592 26.8626C108.642 27.8132 107.856 29.3426 107.856 30.9546C107.856 34.1372 109.84 36.0799 112.982 36.5759C114.428 36.7826 116.784 37.0719 117.694 37.1959C119.843 37.4852 120.959 38.6012 120.959 40.1719C120.959 41.1226 120.504 41.9906 119.926 42.4452C118.851 43.3546 117.528 43.6026 116.082 43.6026C114.759 43.6026 113.271 43.3546 112.32 42.6519C111.328 41.9079 110.667 40.8332 110.626 39.3866H107.112C107.112 41.1639 107.856 42.9412 109.138 44.1812C110.915 45.9172 113.312 46.5372 115.916 46.5372C118.644 46.5372 121.124 45.8346 122.736 44.1812C123.728 43.1479 124.39 41.7426 124.39 39.9239ZM139.58 45.7106V42.6932C139.58 42.6932 137.472 43.0652 135.984 43.0652C134.042 43.0652 133.174 42.2386 133.174 40.2132V28.1026H139.374V25.0852H133.174V18.9266L129.66 19.7532V25.0852H125.61V28.1026H129.66V40.6266C129.66 43.4372 130.9 46.2892 135.406 46.2892C137.348 46.2892 138.63 45.9586 139.58 45.7106ZM147.042 20.2906V16.1572H142.95V20.2906H147.042ZM146.794 45.9999V25.0852H143.198V45.9999H146.794ZM169.92 45.9999V32.2359C169.92 27.3999 167.44 24.5479 162.687 24.5479C160.331 24.5479 157.438 25.8292 156.363 28.2266L156.074 25.0852H153.015V45.9999H156.528V36.2866C156.528 34.6746 156.57 32.4839 157.272 30.9546C158.182 29.0532 159.794 27.7306 161.819 27.7306C165.126 27.7306 166.407 29.5906 166.407 32.7319V45.9999H169.92ZM193.584 49.0999C193.584 47.3639 192.923 45.9999 191.931 45.0079C190.278 43.3132 187.508 42.8172 185.028 42.8172C185.028 42.8172 182.259 42.8586 180.895 42.8172C179.572 42.7759 177.63 42.5692 177.754 40.7506C177.836 39.7586 178.746 39.1386 179.531 38.8906C180.854 39.3452 181.639 39.4692 183.044 39.4692C185.814 39.4692 187.922 38.4772 189.286 36.9892C190.443 35.7079 191.187 33.9719 191.187 31.9879C191.187 30.1279 190.691 28.7639 189.823 27.6479C190.03 26.4906 191.022 25.7466 192.386 25.7466C192.675 25.7466 192.964 25.7466 193.171 25.7879V22.9359C192.84 22.8946 192.468 22.8532 192.138 22.8532C190.154 22.8532 188.542 23.9279 187.839 25.7879C186.558 25.0026 185.028 24.5479 183.044 24.5479C180.275 24.5479 178.291 25.4159 176.844 26.9039C175.646 28.1439 174.86 29.7146 174.86 31.9879C174.86 33.9719 175.728 36.0386 177.258 37.4026C175.687 38.1466 174.488 39.5932 174.488 41.4532C174.488 43.0652 175.522 44.4292 176.927 44.9666C175.274 45.7932 173.951 47.4052 173.951 49.5959C173.951 51.2492 174.571 52.4479 175.439 53.3159C177.464 55.3412 180.606 55.7546 183.375 55.7546C186.31 55.7546 189.782 55.2999 191.807 53.3159C192.799 52.3239 193.584 50.9186 193.584 49.0999ZM187.756 31.9879C187.756 34.6332 185.855 36.6586 183.003 36.6586C180.027 36.6586 178.25 34.6332 178.25 31.9879C178.25 29.3426 180.151 27.3999 183.003 27.3999C185.979 27.3999 187.756 29.3426 187.756 31.9879ZM190.154 49.0999C190.154 50.0092 189.823 50.7119 189.286 51.2492C187.963 52.5719 185.359 52.7372 183.582 52.7372C181.763 52.7372 179.366 52.6546 178.002 51.2906C177.464 50.7532 177.134 50.0506 177.134 49.0999C177.134 47.4879 178.374 46.2479 179.779 45.7932H183.582C186.227 45.7932 190.154 45.5452 190.154 49.0999Z" fill="#003425"/>
<path d="M16.1873 22.3141C16.4522 22.0543 16.8848 22.0571 17.1455 22.3124L32.9523 37.7927L30.23 40.7872L17.1417 27.9692C16.8795 27.7125 16.4537 27.7129 16.1917 27.9692L3.09094 40.7872L0.346436 37.8489L16.1873 22.3141Z" fill="#003425"/>
<path d="M16.1803 40.6286C16.44 40.3693 16.8633 40.3705 17.1231 40.6286L24.0253 47.4859L22.3891 49.2819L16.7511 43.8007C16.6961 43.7472 16.6089 43.7456 16.5526 43.8007L10.9503 49.2819L9.31158 47.4859L16.1803 40.6286Z" fill="#003425"/>
<path d="M16.2098 32.2578C16.4741 31.9974 16.8964 31.9922 17.1647 32.2578L28.1119 43.093L26.0556 45.3019L16.979 36.4766C16.8185 36.3205 16.5552 36.3227 16.3961 36.4766L7.26839 45.3019L5.21115 43.093L16.2098 32.2578Z" fill="#003425"/>
</g>
</g>
<defs>
<clipPath id="clip0_3_4526">
<rect width="194" height="72" fill="white"/>
</clipPath>
<clipPath id="clip1_3_4526">
<rect width="194" height="40" fill="white" transform="translate(6.10352e-05 16)"/>
</clipPath>
</defs>
</svg>
