<svg width="44" height="44" viewBox="0 0 44 44" fill="none" xmlns="http://www.w3.org/2000/svg">
<path d="M40.8571 14.0001V12.2074L38.4579 11.4668L38.2727 10.5915L39.9648 8.84925L39.0893 7.21644L36.648 7.84769L36.0418 7.21644L36.6732 4.84299L35.0653 3.86669L33.2722 5.63414L32.3714 5.36483L31.7821 3.14286H29.8796L29.3576 5.36483L28.339 5.63417L26.6806 3.86672L25.0474 4.79251L25.7293 7.12389L25.0474 7.83087L22.6482 7.19963L21.7222 8.8072L23.4648 10.5746L23.2207 11.45L20.8214 12.1064L20.7962 13.9328L23.2206 14.5641L23.4227 15.5825L21.7306 17.2573L22.6061 18.8144L25.0979 18.1832L25.7041 18.907L25.0222 21.171L26.6974 22.1473L28.3306 20.4304L29.3071 20.6746L29.8712 23.0733L31.7737 23.0984L32.3378 20.6744L33.3143 20.38L35.0569 22.1979L36.7742 21.1795L36.0334 18.8229L36.69 18.1412L39.1145 18.8818L39.9816 17.1901L38.2222 15.6078L38.4074 14.5894L40.8571 14.0001ZM30.8224 17.8044C28.1875 17.8044 26.0408 15.6666 26.0408 13.0238C26.0408 10.381 28.1791 8.24325 30.8224 8.24325C33.4658 8.24325 35.6041 10.381 35.6041 13.0238C35.6041 15.675 33.4658 17.8044 30.8224 17.8044ZM36.9089 19.1847L40.8571 20.4051V23.7633L36.2186 24.8911L35.8735 26.8016L39.1482 29.7726L37.5319 32.9625L32.986 31.5569L31.7569 32.8362L33.1628 37.2549L29.9385 39.1654L26.6638 35.7568L24.837 36.3122L23.7763 40.8571L20.2069 40.815L19.1462 36.3038L17.3194 35.8325L14.2551 39.0644L11.1066 37.238L12.3862 32.9877L11.2329 31.6327L6.56071 32.8194L4.90229 29.8905L8.09285 26.7427L7.68877 24.8237L3.14285 23.637L3.18495 20.1947L7.68877 18.9574L8.16862 17.2994L4.89387 13.9833L6.63648 10.9702L11.1487 12.1569L12.4283 10.8355L11.1487 6.45895L14.213 4.71674L17.311 8.03283L19.2219 7.51945L20.1985 3.14286H23.7679L24.7444 7.00603L22.8418 6.50946L22.3115 6.36646L22.0337 6.84621L21.1076 8.45376L20.8298 8.92509L21.2171 9.31223L22.665 10.7767L22.6398 10.8609L20.6362 11.408L20.1143 11.5509L20.1059 12.0896L20.089 13.1753C16.0903 14.0506 13.0765 17.6192 13.0765 21.8864C13.0765 26.7932 17.0584 30.7826 21.9747 30.7826C26.226 30.7826 29.7786 27.8032 30.6625 23.8137L31.7737 23.8295L32.3546 23.8389L32.4893 23.275L32.9607 21.255L33.1207 21.2044L34.5602 22.7026L34.9559 23.115L35.4441 22.829L37.1615 21.8106L37.6497 21.5161L37.4814 20.969L36.9089 19.1847Z" fill="white"/>
<path d="M36.9089 19.1847L40.8571 20.4051V23.7633L36.2186 24.8911L35.8735 26.8016L39.1482 29.7726L37.5319 32.9625L32.986 31.5569L31.7569 32.8362L33.1628 37.2549L29.9385 39.1654L26.6638 35.7568L24.837 36.3122L23.7763 40.8571L20.2069 40.815L19.1462 36.3038L17.3194 35.8325L14.2551 39.0644L11.1066 37.238L12.3862 32.9877L11.2329 31.6327L6.56071 32.8194L4.90229 29.8905L8.09285 26.7427L7.68877 24.8237L3.14285 23.637L3.18495 20.1947L7.68877 18.9574L8.16862 17.2994L4.89387 13.9833L6.63648 10.9702L11.1487 12.1569L12.4283 10.8355L11.1487 6.45895L14.213 4.71674L17.311 8.03283L19.2219 7.51945L20.1985 3.14286H23.7679L24.7444 7.00603L22.8418 6.50946L22.3115 6.36646L22.0337 6.84621L21.1076 8.45376L20.8298 8.92509L21.2171 9.31223L22.665 10.7767L22.6398 10.8609L20.6362 11.408L20.1143 11.5509L20.1059 12.0896L20.089 13.1753C16.0903 14.0506 13.0765 17.6192 13.0765 21.8864C13.0765 26.7932 17.0584 30.7826 21.9747 30.7826C26.226 30.7826 29.7786 27.8032 30.6625 23.8137L31.7737 23.8295L32.3546 23.8389L32.4893 23.275L32.9607 21.255L33.1207 21.2044L34.5602 22.7026L34.9559 23.115L35.4441 22.829L37.1615 21.8106L37.6497 21.5161L37.4814 20.969L36.9089 19.1847Z" fill="#72C531"/>
</svg>
