<svg width="32" height="32" viewBox="0 0 32 32" fill="none" xmlns="http://www.w3.org/2000/svg">
<path d="M5.695 16C5.695 20.0875 8.0425 23.6087 11.47 25.261L6.6085 11.8263C6.04375 13.1305 5.695 14.5225 5.695 16ZM22.9562 15.478C22.9562 14.218 22.4778 13.303 22.0863 12.652C21.5642 11.782 21.0865 11.0868 21.0865 10.2175C21.0865 9.26125 21.826 8.39125 22.8265 8.39125H22.957C21.13 6.6955 18.6955 5.695 16 5.695C14.2946 5.7101 12.6187 6.14187 11.1184 6.95272C9.61797 7.76356 8.33855 8.9289 7.3915 10.3472H8.044C9.1315 10.3472 10.783 10.2167 10.783 10.2167C11.3485 10.1732 11.392 10.999 10.87 11.0868C10.87 11.0868 10.3045 11.1737 9.69625 11.1737L13.4358 22.3038L15.6962 15.5642L14.0875 11.173L13 11.0875C12.4345 11.044 12.5215 10.2175 13.0435 10.2175C13.0435 10.2175 14.7385 10.348 15.739 10.348C16.8265 10.348 18.478 10.2175 18.478 10.2175C19.0435 10.174 19.087 10.9997 18.565 11.0875C18.565 11.0875 17.9995 11.1745 17.3912 11.1745L21.13 22.2625L22.18 18.8275C22.615 17.3928 22.9622 16.393 22.9622 15.4795L22.9562 15.478ZM16.174 16.9127L13.087 25.87C13.9998 26.131 14.9995 26.305 16 26.305C17.2172 26.305 18.3475 26.08 19.435 25.7395C19.3915 25.696 19.3915 25.6525 19.348 25.609L16.174 16.9127ZM25.0435 11.0875L25.1305 12.1375C25.1305 13.1875 24.9565 14.3553 24.3483 15.8335L21.2178 24.9205C24.2613 23.1377 26.3478 19.8333 26.3478 16.0075C26.3043 14.2248 25.8258 12.5725 25.0427 11.095L25.0435 11.0875ZM16 4C9.391 4 4 9.391 4 16C4 22.609 9.391 28 16 28C22.609 28 28 22.609 28 16C28 9.391 22.609 4 16 4ZM16 27.478C9.6955 27.478 4.5655 22.348 4.5655 16C4.57026 12.9688 5.77649 10.0632 7.91985 7.91985C10.0632 5.77649 12.9688 4.57026 16 4.5655C19.0312 4.57026 21.9368 5.77649 24.0802 7.91985C26.2235 10.0632 27.4297 12.9688 27.4345 16C27.4345 22.348 22.3045 27.478 16 27.478Z" fill="#00749A"/>
</svg>
