<svg width="72" height="72" viewBox="0 0 72 72" fill="none" xmlns="http://www.w3.org/2000/svg">
<rect width="72" height="72" rx="8" fill="white"/>
<g clip-path="url(#clip0_76_17)">
<path d="M56.3605 33.3468L54.3332 32.3337C54.3332 22.2071 46.1244 14 36 14C25.8745 14 17.6663 22.2071 17.6663 32.3337L15.6401 33.3468C14.7381 33.7978 14 34.9924 14 36V39.6668C14 40.6744 14.7381 41.869 15.6401 42.32L17.6663 43.3331H20.4163V32.3337C20.4163 23.7399 27.4074 16.75 36 16.75C44.5921 16.75 51.5832 23.7399 51.5832 32.3337V47C51.5832 51.5562 47.8899 55.25 43.3332 55.25H37.8332V52.5H34.1663V58H43.3332C49.4079 58 54.3332 53.0747 54.3332 47V43.3331L56.3605 42.32C57.2625 41.869 58 40.6744 58 39.6668V36C58 34.9924 57.2625 33.7978 56.3605 33.3468Z" fill="#2690D4"/>
<path d="M43.3332 27.75H37.3751V23.8538C38.4564 23.4853 39.2082 22.7043 39.2082 21.7913C39.2082 20.5258 37.7727 19.5 36.0001 19.5C34.2274 19.5 32.7914 20.5258 32.7914 21.7913C32.7914 22.7043 33.5432 23.4875 34.6251 23.8538V27.75H28.6664C25.6304 27.75 23.1664 30.2135 23.1664 33.25V40.5832C23.1664 45.6426 27.2743 49.75 32.3338 49.75H39.6669C44.7264 49.75 48.8332 45.6426 48.8332 40.5832V33.25C48.8332 30.2135 46.3698 27.75 43.3332 27.75ZM29.5838 36.9169V35.0837C29.5838 34.0695 30.4055 33.25 31.4164 33.25C32.4284 33.25 33.2501 34.0695 33.2501 35.0837V36.9169C33.2501 37.9321 32.4284 38.75 31.4164 38.75C30.4055 38.75 29.5838 37.9321 29.5838 36.9169ZM40.5832 44.25L36.9169 45.1669H35.0838L31.4164 44.25V42.4169H40.5832V44.25ZM42.4169 36.9169C42.4169 37.9321 41.5952 38.75 40.5832 38.75C39.5718 38.75 38.7501 37.9321 38.7501 36.9169V35.0837C38.7501 34.0695 39.5718 33.25 40.5832 33.25C41.5952 33.25 42.4169 34.0695 42.4169 35.0837V36.9169Z" fill="#050148"/>
</g>
<defs>
<clipPath id="clip0_76_17">
<rect width="44" height="44" fill="white" transform="translate(14 13.9999)"/>
</clipPath>
</defs>
</svg>
