<svg width="72" height="72" viewBox="0 0 72 72" fill="none" xmlns="http://www.w3.org/2000/svg">
<rect width="72" height="72" rx="8" fill="white"/>
<g clip-path="url(#clip0_5_516)">
<path d="M44.497 42.1015L44.0963 43.967L45.7586 43.0129C45.9937 42.8781 46.2835 42.8781 46.5186 43.0129L48.1809 43.967L47.7802 42.1015C47.7235 41.8376 47.8133 41.5636 48.0154 41.3833L49.4442 40.1091L47.5351 39.9103C47.2652 39.8822 47.0309 39.7133 46.9205 39.4672L46.1388 37.7244L45.3594 39.4665C45.2491 39.7129 45.0147 39.8821 44.7446 39.9103L42.8349 40.1092L44.262 41.3837C44.464 41.564 44.5534 41.8377 44.4969 42.1015H44.497Z" fill="#050148"/>
<path d="M38.4794 26.0082C39.4847 24.9169 39.3793 23.4537 38.7419 22.3574C38.1042 21.2607 36.8803 20.4387 35.4254 20.7569L37.08 23.6024L38.4795 26.0083L38.4794 26.0082Z" fill="#2690D4"/>
<path d="M46.1386 46.6301C49.3811 46.6301 52.0191 44.0108 52.0191 40.7913C52.0191 37.5718 49.3812 34.9526 46.1386 34.9526C42.896 34.9526 40.2608 37.5718 40.2608 40.7913C40.2608 44.0108 42.8977 46.6301 46.1386 46.6301ZM42.1536 38.6639L44.1497 38.456L44.9661 36.631C45.1745 36.1654 45.6238 35.8762 46.1386 35.8762C46.6534 35.8762 47.1023 36.165 47.3108 36.6304L48.1296 38.456L50.1291 38.6642C50.6337 38.7155 51.0613 39.0601 51.2168 39.5418C51.3746 40.0248 51.2356 40.5386 50.8531 40.8798L49.3574 42.2138L49.7765 44.1653C49.8864 44.6586 49.6961 45.1574 49.2789 45.4615C49.0516 45.6264 48.7886 45.7097 48.524 45.7097C48.3047 45.7097 48.0842 45.6526 47.8818 45.5372L46.1386 44.5369L44.3976 45.536C43.9528 45.7893 43.4198 45.7623 43.0046 45.4661C43.001 45.4635 42.9974 45.4608 42.9938 45.4582C42.5858 45.1562 42.3967 44.6622 42.5 44.1691L42.92 42.2135L41.4265 40.8795C41.0468 40.5408 40.9052 40.0142 41.065 39.5364C41.2243 39.0495 41.6409 38.7155 42.1537 38.6639H42.1536Z" fill="#050148"/>
<path d="M39.4317 51.0954C39.3868 51.0954 39.3432 51.0941 39.2992 51.0933L37.7766 56.7353L40.13 55.3869C40.3046 55.2869 40.5118 55.2597 40.7063 55.3116C40.9009 55.3634 41.0667 55.4899 41.1673 55.663L42.5248 57.9988L43.8524 53.0782C43.7456 52.9856 43.6389 52.8865 43.5323 52.7808C42.4056 51.6623 41.0262 51.0954 39.4317 51.0954Z" fill="#050148"/>
<path d="M24.2405 35.1712C24.27 35.16 24.3 35.1499 24.3315 35.1423C24.3335 35.1418 24.3354 35.1416 24.3374 35.1411C26.7315 34.3958 29.2272 33.8611 31.6772 33.3368C32.675 33.1233 33.6982 32.9042 34.7079 32.6722L27.7378 20.6809C27.0687 21.4046 26.4098 22.142 25.7672 22.8614C23.5183 25.379 21.2099 27.9622 18.3253 30.1313L21.7677 36.0496C22.5749 35.7246 23.4014 35.4346 24.2406 35.1711L24.2405 35.1712Z" fill="#2690D4"/>
<path d="M36.3258 32.4392C36.4742 32.6944 36.6808 32.9045 36.9281 33.0564C36.9287 33.0568 36.9293 33.057 36.9299 33.0574C37.0782 33.1483 37.2412 33.2182 37.4151 33.2644C37.8798 33.3878 38.3628 33.3255 38.775 33.0893C39.187 32.8531 39.4822 32.4695 39.6064 32.0088C39.7306 31.5482 39.6679 31.0692 39.43 30.6602L35.5907 24.0572L33.6559 20.7311C33.6536 20.7272 33.6519 20.7229 33.6496 20.719L31.844 17.6136C31.6062 17.2047 31.2198 16.9115 30.7558 16.7882C30.6 16.7468 30.4421 16.7263 30.2857 16.7263C29.9758 16.7263 29.6712 16.8065 29.3975 16.9634C28.9856 17.1997 28.6904 17.5833 28.5661 18.0439C28.4419 18.5045 28.5047 18.9835 28.7425 19.3925L36.326 32.4393L36.3258 32.4392Z" fill="#2690D4"/>
<path d="M15.2367 36.9018C15.8657 37.984 17.2647 38.3555 18.3556 37.7307L18.7518 37.5035C18.7613 37.4974 18.7702 37.4909 18.7801 37.4853C18.8287 37.4574 18.878 37.4306 18.9268 37.4031L19.4897 37.0803C19.5032 37.0718 19.5172 37.0641 19.5314 37.0565L20.3322 36.5973L17.1159 31.0676L15.1391 32.2012C14.6141 32.502 14.2379 32.991 14.0796 33.5782C13.9213 34.1655 14.0011 34.7762 14.3042 35.2979L15.2367 36.9018Z" fill="#2690D4"/>
<path d="M52.9782 51.0933C52.9333 51.0941 52.8888 51.0954 52.8431 51.0954C51.2485 51.0954 49.8691 51.6624 48.7429 52.7804C48.6371 52.8857 48.5312 52.9844 48.425 53.0767L49.753 58L51.113 55.6628C51.3227 55.3024 51.7868 55.1787 52.1503 55.387L54.5006 56.7347L52.9782 51.0933Z" fill="#050148"/>
<path d="M23.9699 36.8472C22.9152 37.203 21.8903 37.6059 20.9106 38.074L23.8078 44.084L25.5127 43.1063L23.9699 36.8472Z" fill="#2690D4"/>
<path d="M41.9869 25.0306C41.9869 25.4468 42.3264 25.7839 42.7465 25.7839H45.4265C45.8457 25.7839 46.1861 25.4468 46.1861 25.0306C46.1861 24.6144 45.8457 24.2764 45.4265 24.2764H42.7465C42.3264 24.2764 41.9869 24.6135 41.9869 25.0306Z" fill="#2690D4"/>
<path d="M42.1605 20.8065C42.2895 20.8065 42.4203 20.7736 42.5398 20.7048L44.8623 19.3734C45.2255 19.1653 45.3498 18.7039 45.1402 18.3433C44.9306 17.9827 44.4659 17.8593 44.1027 18.0674L41.7802 19.3988C41.417 19.6079 41.2928 20.0683 41.5024 20.429C41.6437 20.6709 41.8988 20.8065 42.1605 20.8065Z" fill="#2690D4"/>
<path d="M37.7317 17.7135C37.8512 17.7822 37.9821 17.8143 38.111 17.8143C38.3737 17.8143 38.6288 17.6796 38.7692 17.4376L40.1111 15.1316C40.3207 14.771 40.1964 14.3096 39.8332 14.1015C39.469 13.8925 39.0053 14.0168 38.7957 14.3774L37.4538 16.6834C37.2442 17.044 37.3685 17.5054 37.7317 17.7135Z" fill="#2690D4"/>
<path d="M39.5345 34.395C39.0267 34.6862 38.4619 34.8349 37.8887 34.8349C37.6651 34.8349 37.4403 34.8117 37.2171 34.7661C37.0467 36.6311 36.4068 37.9827 35.1245 39.2558L34.7938 39.5842C34.3857 39.9894 34.2225 40.4141 34.2948 40.8827C34.3646 41.3347 34.6592 41.838 35.1245 42.2999C36.5457 43.7111 37.2663 45.4387 37.2663 47.4346C37.2663 48.7805 37.6729 49.3905 38.7683 49.5457C38.8017 49.5475 38.8353 49.5522 38.8689 49.5585C39.0404 49.5778 39.2275 49.5873 39.4318 49.5873C41.4438 49.5873 43.1845 50.3028 44.6059 51.7138C45.5331 52.6327 46.2385 52.7991 47.0824 52.2142C47.1084 52.193 47.1357 52.1732 47.1648 52.1554C47.3265 52.0353 47.4935 51.8883 47.6686 51.7143C49.0904 50.3028 50.8313 49.5873 52.8432 49.5873C53.0494 49.5873 53.2383 49.5778 53.4111 49.558C53.4434 49.552 53.4756 49.5475 53.5077 49.5457C54.6041 49.3904 55.0113 48.7804 55.0113 47.4347C55.0113 45.4387 55.7319 43.711 57.1531 42.3C58.2826 41.1763 58.2826 40.3796 57.1525 39.2555C55.7319 37.845 55.0113 36.1173 55.0113 34.1213C55.0113 33.1392 54.7163 31.9686 53.3109 31.9686C50.6633 31.9686 49.2127 31.3721 47.3411 29.5138C46.6775 28.8568 45.5984 28.8566 44.9365 29.5138C43.6228 30.8184 42.5466 31.4753 41.1804 31.7691C41.1077 32.8248 40.5249 33.8276 39.5347 34.3953L39.5345 34.395ZM46.1386 33.4445C50.2186 33.4445 53.5378 36.7402 53.5378 40.7911C53.5378 44.8421 50.2186 48.1379 46.1386 48.1379C42.0587 48.1379 38.7419 44.8421 38.7419 40.7911C38.7419 36.7402 42.0601 33.4445 46.1386 33.4445Z" fill="#050148"/>
</g>
<defs>
<clipPath id="clip0_5_516">
<rect width="44" height="44" fill="white" transform="translate(13.9999 14)"/>
</clipPath>
</defs>
</svg>
