<svg width="72" height="72" viewBox="0 0 72 72" fill="none" xmlns="http://www.w3.org/2000/svg">
<rect width="72" height="72" rx="8" fill="white"/>
<g clip-path="url(#clip0_1_150)">
<path d="M32.0618 34.4504C33.5664 37.8823 35.4895 40.9554 37.3389 42.8778L38.5536 44.1437C40.6585 44.4288 43.4297 44.8409 44.6676 45.0179C45.4237 45.2439 46.1757 45.2425 46.9066 44.9217C50.5 43.3461 49.2439 35.3554 46.1399 28.2767C43.0358 21.198 38.008 14.8586 34.4146 16.4341C33.9091 16.656 33.4738 17.0302 33.1157 17.5252C32.4775 18.4738 30.6751 21.153 29.3313 23.0832L29.4268 24.8462C29.57 27.4559 30.5291 30.9552 32.0618 34.4504ZM35.1813 33.0812C34.7102 32.0077 34.2742 30.8928 33.8712 29.7364C33.6198 28.9844 33.3902 28.2226 33.1831 27.4517C34.7242 26.8542 36.391 26.7243 37.9153 27.1013C39.6818 27.5549 41.0924 28.6867 41.7559 30.1991C42.4096 31.689 42.3232 33.3993 41.5038 34.9868C40.7463 36.4163 39.5183 37.6078 37.9687 38.366C37.5418 37.6906 37.1374 37.0061 36.7547 36.3117C36.186 35.2536 35.6524 34.1555 35.1813 33.0812Z" fill="#2690D4"/>
<path d="M53.0263 27.3162L50.835 28.2774C49.8661 28.7022 48.775 28.276 48.3502 27.3071C47.9254 26.3381 48.3516 25.2471 49.3205 24.8223L51.5118 23.8611C52.4807 23.4363 53.5718 23.8625 53.9966 24.8314C54.4214 25.8003 53.9945 26.8914 53.0263 27.3162Z" fill="#2690D4"/>
<path d="M48.9512 20.6609C48.7679 21.1306 48.4133 21.5006 47.952 21.7028C47.4908 21.905 46.9782 21.9156 46.5085 21.7323C45.5396 21.3546 45.0593 20.2586 45.4371 19.2897L46.6679 16.1372C47.0463 15.1683 48.1423 14.688 49.1105 15.0665C49.5802 15.2497 49.9503 15.6043 50.1525 16.0663C50.3547 16.5276 50.3652 17.0401 50.182 17.5098L48.9512 20.6609Z" fill="#2690D4"/>
<path d="M52.2026 31.3962C52.6639 31.194 53.1764 31.1835 53.6461 31.3667L56.7986 32.5976C57.2683 32.7808 57.6376 33.1354 57.8405 33.5967C58.0427 34.0579 58.0533 34.5705 57.87 35.0402C57.6868 35.5099 57.3322 35.8799 56.8709 36.0821C56.4096 36.2843 55.8971 36.2949 55.4274 36.1116L52.2749 34.8808C51.8052 34.6976 51.4359 34.3423 51.2337 33.8817C51.0314 33.4204 51.0209 32.9079 51.2042 32.4389C51.386 31.9685 51.7413 31.5991 52.2026 31.3962Z" fill="#2690D4"/>
<path d="M14.7005 42.0627C13.0948 38.4012 14.3488 34.2117 17.4535 31.946C17.8425 31.6581 18.2644 31.4039 18.7103 31.1842C18.8661 31.0648 21.0013 30.1556 21.1782 30.0783C23.7409 28.9549 25.9217 27.1337 27.2908 25.2527C27.4256 27.7038 28.2527 31.2607 30.0403 35.3365C31.7991 39.3469 33.8535 42.3625 35.5835 44.1648C34.5506 44.0693 33.5108 44.0827 32.4654 44.2006C31.1124 44.3389 29.7665 44.6725 28.4837 45.1759C28.5427 45.3893 28.5953 45.6049 28.6424 45.8218C28.9359 47.1776 29.6478 47.9696 30.9678 48.3754C32.0006 48.6927 33.0165 49.1182 33.9679 49.6287C35.0014 50.1833 35.7084 51.101 36.1508 52.1963C36.5875 53.2782 36.1957 54.2093 35.1264 54.6586C32.3713 55.8171 32.7652 55.6682 30.0066 56.8183C29.0011 57.2375 28.3587 57.1321 27.6538 56.3753C24.3644 52.8465 21.0869 49.3064 17.8067 45.7692C17.7723 45.7319 17.7414 45.6898 17.7041 45.6364C16.4228 44.7862 15.3633 43.5736 14.7005 42.0627Z" fill="#050148"/>
</g>
<defs>
<clipPath id="clip0_1_150">
<rect width="44" height="44" fill="white" transform="translate(14 13.9999)"/>
</clipPath>
</defs>
</svg>
