<svg width="72" height="72" viewBox="0 0 72 72" fill="none" xmlns="http://www.w3.org/2000/svg">
<rect width="72" height="72" rx="8" fill="white"/>
<g clip-path="url(#clip0_76_26)">
<path d="M53.3309 29.405V28.4066C54.6051 28.1085 55.5663 26.9684 55.5663 25.6049C55.5663 24.0252 54.2698 22.7287 52.6827 22.7287C51.103 22.7287 49.8065 24.0252 49.8065 25.6049C49.8065 26.9163 50.6857 28.0116 51.8854 28.3544V29.405C51.8854 30.1204 51.2967 30.709 50.5814 30.709H42.534V32.1546H50.5814C52.094 32.1546 53.3309 30.9176 53.3309 29.405Z" fill="#2690D4"/>
<path d="M47.8393 22.6616V21.6631C49.1134 21.3651 50.0747 20.225 50.0747 18.8614C50.0747 17.2817 48.7781 15.9927 47.191 15.9927C45.6113 15.9927 44.3148 17.2817 44.3148 18.8614C44.3148 20.1728 45.1941 21.2682 46.3937 21.611V22.6616C46.3937 23.3769 45.8051 23.9656 45.0897 23.9656H42.5339V25.4111H45.0897C46.6024 25.4111 47.8393 24.1742 47.8393 22.6616Z" fill="#2690D4"/>
<path d="M53.331 47.5118V46.5133C53.331 45.0007 52.0941 43.7712 50.5889 43.7712H42.5415V45.2168H50.5889C51.3043 45.2168 51.8929 45.8054 51.8929 46.5207V47.5714C50.6932 47.9216 49.814 49.0169 49.814 50.3209C49.814 51.9006 51.1105 53.1971 52.6902 53.1971C54.2773 53.1971 55.5739 51.9006 55.5739 50.3209C55.5589 48.9499 54.5977 47.8098 53.331 47.5118Z" fill="#2690D4"/>
<path d="M46.6248 52.3253V51.3268C46.6248 49.8067 45.3954 48.5847 43.8827 48.5847H42.5415V50.0303H43.8827C44.5981 50.0303 45.1867 50.6115 45.1867 51.3342V52.3774C43.9945 52.7351 43.1153 53.823 43.1153 55.1344C43.1153 56.7141 44.4043 58.0032 45.984 58.0032C47.5711 58.0032 48.8677 56.7141 48.8677 55.1344C48.8528 53.7634 47.899 52.6233 46.6248 52.3253Z" fill="#2690D4"/>
<path d="M52.6008 40.8354C54.1879 40.8354 55.4844 39.5389 55.4844 37.9517C55.4844 36.3721 54.1879 35.083 52.6008 35.083C51.2744 35.083 50.1493 35.9995 49.8363 37.2364H42.5415V38.682H49.8363C50.1567 39.9189 51.267 40.8354 52.6008 40.8354Z" fill="#2690D4"/>
<path d="M34.792 14.0033C31.3495 14.0033 28.5552 16.7975 28.5552 20.2996C28.5552 20.6573 28.6148 21.015 28.6744 21.3652C28.0187 21.1267 27.3109 21.0075 26.5359 21.0075C23.0934 21.0075 20.2992 23.8018 20.2992 27.3039C20.2992 27.6764 20.3364 28.0341 20.4035 28.3918C20.4109 28.3992 20.4258 28.4067 20.4333 28.4141C21.4914 29.5318 22.9295 30.1428 24.4794 30.1428C24.8817 30.1428 25.2021 30.4632 25.2021 30.8656C25.2021 31.268 24.8817 31.5884 24.4794 31.5884C22.8699 31.5884 21.3573 31.0519 20.1203 30.0758C17.9446 31.0444 16.4394 33.2202 16.4394 35.7462C16.4394 38.6597 18.4587 41.1484 21.1933 41.8041C20.5972 42.7579 20.2992 43.8234 20.2992 45.0082C20.2992 48.3911 23.0934 51.2449 26.5359 51.2449C26.8489 51.2449 27.1618 51.2151 27.4748 51.1704C28.1976 48.9797 29.9486 47.2957 32.1766 46.6773C31.2899 45.8278 30.6341 44.7399 30.2988 43.5179C29.6506 44.0544 28.8607 44.4419 27.9666 44.6133C27.9219 44.6207 27.8772 44.6282 27.8325 44.6282C27.4897 44.6282 27.1916 44.3897 27.1246 44.0395C27.0501 43.6446 27.3034 43.272 27.6983 43.1901C28.7192 42.9963 29.5537 42.4002 30.0902 41.6029C30.12 41.4912 30.1722 41.3943 30.2541 41.3123C30.649 40.597 30.8204 39.7476 30.6714 38.8609C30.6043 38.4659 30.8726 38.0934 31.2675 38.0263C31.6624 37.9593 32.035 38.2275 32.1021 38.6224C32.3107 39.8593 32.0797 41.0515 31.5209 42.0575C31.722 44.9411 34.1065 47.1616 37.0572 47.1616C37.4595 47.1616 37.78 47.482 37.78 47.8844C37.78 48.2868 37.4595 48.6072 37.0572 48.6072C35.9097 48.6072 34.8292 48.3389 33.8755 47.862C31.2526 47.9515 29.1439 49.8366 28.667 52.3403C29.1886 55.2612 31.7295 57.4817 34.7994 57.4817C38.2419 57.4817 41.0958 54.6875 41.0958 51.2449V35.3289C40.917 35.3438 40.7381 35.3662 40.5667 35.3662C39.613 35.3662 38.6741 35.1129 37.8247 34.6285C36.8262 34.0473 36.0512 33.183 35.5818 32.1398C34.7473 32.6241 33.8084 32.8775 32.8248 32.8775C32.728 32.8775 32.6311 32.8775 32.5342 32.87C32.1319 32.8477 31.8264 32.5123 31.8487 32.11C31.8711 31.7076 32.2138 31.4095 32.6087 31.4245C33.6892 31.4766 34.7324 31.1115 35.5371 30.3962C36.3493 29.6734 36.8262 28.6675 36.8783 27.5721C36.9007 27.1698 37.2509 26.8642 37.6384 26.8866C38.0333 26.909 38.3463 27.2443 38.3239 27.6466C38.2568 29.0028 37.7054 30.2471 36.7815 31.2009C37.1019 32.1174 37.7129 32.8849 38.5549 33.3692C39.3298 33.8163 40.2165 33.9803 41.1032 33.861V20.2996C41.0883 16.7901 38.2345 14.0033 34.792 14.0033Z" fill="#050148"/>
</g>
<defs>
<clipPath id="clip0_76_26">
<rect width="44" height="44" fill="white" transform="translate(13.9999 13.9999)"/>
</clipPath>
</defs>
</svg>
