<svg width="72" height="72" viewBox="0 0 72 72" fill="none" xmlns="http://www.w3.org/2000/svg">
<rect width="72" height="72" rx="8" fill="white"/>
<g clip-path="url(#clip0_1_161)">
<path d="M55.9863 57.9999H16.0142C15.0481 57.9999 14.2654 57.2172 14.2654 56.2511V15.7487C14.2654 14.7827 15.0481 13.9999 16.0142 13.9999C16.9802 13.9999 17.763 14.7827 17.763 15.7487V54.5023H55.987C56.9531 54.5023 57.7358 55.2851 57.7358 56.2511C57.7358 57.2172 56.9524 57.9999 55.9863 57.9999Z" fill="#050148"/>
<path d="M56.6958 29.7265L55.8158 24.8292C55.7381 24.3941 55.4807 24.0121 55.1064 23.7764C54.7322 23.5406 54.2761 23.4735 53.8508 23.5889L49.0213 24.911C48.1833 25.1405 47.6894 26.0065 47.9188 26.8445C48.1483 27.6832 49.0143 28.1771 49.8523 27.9469L50.5288 27.7616L45.2271 35.5417L41.5581 33.0409C40.7592 32.4959 39.6722 32.703 39.1279 33.5012L34.0137 41.0063L30.0887 38.3314C29.7061 38.0711 29.236 37.9732 28.7778 38.0578C28.3224 38.1439 27.9195 38.4083 27.6579 38.7916L21.6021 47.6784C21.0586 48.4765 21.2649 49.565 22.0624 50.1085C22.8528 50.6465 23.9539 50.4373 24.4925 49.6482L29.5648 42.2074L33.4898 44.8824C33.8731 45.1433 34.3453 45.2412 34.8 45.1559C35.2554 45.0699 35.6583 44.8054 35.9199 44.4221L41.0341 36.9162L44.7031 39.417C45.5013 39.9598 46.5883 39.7542 47.1333 38.9567L53.4821 29.6405L53.5976 30.2833C53.7382 31.0668 54.4356 31.6096 55.2086 31.5782C55.2799 31.5754 55.3527 31.567 55.424 31.5544C56.2809 31.4005 56.8496 30.582 56.6958 29.7265Z" fill="#2690D4"/>
</g>
<defs>
<clipPath id="clip0_1_161">
<rect width="44" height="44" fill="white" transform="translate(14 14)"/>
</clipPath>
</defs>
</svg>
