<svg width="72" height="72" viewBox="0 0 72 72" fill="none" xmlns="http://www.w3.org/2000/svg">
<rect width="72" height="72" rx="8" fill="white"/>
<g clip-path="url(#clip0_1_183)">
<path d="M15.2271 18.6534L17.6189 22.1998L19.9082 23.3245L29.6268 33.0423L31.8176 30.8599L22.1406 21.1829L22.1544 21.1691L20.9998 18.8189L17.4541 16.4272L17.4195 16.4618L17.4025 16.4449L15.2156 18.6311L15.2325 18.6488L15.2271 18.6534Z" fill="#2690D4"/>
<path d="M44.5431 38.2392L43.7186 39.0636L42.1521 37.4971L42.9765 36.6727L42.4531 36.1492L34.9346 43.6393L35.5135 44.2181L36.3379 43.3937L37.9044 44.961L37.0807 45.7854L48.6668 57.3715C49.5328 58.2375 50.8938 58.196 51.7591 57.3307L56.1299 52.9599C56.9959 52.0931 56.9959 50.6921 56.1707 49.8676L44.5431 38.2392ZM50.7691 54.6911C50.522 54.9798 50.0686 54.9382 49.8207 54.6911L41.3277 46.1965C41.0798 45.9494 41.0798 45.496 41.3277 45.2481C41.5755 45.0002 41.9874 45.0002 42.276 45.2481L50.7699 53.742C51.017 53.9898 51.017 54.4024 50.7691 54.6911ZM53.4911 51.9691C53.244 52.2586 52.7898 52.217 52.5419 51.9691L44.0489 43.4753C43.8018 43.2282 43.8018 42.7748 44.0489 42.5269C44.2967 42.2382 44.7086 42.2382 44.9972 42.5269L53.4911 51.0208C53.7382 51.2686 53.7382 51.6805 53.4911 51.9691Z" fill="#2690D4"/>
<path d="M56.6234 22.1012C56.5387 21.3491 55.6172 21.0319 55.0815 21.5662L50.2387 26.392C50.0093 26.6206 49.6752 26.7099 49.3619 26.6252L46.2874 25.7946L24.5786 47.5034C24.7826 47.9268 24.8973 48.4025 24.8958 48.9044C24.8919 50.6803 23.4493 52.1175 21.6734 52.1137C19.8975 52.1098 18.4603 50.6672 18.4642 48.8913C18.468 47.1154 19.9106 45.6782 21.6865 45.6821C22.2392 45.6829 22.7596 45.8237 23.2138 46.0708L44.8856 24.399L44.0635 21.3067C43.9803 20.9934 44.0704 20.6601 44.2998 20.4315L49.1441 15.6049C49.6799 15.0707 49.3658 14.1485 48.6145 14.0615C45.9487 13.7528 43.1698 14.6157 41.1214 16.6572C38.4702 19.2984 37.7828 23.1627 39.0591 26.4397L22.7365 42.6984C20.7643 42.3281 18.6636 42.8932 17.1486 44.4012C14.6899 46.8476 14.7122 50.8605 17.2025 53.3607C19.6928 55.8579 23.7034 55.8956 26.1628 53.4446C27.6747 51.9397 28.2459 49.8436 27.8841 47.8714L44.209 31.6081C47.4806 32.8959 51.348 32.2254 53.9984 29.5881C56.0468 27.542 56.922 24.7708 56.6234 22.1012Z" fill="#050148"/>
</g>
<defs>
<clipPath id="clip0_1_183">
<rect width="44" height="44" fill="white" transform="translate(14 14)"/>
</clipPath>
</defs>
</svg>
