<svg width="72" height="72" viewBox="0 0 72 72" fill="none" xmlns="http://www.w3.org/2000/svg">
<rect width="72" height="72" rx="8" fill="white"/>
<g clip-path="url(#clip0_76_53)">
<path d="M26.5551 25.6708C26.5551 25.8455 26.4884 26.0202 26.3556 26.1537C26.0893 26.42 25.6568 26.42 25.3905 26.1537L21.5688 22.332C21.3024 22.0657 21.3024 21.6332 21.5688 21.3669C21.8351 21.1006 22.2676 21.1006 22.5339 21.3669L26.3556 25.1886C26.4884 25.3221 26.5551 25.4968 26.5551 25.6708Z" fill="#050148"/>
<path d="M25.3494 28.5825C25.3494 28.9599 25.0434 29.265 24.6669 29.265H19.262C18.8854 29.265 18.5795 28.9599 18.5795 28.5825C18.5795 28.2051 18.8854 27.9 19.262 27.9H24.6669C25.0434 27.9 25.3494 28.2059 25.3494 28.5825Z" fill="#050148"/>
<path d="M29.4669 19.0608V24.4649C29.4669 24.8423 29.161 25.1474 28.7844 25.1474C28.4079 25.1474 28.1019 24.8423 28.1019 24.4649V19.0608C28.1019 18.6835 28.4079 18.3783 28.7844 18.3783C29.161 18.3783 29.4669 18.6835 29.4669 19.0608Z" fill="#050148"/>
<path d="M44.2041 27.7975C42.013 25.6064 39.0997 24.399 36.0001 24.399C32.9021 24.399 29.9881 25.6056 27.7969 27.796C23.2741 32.3196 23.2741 39.6803 27.7969 44.2032C29.9881 46.3943 32.9013 47.6017 36.0001 47.6017C39.0989 47.6017 42.0122 46.3943 44.2033 44.2032C46.4652 41.9406 47.5949 38.9699 47.5949 35.9992C47.5957 33.0285 46.4652 30.0585 44.2041 27.7975ZM41.7435 41.7426C40.2093 43.2769 38.1703 44.1217 36.0001 44.1217C33.8307 44.1217 31.791 43.2769 30.2567 41.7418C27.0903 38.5755 27.0903 33.4221 30.2567 30.2558C31.791 28.723 33.8299 27.8783 35.9994 27.8783C37.0841 27.8783 38.1377 28.0895 39.1114 28.4924C40.0843 28.8954 40.978 29.4902 41.7451 30.2573C44.9099 33.4229 44.9091 38.5755 41.7435 41.7426Z" fill="#2690D4"/>
<path d="M30.4524 47.4029L29.019 48.8363L25.1585 52.6968C23.5443 54.311 20.9175 54.311 19.3033 52.6968C17.689 51.0825 17.689 48.4558 19.3033 46.8423L24.601 41.5446C23.9007 40.102 23.4899 38.5537 23.3688 36.9861L16.4079 43.9469C14.855 45.4999 14.0001 47.5675 14.0001 49.7696C14.0001 51.9716 14.855 54.0393 16.4087 55.5922C19.6193 58.8028 24.8433 58.8028 28.0539 55.5922L35.0078 48.6375C33.4083 48.514 31.8686 48.0932 30.4524 47.4029Z" fill="#050148"/>
<path d="M55.5916 16.4084C54.0387 14.8555 51.971 13.9999 49.769 13.9999C47.5669 13.9999 45.4992 14.8548 43.9463 16.4084L36.9924 23.3623C38.5927 23.4858 40.1324 23.9059 41.5487 24.5961L46.8417 19.303C48.456 17.6888 51.0827 17.6888 52.697 19.303C54.3112 20.9173 54.3112 23.5433 52.697 25.1575L48.8364 29.018L47.4 30.4545C48.1004 31.8971 48.5103 33.4461 48.6315 35.0138L55.5916 28.0537C57.1445 26.5008 58.0001 24.4331 58.0001 22.231C58.0001 20.0298 57.1445 17.9621 55.5916 16.4084Z" fill="#050148"/>
</g>
<defs>
<clipPath id="clip0_76_53">
<rect width="44" height="44" fill="white" transform="translate(14 13.9999)"/>
</clipPath>
</defs>
</svg>
