<svg width="72" height="72" viewBox="0 0 72 72" fill="none" xmlns="http://www.w3.org/2000/svg">
<rect width="72" height="72" rx="8" fill="white"/>
<g clip-path="url(#clip0_1_44)">
<path d="M51.6133 27.854C51.2801 27.4559 50.7904 27.2249 50.2696 27.2249H32.8703L32.462 25.2568C32.3495 24.7091 31.973 24.2542 31.4586 24.0302L28.2821 22.6596C28.038 22.5543 27.7613 22.5543 27.5094 22.6477C27.2589 22.7467 27.0636 22.9405 26.9518 23.1827C26.8443 23.4327 26.8443 23.7065 26.9455 23.9551C27.0396 24.1973 27.2342 24.3974 27.4783 24.5034L30.5168 25.8115L33.2262 38.878C33.4095 39.7662 34.1977 40.4037 35.1113 40.4037H48.248C49.0645 40.4037 49.7792 39.8245 49.9434 39.0276L51.9636 29.287C52.0712 28.7822 51.9388 28.2591 51.6133 27.854ZM34.3053 32.6951L34.1864 32.2099C34.076 31.7585 34.4206 31.3246 34.8876 31.3246H35.6795C36.0418 31.3246 36.3467 31.5893 36.3948 31.9459L36.46 32.4311C36.5187 32.8608 36.1812 33.2428 35.7453 33.2428H35.0065C34.6732 33.2428 34.3831 33.0167 34.3053 32.6951ZM36.2151 36.712H35.8564C35.5231 36.712 35.2323 36.4859 35.1537 36.1643L35.0094 35.5738C34.899 35.1223 35.2436 34.6884 35.7106 34.6884H36.1344C36.4967 34.6884 36.8024 34.9531 36.8498 35.3098L36.9305 35.8989C36.9885 36.33 36.6524 36.712 36.2151 36.712ZM41.0551 35.9958C41.0551 36.3918 40.7325 36.712 40.3334 36.712H39.1418C38.7809 36.712 38.4745 36.4459 38.4264 36.0906L38.3471 35.5001C38.2884 35.0711 38.6259 34.6884 39.0625 34.6884H40.3334C40.7325 34.6884 41.0551 35.0086 41.0551 35.4046V35.9958ZM41.0551 32.5266C41.0551 32.9226 40.7325 33.2428 40.3334 33.2428H38.6733C38.311 33.2428 38.0061 32.9781 37.9565 32.6228L37.8914 32.1369C37.8334 31.7072 38.1702 31.3253 38.6068 31.3253H40.3334C40.7325 31.3253 41.0551 31.6454 41.0551 32.0414V32.5266ZM45.2201 35.5001L45.1395 36.0906C45.092 36.4459 44.7856 36.712 44.4241 36.712H43.2339C42.8348 36.712 42.5107 36.3918 42.5107 35.9958V35.4053C42.5107 35.0093 42.8348 34.6891 43.2339 34.6891H44.5047C44.942 34.6891 45.2781 35.0718 45.2201 35.5001ZM45.6758 32.1369L45.61 32.6228C45.5612 32.9781 45.2555 33.2428 44.8946 33.2428H43.2346C42.8355 33.2428 42.5114 32.9226 42.5114 32.5266V32.0414C42.5114 31.6454 42.8355 31.3253 43.2346 31.3253H44.9597C45.3963 31.3253 45.7338 31.7072 45.6758 32.1369ZM48.5565 35.5738L48.4121 36.1643C48.3336 36.4859 48.0442 36.712 47.7109 36.712H47.3521C46.9148 36.712 46.5773 36.33 46.6353 35.8996L46.716 35.3105C46.7641 34.9545 47.0705 34.6891 47.4314 34.6891H47.8552C48.3237 34.6891 48.6676 35.1231 48.5565 35.5738ZM49.3801 32.2106L49.2605 32.6958C49.182 33.0174 48.8926 33.2435 48.5593 33.2435H47.8206C47.3847 33.2435 47.0457 32.8615 47.1052 32.4318L47.171 31.9459C47.2184 31.5907 47.5248 31.326 47.8864 31.326H48.6775C49.1466 31.3253 49.4905 31.7592 49.3801 32.2106Z" fill="#2690D4"/>
<path d="M37.0823 42.1271C35.8985 42.1271 34.9382 43.0799 34.9382 44.2546C34.9382 45.4292 35.8977 46.382 37.0823 46.382C38.2661 46.382 39.2263 45.4299 39.2263 44.2546C39.2263 43.0799 38.2661 42.1271 37.0823 42.1271ZM37.0823 44.9448C36.698 44.9448 36.3867 44.6358 36.3867 44.2546C36.3867 43.8733 36.698 43.5644 37.0823 43.5644C37.4665 43.5644 37.7779 43.8733 37.7779 44.2546C37.7786 44.6358 37.4665 44.9448 37.0823 44.9448Z" fill="#2690D4"/>
<path d="M46.0576 42.1271C44.8738 42.1271 43.9136 43.0799 43.9136 44.2546C43.9136 45.4292 44.8738 46.382 46.0576 46.382C47.2414 46.382 48.2017 45.4299 48.2017 44.2546C48.201 43.0799 47.2414 42.1271 46.0576 42.1271ZM46.0576 44.9448C45.6734 44.9448 45.362 44.6358 45.362 44.2546C45.362 43.8733 45.6734 43.5644 46.0576 43.5644C46.4419 43.5644 46.7532 43.8733 46.7532 44.2546C46.7532 44.6358 46.4419 44.9448 46.0576 44.9448Z" fill="#2690D4"/>
<path d="M48.1531 24.9095V17.1553C48.1531 15.4154 46.7343 13.9999 44.9787 13.9999H23.1774C21.419 13.9999 20.0002 15.4154 20.0002 17.1553V54.8474C20.0002 56.5873 21.419 57.9999 23.1774 57.9999H44.9787C46.7343 57.9999 48.1531 56.5873 48.1531 54.8474V48.8155H24.2438V20.0375H43.9096V24.9095H48.1531ZM34.0788 51.0847C35.2683 51.0847 36.2327 52.0417 36.2327 53.2248C36.2327 54.41 35.2683 55.3698 34.0788 55.3698C32.8893 55.3698 31.9199 54.41 31.9199 53.2248C31.9199 52.0417 32.8893 51.0847 34.0788 51.0847ZM38.6089 18.1509H29.5444C29.3123 18.1509 29.1312 17.809 29.1312 17.3884C29.1312 16.9706 29.3123 16.6315 29.5444 16.6315H38.6089C38.8388 16.6315 39.0221 16.9706 39.0221 17.3884C39.0221 17.809 38.8381 18.1509 38.6089 18.1509Z" fill="#050148"/>
</g>
<defs>
<clipPath id="clip0_1_44">
<rect width="44" height="44" fill="white" transform="translate(14 14)"/>
</clipPath>
</defs>
</svg>
