<svg width="72" height="72" viewBox="0 0 72 72" fill="none" xmlns="http://www.w3.org/2000/svg">
<rect width="72" height="72" rx="8" fill="white"/>
<g clip-path="url(#clip0_1_33)">
<path d="M35.2822 37.1686C35.5041 37.2969 35.7524 37.3607 35.9999 37.3607C36.2475 37.3607 36.4958 37.2969 36.7177 37.1686L45.4774 32.1112C45.9219 31.8546 46.1952 31.3803 46.1952 30.8678V20.7523C46.1952 20.2391 45.9213 19.7648 45.4774 19.5089L36.7184 14.4515C36.2738 14.1949 35.7267 14.1949 35.2822 14.4515L26.5224 19.5089C26.0779 19.7655 25.8047 20.2391 25.8047 20.7523V30.8671C25.8047 31.3796 26.0786 31.8546 26.5224 32.1105L35.2822 37.1686ZM28.677 23.2397L34.5645 26.6391V33.4378L28.677 30.0384V23.2397ZM37.4361 33.4378V26.6391L43.3236 23.2397V30.0384L37.4361 33.4378ZM35.9999 17.353L41.8874 20.7523L35.9999 24.1516L30.1125 20.7523L35.9999 17.353Z" fill="#2690D4"/>
<path d="M23.4775 57.5486C23.6994 57.6769 23.9477 57.7407 24.1952 57.7407C24.4428 57.7407 24.6911 57.6769 24.913 57.5486L33.6728 52.4912C34.1173 52.2346 34.3905 51.7603 34.3905 51.2478V41.133C34.3905 40.6199 34.1166 40.1456 33.6728 39.8897L24.913 34.8323C24.4685 34.5757 23.9213 34.5757 23.4768 34.8323L14.7177 39.8897C14.2732 40.1462 14 40.6199 14 41.133V51.2478C14 51.7603 14.2739 52.2353 14.7177 52.4912L23.4775 57.5486ZM16.8723 43.6205L22.7598 47.0198V53.8185L16.8723 50.4192V43.6205ZM25.6314 53.8178V47.0191L31.5189 43.6198V50.4185L25.6314 53.8178ZM24.1959 37.7337L30.0834 41.133L24.1959 44.5324L18.3085 41.133L24.1959 37.7337Z" fill="#050148"/>
<path d="M47.0873 57.5484C47.3092 57.6767 47.5575 57.7405 47.8051 57.7405C48.0533 57.7405 48.3009 57.6767 48.5228 57.5484L57.2826 52.491C57.7271 52.2344 58.0003 51.7601 58.0003 51.2477V41.1329C58.0003 40.6197 57.7264 40.1454 57.2826 39.8895L48.5228 34.8321C48.0783 34.5755 47.5311 34.5755 47.0866 34.8321L38.3269 39.8895C37.8824 40.1461 37.6091 40.6197 37.6091 41.1329V51.2477C37.6091 51.7601 37.883 52.2351 38.3269 52.491L47.0873 57.5484ZM40.4814 43.6203L46.3689 47.0196V53.8183L40.4814 50.419V43.6203ZM49.2412 53.8176V47.0189L55.1287 43.6196V50.4183L49.2412 53.8176ZM47.8051 37.7335L53.6925 41.1329L47.8051 44.5322L41.9176 41.1329L47.8051 37.7335Z" fill="#050148"/>
</g>
<defs>
<clipPath id="clip0_1_33">
<rect width="44" height="44" fill="white" transform="translate(14 13.9999)"/>
</clipPath>
</defs>
</svg>
