<svg width="72" height="72" viewBox="0 0 72 72" fill="none" xmlns="http://www.w3.org/2000/svg">
<rect width="72" height="72" rx="8" fill="white"/>
<g clip-path="url(#clip0_1_67)">
<path d="M47.7591 13.9999H24.2428C22.5368 13.9999 21.1575 15.3834 21.1575 17.0881V54.9145C21.1575 56.6178 22.536 57.9999 24.2428 57.9999H47.7591C49.4638 57.9999 50.8423 56.6178 50.8423 54.9145V23.5306V19.9779V17.0881C50.8423 15.3834 49.4638 13.9999 47.7591 13.9999ZM31.5974 16.3222H40.4031C40.6262 16.3222 40.8041 16.6547 40.8041 17.0648C40.8041 17.4763 40.6255 17.8095 40.4031 17.8095H31.5974C31.3722 17.8095 31.1957 17.4763 31.1957 17.0648C31.1957 16.6547 31.3722 16.3222 31.5974 16.3222ZM36.0034 56.279C34.8465 56.279 33.9049 55.338 33.9049 54.179C33.9049 53.0206 34.8458 52.0846 36.0034 52.0846C37.1568 52.0846 38.0949 53.0213 38.0949 54.179C38.0949 55.338 37.1568 56.279 36.0034 56.279ZM47.4097 22.4146V50.4216H24.5901V19.9102H47.4097V21.0939V22.4146Z" fill="#050148"/>
<path d="M31.8804 38.9367L28.9383 35.9946L31.8804 33.0531C32.1036 32.8298 32.2268 32.5325 32.2268 32.2165C32.2268 31.9006 32.1036 31.6033 31.8804 31.38C31.4193 30.9185 30.6684 30.919 30.2073 31.38L26.4635 35.1235C26.2345 35.3524 26.1091 35.6698 26.1185 35.9946C26.1086 36.32 26.2341 36.6373 26.4635 36.8662L30.2069 40.6097C30.4302 40.8334 30.7274 40.9565 31.0434 40.9565C31.3594 40.9565 31.6566 40.8334 31.8799 40.6097C32.1032 40.3864 32.2263 40.0891 32.2263 39.7732C32.2272 39.4572 32.1041 39.1599 31.8804 38.9367Z" fill="#2690D4"/>
<path d="M45.5377 35.1162L41.7938 31.3728C41.5705 31.1495 41.2733 31.0264 40.9573 31.0264C40.6413 31.0264 40.3441 31.1495 40.1208 31.3728C39.897 31.5961 39.7739 31.8933 39.7739 32.2093C39.7739 32.5252 39.897 32.8225 40.1208 33.0462L43.0628 35.9878L40.1208 38.9298C39.8975 39.1531 39.7739 39.4504 39.7739 39.7663C39.7739 40.0823 39.897 40.3796 40.1203 40.6028C40.3436 40.8266 40.6404 40.9497 40.9568 40.9497C41.2728 40.9497 41.57 40.8266 41.7933 40.6028L45.5368 36.8594C45.7657 36.6305 45.8916 36.3131 45.8818 35.9878C45.8921 35.6625 45.7666 35.3451 45.5377 35.1162Z" fill="#2690D4"/>
<path d="M37.6594 29.3213C37.3542 29.2385 37.0354 29.2797 36.7611 29.437C36.4868 29.5943 36.2907 29.8489 36.2078 30.1541L33.2789 40.9715C33.196 41.2767 33.2372 41.5955 33.3945 41.8698C33.5518 42.1441 33.8064 42.3403 34.1112 42.4231C34.2118 42.4503 34.3162 42.4643 34.421 42.4643C34.9537 42.4643 35.4233 42.1048 35.5623 41.5904L38.4917 30.7725C38.6625 30.1429 38.289 29.4922 37.6594 29.3213Z" fill="#2690D4"/>
</g>
<defs>
<clipPath id="clip0_1_67">
<rect width="44" height="44" fill="white" transform="translate(14 13.9999)"/>
</clipPath>
</defs>
</svg>
