<svg width="72" height="72" viewBox="0 0 72 72" fill="none" xmlns="http://www.w3.org/2000/svg">
<rect width="72" height="72" rx="8" fill="white"/>
<g clip-path="url(#clip0_76_40)">
<path d="M57.0619 42.3091C55.6269 47.2393 52.7072 51.2335 48.3853 54.1818C40.1079 59.8265 30.5839 58.5176 24.491 54.7416C24.2554 54.5956 24.2463 54.2602 24.4688 54.0948C24.9352 53.7482 25.4063 53.3999 25.8776 53.0572C26.0053 52.9643 26.1756 52.9561 26.3132 53.0336C28.7849 54.4275 31.3414 55.2406 33.922 55.4509C37.9431 55.7789 41.5657 55.176 44.6905 53.656C47.8627 52.1135 50.5328 49.6226 52.6291 46.2509C54.5539 43.1549 55.5619 39.904 55.6254 36.5898C55.6882 33.3556 54.8517 30.0421 53.1386 26.7396C53.0926 26.6508 53.0481 26.5766 52.9941 26.4901C52.97 26.4501 52.9408 26.4036 52.9079 26.3476L52.5754 25.7903C52.4522 25.584 52.1764 25.532 51.9866 25.6793L51.3555 26.1691C51.0846 26.3794 50.692 26.1736 50.7108 25.8312L50.924 21.9504C50.9377 21.7013 51.1737 21.5253 51.4164 21.5833L55.1111 22.4667C55.4429 22.5461 55.5294 22.9779 55.2538 23.1789L54.5966 23.6583C54.4312 23.7789 54.3836 24.0049 54.4862 24.182L54.7422 24.6239C58.0896 30.3934 58.8473 36.1781 57.0619 42.3091Z" fill="#2690D4"/>
<path d="M14.809 30.1301C16.1404 25.1715 18.9747 21.1177 23.2338 18.0791C31.391 12.2623 40.9402 13.3715 47.1107 17.0195C47.3494 17.1606 47.3654 17.4958 47.1464 17.6658C46.6876 18.0219 46.2239 18.3799 45.7602 18.7324C45.6345 18.828 45.4643 18.8398 45.3251 18.7651C42.825 17.4236 40.2513 16.6642 37.6672 16.5082C33.6402 16.2645 30.0315 16.9431 26.9388 18.5278C23.7994 20.1366 21.1827 22.6828 19.1579 26.0973C17.2988 29.2326 16.3601 32.5039 16.3659 35.8188C16.371 39.0537 17.2776 42.349 19.0593 45.6145C19.1068 45.7018 19.1535 45.7752 19.209 45.861C19.2338 45.901 19.2637 45.9469 19.298 46.0014L19.6422 46.5514C19.7696 46.755 20.0465 46.8012 20.2331 46.65L20.854 46.1469C21.1204 45.931 21.5172 46.1285 21.5056 46.4712L21.3741 50.3559C21.3656 50.6053 21.1334 50.7862 20.8895 50.7333L17.1765 49.9277C16.843 49.8554 16.7474 49.4255 17.0189 49.2187L17.6656 48.7259C17.8284 48.6018 17.8713 48.3748 17.7649 48.1999L17.4995 47.7636C14.0331 42.0654 13.1536 36.2981 14.809 30.1301Z" fill="#2690D4"/>
<path d="M48.9976 37.6918L48.9984 34.3093L46.3855 33.6712C46.1785 32.7445 45.8509 31.8637 45.4199 31.0459L46.9971 28.8695L44.8067 26.2908L42.4008 27.4977C41.211 26.6005 39.826 25.9469 38.3219 25.6123L37.6854 23.0009H34.3021L33.6648 25.6138C32.237 25.9336 30.9173 26.5398 29.7696 27.3693L27.3901 26.1142L25.1483 28.6477L26.6805 30.8537C26.1973 31.7259 25.8339 32.6737 25.6106 33.6743L23.0179 34.2914L22.9984 37.6739L25.6106 38.3267C25.8175 39.255 26.1459 40.1374 26.5778 40.9567L25.0021 43.1067L27.1785 45.6963L29.593 44.5011C30.7843 45.3998 32.1693 46.0542 33.6757 46.3896L34.2936 48.9822L37.676 49.0001L38.3281 46.388C39.7653 46.0674 41.0927 45.4558 42.2459 44.6178L44.5974 45.8737L46.8531 43.3526L45.3265 41.1295C45.8042 40.2619 46.1645 39.3211 46.3863 38.3275L48.9976 37.6918ZM35.9984 41.9341C32.721 41.9341 30.0645 39.2776 30.0645 36.0001C30.0645 32.7227 32.721 30.0662 35.9984 30.0662C39.2758 30.0662 41.9323 32.7227 41.9323 36.0001C41.9323 39.2776 39.2758 41.9341 35.9984 41.9341Z" fill="#050148"/>
</g>
<defs>
<clipPath id="clip0_76_40">
<rect width="44" height="44" fill="white" transform="translate(14 13.9999)"/>
</clipPath>
</defs>
</svg>
