<svg width="72" height="72" viewBox="0 0 72 72" fill="none" xmlns="http://www.w3.org/2000/svg">
<rect width="72" height="72" rx="8" fill="white"/>
<g clip-path="url(#clip0_1_219)">
<path d="M23.3164 42.913V46.7152C23.3164 47.2652 23.765 47.714 24.3149 47.714H25.3616C25.638 48.9483 26.1245 50.1017 26.781 51.1384L26.0409 51.8787C25.6507 52.2665 25.6507 52.9027 26.0409 53.293L28.0203 55.2753C28.4107 55.6631 29.0467 55.6631 29.4346 55.2753L30.1771 54.5351C31.2112 55.1891 32.3644 55.6758 33.5986 55.9521V56.999C33.5986 57.549 34.0473 58.0002 34.5997 58.0002H37.4003C37.9503 58.0002 38.4013 57.549 38.4013 56.999V55.9521C39.6332 55.6758 40.7863 55.1891 41.8229 54.5351L42.563 55.2753C42.9507 55.6631 43.5894 55.6631 43.9772 55.2753L45.9591 53.293C46.3469 52.9027 46.3469 52.2665 45.9591 51.8787L45.2191 51.1384C45.8729 50.1017 46.3596 48.9483 46.6384 47.714H47.6826C48.2326 47.714 48.6836 47.2652 48.6836 46.7152V42.913" fill="#050148"/>
<path d="M42.4465 42.9176C42.7254 43.6654 42.88 44.4739 42.88 45.3181C42.88 49.1178 39.8005 52.195 36.0014 52.195C32.2049 52.195 29.1255 49.1178 29.1255 45.3181C29.1255 44.4739 29.2775 43.6654 29.5563 42.9176" fill="#F3F3F3"/>
<path d="M35.9988 43H21.9542C18.6651 43 16 40.3485 16 37.0815C16 34.7377 17.3695 32.7137 19.3558 31.7548C19.0486 30.9476 18.8795 30.074 18.8795 29.1603C18.8795 25.1191 22.1756 21.8427 26.2411 21.8427C26.7627 21.8427 27.2724 21.8947 27.7606 21.9989C28.8658 18.5212 32.1358 16 35.9988 16C39.8619 16 43.1319 18.5212 44.237 21.9989C44.7277 21.8947 45.235 21.8427 45.7565 21.8427C49.822 21.8427 53.1206 25.1191 53.1206 29.1603C53.1206 30.074 52.9515 30.9476 52.6443 31.7548C54.6305 32.7137 56 34.7377 56 37.0815C56 40.3485 53.3325 43 50.0459 43H35.9988Z" fill="white" stroke="#050148" stroke-width="3" stroke-miterlimit="10" stroke-linecap="round" stroke-linejoin="round"/>
<path d="M46 28.0024V35.854" stroke="#2690D4" stroke-width="1.88208" stroke-miterlimit="10" stroke-linecap="round" stroke-linejoin="round"/>
<path d="M36.9434 28.0041V36.0001" stroke="#2690D4" stroke-width="1.88208" stroke-miterlimit="10" stroke-linecap="round" stroke-linejoin="round"/>
<path d="M41.7301 30.2567C41.7301 31.5044 40.6139 32.5129 39.2974 32.5129C38.6439 32.5129 36.96 32.5241 36.96 32.5241C36.96 32.5241 36.9505 30.8861 36.9505 30.2567C36.9505 29.74 36.9434 28.0004 36.9434 28.0004H39.2974C40.6139 28.0004 41.7301 29.0113 41.7301 30.2567Z" stroke="#2690D4" stroke-width="1.88208" stroke-miterlimit="10" stroke-linecap="round" stroke-linejoin="round"/>
<path d="M26 36L29.1745 28.1168C29.2388 27.9657 29.463 27.9657 29.5275 28.1168L32.6734 36" stroke="#2690D4" stroke-width="1.88208" stroke-miterlimit="10" stroke-linecap="round" stroke-linejoin="round"/>
<path d="M26.9888 34.0357H31.6993" stroke="#2690D4" stroke-width="1.92347" stroke-miterlimit="10" stroke-linecap="round" stroke-linejoin="round"/>
</g>
<defs>
<clipPath id="clip0_1_219">
<rect width="44" height="44" fill="white" transform="translate(14 13.9999)"/>
</clipPath>
</defs>
</svg>
