<svg width="72" height="72" viewBox="0 0 72 72" fill="none" xmlns="http://www.w3.org/2000/svg">
<rect width="72" height="72" rx="8" fill="white"/>
<path d="M56.0278 16.7209H15.9715C14.8878 16.7209 14 17.6087 14 18.6924V24.7771H14.0213V51.6228C14.0213 53.6383 15.6614 55.2784 17.6768 55.2784H54.3232C56.3394 55.2784 57.9794 53.6383 57.9794 51.6228V24.7771H58V18.6924C58 17.6087 57.1122 16.7209 56.0278 16.7209ZM49.0275 19.9222C49.7564 19.9222 50.3532 20.5191 50.3532 21.2479C50.3532 21.9767 49.7564 22.5736 49.0275 22.5736C48.298 22.5736 47.7019 21.9767 47.7019 21.2479C47.7019 20.5191 48.2987 19.9222 49.0275 19.9222ZM44.893 19.9222C45.6218 19.9222 46.2186 20.5191 46.2186 21.2479C46.2186 21.9767 45.6218 22.5736 44.893 22.5736C44.1634 22.5736 43.5673 21.9767 43.5673 21.2479C43.5673 20.5191 44.1634 19.9222 44.893 19.9222ZM19.1473 19.9222H36.2306C36.9602 19.9222 37.5563 20.5191 37.5563 21.2479C37.5563 21.9775 36.9595 22.5736 36.2306 22.5736H19.1473C18.4185 22.5736 17.8216 21.9767 17.8216 21.2479C17.8216 20.5191 18.4177 19.9222 19.1473 19.9222ZM54.2749 51.5753H17.7251V25.7962H54.2756L54.2749 51.5753ZM53.1621 22.5736C52.4333 22.5736 51.8364 21.9767 51.8364 21.2479C51.8364 20.5184 52.4333 19.9222 53.1621 19.9222C53.8917 19.9222 54.4878 20.5191 54.4878 21.2479C54.4885 21.9767 53.8917 22.5736 53.1621 22.5736Z" fill="#050148"/>
<path d="M43.8596 47.7341H28.1396C24.9247 47.7341 22.3096 45.1183 22.3096 41.9034C22.3096 39.7375 23.4962 37.8015 25.3222 36.798C25.5436 33.3178 28.3823 30.291 32.2216 29.7275C35.0078 29.3187 37.7614 30.3116 39.4923 32.2532C39.8791 32.1738 40.2751 32.1333 40.6711 32.1333C43.4253 32.1333 45.7452 34.0587 46.3485 36.6334C48.3427 37.5822 49.6903 39.6296 49.6903 41.9048C49.6903 45.119 47.0745 47.7341 43.8596 47.7341ZM33.4792 33.1836C33.2343 33.1836 32.9867 33.2014 32.7376 33.2383C30.3105 33.5945 28.586 35.6058 28.8925 37.722C29.0231 38.6219 28.4518 39.4742 27.5711 39.6963C26.5634 39.9504 25.8587 40.8588 25.8587 41.9034C25.8587 43.1617 26.882 44.1858 28.1403 44.1858H43.8603C45.1186 44.1858 46.1427 43.1624 46.1427 41.9034C46.1427 40.8212 45.4053 39.9043 44.3493 39.6729C43.5367 39.4955 42.9569 38.778 42.9534 37.9463C42.9484 36.6965 41.9251 35.6803 40.6718 35.6803C40.3041 35.6803 39.9557 35.7633 39.6356 35.9279C38.789 36.3587 37.7543 36.0507 37.2845 35.2261C36.5599 33.9536 35.088 33.1836 33.4792 33.1836Z" fill="#2690D4"/>
</svg>
