<svg width="72" height="72" viewBox="0 0 72 72" fill="none" xmlns="http://www.w3.org/2000/svg">
<rect width="72" height="72" rx="8" fill="white"/>
<g clip-path="url(#clip0_9_2)">
<rect x="15.0002" y="19.617" width="42" height="30.8936" rx="4.68085" fill="#050148"/>
<path d="M17.8088 24.2977C17.8088 23.7807 18.228 23.3615 18.745 23.3615H53.3833C53.9003 23.3615 54.3195 23.7807 54.3195 24.2977V44.8934H17.8088V24.2977Z" fill="#F3F3F3"/>
<path d="M39.3448 32.4489C39.2889 33.4396 39.8306 34.1381 40.536 34.5809C41.3171 35.0712 41.8444 34.9935 43.208 35.279C44.9018 35.6336 44.6119 36.6693 44.9544 36.634C45.2724 36.6013 45.5345 35.6378 45.3806 34.036C45.061 30.7084 43.4422 29.8385 42.54 29.7054C42.2093 29.6566 41.3731 29.6072 40.528 30.3136C40.4124 30.4102 39.4195 31.1222 39.3448 32.4489Z" fill="#2690D4"/>
<rect x="34.1919" y="46.7658" width="3.74468" height="1.87234" rx="0.93617" fill="#F3F3F3"/>
<path d="M26.1444 31.9334L25.7334 36.4681L30.2185 35.6501C30.638 35.5736 31.0189 35.3562 31.2981 35.0337L44.9945 19.2141C45.6893 18.4116 45.5787 17.1926 44.7508 16.5282L42.9883 15.114C42.2105 14.4898 41.08 14.5849 40.4173 15.3301L26.6099 30.8582C26.3437 31.1576 26.1806 31.5344 26.1444 31.9334Z" fill="#2690D4" stroke="#F3F3F3" stroke-width="0.5"/>
<path d="M28.5337 57.064C28.5337 54.9959 30.2102 53.3193 32.2784 53.3193H39.7223C41.7905 53.3193 43.467 54.9959 43.467 57.064V58.0002H28.5337V57.064Z" fill="#050148"/>
<path d="M32.2668 50.5107H39.7335V53.3193H32.2668V50.5107Z" fill="#050148"/>
<path d="M26.9561 34.3797L26.5732 35.5317L27.7225 35.1474C27.8379 35.1089 27.8725 34.9625 27.7866 34.8764L27.2276 34.3157C27.1415 34.2293 26.9945 34.2639 26.9561 34.3797Z" fill="#F3F3F3"/>
<path d="M28.0571 32.7137L27.988 32.6443C27.6388 32.2941 27.6224 31.7326 27.9504 31.3625L38.2651 19.7231C38.4331 19.5336 38.7213 19.512 38.9156 19.6745L39.6004 20.2468C39.8015 20.4149 39.8254 20.7155 39.6533 20.9132L29.4264 32.6672C29.0699 33.0769 28.4406 33.0983 28.0571 32.7137Z" fill="#F3F3F3"/>
<path d="M41.1809 19.6753L38.6858 17.2765L39.5188 16.3403L42.1621 18.5924C42.3904 18.787 42.4766 19.1013 42.3795 19.3851C42.328 19.5355 42.2288 19.6651 42.0971 19.7541C41.8113 19.9471 41.4295 19.9143 41.1809 19.6753Z" fill="#F3F3F3"/>
<path d="M26.0542 15.0977C26.9141 14.2968 28.2613 14.3474 29.0591 15.21L39.4058 26.4023C39.5356 26.5427 39.7184 26.6221 39.9097 26.6221H41.3306C42.4061 26.6223 42.9264 27.9397 42.1411 28.6748L38.4468 32.1328C37.689 32.8419 36.4497 32.3045 36.4497 31.2666V29.6045C36.4496 29.4209 36.3764 29.2451 36.2456 29.1162L25.5522 18.5928C24.691 17.7452 24.71 16.3499 25.5942 15.5264L26.0542 15.0977Z" fill="#2690D4" stroke="#F3F3F3" stroke-width="0.5"/>
</g>
<defs>
<clipPath id="clip0_9_2">
<rect width="44" height="44" fill="white" transform="translate(14 14)"/>
</clipPath>
</defs>
</svg>
