<svg width="72" height="72" viewBox="0 0 72 72" fill="none" xmlns="http://www.w3.org/2000/svg">
<rect width="72" height="72" rx="8" fill="white"/>
<path d="M29.7533 43.3649L25.293 38.9046L29.7533 34.445C30.0918 34.1065 30.2785 33.6558 30.2785 33.1768C30.2785 32.6978 30.0918 32.2471 29.7533 31.9086C29.0543 31.2089 27.916 31.2096 27.2169 31.9086L21.5409 37.5839C21.1939 37.9309 21.0037 38.4121 21.0179 38.9046C21.003 39.3978 21.1932 39.879 21.5409 40.226L27.2162 45.9013C27.5547 46.2405 28.0054 46.4272 28.4844 46.4272C28.9635 46.4272 29.4141 46.2405 29.7526 45.9013C30.0911 45.5628 30.2778 45.1122 30.2778 44.6331C30.2792 44.1541 30.0925 43.7034 29.7533 43.3649Z" fill="#2690D4"/>
<path d="M50.4587 37.5736L44.7827 31.8984C44.4442 31.5598 43.9936 31.3732 43.5145 31.3732C43.0355 31.3732 42.5848 31.5598 42.2463 31.8984C41.9071 32.2369 41.7205 32.6875 41.7205 33.1665C41.7205 33.6456 41.9071 34.0962 42.2463 34.4354L46.7067 38.8951L42.2463 43.3554C41.9078 43.6939 41.7205 44.1445 41.7205 44.6236C41.7205 45.1026 41.9071 45.5533 42.2456 45.8918C42.5841 46.231 43.0341 46.4176 43.5138 46.4176C43.9928 46.4176 44.4435 46.231 44.782 45.8918L50.4573 40.2165C50.8043 39.8695 50.9952 39.3883 50.9803 38.8951C50.9959 38.4018 50.8057 37.9207 50.4587 37.5736Z" fill="#2690D4"/>
<path d="M38.5141 28.7875C38.0514 28.6619 37.5681 28.7244 37.1522 28.9628C36.7364 29.2013 36.439 29.5874 36.3134 30.0501L31.873 46.45C31.7473 46.9127 31.8098 47.396 32.0482 47.8119C32.2867 48.2277 32.6728 48.5251 33.1348 48.6507C33.2873 48.6919 33.4456 48.7132 33.6046 48.7132C34.4122 48.7132 35.124 48.1681 35.3348 47.3882L39.7759 30.9875C40.035 30.033 39.4686 29.0466 38.5141 28.7875Z" fill="#2690D4"/>
<path d="M56.0278 16.7209H15.9715C14.8878 16.7209 14 17.608 14 18.6924V24.7772H14.0213V51.6228C14.0213 53.6383 15.6614 55.2784 17.6768 55.2784H54.3225C56.3386 55.2784 57.9787 53.6383 57.9787 51.6228V24.7772H58V18.6924C58 17.608 57.1122 16.7209 56.0278 16.7209ZM49.0275 19.9223C49.7564 19.9223 50.3532 20.5191 50.3532 21.2479C50.3532 21.9768 49.7564 22.5736 49.0275 22.5736C48.298 22.5736 47.7019 21.9768 47.7019 21.2479C47.7019 20.5191 48.2987 19.9223 49.0275 19.9223ZM44.893 19.9223C45.6218 19.9223 46.2186 20.5191 46.2186 21.2479C46.2186 21.9768 45.6218 22.5736 44.893 22.5736C44.1634 22.5736 43.5673 21.9768 43.5673 21.2479C43.5673 20.5191 44.1634 19.9223 44.893 19.9223ZM19.1473 19.9223H36.2306C36.9602 19.9223 37.5563 20.5191 37.5563 21.2479C37.5563 21.9775 36.9595 22.5736 36.2306 22.5736H19.1473C18.4185 22.5736 17.8216 21.9768 17.8216 21.2479C17.8216 20.5191 18.4177 19.9223 19.1473 19.9223ZM54.2749 51.5753H17.7251V25.7963H54.2756L54.2749 51.5753ZM53.1621 22.5736C52.4333 22.5736 51.8364 21.9768 51.8364 21.2479C51.8364 20.5184 52.4333 19.9223 53.1621 19.9223C53.8917 19.9223 54.4878 20.5191 54.4878 21.2479C54.4885 21.9768 53.8917 22.5736 53.1621 22.5736Z" fill="#050148"/>
</svg>
