<svg width="72" height="72" viewBox="0 0 72 72" fill="none" xmlns="http://www.w3.org/2000/svg">
<rect width="72" height="72" rx="8" fill="white"/>
<g clip-path="url(#clip0_10_17)">
<path d="M27.25 18.7512C27.25 16.1272 29.3772 14 32.0012 14H48.7488C51.3728 14 53.5 16.1272 53.5 18.7512V49.2207L48.4487 46.1992C48.2616 46.0873 48.1471 45.8853 48.1471 45.6673V27.6338C48.1471 23.1274 44.4939 19.4742 39.9874 19.4742H27.6631C27.435 19.4742 27.25 19.2892 27.25 19.061V18.7512Z" fill="#2690D4"/>
<path d="M39.999 22.7793C42.6229 22.7794 44.7499 24.9064 44.75 27.5303V58L31.8311 50.5781C31.7036 50.5049 31.5464 50.5049 31.4189 50.5781L18.5 58V27.5303C18.5001 24.9064 20.6271 22.7794 23.251 22.7793H39.999ZM31.625 29.8145C31.4815 29.8145 31.3406 29.8573 31.2188 29.9365C31.097 30.0158 30.999 30.1291 30.9355 30.2637L29.1377 34.0723L25.1182 34.6826C24.976 34.7041 24.8423 34.7675 24.7324 34.8643C24.6227 34.961 24.5405 35.0877 24.4961 35.2305C24.4517 35.3732 24.4471 35.5261 24.4814 35.6719C24.5159 35.8177 24.5885 35.9508 24.6914 36.0557L27.5996 39.0215L26.9141 43.207C26.8898 43.355 26.9049 43.5074 26.959 43.6465C27.0131 43.7855 27.1036 43.9059 27.2197 43.9941C27.3358 44.0823 27.4732 44.1346 27.6162 44.1455C27.7594 44.1563 27.9032 44.1246 28.0303 44.0547L31.625 42.0791L35.2207 44.0547C35.3477 44.1243 35.4908 44.1554 35.6338 44.1445C35.7769 44.1336 35.9142 44.0814 36.0303 43.9932C36.1463 43.905 36.2369 43.7845 36.291 43.6455C36.345 43.5067 36.361 43.3547 36.3369 43.207L35.6504 39.0215L38.5596 36.0557C38.6622 35.9509 38.7352 35.8184 38.7695 35.6729C38.8038 35.5272 38.7982 35.374 38.7539 35.2314C38.7095 35.0888 38.6273 34.9619 38.5176 34.8652C38.4079 34.7686 38.2748 34.7052 38.1328 34.6836L34.1133 34.0723L32.3154 30.2637C32.252 30.1291 32.154 30.0158 32.0322 29.9365C31.9102 29.8572 31.7687 29.8145 31.625 29.8145Z" fill="#050148"/>
</g>
<defs>
<clipPath id="clip0_10_17">
<rect width="44" height="44" fill="white" transform="translate(14 14)"/>
</clipPath>
</defs>
</svg>
