<svg width="72" height="72" viewBox="0 0 72 72" fill="none" xmlns="http://www.w3.org/2000/svg">
<rect width="72" height="72" rx="8" fill="white"/>
<path d="M26.9907 46.0277C25.391 46.0277 23.8714 45.5202 22.5955 44.5605L22.2227 44.2802L25.0769 41.426L25.3461 41.5834C26.3334 42.1579 27.6466 42.1579 28.6332 41.5834L28.9032 41.426L31.7574 44.2802L31.3845 44.5605C30.11 45.5202 28.5904 46.0277 26.9907 46.0277Z" fill="#2690D4"/>
<path d="M21.4242 43.4815L21.1439 43.1087C20.1842 41.8328 19.6768 40.3132 19.6768 38.7141C19.6768 37.1151 20.1842 35.5948 21.1439 34.3189C21.5588 33.77 22.047 33.2812 22.5959 32.867C23.5797 32.1255 24.7451 31.6442 25.9665 31.4737L26.4277 31.4095V35.4429L26.1246 35.5216C25.8567 35.5914 25.5957 35.6998 25.3486 35.8441C24.8377 36.1368 24.4151 36.5593 24.1238 37.0675C23.8352 37.5632 23.6833 38.1321 23.6833 38.7134C23.6833 39.2948 23.8352 39.8637 24.1224 40.3566L24.2791 40.6266L21.4242 43.4815Z" fill="#2690D4"/>
<path d="M34.2969 38.3597C34.2831 38.0628 34.2514 37.768 34.1996 37.4766C34.1561 37.2039 34.0939 36.934 34.0159 36.6688C33.9918 36.577 33.9621 36.4852 33.9324 36.3961C33.8647 36.1911 33.7867 35.9909 33.6976 35.7913C33.5789 35.5158 33.4408 35.2486 33.2841 34.989C33.1488 34.7591 33.0003 34.5354 32.8388 34.3193C32.7877 34.2517 32.7331 34.1813 32.6793 34.117C32.4494 33.8333 32.1987 33.5661 31.9309 33.3203C31.7583 33.1608 31.5746 33.0096 31.3854 32.8667C30.4023 32.1266 29.2382 31.6433 28.0176 31.4727L27.5557 31.4106V33.4094V34.2172V35.103V35.4433L27.8581 35.5214C28.1253 35.5918 28.3876 35.6995 28.6362 35.8452C28.6603 35.859 28.6845 35.8721 28.7066 35.8887H28.7149C29.0877 36.1206 29.4012 36.4072 29.6545 36.7558C29.7305 36.8559 29.7975 36.9609 29.8596 37.0693C29.9514 37.226 30.0294 37.3883 30.0916 37.5581C30.1972 37.8391 30.2614 38.136 30.2863 38.4384C30.2973 38.5302 30.3001 38.622 30.3001 38.7139C30.3001 38.8948 30.2863 39.0756 30.2566 39.251C30.2055 39.5617 30.1109 39.8613 29.9756 40.1396C29.9404 40.2128 29.8996 40.2853 29.8596 40.3557L29.7029 40.6256L30.0267 40.9495L32.5578 43.4805L32.8388 43.1077C33.3517 42.4242 33.7356 41.6709 33.9814 40.8714C34.0649 40.6042 34.1326 40.3343 34.1809 40.0581C34.2376 39.7661 34.2728 39.4692 34.2886 39.1695C34.2997 39.0183 34.3045 38.8671 34.3045 38.7132C34.3052 38.5944 34.3025 38.4784 34.2969 38.3597Z" fill="#2690D4"/>
<path d="M37.1387 35.9189H41.0471V42.9032H37.1387V35.9189Z" fill="#2690D4"/>
<path d="M37.1387 44.2563H41.0471V46.0272H37.1387V44.2563Z" fill="#2690D4"/>
<path d="M42.7764 33.514H46.6848V42.9037H42.7764V33.514Z" fill="#2690D4"/>
<path d="M42.7764 44.2563H46.6848V46.0272H42.7764V44.2563Z" fill="#2690D4"/>
<path d="M48.4136 31.4094H52.322V42.9042H48.4136V31.4094Z" fill="#2690D4"/>
<path d="M48.4136 44.2563H52.322V46.0272H48.4136V44.2563Z" fill="#2690D4"/>
<path d="M56.0278 16.7209H15.9715C14.8878 16.7209 14 17.608 14 18.6924V24.7771H14.0213V51.6228C14.0213 53.6383 15.6614 55.2784 17.6768 55.2784H54.3225C56.3386 55.2784 57.9787 53.6383 57.9787 51.6228V24.7771H58V18.6924C58 17.608 57.1122 16.7209 56.0278 16.7209ZM49.0275 19.9222C49.7564 19.9222 50.3532 20.5191 50.3532 21.2479C50.3532 21.9767 49.7564 22.5736 49.0275 22.5736C48.298 22.5736 47.7019 21.9767 47.7019 21.2479C47.7019 20.5191 48.2987 19.9222 49.0275 19.9222ZM44.893 19.9222C45.6218 19.9222 46.2186 20.5191 46.2186 21.2479C46.2186 21.9767 45.6218 22.5736 44.893 22.5736C44.1634 22.5736 43.5673 21.9767 43.5673 21.2479C43.5673 20.5191 44.1634 19.9222 44.893 19.9222ZM19.1473 19.9222H36.2306C36.9602 19.9222 37.5563 20.5191 37.5563 21.2479C37.5563 21.9775 36.9595 22.5736 36.2306 22.5736H19.1473C18.4185 22.5736 17.8216 21.9767 17.8216 21.2479C17.8216 20.5191 18.4177 19.9222 19.1473 19.9222ZM54.2749 51.5753H17.7251V25.7962H54.2756L54.2749 51.5753ZM53.1621 22.5736C52.4333 22.5736 51.8364 21.9767 51.8364 21.2479C51.8364 20.5184 52.4333 19.9222 53.1621 19.9222C53.8917 19.9222 54.4878 20.5191 54.4878 21.2479C54.4885 21.9767 53.8917 22.5736 53.1621 22.5736Z" fill="#050148"/>
</svg>
