<svg width="72" height="72" viewBox="0 0 72 72" fill="none" xmlns="http://www.w3.org/2000/svg">
<rect width="72" height="72" rx="8" fill="white"/>
<g clip-path="url(#clip0_1_56)">
<path d="M35.2926 41.1075L30.1855 55.8789C29.9498 56.586 30.3426 57.2932 31.0498 57.4503C32.6212 57.8432 34.2712 58.0003 35.9998 58.0003C38.1212 58.0003 40.164 57.686 42.1283 57.136C42.7569 56.9789 43.1498 56.2718 42.914 55.6432L37.5712 41.1075C37.1783 40.0075 35.6855 40.0075 35.2926 41.1075Z" fill="#2690D4"/>
<path d="M14.7857 30.2639C14.2357 32.071 14 34.0353 14 35.9996C14 44.0139 18.2429 51.0067 24.6071 54.8567C25.2357 55.2496 25.9429 54.621 25.7071 53.9139L17.0643 30.1067C16.6714 29.0853 15.1 29.1639 14.7857 30.2639Z" fill="#2690D4"/>
<path d="M50.5359 19.7356H50.8502C46.9216 16.1999 41.7359 13.9999 36.0002 13.9999C28.3002 13.9999 21.5431 17.9284 17.6145 23.8999H19.0288C21.3074 23.8999 24.9216 23.5856 24.9216 23.5856C26.1002 23.507 26.2574 25.2356 25.0788 25.3927C25.0788 25.3927 25.0002 25.3927 24.9216 25.3927C23.7431 25.5499 22.9574 26.7284 23.3502 27.8284L29.4788 46.057C29.8716 47.157 31.3645 47.157 31.7574 46.057L34.6645 37.3356C35.2145 35.7642 35.1359 34.1142 34.5859 32.6213L32.8574 27.907C32.3859 26.5713 31.1288 25.6284 29.7145 25.3927C28.5359 25.3142 28.6931 23.507 29.8716 23.5856C29.8716 23.5856 33.4859 23.8999 35.6859 23.8999C37.9645 23.8999 41.5788 23.5856 41.5788 23.5856C42.7574 23.507 42.9145 25.2356 41.7359 25.3927C40.4788 25.5499 39.6145 26.807 40.0074 28.0642L45.9002 45.6642C46.2931 46.7642 47.8645 46.7642 48.1788 45.6642L49.2788 41.8927C50.2216 38.8284 50.9288 36.6284 50.9288 34.7427C50.9288 31.9927 49.9859 30.107 49.1216 28.6927C48.0216 26.8856 46.9216 25.3142 46.9216 23.507C46.8431 21.6213 48.4145 19.7356 50.5359 19.7356Z" fill="#050148"/>
<path d="M55.4858 27.6718C55.4858 29.8718 55.0929 32.3861 53.8358 35.5289L47.6286 53.2861C47.3929 53.8361 48.1 54.3861 48.5715 53.9932C54.3072 49.9861 58 43.4647 58 36.0004C58 32.1504 57.0572 28.6147 55.3286 25.4718C55.4072 26.1789 55.4858 26.8861 55.4858 27.6718Z" fill="#2690D4"/>
</g>
<defs>
<clipPath id="clip0_1_56">
<rect width="44" height="44" fill="white" transform="translate(14 13.9999)"/>
</clipPath>
</defs>
</svg>
