<svg width="72" height="72" viewBox="0 0 72 72" fill="none" xmlns="http://www.w3.org/2000/svg">
<rect width="72" height="72" rx="8" fill="white"/>
<g clip-path="url(#clip0_20_24)">
<path d="M38.2564 14H17.9487C16.9033 14.0059 15.9023 14.4238 15.1631 15.1631C14.4238 15.9023 14.0059 16.9033 14 17.9487V54.0513C14.0059 55.0967 14.4238 56.0977 15.1631 56.8369C15.9023 57.5762 16.9033 57.9941 17.9487 58H20.7692V47.2821C20.7752 46.2366 21.1931 45.2357 21.9323 44.4964C22.6716 43.7572 23.6725 43.3393 24.7179 43.3333H31.4872C32.5326 43.3393 33.5336 43.7572 34.2728 44.4964C35.012 45.2357 35.43 46.2366 35.4359 47.2821V58H40.5128C40.9598 57.9942 41.3869 57.814 41.703 57.4979C42.0191 57.1818 42.1993 56.7547 42.2051 56.3077V17.9487C42.1992 16.9033 41.7813 15.9023 41.042 15.1631C40.3028 14.4238 39.3018 14.0059 38.2564 14ZM33.7436 24.1538H31.4872C31.0384 24.1538 30.6079 23.9756 30.2905 23.6582C29.9732 23.3408 29.7949 22.9104 29.7949 22.4615C29.7949 22.0127 29.9732 21.5823 30.2905 21.2649C30.6079 20.9475 31.0384 20.7692 31.4872 20.7692H33.7436C34.1924 20.7692 34.6229 20.9475 34.9402 21.2649C35.2576 21.5823 35.4359 22.0127 35.4359 22.4615C35.4359 22.9104 35.2576 23.3408 34.9402 23.6582C34.6229 23.9756 34.1924 24.1538 33.7436 24.1538ZM35.4359 29.2308C35.4301 29.6778 35.2499 30.1048 34.9338 30.4209C34.6177 30.7371 34.1906 30.9172 33.7436 30.9231H31.4872C31.0384 30.9231 30.6079 30.7448 30.2905 30.4274C29.9732 30.11 29.7949 29.6796 29.7949 29.2308C29.7949 28.7819 29.9732 28.3515 30.2905 28.0341C30.6079 27.7168 31.0384 27.5385 31.4872 27.5385H33.7436C34.1906 27.5443 34.6177 27.7245 34.9338 28.0406C35.2499 28.3567 35.4301 28.7838 35.4359 29.2308ZM24.7179 37.6923H22.4615C22.0127 37.6923 21.5823 37.514 21.2649 37.1966C20.9475 36.8793 20.7692 36.4488 20.7692 36C20.7692 35.5512 20.9475 35.1207 21.2649 34.8034C21.5823 34.486 22.0127 34.3077 22.4615 34.3077H24.7179C25.1668 34.3077 25.5972 34.486 25.9146 34.8034C26.232 35.1207 26.4103 35.5512 26.4103 36C26.4103 36.4488 26.232 36.8793 25.9146 37.1966C25.5972 37.514 25.1668 37.6923 24.7179 37.6923ZM24.7179 30.9231H22.4615C22.0127 30.9231 21.5823 30.7448 21.2649 30.4274C20.9475 30.11 20.7692 29.6796 20.7692 29.2308C20.7692 28.7819 20.9475 28.3515 21.2649 28.0341C21.5823 27.7168 22.0127 27.5385 22.4615 27.5385H24.7179C25.1668 27.5385 25.5972 27.7168 25.9146 28.0341C26.232 28.3515 26.4103 28.7819 26.4103 29.2308C26.4103 29.6796 26.232 30.11 25.9146 30.4274C25.5972 30.7448 25.1668 30.9231 24.7179 30.9231ZM24.7179 24.1538H22.4615C22.0127 24.1538 21.5823 23.9756 21.2649 23.6582C20.9475 23.3408 20.7692 22.9104 20.7692 22.4615C20.7692 22.0127 20.9475 21.5823 21.2649 21.2649C21.5823 20.9475 22.0127 20.7692 22.4615 20.7692H24.7179C25.1668 20.7692 25.5972 20.9475 25.9146 21.2649C26.232 21.5823 26.4103 22.0127 26.4103 22.4615C26.4103 22.9104 26.232 23.3408 25.9146 23.6582C25.5972 23.9756 25.1668 24.1538 24.7179 24.1538ZM33.7436 37.6923H31.4872C31.0384 37.6923 30.6079 37.514 30.2905 37.1966C29.9732 36.8793 29.7949 36.4488 29.7949 36C29.7949 35.5512 29.9732 35.1207 30.2905 34.8034C30.6079 34.486 31.0384 34.3077 31.4872 34.3077H33.7436C34.1924 34.3077 34.6229 34.486 34.9402 34.8034C35.2576 35.1207 35.4359 35.5512 35.4359 36C35.4359 36.4488 35.2576 36.8793 34.9402 37.1966C34.6229 37.514 34.1924 37.6923 33.7436 37.6923Z" fill="#000248"/>
<path d="M31.4871 46.7179H24.7179C24.5683 46.7179 24.4248 46.7774 24.319 46.8832C24.2132 46.989 24.1538 47.1324 24.1538 47.2821V58H32.0512V47.2821C32.0512 47.1324 31.9918 46.989 31.886 46.8832C31.7802 46.7774 31.6368 46.7179 31.4871 46.7179Z" fill="#000248"/>
<path d="M54.0514 27.5385H45.5898V58H54.0514C55.0968 57.9941 56.0978 57.5762 56.837 56.8369C57.5763 56.0977 57.9942 55.0967 58.0001 54.0513V31.4872C57.9942 30.4417 57.5763 29.4408 56.837 28.7016C56.0978 27.9623 55.0968 27.5444 54.0514 27.5385ZM51.795 44.4615H49.5386C49.0897 44.4615 48.6593 44.2832 48.3419 43.9659C48.0245 43.6485 47.8463 43.2181 47.8463 42.7692C47.8463 42.3204 48.0245 41.89 48.3419 41.5726C48.6593 41.2552 49.0897 41.0769 49.5386 41.0769H51.795C52.2438 41.0769 52.6742 41.2552 52.9916 41.5726C53.309 41.89 53.4873 42.3204 53.4873 42.7692C53.4873 43.2181 53.309 43.6485 52.9916 43.9659C52.6742 44.2832 52.2438 44.4615 51.795 44.4615ZM53.4873 49.5385C53.4814 49.9855 53.3013 50.4125 52.9852 50.7286C52.669 51.0448 52.242 51.2249 51.795 51.2308H49.5386C49.0897 51.2308 48.6593 51.0525 48.3419 50.7351C48.0245 50.4177 47.8463 49.9873 47.8463 49.5385C47.8463 49.0896 48.0245 48.6592 48.3419 48.3418C48.6593 48.0244 49.0897 47.8462 49.5386 47.8462H51.795C52.242 47.852 52.669 48.0322 52.9852 48.3483C53.3013 48.6644 53.4814 49.0915 53.4873 49.5385ZM51.795 37.6923H49.5386C49.0897 37.6923 48.6593 37.514 48.3419 37.1966C48.0245 36.8793 47.8463 36.4488 47.8463 36C47.8463 35.5512 48.0245 35.1207 48.3419 34.8034C48.6593 34.486 49.0897 34.3077 49.5386 34.3077H51.795C52.2438 34.3077 52.6742 34.486 52.9916 34.8034C53.309 35.1207 53.4873 35.5512 53.4873 36C53.4873 36.4488 53.309 36.8793 52.9916 37.1966C52.6742 37.514 52.2438 37.6923 51.795 37.6923Z" fill="#2690D4"/>
</g>
<defs>
<clipPath id="clip0_20_24">
<rect width="44" height="44" fill="white" transform="translate(14 14)"/>
</clipPath>
</defs>
</svg>
