<svg width="72" height="72" viewBox="0 0 72 72" fill="none" xmlns="http://www.w3.org/2000/svg">
<rect width="72" height="72" rx="8" fill="white"/>
<g clip-path="url(#clip0_3_28)">
<path d="M53.2857 20.2857H45.4286V18.7143C45.4286 17.464 44.9319 16.2649 44.0478 15.3808C43.1637 14.4967 41.9646 14 40.7143 14H31.2857C30.0354 14 28.8363 14.4967 27.9522 15.3808C27.0681 16.2649 26.5714 17.464 26.5714 18.7143V20.2857H18.7143C17.464 20.2857 16.2649 20.7824 15.3808 21.6665C14.4967 22.5506 14 23.7497 14 25V31.2857C14 32.536 14.4967 33.7351 15.3808 34.6192C16.2649 35.5033 17.464 36 18.7143 36H29.7143V34.4286C29.7143 34.0118 29.8798 33.6121 30.1745 33.3174C30.4692 33.0227 30.8689 32.8571 31.2857 32.8571H40.7143C41.1311 32.8571 41.5308 33.0227 41.8255 33.3174C42.1202 33.6121 42.2857 34.0118 42.2857 34.4286V36H53.2857C54.536 36 55.7351 35.5033 56.6192 34.6192C57.5033 33.7351 58 32.536 58 31.2857V25C58 23.7497 57.5033 22.5506 56.6192 21.6665C55.7351 20.7824 54.536 20.2857 53.2857 20.2857ZM29.7143 20.2857V18.7143C29.7143 18.2975 29.8798 17.8978 30.1745 17.6031C30.4692 17.3084 30.8689 17.1429 31.2857 17.1429H40.7143C41.1311 17.1429 41.5308 17.3084 41.8255 17.6031C42.1202 17.8978 42.2857 18.2975 42.2857 18.7143V20.2857H29.7143Z" fill="#2690D4"/>
<path d="M42.2856 39.1429V40.7143C42.2856 41.1311 42.12 41.5308 41.8253 41.8255C41.5306 42.1202 41.1309 42.2857 40.7141 42.2857H31.2856C30.8688 42.2857 30.4691 42.1202 30.1744 41.8255C29.8797 41.5308 29.7141 41.1311 29.7141 40.7143V39.1429H18.7141C17.6339 39.1417 16.5649 38.9226 15.5713 38.4986V53.2857C15.5713 54.536 16.068 55.7351 16.9521 56.6192C17.8362 57.5033 19.0353 58 20.2856 58H51.7141C52.9645 58 54.1635 57.5033 55.0476 56.6192C55.9317 55.7351 56.4284 54.536 56.4284 53.2857V38.4986C55.4348 38.9226 54.3659 39.1417 53.2856 39.1429H42.2856Z" fill="#000248"/>
<path d="M32.8569 36H39.1426V39.1429H32.8569V36Z" fill="#000248"/>
</g>
<defs>
<clipPath id="clip0_3_28">
<rect width="44" height="44" fill="white" transform="translate(14 14)"/>
</clipPath>
</defs>
</svg>
