<svg width="72" height="72" viewBox="0 0 72 72" fill="none" xmlns="http://www.w3.org/2000/svg">
<rect width="72" height="72" rx="8" fill="white"/>
<path d="M52.6681 46.5415L46.768 42.4192C45.9969 41.882 45.0942 41.5979 44.1594 41.5979C42.6724 41.5979 41.2769 42.3272 40.4267 43.5474L39.057 45.5098C36.7615 43.9708 34.1992 41.8211 31.7579 39.3802C29.3174 36.9388 27.1678 34.377 25.6282 32.0815L27.5902 30.7127C28.5908 30.0159 29.2578 28.9731 29.4704 27.7751C29.682 26.5793 29.4152 25.3702 28.718 24.3692L24.5966 18.4695C23.4359 16.809 21.2409 16.0824 19.3928 16.7659C18.8538 16.9655 18.3522 17.2097 17.8586 17.5187L17.043 18.0933C16.8402 18.2516 16.6517 18.4241 16.4703 18.6051C15.4759 19.5994 14.7698 20.857 14.3731 22.3441C12.6744 28.7112 16.882 38.337 24.842 46.2965C31.5266 52.9811 39.5569 57.1341 45.8003 57.1345C46.8685 57.1345 47.877 57.01 48.7958 56.765C50.281 56.3679 51.5386 55.6626 52.533 54.6683C52.7144 54.4873 52.8878 54.2983 53.0728 54.0581L53.6465 53.2386C53.9293 52.7863 54.1739 52.2838 54.3722 51.7453C55.0668 49.8691 54.3669 47.7293 52.6681 46.5415Z" fill="#000248"/>
<path d="M57.089 14.8648H35.2315C34.7281 14.8648 34.3208 15.2726 34.3208 15.7755V28.5257C34.3208 29.0287 34.7281 29.4365 35.2315 29.4365H38.4644L40.6372 34.0644C40.7875 34.3841 41.1086 34.5882 41.4617 34.5882C41.8147 34.5882 42.1358 34.3841 42.2861 34.0648L44.4598 29.4365H57.089C57.5924 29.4365 57.9997 29.0287 57.9997 28.5257V15.7755C57.9997 15.2726 57.5924 14.8648 57.089 14.8648ZM52.4784 24.8828H39.8421C39.3387 24.8828 38.9314 24.475 38.9314 23.9721C38.9314 23.4691 39.3387 23.0614 39.8421 23.0614H52.4784C52.9818 23.0614 53.3892 23.4691 53.3892 23.9721C53.3892 24.475 52.9818 24.8828 52.4784 24.8828ZM52.4784 21.2399H39.8421C39.3387 21.2399 38.9314 20.8321 38.9314 20.3292C38.9314 19.8262 39.3387 19.4184 39.8421 19.4184H52.4784C52.9818 19.4184 53.3892 19.8262 53.3892 20.3292C53.3892 20.8321 52.9818 21.2399 52.4784 21.2399Z" fill="#2690D4"/>
</svg>
