<svg width="64" height="64" viewBox="0 0 64 64" fill="none" xmlns="http://www.w3.org/2000/svg">
<path d="M32 56C18.7664 56 8 45.2336 8 32C8 18.7664 18.7664 8 32 8C45.2336 8 56 18.7664 56 32C56 45.2336 45.2336 56 32 56ZM33.4309 41.5472C33.3408 41.5472 33.2544 41.5819 33.1899 41.6448C33.1227 41.7099 33.0848 41.8 33.0848 41.8939V53.3168C33.0848 53.4224 33.1328 53.5221 33.2149 53.5877C33.2768 53.6373 33.3531 53.6635 33.4315 53.6635C33.4571 53.6635 33.4827 53.6608 33.5083 53.6549C37.1589 52.8245 40.5088 48.9179 42.4683 43.2037C42.4992 43.1125 42.4912 43.0123 42.4453 42.9269C42.3995 42.8416 42.3205 42.7797 42.2267 42.7557C39.4853 42.0512 36.5296 41.6448 33.4421 41.5477C33.4379 41.5472 33.4347 41.5472 33.4309 41.5472ZM30.5584 41.5477C27.4693 41.6453 24.5141 42.0523 21.7744 42.7568C21.6805 42.7808 21.6016 42.8427 21.5557 42.928C21.5099 43.0133 21.5013 43.1136 21.5328 43.2048C23.4928 48.9179 26.8416 52.824 30.4928 53.6544C30.5184 53.6603 30.544 53.6629 30.5696 53.6629C30.6475 53.6629 30.7237 53.6368 30.7856 53.5872C30.8677 53.5216 30.9157 53.4219 30.9157 53.3163V41.8939C30.9157 41.8 30.8779 41.7104 30.8107 41.6448C30.7456 41.5819 30.6592 41.5472 30.5696 41.5472C30.5653 41.5477 30.5616 41.5477 30.5584 41.5477ZM19.0725 43.6C19.0325 43.6 18.9925 43.6069 18.9547 43.6208C17.5835 44.1168 16.3307 44.6917 15.2299 45.3291C15.1419 45.3803 15.0805 45.4672 15.0624 45.5675C15.0443 45.6677 15.0709 45.7707 15.136 45.8491C17.2363 48.4016 19.9355 50.4789 22.9413 51.856C22.9877 51.8773 23.0368 51.8875 23.0853 51.8875C23.1899 51.8875 23.2923 51.84 23.3595 51.7531C23.4581 51.6256 23.456 51.4475 23.3541 51.3221C21.7227 49.3157 20.3925 46.7968 19.4011 43.8363C19.3712 43.7477 19.3072 43.6752 19.2235 43.6341C19.176 43.6117 19.1243 43.6 19.0725 43.6ZM44.9285 43.5968C44.8768 43.5968 44.8251 43.6085 44.7776 43.6315C44.6939 43.672 44.6299 43.7451 44.6 43.8336C43.608 46.7952 42.2773 49.3147 40.6453 51.3227C40.544 51.448 40.5419 51.6261 40.6405 51.7536C40.7077 51.8405 40.8101 51.888 40.9147 51.888C40.9632 51.888 41.0123 51.8779 41.0592 51.8565C44.0656 50.4795 46.7643 48.4021 48.8635 45.8501C48.928 45.7717 48.9547 45.6688 48.9371 45.5685C48.9189 45.4683 48.8581 45.3813 48.7696 45.3301C47.6576 44.6859 46.4053 44.1099 45.0469 43.6181C45.0085 43.6037 44.9685 43.5968 44.9285 43.5968ZM46.7451 33.0843C46.5584 33.0843 46.4048 33.2325 46.3989 33.4192C46.3099 36.0848 45.9659 38.6752 45.3765 41.1184C45.3355 41.2912 45.4309 41.4672 45.5979 41.5264C47.2651 42.1163 48.776 42.8112 50.0896 43.592C50.1451 43.6251 50.2059 43.6405 50.2661 43.6405C50.3824 43.6405 50.4955 43.5824 50.5611 43.4768C52.4315 40.4624 53.544 36.9968 53.7781 33.4533C53.784 33.3579 53.7509 33.2635 53.6853 33.1936C53.6197 33.1237 53.528 33.0837 53.432 33.0837L46.7451 33.0843ZM10.568 33.0843C10.472 33.0843 10.3803 33.1243 10.3147 33.1941C10.2496 33.264 10.216 33.3584 10.2219 33.4539C10.456 36.9963 11.568 40.4619 13.4379 43.4757C13.5029 43.5813 13.6165 43.6395 13.7328 43.6395C13.7931 43.6395 13.8539 43.624 13.9093 43.5909C15.2219 42.8117 16.7333 42.1179 18.4021 41.5269C18.5691 41.4677 18.6645 41.2917 18.6235 41.1189C18.0341 38.6752 17.6907 36.0848 17.6011 33.4192C17.5952 33.2325 17.4416 33.0843 17.2549 33.0843H10.568ZM20.1211 33.0843C20.0272 33.0843 19.9365 33.1227 19.8715 33.1904C19.8064 33.2581 19.7712 33.3499 19.7749 33.4437C19.8677 35.8533 20.1888 38.2053 20.7285 40.4357C20.7504 40.5259 20.8075 40.6037 20.8875 40.6517C20.9419 40.6843 21.0032 40.7008 21.0656 40.7008C21.0949 40.7008 21.1243 40.6971 21.1531 40.6896C24.112 39.9189 27.2837 39.4779 30.5803 39.3787C30.7675 39.3728 30.9163 39.2197 30.9163 39.0325V33.4309C30.9163 33.2395 30.7611 33.0843 30.5696 33.0843H20.1211ZM33.4309 33.0843C33.2395 33.0843 33.0843 33.2395 33.0843 33.4309V39.0325C33.0843 39.2197 33.2331 39.3733 33.4203 39.3787C36.7189 39.4779 39.8907 39.9184 42.848 40.6885C42.8768 40.696 42.9061 40.6997 42.9355 40.6997C42.9979 40.6997 43.0592 40.6832 43.1136 40.6507C43.1936 40.6032 43.2507 40.5253 43.2725 40.4352C43.8117 38.2059 44.1323 35.8544 44.2256 33.4448C44.2293 33.3509 44.1947 33.2592 44.1291 33.1915C44.064 33.1237 43.9733 33.0853 43.8795 33.0853H33.4309V33.0843ZM50.2661 20.3595C50.2059 20.3595 50.1451 20.3749 50.0896 20.408C48.7771 21.1877 47.2661 21.8827 45.5979 22.4736C45.4309 22.5328 45.3355 22.7088 45.3765 22.8816C45.9659 25.3248 46.3093 27.9152 46.3989 30.5808C46.4048 30.7675 46.5584 30.9157 46.7451 30.9157H53.432C53.528 30.9157 53.6197 30.8757 53.6853 30.8059C53.7504 30.736 53.784 30.6416 53.7781 30.5461C53.544 27.0032 52.4315 23.5371 50.5611 20.5232C50.4955 20.4176 50.3824 20.3595 50.2661 20.3595ZM42.9355 23.3003C42.9061 23.3003 42.8768 23.304 42.848 23.3115C39.8917 24.0816 36.72 24.5221 33.4203 24.6213C33.2331 24.6267 33.0843 24.7803 33.0843 24.9675V30.5685C33.0843 30.76 33.2395 30.9152 33.4309 30.9152H43.8789C43.9728 30.9152 44.0635 30.8768 44.1285 30.8091C44.1936 30.7413 44.2288 30.6496 44.2251 30.5552C44.1323 28.1461 43.8117 25.7941 43.272 23.5648C43.2501 23.4747 43.1931 23.3968 43.1131 23.3493C43.0592 23.3173 42.9979 23.3003 42.9355 23.3003ZM21.0651 23.2992C21.0027 23.2992 20.9413 23.3157 20.8869 23.3483C20.8069 23.3963 20.7499 23.4736 20.728 23.5643C20.1883 25.7947 19.8672 28.1467 19.7744 30.5557C19.7707 30.6496 19.8053 30.7413 19.8709 30.8096C19.936 30.8773 20.0267 30.9157 20.1205 30.9157H30.5685C30.76 30.9157 30.9152 30.7605 30.9152 30.5691V24.968C30.9152 24.7808 30.7664 24.6272 30.5792 24.6219C27.2827 24.5227 24.1109 24.0816 21.152 23.3109C21.1237 23.3029 21.0944 23.2992 21.0651 23.2992ZM13.7328 20.3605C13.6165 20.3605 13.5035 20.4187 13.4379 20.5243C11.568 23.5381 10.456 27.0037 10.2219 30.5461C10.216 30.6416 10.2491 30.736 10.3147 30.8059C10.3803 30.8757 10.472 30.9157 10.568 30.9157H17.2549C17.4416 30.9157 17.5952 30.7675 17.6011 30.5808C17.6907 27.9152 18.0341 25.3248 18.6235 22.8811C18.6645 22.7083 18.5691 22.5323 18.4021 22.4731C16.7317 21.8821 15.2203 21.1877 13.9093 20.4091C13.8539 20.3765 13.7931 20.3605 13.7328 20.3605ZM33.4309 10.3371C33.3531 10.3371 33.2768 10.3632 33.2144 10.4128C33.1323 10.4784 33.0843 10.5781 33.0843 10.6837V22.1067C33.0843 22.2005 33.1221 22.2901 33.1893 22.3557C33.2544 22.4187 33.3408 22.4533 33.4304 22.4533C33.4341 22.4533 33.4373 22.4533 33.4411 22.4533C36.5307 22.3563 39.4864 21.9499 42.2256 21.2453C42.3195 21.2213 42.3984 21.1595 42.4443 21.0741C42.4901 20.9888 42.4987 20.8885 42.4672 20.7973C40.5083 15.0837 37.1584 11.1765 33.5072 10.3461C33.4821 10.3397 33.4565 10.3371 33.4309 10.3371ZM30.5691 10.3371C30.5435 10.3371 30.5173 10.3397 30.4923 10.3456C26.8416 11.176 23.4923 15.0827 21.5323 20.7952C21.5013 20.8869 21.5093 20.9872 21.5552 21.072C21.6011 21.1568 21.68 21.2192 21.7739 21.2432C24.5152 21.9483 27.4709 22.3552 30.5579 22.4528C30.5611 22.4528 30.5648 22.4528 30.5685 22.4528C30.6587 22.4528 30.7451 22.4181 30.8096 22.3552C30.8768 22.2896 30.9147 22.2 30.9147 22.1061V10.6832C30.9147 10.5776 30.8667 10.4784 30.7845 10.4123C30.7237 10.3632 30.6469 10.3371 30.5691 10.3371ZM40.9147 12.1125C40.8101 12.1125 40.7077 12.16 40.6405 12.2469C40.5419 12.3744 40.544 12.5525 40.6453 12.6779C42.2773 14.6859 43.608 17.2053 44.6 20.1669C44.6299 20.2555 44.6939 20.328 44.7776 20.3685C44.8251 20.3915 44.8768 20.4032 44.9285 20.4032C44.9685 20.4032 45.0085 20.3963 45.0464 20.3824C46.408 19.8896 47.6608 19.3136 48.7696 18.6704C48.8576 18.6192 48.9184 18.5323 48.9365 18.432C48.9547 18.3317 48.9275 18.2288 48.8629 18.1504C46.7632 15.5979 44.0645 13.5205 41.0581 12.144C41.0123 12.1227 40.9632 12.1125 40.9147 12.1125ZM23.0853 12.1125C23.0368 12.1125 22.9877 12.1227 22.9413 12.144C19.9349 13.5211 17.2357 15.5984 15.136 18.1509C15.0715 18.2293 15.0448 18.3323 15.0624 18.4325C15.0805 18.5328 15.1419 18.6197 15.2299 18.6709C16.3296 19.3083 17.5829 19.8832 18.9547 20.3792C18.9925 20.3931 19.0325 20.4 19.0725 20.4C19.1243 20.4 19.1755 20.3883 19.2235 20.3653C19.3072 20.3248 19.3712 20.2517 19.4011 20.1637C20.3931 17.2032 21.7232 14.6848 23.3541 12.6779C23.4555 12.5525 23.4576 12.3744 23.3595 12.2469C23.2923 12.16 23.1899 12.1125 23.0853 12.1125Z" fill="#2690D4"/>
</svg>
