<svg width="72" height="72" viewBox="0 0 72 72" fill="none" xmlns="http://www.w3.org/2000/svg">
<rect width="72" height="72" rx="8" fill="white"/>
<path d="M57.9844 23.1139C57.8272 21.5268 56.4758 20.2854 54.8572 20.2854C53.1286 20.2854 51.7144 21.6997 51.7144 23.4282V51.7139H53.2858C55.8786 51.7139 58.0001 49.5925 58.0001 46.9997V23.4282C58.0001 23.3182 58.0001 23.2082 57.9844 23.1139Z" fill="#2690D4"/>
<path d="M51.7143 17.1425H20.2857C16.8129 17.1425 14 19.9554 14 23.4282V50.1425C14 52.7354 16.1214 54.8568 18.7143 54.8568H43.8571C46.45 54.8568 48.5714 52.7354 48.5714 50.1425V23.4282C48.5714 20.5054 50.5671 18.0382 53.2857 17.3468C52.7829 17.2054 52.2643 17.1425 51.7143 17.1425ZM20.2857 26.5711C20.2857 25.7068 20.9929 24.9997 21.8571 24.9997H29.7143C30.5786 24.9997 31.2857 25.7068 31.2857 26.5711V32.8568C31.2857 33.7211 30.5786 34.4282 29.7143 34.4282H21.8571C20.9929 34.4282 20.2857 33.7211 20.2857 32.8568V26.5711ZM40.7143 46.9997H21.8571C20.9929 46.9997 20.2857 46.2925 20.2857 45.4282C20.2857 44.5639 20.9929 43.8568 21.8571 43.8568H40.7143C41.5786 43.8568 42.2857 44.5639 42.2857 45.4282C42.2857 46.2925 41.5786 46.9997 40.7143 46.9997ZM40.7143 40.7139H21.8571C20.9929 40.7139 20.2857 40.0068 20.2857 39.1425C20.2857 38.2782 20.9929 37.5711 21.8571 37.5711H40.7143C41.5786 37.5711 42.2857 38.2782 42.2857 39.1425C42.2857 40.0068 41.5786 40.7139 40.7143 40.7139ZM40.7143 34.4282H36C35.1357 34.4282 34.4286 33.7211 34.4286 32.8568C34.4286 31.9925 35.1357 31.2854 36 31.2854H40.7143C41.5786 31.2854 42.2857 31.9925 42.2857 32.8568C42.2857 33.7211 41.5786 34.4282 40.7143 34.4282ZM40.7143 28.1425H36C35.1357 28.1425 34.4286 27.4354 34.4286 26.5711C34.4286 25.7068 35.1357 24.9997 36 24.9997H40.7143C41.5786 24.9997 42.2857 25.7068 42.2857 26.5711C42.2857 27.4354 41.5786 28.1425 40.7143 28.1425Z" fill="#000248"/>
</svg>
