<svg width="64" height="64" viewBox="0 0 64 64" fill="none" xmlns="http://www.w3.org/2000/svg">
<path d="M20.6727 4.22969C19.7818 4.68906 19.3258 5.56406 19.4 6.70156L19.4318 7.28125H18.9333C18.3606 7.28125 18 7.57656 18 8.03594C18 8.18906 18.1379 9.09688 18.3076 10.0484C18.6045 11.7547 18.7848 12.2031 19.1348 12.2031C19.2409 12.2031 19.2621 12.3344 19.2091 12.8047C19.103 13.7016 19.3151 14.3359 19.9303 14.9594C20.2061 15.2547 20.503 15.4844 20.5879 15.4844C20.6939 15.4844 20.853 15.8234 21.0651 16.5453C21.2454 17.1359 21.7651 18.875 22.2318 20.4063L23.0697 23.1953L22.4545 23.9063C22.1257 24.3 21.8182 24.7266 21.7757 24.8578C21.7227 25.0219 22.0515 26.4109 22.7303 28.9375L23.7591 32.7875L23.4197 33.4438C22.9954 34.2969 22.9742 35.0625 23.356 36.1781C23.6106 36.9438 23.6212 37.0094 23.5151 38.3219C23.303 41.0781 23.3985 45.3875 23.7803 49.3906C24.0242 51.95 24.6394 56.5109 24.9576 58.0641L25.0212 58.3594H22.6348H20.2379L20.0258 58.6438C19.7394 59.0156 19.7394 59.3438 20.0258 59.7156L20.2379 60H32.1484C43.5499 60 44.0696 59.9891 44.2287 59.8031C44.4726 59.5188 44.462 58.775 44.2181 58.5453C44.0484 58.3813 43.6348 58.3594 40.6545 58.3594H37.2818L37.3454 58.0641C37.6212 56.675 38.2363 52.3875 38.5863 49.4453C38.703 48.4172 38.8302 47.5531 38.8727 47.5094C38.9151 47.4766 39.509 47.2031 40.1984 46.9297C41.4393 46.4156 41.7575 46.175 41.7575 45.7375C41.7575 45.6172 41.4711 44.2719 41.1105 42.7516L40.4742 39.9625L43.1469 36.2875C44.6211 34.2641 45.8726 32.4813 45.9257 32.3281C46.1484 31.7266 45.9999 31.5625 43.6348 29.7359C42.3939 28.7734 41.2696 27.9422 41.153 27.9094C40.6545 27.7453 40.3999 27.9531 39.403 29.3313C38.8621 30.075 38.3954 30.6438 38.353 30.6C38.3211 30.5563 38.1833 30.0531 38.0454 29.4844C37.7802 28.325 37.2605 27.1109 36.7939 26.5422L36.4863 26.1594L36.7939 25.6563C37.5045 24.475 37.4408 23.0531 36.603 21.3359C36.0727 20.2203 36.0515 19.9141 36.4863 18.7875L36.709 18.2188H37.8015C38.756 18.2188 38.9257 18.1859 39.106 18C39.3818 17.7156 39.3818 17.125 39.1166 16.7859C38.9363 16.5563 38.8196 16.5234 37.8227 16.4906L36.7196 16.4469L36.4969 15.8672L36.2742 15.2766L37.2181 14.3141C38.056 13.45 38.1515 13.3188 38.1515 12.9469C38.1515 12.6406 38.0878 12.4875 37.8757 12.3234C37.3348 11.8859 37.0484 11.9953 35.9878 13.0672L35.0227 14.0406L34.7045 13.8656C34.5348 13.7781 34.1212 13.6141 33.803 13.5047L33.2197 13.3188L33.156 12.0281C33.1136 11.3063 33.0818 10.7156 33.0712 10.7047C33.0712 10.6938 32.9545 10.5844 32.8272 10.4531C32.509 10.1578 31.9894 10.1688 31.703 10.4859C31.4909 10.7156 31.4697 10.8578 31.4697 12.0063V13.2859L30.8651 13.4609C30.5257 13.5594 30.0909 13.7344 29.8894 13.8547L29.5288 14.0734L28.553 13.0781C27.45 11.9734 27.1318 11.8531 26.6439 12.3672C26.1454 12.8703 26.2621 13.1984 27.3333 14.325L28.2878 15.3313L28.0757 15.7578C27.9591 15.9984 27.8636 16.25 27.8636 16.3375C27.8636 16.4469 27.6515 16.4688 26.9515 16.4469L26.0394 16.4141L25.3076 14.3906C24.5651 12.3234 24.5015 12.0938 24.6818 12.0938C24.7348 12.0938 24.8303 12.0063 24.8833 11.8969C25.0424 11.5906 25.6363 8.06875 25.5621 7.85C25.456 7.54375 25.1909 7.28125 24.9788 7.28125C24.7348 7.28125 24.7348 7.27031 25.0954 6.65781C25.456 6.05625 25.8485 5.07188 25.8485 4.77656C25.8485 4.66719 25.753 4.44844 25.6257 4.28438L25.4136 4H23.2712C21.2985 4 21.097 4.02188 20.6727 4.22969ZM23.6212 5.71719C23.6212 5.81563 23.1121 6.50469 22.7409 6.92031C22.4545 7.2375 22.3485 7.28125 21.85 7.28125C21.4151 7.28125 21.2773 7.2375 21.1818 7.07344C20.9167 6.55938 21.1606 5.81563 21.6379 5.71719C22.0303 5.64063 23.6212 5.64063 23.6212 5.71719ZM23.6636 9.32656C23.6318 9.55625 23.5682 9.91719 23.5257 10.125L23.4515 10.5078L21.797 10.5406L20.153 10.5625L20.0258 9.95C19.8136 8.82344 19.6439 8.92188 21.8182 8.92188H23.7379L23.6636 9.32656ZM24.1197 16.1953C24.8939 18.3609 25.5303 20.1547 25.5303 20.1875C25.5303 20.2203 25.2757 20.5484 24.9576 20.9313L24.3742 21.6094L24.0985 20.6469C23.1227 17.3656 22.2318 14.4672 22.1364 14.2813C22.0727 14.1609 21.8394 14.0188 21.606 13.9531C21.0121 13.7891 20.8212 13.45 20.9167 12.75L20.9909 12.1922L21.85 12.225L22.7197 12.2578L24.1197 16.1953ZM33.6015 15.2984C34.1212 15.5172 34.6303 15.9984 34.8636 16.4797C35.1606 17.0703 35.1393 18 34.8318 18C34.5348 18 33.5378 17.2344 33.156 16.7094C32.7636 16.1734 32.7106 16.1406 32.2651 16.1406C31.8197 16.1406 31.7666 16.1734 31.4166 16.6766C31.0454 17.2016 30.5257 17.6391 29.953 17.9016C29.5818 18.0766 29.4545 17.9234 29.4545 17.3109C29.4545 15.6047 31.7454 14.4891 33.6015 15.2984ZM28.0439 18.7875C28.1606 19.1047 28.3409 19.8703 28.4257 20.4719C28.8181 23.0313 30.006 24.7484 31.6606 25.1203C32.2015 25.2406 32.9545 25.6234 32.9545 25.7656C32.9439 25.8203 32.2863 26.3344 29.1257 28.7406L27.8848 29.6922L28.0227 29.0688C28.5954 26.5313 28.9242 24.9672 28.9242 24.7594C28.9242 24.0922 27.8742 23.7422 27.4712 24.2781C27.3439 24.4422 27.0151 25.6891 26.5485 27.8547C25.9545 30.5781 25.7742 31.2234 25.5727 31.4422C25.4348 31.5953 25.2969 31.6938 25.2757 31.6609C25.2439 31.6281 24.8621 30.2609 24.4166 28.6094C23.9712 26.9578 23.6 25.5469 23.5682 25.4703C23.547 25.4047 24.3848 24.3328 25.4348 23.0859C27.6091 20.5047 27.5454 20.6688 27.0151 19.1813C26.8454 18.6891 26.6969 18.2734 26.6969 18.2516C26.6969 18.2297 26.9515 18.2188 27.2591 18.2188H27.8212L28.0439 18.7875ZM33.8454 19.4875C34.5242 19.8047 34.5666 19.9359 34.2696 20.9641C33.8348 22.4844 33.0818 23.4141 32.2651 23.4141C31.4484 23.4141 30.6954 22.4844 30.2606 20.9641C29.9636 19.925 29.9954 19.8156 30.7591 19.4438C31.1197 19.2688 31.6075 18.9734 31.8409 18.7984L32.2651 18.4703L32.753 18.8313C33.0287 19.0391 33.5166 19.3344 33.8454 19.4875ZM35.5636 23.4031C35.6378 23.8406 35.5424 24.4094 35.3302 24.7484C35.1393 25.0547 35.0545 25.0656 34.609 24.7594L34.259 24.5188L34.7787 23.8625C35.0545 23.5016 35.2878 23.1625 35.2878 23.1188C35.2878 23.075 35.3302 23.0313 35.3939 23.0313C35.4469 23.0313 35.5212 23.1953 35.5636 23.4031ZM34.959 27.1547L35.309 27.4609L31.6712 30.25C29.6666 31.7813 27.9485 33.1375 27.8424 33.2469C27.5878 33.5313 27.5985 33.9797 27.8742 34.3406C28.1924 34.7563 28.7439 34.7344 29.3485 34.275C29.8045 33.925 29.8045 33.925 29.7409 34.1875C29.7091 34.3406 29.0515 37.5563 28.2878 41.3297C27.0682 47.3125 26.9091 48.2422 27.0151 48.5156C27.2485 49.0953 28.1288 49.2047 28.4469 48.6906C28.5212 48.5703 29.306 44.8953 30.1969 40.5313C31.0772 36.1672 31.8197 32.525 31.8515 32.4375C31.8939 32.2953 33.0287 31.3656 33.2833 31.2563C33.3363 31.2344 33.3893 34.3734 33.4 38.2344L33.4318 45.2563L33.6863 45.4641C34.0151 45.7375 34.5878 45.7375 34.8636 45.4531C35.0757 45.2344 35.0757 45.0922 35.0757 37.5453V29.8563L35.606 29.4516C35.8924 29.2328 36.1469 29.0906 36.1787 29.1344C36.2106 29.1781 36.5181 30.5016 36.8787 32.0656C37.5893 35.1391 37.6742 35.325 38.2999 35.325C39.0318 35.325 39.2969 34.8109 39.0424 33.8375C38.9575 33.4766 38.9045 33.1047 38.9363 33.0281C38.9893 32.8969 40.7817 30.3813 41.0257 30.0969C41.1105 29.9984 43.8787 32.0547 43.8787 32.2078C43.8787 32.2516 42.9984 33.4984 41.9272 34.9859L39.9863 37.6984L39.8484 37.3594C39.6151 36.7797 39.0318 36.6375 38.5333 37.0422C38.3318 37.2063 38.2575 37.3703 38.2575 37.6438C38.2575 37.8406 38.6181 39.5578 39.053 41.4391C39.4878 43.3313 39.8484 44.9391 39.8484 45.0266C39.8484 45.125 38.7878 45.6063 36.8681 46.3719C35.2242 47.0391 33.7818 47.6625 33.6545 47.7609C33.453 47.925 33.4318 48.0891 33.3893 49.2813L33.3575 50.6156L33.0181 50.7578C31.1197 51.5672 31.0666 51.5891 30.9394 51.8953C30.706 52.4859 31.0772 53.1094 31.6712 53.1094C32 53.1094 34.6409 52.0594 34.8954 51.8297C35.0439 51.6766 35.0757 51.4469 35.0757 50.3203V48.9859L35.9878 48.625C36.4863 48.4391 36.9212 48.2969 36.9424 48.3297C37.0378 48.4281 36.253 54.2469 35.7015 57.6156L35.5742 58.3594H31.1621H26.7394L26.506 56.9156C26.3682 56.1281 26.3045 55.45 26.3469 55.4063C26.3894 55.3625 27.0788 55.0672 27.8636 54.7609C29.7303 54.0172 30.1121 53.5906 29.55 52.8469C29.2318 52.4313 28.7651 52.475 27.3121 53.0766C26.6227 53.35 26.0394 53.5578 26.0076 53.5359C25.9439 53.4594 25.5727 50.2547 25.35 47.8594C25.1485 45.6281 25.0954 38.2234 25.2757 37.6547C25.3394 37.4797 25.6682 37.0969 26.0606 36.7688C26.6651 36.2766 26.75 36.1563 26.7818 35.7844C26.856 34.9313 26.103 34.5813 25.3394 35.1172C25.053 35.3141 24.9363 35.3469 24.8727 35.2484C24.7454 35.0406 24.7773 34.4719 24.9257 34.2641C25.0636 34.0781 34.4287 26.8594 34.5454 26.8594C34.5772 26.8594 34.7681 26.9906 34.959 27.1547Z" fill="#2690D4"/>
</svg>
