<svg width="72" height="72" viewBox="0 0 72 72" fill="none" xmlns="http://www.w3.org/2000/svg">
<rect width="72" height="72" rx="8" fill="white"/>
<g clip-path="url(#clip0_24_10)">
<path fill-rule="evenodd" clip-rule="evenodd" d="M27.0338 26.3866C26.7209 26.2398 26.5446 25.8833 26.6313 25.531C26.7294 25.1324 27.1269 24.89 27.5193 24.9897L29.4645 25.4853C29.9415 25.6065 30.1637 26.1615 29.9177 26.5854L28.9947 28.3538C28.8064 28.7172 28.3639 28.8566 28.0064 28.6653C27.6698 28.4853 27.5285 28.0763 27.6702 27.7259C27.1118 28.0414 26.5807 28.4118 26.0858 28.8346C23.101 31.384 21.8026 35.4929 22.8168 39.374C23.3514 41.42 24.503 43.3014 26.1975 44.7037C26.0216 44.6398 25.851 44.5771 25.6866 44.5168C25.2556 44.3584 24.8659 44.2153 24.5147 44.0996C24.1418 43.9766 23.7782 43.922 23.4222 43.9216C22.474 42.6715 21.7931 41.2503 21.4016 39.7525C20.2426 35.3173 21.7275 30.6196 25.1461 27.6994C25.7359 27.1954 26.3689 26.7569 27.0338 26.3866ZM16.794 47.1226L20.9405 54.5671C21.1409 54.9271 21.0152 55.3882 20.6609 55.5919L19.2505 56.403C18.8962 56.6067 18.4424 56.4789 18.2419 56.1189L14.0954 48.6744C13.895 48.3144 14.0207 47.8533 14.375 47.6496L15.7854 46.8386C16.1397 46.6348 16.5935 46.7627 16.794 47.1226ZM15.8433 48.2385C15.5681 48.2794 15.3776 48.5392 15.4178 48.8188C15.4581 49.0984 15.7137 49.292 15.9889 49.2511C16.2641 49.2102 16.4546 48.9504 16.4143 48.6708C16.3741 48.3912 16.1184 48.1976 15.8433 48.2385ZM29.171 48.753C29.6336 48.81 30.0064 48.6985 30.1365 48.2046C30.2485 47.7801 29.9777 47.3843 29.5889 47.2395C27.9714 46.9361 26.4139 46.364 25.1882 45.9136C23.4917 45.2904 23.089 45.1341 21.4124 46.1205L18.7828 47.6674L21.2094 52.0241C21.287 52.0199 21.3643 52.0282 21.4386 52.0483L28.463 53.9585C29.2807 54.1812 30.0426 54.0831 30.7656 53.6309C33.9945 51.6141 37.2218 49.5943 40.4493 47.5749C40.6821 47.4292 40.7949 47.0734 40.7588 46.7194C40.7304 46.4409 40.6036 46.1848 40.3502 46.0544C39.9033 45.8243 39.0996 45.9091 37.8218 46.6653L32.4857 49.8234C32.0356 50.0896 31.5719 50.2591 31.0898 50.3413C29.7282 50.5737 27.7294 49.9414 26.5007 49.5849C26.1182 49.474 25.7299 49.3613 25.3587 49.2602C24.9679 49.1541 24.7358 48.7462 24.8402 48.3492C24.9446 47.9521 25.346 47.7163 25.7368 47.8223C26.8793 48.1334 28.0136 48.5082 29.171 48.753ZM55.206 24.8774L51.0595 17.4329C50.8591 17.0729 50.9848 16.6118 51.3391 16.4081L52.7495 15.597C53.1038 15.3933 53.5576 15.5211 53.7581 15.8811L57.9046 23.3256C58.105 23.6856 57.9793 24.1467 57.625 24.3504L56.2146 25.1614C55.8604 25.3652 55.4065 25.2374 55.206 24.8774ZM56.1568 23.7615C56.4319 23.7206 56.6224 23.4608 56.5822 23.1812C56.5419 22.9016 56.2863 22.708 56.0111 22.7489C55.7359 22.7898 55.5454 23.0496 55.5857 23.3292C55.6259 23.6088 55.8816 23.8024 56.1568 23.7615ZM42.829 23.247C42.3664 23.19 41.9936 23.3014 41.8635 23.7954C41.7515 24.2199 42.0223 24.6158 42.4111 24.7605C44.0287 25.0639 45.5861 25.636 46.8119 26.0864C48.5084 26.7096 48.9111 26.866 50.5877 25.8795L53.2173 24.3325L50.7907 19.9758C50.7131 19.9801 50.6358 19.9718 50.5615 19.9517L43.5371 18.0415C42.7195 17.8188 41.9575 17.9168 41.2345 18.3691C38.0056 20.3859 34.7783 22.4058 31.5508 24.4251C31.3179 24.5708 31.2052 24.9266 31.2413 25.2806C31.2695 25.5572 31.3984 25.8162 31.6499 25.9456C32.0969 26.1757 32.9005 26.0909 34.1783 25.3347L39.5144 22.1766C39.9645 21.9103 40.4283 21.7408 40.9103 21.6586C42.2719 21.4262 44.2707 22.0585 45.4994 22.4151C45.8818 22.526 46.2701 22.6387 46.6414 22.7398C47.0322 22.8459 47.2643 23.2539 47.1599 23.6508C47.0554 24.0479 46.654 24.2837 46.2633 24.1777C45.1207 23.8666 43.9864 23.4918 42.829 23.247ZM44.3299 44.2743C44.8883 43.9588 45.4194 43.5884 45.9143 43.1656C48.899 40.6162 50.1975 36.5073 49.1833 32.6262C48.6487 30.5802 47.4971 28.6987 45.8026 27.2965C45.9785 27.3604 46.1491 27.4231 46.3135 27.4834C46.7445 27.6418 47.1342 27.7849 47.4854 27.9006C47.8584 28.0236 48.2219 28.0782 48.5779 28.0786C49.5261 29.3287 50.2069 30.7499 50.5985 32.2477C51.7575 36.6829 50.2726 41.3806 46.854 44.3008C46.2642 44.8046 45.6312 45.2431 44.9663 45.6133C45.2792 45.7601 45.4554 46.1166 45.3688 46.469C45.2707 46.8676 44.8731 47.11 44.4808 47.0103L42.5356 46.5147C42.0586 46.3935 41.8364 45.8386 42.0824 45.4146L43.0054 43.6462C43.1937 43.2829 43.6362 43.1435 43.9937 43.3347C44.3303 43.515 44.4716 43.9239 44.3299 44.2743Z" fill="#000248"/>
<path fill-rule="evenodd" clip-rule="evenodd" d="M29.295 30.4051C27.9694 30.4051 26.8946 31.4971 26.8946 32.8443C26.8946 34.1914 27.9693 35.2834 29.295 35.2834C30.6208 35.2834 31.6955 34.1914 31.6955 32.8443C31.6954 31.4972 30.6207 30.4051 29.295 30.4051ZM25.2327 40.52H33.3573C33.7192 40.52 33.9808 40.1762 33.8897 39.8203C33.3583 37.7461 31.5027 36.2149 29.295 36.2149C27.0873 36.2149 25.2317 37.7461 24.7003 39.8203C24.6091 40.1762 24.8708 40.52 25.2327 40.52ZM38.6427 40.52H46.7674C47.1292 40.52 47.3909 40.1762 47.2997 39.8203C46.7683 37.7461 44.9127 36.2149 42.7051 36.2149C40.4974 36.2149 38.6418 37.7461 38.1104 39.8203C38.0192 40.1762 38.2808 40.52 38.6427 40.52ZM42.705 30.4051C44.0307 30.4051 45.1055 31.4971 45.1055 32.8443C45.1055 34.1914 44.0308 35.2834 42.705 35.2834C41.3794 35.2834 40.3046 34.1914 40.3046 32.8443C40.3047 31.4972 41.3794 30.4051 42.705 30.4051ZM36 28.4197C34.6743 28.4197 33.5995 29.5117 33.5995 30.8588C33.5995 32.206 34.6742 33.298 36 33.298C37.3258 33.298 38.4005 32.206 38.4005 30.8588C38.4005 29.5117 37.3257 28.4197 36 28.4197ZM36.9992 38.5345H35.0009C34.4958 37.3451 33.6481 36.3604 32.5969 35.6902C33.4594 34.7891 34.6653 34.2294 36 34.2294C37.3347 34.2294 38.5406 34.7892 39.4031 35.6901C38.352 36.3604 37.5043 37.345 36.9992 38.5345Z" fill="#2690D4"/>
</g>
<defs>
<clipPath id="clip0_24_10">
<rect width="44" height="44" fill="white" transform="translate(13.9999 14)"/>
</clipPath>
</defs>
</svg>
