<svg width="72" height="72" viewBox="0 0 72 72" fill="none" xmlns="http://www.w3.org/2000/svg">
<rect width="72" height="72" rx="8" fill="white"/>
<g clip-path="url(#clip0_30_3168)">
<path fill-rule="evenodd" clip-rule="evenodd" d="M36 30.2733L34.3569 33.8808L30.4301 34.3341L33.3414 37.017L32.5576 40.9046L36 38.9553L39.4424 40.9046L38.6586 37.017L41.5699 34.3341L37.6431 33.8808L35.9999 30.2733H36Z" fill="#2690D4"/>
<path fill-rule="evenodd" clip-rule="evenodd" d="M23.9049 32.5934H16.4413C15.0412 32.5934 14.5924 31.7225 14 30.6844H23.9932C24.0465 31.2496 24.0048 31.8605 23.9049 32.5934ZM48.0068 30.6844C47.9535 31.2496 47.9953 31.8605 48.0951 32.5934H55.5587C56.9588 32.5934 57.4076 31.7225 58 30.6844H48.0068ZM23.6654 34.0911H16.6799C17.2741 35.1283 17.7226 36.0001 19.1229 36.0001H23.4212C23.4718 35.3575 23.5559 34.7262 23.6654 34.0911ZM48.5788 36.0001H52.8772C54.2775 36.0001 54.726 35.1283 55.3202 34.0911H48.3347C48.4442 34.7261 48.5283 35.3575 48.5789 36.0001H48.5788ZM23.3665 37.4978H19.3633C19.9572 38.5351 20.4058 39.4067 21.806 39.4067H23.5014C23.4178 38.7934 23.3722 38.1573 23.3665 37.4978ZM48.4986 39.4067H50.194C51.5943 39.4067 52.0428 38.5351 52.6367 37.4978H48.6335C48.6279 38.1573 48.5822 38.7934 48.4986 39.4067ZM47.5603 42.8129C48.9339 42.7867 49.3694 41.9259 49.9541 40.9044H48.2082C48.0396 41.5692 47.8228 42.2051 47.5603 42.8129ZM22.0458 40.9044C22.6305 41.9258 23.066 42.7867 24.4396 42.8129C24.1771 42.2051 23.9604 41.5693 23.7917 40.9044H22.0458ZM46.8762 34.4162C48.3888 43.1719 43.2058 47.7485 36 50.5C28.7942 47.7486 23.6112 43.1719 25.1239 34.4162C25.833 30.3116 25.7063 28.9425 23.1642 26.0113C22.8306 25.6267 22.9161 25.0416 23.3457 24.7693L26.9564 22.4809C27.3998 22.1999 27.9638 22.2667 28.3298 22.6436C29.7419 24.0977 32.4074 24.4894 34.3431 22.2576C35.2192 21.2474 36.7809 21.2475 37.657 22.2576C39.5926 24.4894 42.2582 24.0977 43.6703 22.6436C44.0364 22.2666 44.6002 22.1998 45.0437 22.4809L48.6543 24.7693C49.0839 25.0416 49.1694 25.6268 48.8358 26.0113C46.2937 28.9426 46.167 30.3117 46.8761 34.4162H46.8762ZM43.4922 35.9999C43.4922 31.859 40.1266 28.4817 36 28.4817C31.8734 28.4817 28.5078 31.859 28.5078 35.9999C28.5078 40.1409 31.8734 43.5182 36 43.5182C40.1266 43.5182 43.4922 40.1409 43.4922 35.9999Z" fill="#000248"/>
</g>
<defs>
<clipPath id="clip0_30_3168">
<rect width="44" height="44" fill="white" transform="translate(13.9999 14)"/>
</clipPath>
</defs>
</svg>
