<svg width="72" height="72" viewBox="0 0 72 72" fill="none" xmlns="http://www.w3.org/2000/svg">
<rect width="72" height="72" rx="8" fill="white"/>
<g clip-path="url(#clip0_87_1195)">
<path d="M51.6132 27.854C51.28 27.4559 50.7903 27.2249 50.2695 27.2249H32.8702L32.4619 25.2568C32.3494 24.7091 31.9729 24.2542 31.4585 24.0302L28.282 22.6596C28.0379 22.5543 27.7612 22.5543 27.5093 22.6477C27.2588 22.7467 27.0635 22.9405 26.9517 23.1827C26.8442 23.4327 26.8442 23.7065 26.9454 23.9551C27.0395 24.1973 27.2341 24.3974 27.4782 24.5034L30.5167 25.8115L33.2261 38.878C33.4094 39.7662 34.1976 40.4037 35.1112 40.4037H48.2479C49.0644 40.4037 49.7791 39.8245 49.9433 39.0276L51.9635 29.287C52.0711 28.7822 51.9387 28.2591 51.6132 27.854ZM34.3052 32.6951L34.1863 32.2099C34.0759 31.7585 34.4205 31.3246 34.8875 31.3246H35.6794C36.0417 31.3246 36.3466 31.5893 36.3947 31.9459L36.4599 32.4311C36.5186 32.8608 36.1811 33.2428 35.7452 33.2428H35.0064C34.6731 33.2428 34.383 33.0167 34.3052 32.6951ZM36.215 36.712H35.8563C35.523 36.712 35.2322 36.4859 35.1536 36.1643L35.0093 35.5738C34.8989 35.1223 35.2435 34.6884 35.7105 34.6884H36.1344C36.4966 34.6884 36.8023 34.9531 36.8497 35.3098L36.9304 35.8989C36.9884 36.33 36.6523 36.712 36.215 36.712ZM41.055 35.9958C41.055 36.3918 40.7324 36.712 40.3333 36.712H39.1417C38.7808 36.712 38.4744 36.4459 38.4263 36.0906L38.347 35.5001C38.2883 35.0711 38.6258 34.6884 39.0624 34.6884H40.3333C40.7324 34.6884 41.055 35.0086 41.055 35.4046V35.9958ZM41.055 32.5266C41.055 32.9226 40.7324 33.2428 40.3333 33.2428H38.6732C38.3109 33.2428 38.006 32.9781 37.9564 32.6228L37.8913 32.1369C37.8333 31.7072 38.1701 31.3253 38.6067 31.3253H40.3333C40.7324 31.3253 41.055 31.6454 41.055 32.0414V32.5266ZM45.22 35.5001L45.1394 36.0906C45.0919 36.4459 44.7855 36.712 44.424 36.712H43.2338C42.8347 36.712 42.5106 36.3918 42.5106 35.9958V35.4053C42.5106 35.0093 42.8347 34.6891 43.2338 34.6891H44.5046C44.9419 34.6891 45.278 35.0718 45.22 35.5001ZM45.6757 32.1369L45.6099 32.6228C45.5611 32.9781 45.2554 33.2428 44.8945 33.2428H43.2345C42.8354 33.2428 42.5113 32.9226 42.5113 32.5266V32.0414C42.5113 31.6454 42.8354 31.3253 43.2345 31.3253H44.9596C45.3962 31.3253 45.7337 31.7072 45.6757 32.1369ZM48.5564 35.5738L48.412 36.1643C48.3335 36.4859 48.0441 36.712 47.7108 36.712H47.352C46.9147 36.712 46.5772 36.33 46.6352 35.8996L46.7159 35.3105C46.764 34.9545 47.0704 34.6891 47.4313 34.6891H47.8551C48.3236 34.6891 48.6675 35.1231 48.5564 35.5738ZM49.38 32.2106L49.2605 32.6958C49.1819 33.0174 48.8925 33.2435 48.5592 33.2435H47.8205C47.3846 33.2435 47.0456 32.8615 47.1051 32.4318L47.1709 31.9459C47.2183 31.5907 47.5247 31.326 47.8863 31.326H48.6774C49.1465 31.3253 49.4904 31.7592 49.38 32.2106Z" fill="#2690D4"/>
<path d="M37.0822 42.1274C35.8984 42.1274 34.9381 43.0802 34.9381 44.2549C34.9381 45.4295 35.8977 46.3823 37.0822 46.3823C38.266 46.3823 39.2262 45.4302 39.2262 44.2549C39.2262 43.0802 38.266 42.1274 37.0822 42.1274ZM37.0822 44.9451C36.698 44.9451 36.3866 44.6361 36.3866 44.2549C36.3866 43.8736 36.698 43.5647 37.0822 43.5647C37.4664 43.5647 37.7778 43.8736 37.7778 44.2549C37.7785 44.6361 37.4664 44.9451 37.0822 44.9451Z" fill="#2690D4"/>
<path d="M46.0575 42.1274C44.8736 42.1274 43.9134 43.0802 43.9134 44.2549C43.9134 45.4295 44.8736 46.3823 46.0575 46.3823C47.2413 46.3823 48.2015 45.4302 48.2015 44.2549C48.2008 43.0802 47.2413 42.1274 46.0575 42.1274ZM46.0575 44.9451C45.6732 44.9451 45.3619 44.6361 45.3619 44.2549C45.3619 43.8736 45.6732 43.5647 46.0575 43.5647C46.4417 43.5647 46.753 43.8736 46.753 44.2549C46.753 44.6361 46.4417 44.9451 46.0575 44.9451Z" fill="#2690D4"/>
<path d="M48.1529 24.9094V17.1551C48.1529 15.4152 46.7342 13.9998 44.9786 13.9998H23.1772C21.4188 13.9998 20.0001 15.4152 20.0001 17.1551V54.8472C20.0001 56.5871 21.4188 57.9998 23.1772 57.9998H44.9786C46.7342 57.9998 48.1529 56.5871 48.1529 54.8472V48.8153H24.2436V20.0373H43.9094V24.9094H48.1529ZM34.0786 51.0845C35.2681 51.0845 36.2326 52.0415 36.2326 53.2246C36.2326 54.4098 35.2681 55.3696 34.0786 55.3696C32.8891 55.3696 31.9197 54.4098 31.9197 53.2246C31.9197 52.0415 32.8891 51.0845 34.0786 51.0845ZM38.6087 18.1507H29.5443C29.3122 18.1507 29.131 17.8088 29.131 17.3882C29.131 16.9704 29.3122 16.6313 29.5443 16.6313H38.6087C38.8387 16.6313 39.022 16.9704 39.022 17.3882C39.022 17.8088 38.838 18.1507 38.6087 18.1507Z" fill="#050148"/>
</g>
<defs>
<clipPath id="clip0_87_1195">
<rect width="44" height="44" fill="white" transform="translate(13.9999 14)"/>
</clipPath>
</defs>
</svg>
