<svg width="72" height="72" viewBox="0 0 72 72" fill="none" xmlns="http://www.w3.org/2000/svg">
<rect width="72" height="72" rx="8" fill="white"/>
<g clip-path="url(#clip0_87_1231)">
<path d="M37.4594 47.5833L40.6023 39.7261C40.7956 39.2427 40.7358 38.6934 40.4442 38.2621C40.1511 37.8309 39.6646 37.5716 39.1429 37.5716H21.0975L20.1583 35.3817C19.9113 34.8032 19.3435 34.4287 18.7143 34.4287H15.5714C14.7028 34.4287 14 35.1316 14 36.0001C14 36.8687 14.7028 37.5716 15.5714 37.5716H17.6784L21.9845 47.6186C22.2316 48.1971 22.7994 48.5716 23.4286 48.5716H30.5486L32.6628 51.1086C32.2204 51.4902 31.8562 51.958 31.6184 52.5001H27.8101C27.2024 51.1149 25.8218 50.143 24.2143 50.143C22.0474 50.143 20.2857 51.9047 20.2857 54.0716C20.2857 56.2384 22.0474 58.0001 24.2143 58.0001C25.8218 58.0001 27.2024 57.0283 27.8101 55.643H31.6184C32.2261 57.0283 33.6068 58.0001 35.2143 58.0001C37.3811 58.0001 39.1429 56.2384 39.1429 54.0716C39.1429 52.1819 37.8024 50.6019 36.0224 50.2283L34.6419 48.5716H36C36.643 48.5716 37.22 48.1802 37.4594 47.5833Z" fill="#050148"/>
<path d="M31.7044 31.7419C30.6908 32.4423 29.4658 32.8573 28.143 32.8573C26.8201 32.8573 25.5951 32.4424 24.5815 31.742C22.9776 32.4951 21.8572 34.114 21.8572 36.0002H34.4287C34.4287 34.114 33.3082 32.495 31.7044 31.7419Z" fill="#050148"/>
<path d="M28.1426 31.2857C30.7462 31.2857 32.8569 29.1751 32.8569 26.5715C32.8569 23.9678 30.7462 21.8572 28.1426 21.8572C25.5389 21.8572 23.4283 23.9678 23.4283 26.5715C23.4283 29.1751 25.5389 31.2857 28.1426 31.2857Z" fill="#050148"/>
<path d="M57.5061 24.8024L54.4704 23.9121C54.2793 23.2612 54.0245 22.638 53.705 22.0539L55.2196 19.2822C55.3462 18.9869 55.2802 18.6443 55.053 18.4171L53.5829 16.947C53.3558 16.7199 53.0132 16.6539 52.7179 16.7804L49.9462 18.295C49.3621 17.9755 48.7389 17.7208 48.088 17.5297L47.1977 14.4939C47.0784 14.1956 46.7894 14 46.4682 14H44.3892C44.068 14 43.779 14.1956 43.6597 14.4939L42.7693 17.5297C42.1184 17.7208 41.4952 17.9755 40.9111 18.295L38.1394 16.7804C37.8441 16.6539 37.5015 16.7199 37.2744 16.947L35.8043 18.4171C35.5771 18.6443 35.5111 18.9869 35.6377 19.2822L37.1523 22.0539C36.8328 22.638 36.5781 23.2612 36.3869 23.9121L34.0778 24.5893C34.288 25.2161 34.4287 25.8747 34.4287 26.5714C34.4287 27.2681 34.288 27.9268 34.0778 28.5536L36.3869 29.2308C36.5781 29.8817 36.8328 30.5049 37.1523 31.089L35.6377 33.8607C35.5111 34.156 35.5771 34.4986 35.8043 34.7257L37.2744 36.1958C37.5015 36.423 37.8441 36.489 38.1394 36.3624L40.9111 34.8478C41.4952 35.1673 42.1184 35.422 42.7693 35.6132L43.6597 38.6489C43.779 38.9472 44.068 39.1429 44.3892 39.1429H46.4682C46.7894 39.1429 47.0784 38.9472 47.1977 38.6489L48.088 35.6132C48.7389 35.422 49.3621 35.1673 49.9462 34.8478L52.7179 36.3624C53.0132 36.489 53.3558 36.423 53.5829 36.1958L55.053 34.7257C55.2802 34.4986 55.3462 34.156 55.2196 33.8607L53.705 31.089C54.0245 30.5049 54.2793 29.8817 54.4704 29.2308L57.5061 28.3404C57.8045 28.2211 58.0001 27.9321 58.0001 27.6108V25.5319C58.0001 25.2106 57.8045 24.9217 57.5061 24.8024ZM45.4287 31.2857C42.825 31.2857 40.7144 29.1751 40.7144 26.5714C40.7144 23.9678 42.825 21.8571 45.4287 21.8571C48.0323 21.8571 50.143 23.9678 50.143 26.5714C50.143 29.1751 48.0323 31.2857 45.4287 31.2857Z" fill="#2690D4"/>
<path d="M45.4286 29.7144C47.1643 29.7144 48.5714 28.3073 48.5714 26.5716C48.5714 24.8358 47.1643 23.4287 45.4286 23.4287C43.6928 23.4287 42.2857 24.8358 42.2857 26.5716C42.2857 28.3073 43.6928 29.7144 45.4286 29.7144Z" fill="#2690D4"/>
</g>
<defs>
<clipPath id="clip0_87_1231">
<rect width="44" height="44" fill="white" transform="translate(14 14)"/>
</clipPath>
</defs>
</svg>
