<svg width="72" height="72" viewBox="0 0 72 72" fill="none" xmlns="http://www.w3.org/2000/svg">
<rect width="72" height="72" rx="8" fill="white"/>
<g clip-path="url(#clip0_87_1183)">
<path fill-rule="evenodd" clip-rule="evenodd" d="M57.9999 36.0043C57.9999 35.1169 57.6466 34.3242 57.0694 33.747C56.4921 33.1698 55.6909 32.8079 54.8121 32.8079C53.9247 32.8079 53.132 33.1611 52.5548 33.747C52.2102 34.083 51.9431 34.5052 51.788 34.9704H47.0322C46.9116 34.9704 46.8168 35.0135 46.7306 35.0997C46.6531 35.1858 46.61 35.2892 46.6186 35.4012C46.6273 35.5994 46.6359 35.7975 46.6359 36.0043C46.6359 36.2024 46.6273 36.4006 46.6186 36.5988C46.61 36.7108 46.6531 36.8142 46.7306 36.9003C46.8168 36.9865 46.9116 37.0296 47.0322 37.0296H51.788C51.9431 37.5034 52.2102 37.917 52.5548 38.2616C53.132 38.8388 53.9247 39.1921 54.8121 39.1921C55.6909 39.1921 56.4835 38.8388 57.0608 38.253L57.0694 38.2616C57.6466 37.6843 57.9999 36.8831 57.9999 36.0043ZM13.9999 36.0043C13.9999 35.1169 14.3617 34.3242 14.939 33.747C15.5162 33.1698 16.3175 32.8079 17.1963 32.8079C18.0751 32.8079 18.8763 33.1611 19.4536 33.747C19.7896 34.083 20.0567 34.5052 20.2204 34.9704H24.3903C24.7694 34.9704 25.0796 35.2806 25.0796 35.6597V36.3489C25.0796 36.728 24.7694 37.0296 24.3903 37.0296H20.2204C20.0567 37.5034 19.7896 37.917 19.4536 38.2616C18.8763 38.8388 18.0751 39.1921 17.1963 39.1921C16.3175 39.1921 15.5162 38.8388 14.939 38.253C14.3617 37.6757 13.9999 36.8831 13.9999 36.0043ZM16.395 35.203C16.1882 35.4098 16.059 35.6855 16.059 36.0043C16.059 36.3145 16.1882 36.5988 16.395 36.7969C16.5932 36.9951 16.8775 37.1329 17.1963 37.1329C17.5064 37.1329 17.7908 37.0037 17.9975 36.7969C18.1957 36.5988 18.3249 36.3145 18.3249 36.0043C18.3249 35.6855 18.1957 35.4098 17.9975 35.203C17.7908 34.9963 17.5064 34.867 17.1963 34.867C16.8775 34.867 16.5932 35.0049 16.395 35.203ZM20.6942 49.1087V45.7744C20.6942 45.0162 20.9096 44.2925 21.2973 43.6808C21.6936 43.0863 22.2536 42.6039 22.9687 42.3109L24.1232 41.8198C24.3386 41.7251 24.5712 41.7423 24.7694 41.8715C24.9676 42.0094 25.0796 42.2075 25.0796 42.4488V43.1897C25.0796 43.4654 24.9159 43.7067 24.6574 43.8187L23.7442 44.2064C23.4426 44.3356 23.1927 44.5424 23.0291 44.8008C22.8481 45.0765 22.7534 45.4039 22.7534 45.7744V49.1087C23.2186 49.2637 23.6408 49.5308 23.9854 49.8755C24.5626 50.4527 24.9159 51.2453 24.9159 52.1327C24.9159 53.0115 24.5626 53.8128 23.9854 54.39C23.3995 54.9673 22.6069 55.3205 21.7195 55.3205C20.8407 55.3205 20.0394 54.9673 19.4622 54.39C18.8849 53.8128 18.5317 53.0115 18.5317 52.1327C18.5317 51.2453 18.8849 50.4527 19.4622 49.8755C19.8068 49.5308 20.229 49.2637 20.6942 49.1087ZM20.6942 22.8999V26.2342C20.6942 26.9923 20.9096 27.7074 21.2973 28.3192C21.6936 28.9222 22.2536 29.4047 22.9687 29.6977L24.1232 30.1887C24.3386 30.2749 24.5712 30.2577 24.7694 30.1284C24.9676 29.9992 25.0796 29.7924 25.0796 29.5512V28.8189C25.0796 28.5345 24.9159 28.2933 24.6574 28.1813L23.7442 27.7936C23.4426 27.6644 23.1927 27.4576 23.0291 27.1991C22.8481 26.932 22.7534 26.596 22.7534 26.2342V22.8999C23.2186 22.7362 23.6408 22.4691 23.9854 22.1331C24.5626 21.5559 24.9159 20.7546 24.9159 19.8758C24.9159 18.9884 24.5626 18.1958 23.9854 17.6185C23.3995 17.0327 22.6069 16.6794 21.7195 16.6794C20.8407 16.6794 20.0394 17.0327 19.4622 17.6185C18.8849 18.1958 18.5317 18.9884 18.5317 19.8758C18.5317 20.7546 18.8849 21.5559 19.4622 22.1331C19.8068 22.4691 20.229 22.7362 20.6942 22.8999ZM20.9268 20.6685C20.7201 20.4703 20.5908 20.186 20.5908 19.8758C20.5908 19.5571 20.7201 19.2814 20.9268 19.0746C21.125 18.8678 21.4093 18.7386 21.7195 18.7386C22.0383 18.7386 22.3226 18.8678 22.5207 19.0746C22.7275 19.2814 22.8567 19.5571 22.8567 19.8758C22.8567 20.186 22.7275 20.4703 22.5207 20.6685C22.3226 20.8753 22.0383 21.0045 21.7195 21.0045C21.4093 21.0045 21.125 20.8753 20.9268 20.6685ZM20.9268 51.3315C20.7201 51.5383 20.5908 51.814 20.5908 52.1327C20.5908 52.4429 20.7201 52.7272 20.9268 52.934C21.125 53.1322 21.4093 53.2614 21.7195 53.2614C22.0383 53.2614 22.3226 53.1322 22.5207 52.934C22.7275 52.7272 22.8567 52.4429 22.8567 52.1327C22.8567 51.814 22.7275 51.5383 22.5207 51.3315C22.3226 51.1247 22.0383 50.9955 21.7195 50.9955C21.4093 50.9955 21.125 51.1247 20.9268 51.3315ZM51.3142 49.1087V45.7744C51.3142 45.0162 51.0988 44.2925 50.7024 43.6808C50.3147 43.0863 49.7461 42.6039 49.0396 42.3109L47.3251 41.5786C47.1097 41.4838 46.8771 41.5097 46.6789 41.6389C46.4808 41.7681 46.3688 41.9749 46.3688 42.2162V42.9485C46.3688 43.2328 46.5325 43.474 46.7909 43.586L48.2556 44.2064C48.5658 44.3356 48.807 44.5424 48.9793 44.8008C49.1516 45.0765 49.2464 45.4039 49.2464 45.7744V49.1087C48.7812 49.2637 48.359 49.5308 48.023 49.8755C47.4457 50.4527 47.0839 51.2453 47.0839 52.1327C47.0839 53.0115 47.4457 53.8128 48.023 54.39C48.6002 54.9673 49.4015 55.3205 50.2803 55.3205C51.1591 55.3205 51.9603 54.9673 52.5376 54.39C53.1148 53.8128 53.4767 53.0115 53.4767 52.1327C53.4767 51.2453 53.1148 50.4527 52.5376 49.8755C52.1929 49.5308 51.7794 49.2637 51.3142 49.1087ZM51.3142 22.8999V26.2342C51.3142 26.9923 51.0988 27.7074 50.7024 28.3192C50.3147 28.9222 49.7461 29.4047 49.0396 29.6977L47.8593 30.1974C47.6525 30.2835 47.4371 30.2749 47.2476 30.1629C47.0494 30.0509 46.9288 29.87 46.903 29.646C46.8857 29.4736 46.8426 29.3013 46.7823 29.1376C46.7306 28.9826 46.7306 28.8275 46.7823 28.681C46.7823 28.6724 46.7909 28.6724 46.7909 28.6638C46.8513 28.4742 46.9805 28.3364 47.17 28.2588L48.2556 27.7936C48.5658 27.6644 48.807 27.4576 48.9793 27.1991C49.1516 26.932 49.2464 26.596 49.2464 26.2342V22.8999C48.7812 22.7362 48.359 22.4691 48.023 22.1331C47.4457 21.5559 47.0839 20.7546 47.0839 19.8758C47.0839 18.9884 47.4457 18.1958 48.023 17.6185C48.6002 17.0327 49.4015 16.6794 50.2803 16.6794C51.1591 16.6794 51.9603 17.0327 52.5376 17.6185C53.1148 18.1958 53.4767 18.9884 53.4767 19.8758C53.4767 20.7546 53.1148 21.5559 52.5376 22.1331C52.1929 22.4691 51.7794 22.7362 51.3142 22.8999ZM51.0815 20.6685C51.2797 20.4703 51.4089 20.186 51.4089 19.8758C51.4089 19.5571 51.2797 19.2814 51.0815 19.0746C50.8748 18.8678 50.5904 18.7386 50.2803 18.7386C49.9701 18.7386 49.6858 18.8678 49.479 19.0746C49.2722 19.2814 49.1516 19.5571 49.1516 19.8758C49.1516 20.186 49.2722 20.4703 49.479 20.6685C49.6858 20.8753 49.9701 21.0045 50.2803 21.0045C50.5904 21.0045 50.8748 20.8753 51.0815 20.6685ZM51.0815 51.3315C51.2797 51.5383 51.4089 51.814 51.4089 52.1327C51.4089 52.4429 51.2797 52.7272 51.0815 52.934C50.8748 53.1322 50.5904 53.2614 50.2803 53.2614C49.9701 53.2614 49.6858 53.1322 49.479 52.934C49.2722 52.7272 49.1516 52.4429 49.1516 52.1327C49.1516 51.814 49.2722 51.5383 49.479 51.3315C49.6858 51.1247 49.9701 50.9955 50.2803 50.9955C50.5904 50.9955 50.8748 51.1247 51.0815 51.3315ZM55.6047 35.203C55.8115 35.4098 55.9407 35.6855 55.9407 36.0043C55.9407 36.3145 55.8115 36.5988 55.6047 36.7969C55.4066 36.9951 55.1223 37.1329 54.8121 37.1329C54.4933 37.1329 54.209 37.0037 54.0108 36.7969C53.8041 36.5988 53.6748 36.3145 53.6748 36.0043C53.6748 35.6855 53.8041 35.4098 54.0108 35.203C54.209 34.9963 54.4933 34.867 54.8121 34.867C55.1223 34.867 55.4066 35.0049 55.6047 35.203Z" fill="#2690D4"/>
<path fill-rule="evenodd" clip-rule="evenodd" d="M44.594 24.1924C44.9042 24.2613 45.1454 24.537 45.1454 24.873V27.854C45.1454 28.1901 44.9042 28.4658 44.594 28.5347V29.2756C44.9042 29.3446 45.1454 29.6203 45.1454 29.9563V31.7311C45.1454 32.0585 44.9042 32.3428 44.594 32.4117V49.4362C44.594 50.9181 43.3792 52.1243 41.8973 52.1243H29.5425C28.0692 52.1243 26.8544 50.9181 26.8544 49.4362V22.5641C26.8544 21.0908 28.0692 19.876 29.5425 19.876H41.8973C43.3792 19.876 44.594 21.0908 44.594 22.5641V24.1924ZM39.5883 22.4779L39.5797 22.4951C39.1834 23.1068 38.5545 23.4515 37.8307 23.4515H33.6263C32.894 23.4515 32.265 23.1068 31.8687 22.4951L31.8601 22.4779H29.8613C29.4391 22.4779 29.0945 22.8311 29.0945 23.2447V48.7642C29.0945 49.1777 29.4391 49.5223 29.8613 49.5223H41.5958C42.0093 49.5223 42.3539 49.1777 42.3539 48.7642V23.2447C42.3539 22.8225 42.0093 22.4779 41.5958 22.4779H39.5883Z" fill="#050148"/>
<path fill-rule="evenodd" clip-rule="evenodd" d="M34.8582 30.4126V29.3012C34.8582 28.9911 35.1081 28.7412 35.4182 28.7412H36.5813C36.8915 28.7412 37.1414 28.9911 37.1414 29.3012L37.15 30.3609C37.3998 30.4299 37.6497 30.5333 37.8737 30.6625C38.83 31.188 39.39 32.1099 39.5796 33.1696C39.6054 33.342 39.5623 33.497 39.4503 33.6263C39.3383 33.7555 39.1919 33.833 39.0196 33.833H37.9598C37.71 33.833 37.4946 33.6694 37.4171 33.4281C37.0466 32.2047 34.7117 32.041 34.7117 33.566C34.7117 34.3931 35.8662 34.7205 36.4952 34.9531C38.1925 35.5734 39.6399 36.2368 39.6399 38.2959C39.6399 39.8898 38.6146 41.1133 37.1414 41.5957V42.6985C37.1414 43.0087 36.8915 43.2672 36.5813 43.2672H35.4182C35.1081 43.2672 34.8582 43.0087 34.8582 42.6985L34.8496 41.6388C34.5997 41.5699 34.3585 41.4751 34.1259 41.3459C33.1695 40.8117 32.6095 39.8898 32.4286 38.8301C32.3941 38.6664 32.4458 38.5027 32.5492 38.3735C32.6612 38.2442 32.8163 38.1753 32.98 38.1753H34.0483C34.2982 38.1753 34.5136 38.3304 34.5825 38.5716C34.953 39.8037 37.2878 39.9588 37.2878 38.4338C37.2878 37.555 35.9524 37.219 35.3062 36.9778C33.6693 36.3747 32.3597 35.6596 32.3597 33.7038C32.3597 32.1185 33.3849 30.8865 34.8582 30.4126Z" fill="#2690D4"/>
</g>
<defs>
<clipPath id="clip0_87_1183">
<rect width="44" height="44" fill="white" transform="translate(13.9999 14)"/>
</clipPath>
</defs>
</svg>
