<svg width="72" height="72" viewBox="0 0 72 72" fill="none" xmlns="http://www.w3.org/2000/svg">
<rect width="72" height="72" rx="8" fill="white"/>
<g clip-path="url(#clip0_18_834)">
<path d="M14 49.8181V51.2726C14 51.4655 14.0773 51.6505 14.2148 51.7869C14.3523 51.9233 14.5388 51.9999 14.7333 51.9999H57.2667C57.4612 51.9999 57.6477 51.9233 57.7852 51.7869C57.9227 51.6505 58 51.4655 58 51.2726V49.8181C58 49.6252 57.9227 49.4402 57.7852 49.3038C57.6477 49.1674 57.4612 49.0908 57.2667 49.0908H42.1673L41.6613 49.5999C41.5926 49.6695 41.5104 49.7247 41.4197 49.7622C41.329 49.7996 41.2316 49.8187 41.1333 49.8181H30.8667C30.7723 49.8192 30.6786 49.801 30.5916 49.7647C30.5045 49.7285 30.4259 49.6748 30.3607 49.6072L29.8473 49.0908H14.7333C14.5388 49.0908 14.3523 49.1674 14.2148 49.3038C14.0773 49.4402 14 49.6252 14 49.8181Z" fill="#000248"/>
<path d="M19.1333 20C18.7443 20 18.3713 20.1532 18.0962 20.426C17.8212 20.6988 17.6667 21.0688 17.6667 21.4545V47.6364H30.1333C30.2298 47.6358 30.3255 47.6542 30.4149 47.6903C30.5042 47.7265 30.5855 47.7799 30.654 47.8473L31.1673 48.3636H40.8327L41.346 47.8473C41.4145 47.7799 41.4958 47.7265 41.5851 47.6903C41.6745 47.6542 41.7701 47.6358 41.8667 47.6364H54.3333V21.4545C54.3333 21.0688 54.1788 20.6988 53.9037 20.426C53.6287 20.1532 53.2556 20 52.8667 20H19.1333ZM20.6 22.9091H51.4V44.7273H20.6V22.9091Z" fill="#000248"/>
<path d="M25 32.3635H26.4667H27.2H27.9333H30.1333H30.8667H31.6H33.4333H34.1667H34.9H37.1H37.8333H38.5667H40.4H41.1333H41.8667H44.0667H44.8H45.5333H47L36 25.0908L25 32.3635Z" fill="#2690D4"/>
<path d="M46.6333 40.3635H25.3667C25.1642 40.3635 25 40.5263 25 40.7272V42.1817C25 42.3825 25.1642 42.5453 25.3667 42.5453H46.6333C46.8358 42.5453 47 42.3825 47 42.1817V40.7272C47 40.5263 46.8358 40.3635 46.6333 40.3635Z" fill="#2690D4"/>
<path d="M27.9333 35.2726V39.6362H28.6667H29.4H30.1333V35.2726H29.4H28.6667H27.9333Z" fill="#2690D4"/>
<path d="M30.8667 34.3417C30.8777 34.289 30.8777 34.2345 30.8667 34.1817V33.0908H27.2V34.1817C27.2017 34.2346 27.2142 34.2865 27.2367 34.3345C27.2662 34.3962 27.313 34.4482 27.3715 34.4843C27.43 34.5204 27.4978 34.5391 27.5667 34.5381H30.5C30.5741 34.5472 30.6493 34.5332 30.715 34.498C30.7807 34.4628 30.8337 34.4082 30.8667 34.3417Z" fill="#2690D4"/>
<path d="M34.9 35.2726V39.6362H35.6333H36.3667H37.1V35.2726H36.3667H35.6333H34.9Z" fill="#2690D4"/>
<path d="M37.7967 34.3417C37.8067 34.2913 37.8067 34.2394 37.7967 34.189V33.0908H34.13V34.1817C34.1317 34.2346 34.1442 34.2865 34.1667 34.3345C34.1973 34.4036 34.2494 34.4613 34.3153 34.4992C34.3812 34.5372 34.4576 34.5533 34.5333 34.5454H37.4667C37.5356 34.5464 37.6033 34.5277 37.6618 34.4916C37.7203 34.4555 37.7671 34.4035 37.7967 34.3417Z" fill="#2690D4"/>
<path d="M41.8667 35.2726V39.6362H42.6H43.3333H44.0667V35.2726H43.3333H42.6H41.8667Z" fill="#2690D4"/>
<path d="M44.8 34.3345C44.8101 34.284 44.8101 34.2321 44.8 34.1817V33.0908H41.1334V34.1817C41.1233 34.2321 41.1233 34.284 41.1334 34.3345C41.161 34.3981 41.2072 34.4522 41.266 34.4898C41.3247 34.5273 41.3934 34.5467 41.4634 34.5454H44.3967C44.4782 34.5634 44.5636 34.5521 44.6374 34.5134C44.7113 34.4748 44.769 34.4114 44.8 34.3345Z" fill="#2690D4"/>
</g>
<defs>
<clipPath id="clip0_18_834">
<rect width="44" height="44" fill="white" transform="translate(13.9999 14)"/>
</clipPath>
</defs>
</svg>
