<svg width="72" height="72" viewBox="0 0 72 72" fill="none" xmlns="http://www.w3.org/2000/svg">
<rect width="72" height="72" rx="8" fill="white"/>
<g clip-path="url(#clip0_87_1172)">
<path d="M23.591 26.779H26.3297L28.0276 24.2221C28.0536 24.1831 28.0825 24.1449 28.1128 24.1095C28.1286 24.0915 28.1445 24.0742 28.1611 24.0576C28.3219 23.891 28.5297 23.7792 28.7576 23.7359L28.8167 23.7273C28.8513 23.7222 28.8852 23.7179 28.9199 23.7164C28.9372 23.7157 28.9538 23.7157 28.9711 23.7157H28.979C29.3606 23.7186 29.7154 23.9141 29.9232 24.235L31.5547 26.7653L33.495 23.4294C33.495 23.4294 34.5192 22.0625 35.6249 23.5996L38.2814 27.2911L40.8975 24.2783C40.8975 24.2783 41.9044 22.8999 42.8609 24.168L45.314 27.4231H48.07C48.6081 26.4609 49.017 25.4367 49.2702 24.3656C49.6597 22.716 49.532 21.7041 49.501 21.5122C49.105 17.1592 46.0244 14.0015 42.1684 14.0015C39.5999 14.0015 37.2478 15.3834 35.9243 17.5992C34.613 15.3546 32.3575 14.0007 29.8301 14.0007C25.9749 14.0007 22.8935 17.1585 22.499 21.5115C22.468 21.7041 22.3396 22.7153 22.7291 24.3656C22.926 25.2008 23.2188 26.0072 23.591 26.779Z" fill="#2690D4"/>
<path d="M44.6987 29.688C44.3157 29.688 43.9587 29.494 43.7495 29.173L42.0386 26.5403L38.9652 29.947C38.9457 29.9852 38.9371 30.0364 38.9003 30.0588C37.6763 30.8038 36.8576 29.7291 36.8576 29.7291L34.2588 26.2583L32.7773 29.6036C32.7138 29.7464 32.6237 29.8712 32.5126 29.9744C32.4758 30.0083 32.4369 30.04 32.3957 30.0689C32.232 30.185 32.038 30.2571 31.8303 30.2737C31.4162 30.3062 31.0152 30.1078 30.7902 29.7587L28.9588 26.9197L27.8812 28.5404C27.8278 28.6205 27.7665 28.6912 27.6987 28.7525C27.6872 28.7633 27.6749 28.7741 27.6627 28.7835C27.6223 28.8181 27.579 28.8492 27.5343 28.8766C27.5213 28.8845 27.5076 28.8932 27.4946 28.8996C27.4852 28.9061 27.4751 28.9112 27.4658 28.9162C27.4448 28.9271 27.4246 28.9379 27.4037 28.9465C27.3648 28.9646 27.3244 28.9797 27.284 28.9927C27.2631 28.9992 27.2429 29.0057 27.2212 29.0114C27.2104 29.0143 27.1989 29.0165 27.1881 29.0187C27.1751 29.0223 27.1614 29.0244 27.1477 29.0273C27.0842 29.0396 27.02 29.0468 26.9558 29.0468H25.0127C25.4534 29.6058 25.9402 30.1374 26.4819 30.6278L35.9207 39.1931L45.521 30.6286C45.8499 30.3307 46.1535 30.0148 46.4449 29.6909H44.6987V29.688Z" fill="#2690D4"/>
<path d="M56.2164 44.3545C54.7313 41.6424 51.9622 43.4781 51.9622 43.4781L44.5994 47.6096C44.3945 47.7243 44.2041 47.8707 44.0339 48.033C36.6421 55.0858 29.8181 49.5975 29.8181 49.5975C34.4372 51.2197 38.894 49.9069 40.8934 48.2581C42.7219 46.8105 42.6591 45.0722 39.114 44.8327C33.8472 44.4764 32.0908 43.5466 31.5066 42.9444C30.8913 42.3104 30.2335 41.7095 29.4473 41.307C22.2576 37.6256 15.2705 43.8683 15.2705 43.8683L15.6845 44.6358L20.357 53.3143L21.0775 54.6537C21.0999 54.6955 21.1504 54.7172 21.1944 54.7006H21.1951C21.8118 54.4662 22.378 54.0464 22.9009 53.6259C24.1185 52.6478 25.2999 52.6947 26.6423 53.4362C28.9706 54.7244 31.3775 55.8684 33.7238 57.1263C34.2381 57.4025 34.7466 57.6232 35.2501 57.7855C35.2537 57.7862 35.2566 57.787 35.2602 57.7884C37.1961 58.2212 38.8976 57.9276 40.17 57.484C41.614 56.982 42.5062 56.2881 42.5617 56.2434C42.5639 56.242 42.5661 56.2405 42.5682 56.2391L54.9909 48.064C55.5752 47.6587 55.9978 47.2605 56.2878 46.8811C57.0841 45.8403 56.6383 45.1255 56.2164 44.3545Z" fill="#050148"/>
</g>
<defs>
<clipPath id="clip0_87_1172">
<rect width="44" height="44" fill="white" transform="translate(13.9999 14)"/>
</clipPath>
</defs>
</svg>
