<svg width="72" height="72" viewBox="0 0 72 72" fill="none" xmlns="http://www.w3.org/2000/svg">
<rect width="72" height="72" rx="8" fill="white"/>
<g clip-path="url(#clip0_17_806)">
<path d="M58 56.0844V32.8555C58 32.352 57.5941 31.9399 57.098 31.9399H47.5728C47.0766 31.9399 46.6707 32.352 46.6707 32.8555V57H57.098C57.5941 57 58 56.5971 58 56.0844ZM53.6884 50.7098H50.9824C50.4863 50.7098 50.0804 50.2977 50.0804 49.7942C50.0804 49.2906 50.4863 48.8786 50.9824 48.8786H53.6884C54.1845 48.8786 54.5904 49.2906 54.5904 49.7942C54.5904 50.2977 54.1845 50.7098 53.6884 50.7098ZM53.6884 45.3901H50.9824C50.4863 45.3901 50.0804 44.9781 50.0804 44.4745C50.0804 43.9618 50.4863 43.5589 50.9824 43.5589H53.6884C54.1845 43.5589 54.5904 43.9618 54.5904 44.4745C54.5904 44.9781 54.1845 45.3901 53.6884 45.3901ZM53.6884 40.0613H50.9824C50.4863 40.0613 50.0804 39.6585 50.0804 39.1457C50.0804 38.6422 50.4863 38.2301 50.9824 38.2301H53.6884C54.1845 38.2301 54.5904 38.6422 54.5904 39.1457C54.5904 39.6585 54.1845 40.0613 53.6884 40.0613Z" fill="#2690D4"/>
<path d="M14 32.8555V56.0844C14 56.5971 14.4059 57 14.902 57H25.3202V32.8555C25.3202 32.3498 24.9163 31.9399 24.4182 31.9399H14.902C14.4059 31.9399 14 32.352 14 32.8555ZM18.3116 38.2301H21.0176C21.5137 38.2301 21.9196 38.6422 21.9196 39.1457C21.9196 39.6585 21.5137 40.0613 21.0176 40.0613H18.3116C17.8065 40.0613 17.4096 39.6585 17.4096 39.1457C17.4096 38.6422 17.8065 38.2301 18.3116 38.2301ZM18.3116 43.5589H21.0176C21.5137 43.5589 21.9196 43.9618 21.9196 44.4745C21.9196 44.9781 21.5137 45.3901 21.0176 45.3901H18.3116C17.8065 45.3901 17.4096 44.9781 17.4096 44.4745C17.4096 43.9618 17.8065 43.5589 18.3116 43.5589ZM18.3116 48.8786H21.0176C21.5137 48.8786 21.9196 49.2906 21.9196 49.7942C21.9196 50.2977 21.5137 50.7098 21.0176 50.7098H18.3116C17.8065 50.7098 17.4096 50.2977 17.4096 49.7942C17.4096 49.2906 17.8065 48.8786 18.3116 48.8786Z" fill="#2690D4"/>
<path d="M30.1351 20.9514C30.1351 24.2383 32.7601 26.9028 35.9982 26.9028C39.2362 26.9028 41.8612 24.2383 41.8612 20.9514C41.8612 17.6645 39.2362 15 35.9982 15C32.7601 15 30.1351 17.6645 30.1351 20.9514ZM34.0584 20.0358H35.0961V18.9825C35.0961 18.4769 35.4995 18.0669 35.9981 18.0669C36.4967 18.0669 36.9001 18.4769 36.9001 18.9825V20.0358H37.9378C38.4364 20.0358 38.8398 20.4458 38.8398 20.9514C38.8398 21.4571 38.4364 21.867 37.9378 21.867H36.9001V22.9203C36.9001 23.426 36.4967 23.8359 35.9981 23.8359C35.4995 23.8359 35.0961 23.426 35.0961 22.9203V21.867H34.0584C33.5599 21.867 33.1564 21.4571 33.1564 20.9514C33.1564 20.4458 33.5599 20.0358 34.0584 20.0358Z" fill="#000248"/>
<path d="M45.2185 57V20.9527C45.2185 20.4491 44.8126 20.0371 44.3165 20.0371H43.6129C43.6491 20.3392 43.6671 20.6414 43.6671 20.9527C43.6671 25.2469 40.2214 28.7353 36 28.7353C31.7696 28.7353 28.3329 25.2469 28.3329 20.9527C28.3329 20.6414 28.351 20.3392 28.3871 20.0371H27.6835C27.1874 20.0371 26.7815 20.4491 26.7815 20.9527V57H31.3997V47.5601C31.3997 47.0565 31.8057 46.6445 32.3018 46.6445H39.6892C40.1853 46.6445 40.5912 47.0565 40.5912 47.5601V57H45.2185ZM30.5068 31.6561H41.4842C41.9893 31.6561 42.3862 32.059 42.3862 32.5717C42.3862 33.0753 41.9893 33.4873 41.4842 33.4873H30.5068C30.0107 33.4873 29.6048 33.0753 29.6048 32.5717C29.6048 32.059 30.0107 31.6561 30.5068 31.6561ZM30.5068 36.3165H41.4842C41.9893 36.3165 42.3862 36.7285 42.3862 37.2321C42.3862 37.7357 41.9893 38.1477 41.4842 38.1477H30.5068C30.0107 38.1477 29.6048 37.7357 29.6048 37.2321C29.6048 36.7285 30.0107 36.3165 30.5068 36.3165ZM30.5068 42.8081C30.0107 42.8081 29.6048 42.4053 29.6048 41.8925C29.6048 41.389 30.0107 40.9769 30.5068 40.9769H41.4842C41.9893 40.9769 42.3862 41.389 42.3862 41.8925C42.3862 42.4053 41.9893 42.8081 41.4842 42.8081H30.5068Z" fill="#000248"/>
</g>
<defs>
<clipPath id="clip0_17_806">
<rect width="44" height="44" fill="white" transform="translate(13.9999 14)"/>
</clipPath>
</defs>
</svg>
