<svg width="72" height="72" viewBox="0 0 72 72" fill="none" xmlns="http://www.w3.org/2000/svg">
<rect width="72" height="72" rx="8" fill="white"/>
<g clip-path="url(#clip0_25_51)">
<path d="M49.5955 32.2975H44.1573V37.7278H41.6854V32.2975H38.7191V37.2342L35.7528 36.7405V32.2975H33.2809V35.7532L30.3146 39.7025V32.2975H27.3483V45.6266H29.3258V48.0949H15.9775V45.6266H19.4382V32.2975H14L31.7978 16.5L49.5955 32.2975ZM21.9101 32.2975V45.6266H24.8764V32.2975H21.9101Z" fill="#000248"/>
<path d="M44.6517 39.7025L54.5393 37.7278H56.0225V39.7025H58V55.4999H31.3034V39.7025H33.2809V37.7278H34.764L44.6517 39.7025ZM34.764 52.0442L43.6629 53.5253V41.1835L34.764 39.7025V52.0442ZM45.6405 41.1835V53.5253L54.5393 52.0442V39.7025L45.6405 41.1835ZM42.1798 49.5759V51.5506L36.2472 50.5632V48.5885L42.1798 49.5759ZM53.0562 50.5632L47.1236 51.5506V49.5759L53.0562 48.5885V50.5632ZM42.1798 46.1202V48.0949L36.2472 47.1075V45.1328L42.1798 46.1202ZM53.0562 47.1075L47.1236 48.0949V46.1202L53.0562 45.1328V47.1075ZM42.1798 42.6645V44.6392L36.2472 43.6518V41.6772L42.1798 42.6645ZM53.0562 43.6518L47.1236 44.6392V42.6645L53.0562 41.6772V43.6518Z" fill="#2690D4"/>
</g>
<defs>
<clipPath id="clip0_25_51">
<rect width="44" height="44" fill="white" transform="translate(13.9999 14)"/>
</clipPath>
</defs>
</svg>
