<svg width="72" height="72" viewBox="0 0 72 72" fill="none" xmlns="http://www.w3.org/2000/svg">
<rect width="72" height="72" rx="8" fill="white"/>
<g clip-path="url(#clip0_19_897)">
<path d="M39.1369 47.2076C38.9469 47.1032 38.7231 47.0778 38.5144 47.1367L34.0131 48.4082C32.2538 48.869 31.0716 50.3957 31.0716 52.2073V53.2145C31.0716 53.6479 31.4242 53.9993 31.8595 54H43.7157C43.7142 53.9803 43.7127 49.7201 43.7127 49.7201L39.1369 47.2076ZM39.865 52.3547H34.9224C34.4674 52.3547 34.0987 51.9874 34.0987 51.5343C34.0987 51.0815 34.4674 50.714 34.9224 50.714H39.865C40.3198 50.714 40.6888 51.0815 40.6888 51.5343C40.6888 51.9874 40.3198 52.3547 39.865 52.3547Z" fill="#000248"/>
<path d="M50.7168 32.8842C50.4591 30.0069 48.2129 27.691 45.36 27.3125V26.8203C45.36 26.3672 44.9912 26 44.5362 26C44.0814 26 43.7124 26.3672 43.7124 26.8203V27.3125C40.8595 27.691 38.6135 30.0069 38.3558 32.8842C40.1419 32.4392 42.2945 32.198 44.5362 32.198C46.778 32.1978 48.9307 32.4392 50.7168 32.8842ZM43.7124 30.071C43.7124 29.6192 44.0825 29.2507 44.5362 29.2507C44.9901 29.2507 45.36 29.6192 45.36 30.071C45.36 30.5228 44.9901 30.8913 44.5362 30.8913C44.0825 30.8913 43.7124 30.5228 43.7124 30.071Z" fill="#000248"/>
<path d="M48.2891 44.4008C47.1703 45.091 45.8813 45.4605 44.5364 45.4605C44.5362 45.4605 44.4938 45.4605 44.4725 45.4603C43.1223 45.4486 41.8592 45.0561 40.7836 44.3862V46.2383L44.5444 48.3032L48.2891 46.2473V44.4008Z" fill="#000248"/>
<path d="M55.0585 48.408L50.5572 47.1367C50.3484 47.0778 50.1247 47.1032 49.9346 47.2074L45.3589 49.7198C45.3589 49.7198 45.3572 53.9803 45.3559 54H57.212C57.6473 53.9993 58 53.6477 58 53.2143V52.2073C58 50.3958 56.8178 48.869 55.0585 48.408ZM54.1491 52.3547H49.2065C48.7517 52.3547 48.3828 51.9874 48.3828 51.5344C48.3828 51.0815 48.7517 50.714 49.2065 50.714H54.1491C54.6041 50.714 54.9729 51.0815 54.9729 51.5344C54.9729 51.9874 54.6041 52.3547 54.1491 52.3547Z" fill="#000248"/>
<path d="M35.3809 39.0663C35.7327 39.3987 36.1461 39.649 36.5796 39.8605C36.8411 39.9883 37.135 40.1126 37.4671 40.2316C37.4092 39.865 37.3787 39.4897 37.3787 39.1075V37.1904C37.3787 37.0001 37.4038 36.8145 37.451 36.637C37.7052 36.5218 38.0116 36.4032 38.3801 36.286C38.5867 36.22 38.8025 36.1578 39.0263 36.0997V38.269C39.0263 41.2907 41.4527 43.7931 44.4871 43.8196C45.977 43.8324 47.3825 43.2563 48.4397 42.2003C49.4803 41.1608 50.051 39.7864 50.0464 38.3305L50.0409 36.0982C50.2665 36.1569 50.4843 36.2195 50.6926 36.286C51.0583 36.4024 51.3623 36.5199 51.615 36.6342C51.662 36.81 51.6873 36.9937 51.688 37.1821L51.694 39.1639C51.695 39.5232 51.6693 39.8787 51.6176 40.2282C53.7761 39.4529 54.36 38.4604 54.4165 37.6773C54.4169 37.6724 54.4171 37.6675 54.4173 37.6626C54.4486 37.1706 54.2667 36.7019 53.961 36.3212C53.9604 36.3236 53.96 36.3257 53.9593 36.3281C53.7431 36.06 53.4683 35.8269 53.1746 35.628C52.9049 35.4454 52.6192 35.2913 52.348 35.1655C51.9744 34.9921 51.5874 34.8483 51.1948 34.7233C49.4044 34.1527 47.0397 33.8385 44.5362 33.8385C42.033 33.8385 39.6683 34.1527 37.8779 34.7233C35.211 35.5731 34.6511 36.7275 34.6511 37.5463C34.6511 38.0137 34.8461 38.4523 35.1404 38.8097C35.2149 38.9003 35.2955 38.9857 35.3809 39.0663Z" fill="#000248"/>
<path d="M25.5327 22.922V22.1017H23.8852V22.922C23.8852 23.3743 24.2547 23.7423 24.709 23.7423C25.1632 23.7423 25.5327 23.3743 25.5327 22.922Z" fill="#2690D4"/>
<path d="M27.1803 18H22.2377C22.0594 18 21.886 18.0576 21.7434 18.1641L18.1931 20.8156C17.8433 21.0769 17.7594 21.5647 18.0019 21.9269L19.2172 23.7422H22.3794C22.2879 23.4854 22.2377 23.2095 22.2377 22.9219V21.2812C22.2377 20.8282 22.6065 20.4609 23.0614 20.4609H26.3565C26.8115 20.4609 27.1803 20.8282 27.1803 21.2812V22.9219C27.1803 23.2095 27.13 23.4854 27.0386 23.7422H30.2008L31.416 21.9269C31.6585 21.5647 31.5746 21.0769 31.2249 20.8156L27.6745 18.1641C27.532 18.0576 27.3585 18 27.1803 18Z" fill="#2690D4"/>
<path d="M21.6885 39.2734H23.2747L21.705 36.5938H21.6885V39.2734Z" fill="#2690D4"/>
<path d="M26.1432 39.2734H27.7295V36.5938H27.7129L26.1432 39.2734Z" fill="#2690D4"/>
<path d="M24.709 36.047C24.1858 36.047 23.6768 35.9856 23.1886 35.8704L24.709 38.4659L26.2294 35.8704C25.7411 35.9856 25.2321 36.047 24.709 36.047Z" fill="#2690D4"/>
<path d="M24.4049 40.9141L23.1592 46H26.2587L25.013 40.9141H24.4049Z" fill="#2690D4"/>
<path d="M19.4918 44.25V46H21.4634L22.7091 40.9141H20.8647C20.4098 40.9141 20.041 40.5468 20.041 40.0938V36.5938H19.2172C16.3358 36.5938 14 38.9198 14 41.7891V45.1797C14 45.6327 14.3688 46 14.8238 46H17.8442V44.25C17.8442 43.797 18.2131 43.4297 18.668 43.4297C19.1229 43.4297 19.4918 43.797 19.4918 44.25Z" fill="#2690D4"/>
<path d="M31.5737 44.25V46H34.5942C35.0491 46 35.4179 45.6327 35.4179 45.1797V41.7891C35.4179 38.9198 33.0821 36.5938 30.2008 36.5938H29.377V40.0938C29.377 40.5468 29.0082 40.9141 28.5532 40.9141H26.7089L27.9546 46H29.9262V44.25C29.9262 43.797 30.295 43.4297 30.7499 43.4297C31.2049 43.4297 31.5737 43.797 31.5737 44.25Z" fill="#2690D4"/>
<path d="M24.709 27.8437C26.6458 27.8437 28.4707 26.9392 29.6383 25.4003L29.6515 25.3828H19.7664L19.7796 25.4003C20.9473 26.9392 22.7721 27.8437 24.709 27.8437Z" fill="#2690D4"/>
<path d="M19.7664 27.7291V29.4844C19.7664 32.2027 21.9792 34.4063 24.709 34.4063C27.4387 34.4063 29.6515 32.2027 29.6515 29.4844V27.7291C28.2677 28.8479 26.5174 29.4844 24.709 29.4844C22.9005 29.4844 21.1502 28.8479 19.7664 27.7291Z" fill="#2690D4"/>
</g>
<defs>
<clipPath id="clip0_19_897">
<rect width="44" height="44" fill="white" transform="translate(13.9999 14)"/>
</clipPath>
</defs>
</svg>
