<svg width="72" height="72" viewBox="0 0 72 72" fill="none" xmlns="http://www.w3.org/2000/svg">
<rect width="72" height="72" rx="8" fill="white"/>
<g clip-path="url(#clip0_87_1207)">
<path d="M57.0618 42.3091C55.6268 47.2393 52.7071 51.2335 48.3852 54.1819C39.8875 59.9768 30.0759 58.443 24.0117 54.435C24.6949 53.9259 25.392 53.4081 26.0876 52.9048C28.6292 54.3775 31.2627 55.2342 33.9218 55.451C37.943 55.779 41.5656 55.1761 44.6904 53.6561C47.8626 52.1135 50.5326 49.6226 52.629 46.2509C54.5538 43.1549 55.5618 39.904 55.6253 36.5898C55.6881 33.3556 54.8516 30.0421 53.1385 26.7396C53.0925 26.6509 53.048 26.5767 52.9939 26.4901C52.9699 26.4501 52.9407 26.4036 52.9078 26.3476L52.3436 25.4021L50.6626 26.7069L50.9502 21.4719L55.9538 22.6683L54.3056 23.8705L54.7421 24.6239C58.0895 30.3934 58.8472 36.1782 57.0618 42.3091Z" fill="#2690D4"/>
<path d="M14.809 30.1301C16.1403 25.1715 18.9746 21.1177 23.2337 18.0791C31.6081 12.1075 41.4496 13.4355 47.5962 17.3162C46.924 17.8391 46.2379 18.3715 45.5532 18.8893C42.9817 17.4704 40.3299 16.6689 37.6671 16.5082C33.6402 16.2646 30.0314 16.9431 26.9388 18.5279C23.7994 20.1366 21.1826 22.6828 19.1578 26.0973C17.2987 29.2326 16.36 32.5039 16.3659 35.8188C16.371 39.0538 17.2775 42.3491 19.0593 45.6145C19.1067 45.7018 19.1534 45.7752 19.2089 45.8611C19.2337 45.9011 19.2637 45.9469 19.298 46.0014L19.8819 46.9345L21.5352 45.5949L21.3578 50.8349L16.3294 49.744L17.952 48.5076L17.4994 47.7636C14.033 42.0654 13.1535 36.2981 14.809 30.1301Z" fill="#2690D4"/>
<path d="M46.0191 29.1301V24.5803C46.0191 24.2625 45.76 24.0043 45.441 24.0043H41.9724C41.6535 24.0043 41.3943 24.2618 41.3943 24.5803V26.2763L37.3082 23.7548C36.4944 23.253 35.4637 23.253 34.6491 23.7563L22.2281 31.4363V37.3542L24.5427 35.9236V46.6684C24.5427 47.7462 25.4222 48.6226 26.504 48.6226H45.4892C46.5709 48.6226 47.4505 47.7462 47.4505 46.6684V35.9273L49.7687 37.3571V31.4436L46.0191 29.1301ZM44.8527 46.0328H39.2819V36.2538C39.2819 35.8923 38.9878 35.5993 38.625 35.5993H33.3696C33.0068 35.5993 32.7127 35.8923 32.7127 36.2538V39.5265H34.6835C35.0462 39.5265 35.3404 39.8196 35.3404 40.1811C35.3404 40.5426 35.0462 40.8356 34.6835 40.8356H32.7127V46.0328H27.1419V34.3163L29.4631 32.8814L33.6513 30.2916L35.9827 28.8501L38.3185 30.2916L42.5155 32.8814L44.8527 34.3236V46.0328Z" fill="#050148"/>
</g>
<defs>
<clipPath id="clip0_87_1207">
<rect width="44" height="44" fill="white" transform="translate(13.9999 14)"/>
</clipPath>
</defs>
</svg>
