<svg width="72" height="72" viewBox="0 0 72 72" fill="none" xmlns="http://www.w3.org/2000/svg">
<rect width="72" height="72" rx="8" fill="white"/>
<path d="M18.15 30.762H21.3V58.0001H16.05C15.7715 58.0001 15.5045 57.8897 15.3075 57.6932C15.1106 57.4967 15 57.2303 15 56.9524V33.9048C15.0025 33.072 15.3352 32.2741 15.9254 31.6852C16.5156 31.0964 17.3153 30.7645 18.15 30.762Z" fill="#2690D4"/>
<path d="M57 33.9048V56.9524C57 57.2303 56.8894 57.4967 56.6925 57.6932C56.4956 57.8897 56.2285 58.0001 55.95 58.0001H50.7V30.762H53.85C54.6847 30.7645 55.4844 31.0964 56.0746 31.6852C56.6648 32.2741 56.9975 33.072 57 33.9048Z" fill="#2690D4"/>
<path d="M36 29.7144C35.1693 29.7144 34.3573 29.9601 33.6666 30.4206C32.9759 30.881 32.4376 31.5355 32.1197 32.3012C31.8018 33.0669 31.7186 33.9095 31.8807 34.7224C32.0428 35.5352 32.4428 36.2819 33.0302 36.8679C33.6175 37.454 34.3659 37.8531 35.1806 38.0148C35.9953 38.1765 36.8398 38.0935 37.6073 37.7763C38.3747 37.4592 39.0307 36.9221 39.4922 36.2329C39.9537 35.5438 40.2 34.7336 40.2 33.9048C40.2 32.7934 39.7575 31.7276 38.9699 30.9417C38.1822 30.1559 37.1139 29.7144 36 29.7144ZM37.7955 35.6963C37.5965 35.891 37.3288 36.0001 37.05 36.0001C36.7712 36.0001 36.5035 35.891 36.3045 35.6963L35.2545 34.6486C35.0611 34.4489 34.9521 34.1826 34.95 33.9048V31.8096C34.95 31.5317 35.0606 31.2653 35.2575 31.0688C35.4545 30.8723 35.7215 30.762 36 30.762C36.2785 30.762 36.5456 30.8723 36.7425 31.0688C36.9394 31.2653 37.05 31.5317 37.05 31.8096V33.4753L37.7955 34.2086C37.9922 34.4064 38.1026 34.6738 38.1026 34.9524C38.1026 35.2311 37.9922 35.4985 37.7955 35.6963Z" fill="#2690D4"/>
<path d="M36.009 14.0002C36.0193 14.0003 36.0297 14.0005 36.04 14.0009C36.0478 14.0012 36.0557 14.0015 36.0635 14.002C36.0751 14.0027 36.0867 14.0035 36.0983 14.0046C36.1049 14.0052 36.1114 14.0061 36.118 14.0068C36.1263 14.0078 36.1346 14.0088 36.143 14.01C36.147 14.0105 36.1511 14.0109 36.1551 14.0115L36.1603 14.0124C36.1732 14.0144 36.1861 14.0166 36.1989 14.0191C36.2037 14.02 36.2085 14.021 36.2133 14.022C36.2246 14.0243 36.2358 14.0268 36.247 14.0295C36.2547 14.0314 36.2624 14.0334 36.2702 14.0355C36.2776 14.0375 36.285 14.0395 36.2925 14.0416C36.2991 14.0435 36.3057 14.0454 36.3123 14.0475C36.3246 14.0513 36.3368 14.0554 36.349 14.0597C36.354 14.0614 36.3589 14.0633 36.3639 14.0651C36.3675 14.0665 36.3712 14.0678 36.3748 14.0692L44.7749 17.2748C44.9743 17.3511 45.1457 17.4863 45.2661 17.6622C45.3866 17.8382 45.4503 18.0467 45.449 18.2598C45.4476 18.4729 45.3811 18.6805 45.2584 18.8549C45.1357 19.0293 44.9627 19.1622 44.7623 19.236L37.0501 22.0637V24.4762H45.45C46.2847 24.4787 47.0845 24.8106 47.6747 25.3995C48.2649 25.9883 48.5975 26.7863 48.6 27.6191V56.9523C48.6 57.2302 48.4894 57.4967 48.2925 57.6932C48.0956 57.8896 47.8285 58 47.55 58H43.3501V44.3809C43.35 44.1031 43.2394 43.8366 43.0425 43.6402C42.8456 43.4437 42.5785 43.3334 42.3 43.3334H29.7C29.4216 43.3334 29.1545 43.4437 28.9576 43.6402C28.7607 43.8366 28.65 44.1031 28.65 44.3809V58H24.4501C24.1716 58 23.9045 57.8896 23.7075 57.6932C23.5106 57.4967 23.4 57.2302 23.4 56.9523V27.6191C23.4025 26.7863 23.7352 25.9883 24.3254 25.3995C24.9156 24.8106 25.7154 24.4787 26.55 24.4762H34.95V15.0477C34.95 15.0311 34.9505 15.0146 34.9512 14.9982C34.9513 14.9968 34.9514 14.9953 34.9514 14.9939C34.9522 14.9785 34.9534 14.9631 34.9549 14.9478C34.9552 14.9442 34.9557 14.9405 34.956 14.9369C34.9592 14.9073 34.9636 14.8778 34.9692 14.8486C34.9701 14.8442 34.971 14.8397 34.9719 14.8353C34.9747 14.8216 34.9778 14.808 34.9811 14.7944C34.9819 14.7913 34.9828 14.7882 34.9836 14.7851C34.9864 14.7744 34.9894 14.7637 34.9925 14.7531C34.994 14.7481 34.9953 14.743 34.9969 14.7379C35.001 14.7247 35.0054 14.7116 35.0101 14.6985C35.0111 14.6955 35.0122 14.6925 35.0133 14.6895C35.0236 14.6613 35.0352 14.6334 35.0479 14.6061C35.0495 14.6027 35.0511 14.5993 35.0528 14.5959C35.0585 14.5839 35.0644 14.572 35.0706 14.5602C35.071 14.5596 35.0713 14.5589 35.0717 14.5582C35.074 14.5539 35.0764 14.5497 35.0787 14.5455C35.084 14.5357 35.0894 14.5261 35.0951 14.5166C35.0969 14.5135 35.0987 14.5103 35.1005 14.5072C35.1074 14.4959 35.1144 14.4847 35.1217 14.4737C35.1251 14.4685 35.1286 14.4633 35.1321 14.4582C35.1395 14.4473 35.1471 14.4365 35.1549 14.4259C35.1566 14.4236 35.1583 14.4215 35.1599 14.4193C35.1671 14.4097 35.1745 14.4003 35.1821 14.3909C35.1854 14.3868 35.1887 14.3827 35.1921 14.3786C35.2006 14.3684 35.2093 14.3583 35.2182 14.3484C35.2211 14.3452 35.224 14.342 35.2269 14.3389C35.2344 14.3307 35.242 14.3228 35.2497 14.3149C35.2523 14.3122 35.2549 14.3095 35.2575 14.3068C35.2601 14.3043 35.2628 14.3018 35.2654 14.2992C35.2733 14.2915 35.2814 14.2839 35.2895 14.2764C35.293 14.2733 35.2963 14.2701 35.2998 14.267C35.3105 14.2575 35.3213 14.2482 35.3324 14.2391C35.3346 14.2373 35.3369 14.2355 35.3391 14.2337C35.3482 14.2264 35.3575 14.2192 35.3668 14.2122C35.3724 14.2079 35.378 14.2037 35.3837 14.1996C35.3907 14.1946 35.3976 14.1896 35.4047 14.1847C35.4069 14.1832 35.4091 14.1817 35.4113 14.1802C35.4154 14.1775 35.4195 14.1748 35.4236 14.1721C35.4354 14.1643 35.4474 14.1568 35.4595 14.1495C35.4616 14.1483 35.4637 14.1471 35.4657 14.1459C35.4764 14.1396 35.4871 14.1336 35.4979 14.1278C35.5022 14.1255 35.5064 14.1231 35.5106 14.1208C35.5221 14.1148 35.5337 14.109 35.5453 14.1034C35.551 14.1007 35.5567 14.0981 35.5623 14.0955C35.5692 14.0924 35.576 14.0894 35.5829 14.0864C35.5935 14.0819 35.6041 14.0775 35.6147 14.0733C35.6216 14.0706 35.6285 14.0679 35.6355 14.0653C35.6417 14.063 35.6479 14.0608 35.6541 14.0586C35.6646 14.055 35.6751 14.0516 35.6857 14.0482C35.6935 14.0458 35.7013 14.0434 35.7091 14.0411C35.7164 14.0391 35.7237 14.037 35.7311 14.0351C35.7371 14.0335 35.7432 14.0318 35.7493 14.0303C35.7612 14.0274 35.7732 14.0248 35.7852 14.0223C35.7916 14.021 35.7981 14.0197 35.8046 14.0185C35.8139 14.0168 35.8231 14.0151 35.8325 14.0136C35.8409 14.0123 35.8494 14.011 35.8579 14.0099C35.8638 14.0091 35.8697 14.0082 35.8755 14.0075C35.8784 14.0071 35.8813 14.0068 35.8842 14.0065C35.8912 14.0057 35.8983 14.005 35.9053 14.0043C35.915 14.0034 35.9248 14.0028 35.9345 14.0022C35.9431 14.0017 35.9517 14.0012 35.9603 14.0009C35.97 14.0005 35.9797 14.0003 35.9895 14.0002C35.993 14.0002 35.9965 14 36 14C36.003 14 36.006 14.0002 36.009 14.0002ZM41.25 58H30.7501V45.4286H41.25V58ZM38.411 28.0975C37.2598 27.6217 35.9931 27.4973 34.771 27.7398C33.5489 27.9824 32.4263 28.581 31.5452 29.4601C30.6642 30.3392 30.0641 31.4592 29.8211 32.6785C29.578 33.8978 29.7028 35.1616 30.1796 36.3102C30.6565 37.4587 31.4639 38.4405 32.4999 39.1312C33.5359 39.8218 34.754 40.1905 36 40.1905C37.6709 40.1905 39.2733 39.5283 40.4548 38.3495C41.6363 37.1707 42.3 35.5719 42.3 33.9048C42.3 32.6616 41.9305 31.4463 41.2383 30.4126C40.546 29.3789 39.5621 28.5732 38.411 28.0975Z" fill="#000248"/>
<path d="M36 29.7144C35.1693 29.7144 34.3573 29.9601 33.6666 30.4206C32.9759 30.881 32.4376 31.5355 32.1197 32.3012C31.8018 33.0669 31.7186 33.9095 31.8807 34.7224C32.0428 35.5352 32.4428 36.2819 33.0302 36.8679C33.6175 37.454 34.3659 37.8531 35.1806 38.0148C35.9953 38.1765 36.8398 38.0935 37.6073 37.7763C38.3747 37.4592 39.0307 36.9221 39.4922 36.2329C39.9537 35.5438 40.2 34.7336 40.2 33.9048C40.2 32.7934 39.7575 31.7276 38.9699 30.9417C38.1822 30.1559 37.1139 29.7144 36 29.7144ZM37.7955 35.6963C37.5965 35.891 37.3288 36.0001 37.05 36.0001C36.7712 36.0001 36.5035 35.891 36.3045 35.6963L35.2545 34.6486C35.0611 34.4489 34.9521 34.1826 34.95 33.9048V31.8096C34.95 31.5317 35.0606 31.2653 35.2575 31.0688C35.4545 30.8723 35.7215 30.762 36 30.762C36.2785 30.762 36.5456 30.8723 36.7425 31.0688C36.9394 31.2653 37.05 31.5317 37.05 31.8096V33.4753L37.7955 34.2086C37.9922 34.4064 38.1026 34.6738 38.1026 34.9524C38.1026 35.2311 37.9922 35.4985 37.7955 35.6963Z" fill="#2690D4"/>
<path d="M36 29.7144C35.1693 29.7144 34.3573 29.9601 33.6666 30.4206C32.9759 30.881 32.4376 31.5355 32.1197 32.3012C31.8018 33.0669 31.7186 33.9095 31.8807 34.7224C32.0428 35.5352 32.4428 36.2819 33.0302 36.8679C33.6175 37.454 34.3659 37.8531 35.1806 38.0148C35.9953 38.1765 36.8398 38.0935 37.6073 37.7763C38.3747 37.4592 39.0307 36.9221 39.4922 36.2329C39.9537 35.5438 40.2 34.7336 40.2 33.9048C40.2 32.7934 39.7575 31.7276 38.9699 30.9417C38.1822 30.1559 37.1139 29.7144 36 29.7144ZM37.7955 35.6963C37.5965 35.891 37.3288 36.0001 37.05 36.0001C36.7712 36.0001 36.5035 35.891 36.3045 35.6963L35.2545 34.6486C35.0611 34.4489 34.9521 34.1826 34.95 33.9048V31.8096C34.95 31.5317 35.0606 31.2653 35.2575 31.0688C35.4545 30.8723 35.7215 30.762 36 30.762C36.2785 30.762 36.5456 30.8723 36.7425 31.0688C36.9394 31.2653 37.05 31.5317 37.05 31.8096V33.4753L37.7955 34.2086C37.9922 34.4064 38.1026 34.6738 38.1026 34.9524C38.1026 35.2311 37.9922 35.4985 37.7955 35.6963Z" fill="#2690D4"/>
</svg>
