<svg width="72" height="72" viewBox="0 0 72 72" fill="none" xmlns="http://www.w3.org/2000/svg">
<rect width="72" height="72" rx="8" fill="white"/>
<path fill-rule="evenodd" clip-rule="evenodd" d="M40.7416 15C34.5972 15 29.0111 18.4505 26.2404 23.8995V27.2142C26.741 25.4157 27.567 23.7528 28.6512 22.2931C29.2451 23.1404 30.0662 24.8114 30.0947 25.3921C30.3375 30.3547 32.6819 30.3122 33.371 30.5809C35.1029 31.256 36.4051 35.257 37.4891 36.5424C39.0383 35.648 40.7203 35.3624 42.4589 35.9075C42.172 34.4975 40.5219 32.9061 40.0201 32.4637C38.2322 30.8876 38.983 30.12 40.3909 29.7302C42.0108 29.2816 44.5005 29.3331 44.9939 29.2282C46.1494 28.9823 46.4823 28.1697 45.5985 27.4036C44.5611 26.5045 42.7445 25.5152 42.3216 24.7103C41.737 23.5972 42.1616 23.265 42.9159 23.0317C44.4486 22.5578 47.3414 22.491 45.8945 17.1128C50.9364 18.9497 54.6501 23.3674 55.57 28.6662C53.8839 28.6567 52.9708 28.9496 52.4737 29.4356C51.0266 30.8504 53.1023 33.901 49.8786 35.8884C48.021 37.0336 50.915 39.3209 49.8786 41.9963C49.7463 42.3379 49.7388 42.7717 49.9028 43.2012C47.3653 45.1507 44.1888 46.3097 40.7415 46.3097C39.8239 46.3097 38.9256 46.2275 38.0534 46.0702L37.7186 47.2363C38.6981 47.4205 39.7085 47.5171 40.7415 47.5171C49.7206 47.5171 56.9999 40.2378 56.9999 31.2587C57.0001 22.2793 49.7208 15 40.7416 15ZM25.6342 37.2776L27.1089 37.6447C26.2943 35.9086 25.8015 33.9913 25.7075 31.97C25.5793 32.1065 25.4319 32.2247 25.2696 32.3204C25.3634 32.9446 25.1612 33.5742 24.7183 34.0266C24.9118 35.1541 25.2212 36.2421 25.6342 37.2776Z" fill="#2690D4"/>
<path fill-rule="evenodd" clip-rule="evenodd" d="M19.9807 50.5708L15.0001 46.5093L16.8183 45.3038L21.6885 47.059L38.4315 37.3925C41.2074 35.7897 46.71 37.9742 41.4424 41.0154L37.6141 43.2257L34.0541 55.6243L31.6712 57L31.8378 46.5121C31.8378 46.5121 21.845 52.0202 19.9807 50.5708ZM15.7588 18.5867H17.3593V16.5721C17.3593 15.7055 18.0648 15 18.9314 15H21.1018C21.9684 15 22.674 15.7055 22.674 16.5721V18.5866H24.2745C24.6923 18.5866 25.033 18.9274 25.033 19.3452V30.625C25.033 31.0429 24.6923 31.3837 24.2745 31.3837H15.7588C15.341 31.3837 15.0001 31.0429 15.0001 30.625V19.3453C15.0001 18.9275 15.341 18.5867 15.7588 18.5867ZM23.2825 31.8191C23.7255 31.8191 24.0845 32.1783 24.0845 32.6212C24.0845 33.0642 23.7254 33.4233 23.2825 33.4233C22.8395 33.4233 22.4804 33.0642 22.4804 32.6212C22.4804 32.1782 22.8395 31.8191 23.2825 31.8191ZM16.7507 31.8191C17.1937 31.8191 17.5527 32.1783 17.5527 32.6212C17.5527 33.0642 17.1936 33.4233 16.7507 33.4233C16.3076 33.4233 15.9485 33.0642 15.9485 32.6212C15.9485 32.1782 16.3077 31.8191 16.7507 31.8191ZM18.5666 18.5867H21.4666V16.5721C21.4666 16.3719 21.3019 16.2073 21.1018 16.2073H18.9314C18.7312 16.2073 18.5667 16.3719 18.5667 16.5721L18.5666 18.5867ZM19.4129 21.009V28.9615C19.4129 29.2949 19.6832 29.5652 20.0166 29.5652C20.35 29.5652 20.6203 29.2949 20.6203 28.9615V21.009C20.6203 20.6756 20.35 20.4053 20.0166 20.4053C19.6832 20.4053 19.4129 20.6756 19.4129 21.009ZM21.9802 21.009V28.9615C21.9802 29.2949 22.2505 29.5652 22.5839 29.5652C22.9173 29.5652 23.1876 29.2949 23.1876 28.9615V21.009C23.1876 20.6756 22.9173 20.4053 22.5839 20.4053C22.2505 20.4053 21.9802 20.6756 21.9802 21.009ZM16.8455 21.009V28.9615C16.8455 29.2949 17.1158 29.5652 17.4492 29.5652C17.7827 29.5652 18.0529 29.2949 18.0529 28.9615V21.009C18.0529 20.6756 17.7827 20.4053 17.4492 20.4053C17.1158 20.4053 16.8455 20.6756 16.8455 21.009ZM21.553 39.4747L27.0821 42.5509L31.5218 39.9876L23.9358 38.0991L21.553 39.4747Z" fill="#000248"/>
</svg>
