<svg width="72" height="72" viewBox="0 0 72 72" fill="none" xmlns="http://www.w3.org/2000/svg">
<rect width="72" height="72" rx="8" fill="white"/>
<g clip-path="url(#clip0_87_1220)">
<path d="M57.865 34.7737L55.4482 35.3258C53.5709 35.755 51.658 34.7632 50.9277 32.981C50.8396 32.7658 50.9633 32.5211 51.1877 32.4582L56.0199 31.108C56.1016 31.0849 56.1282 30.9801 56.0667 30.9214C52.6365 27.6624 47.8805 26.1632 43.1741 26.8985L35.9998 28.0188L21.9652 30.212C21.9247 30.2183 21.8841 30.2015 21.8597 30.1693L19.2605 26.7042C19.2395 26.6762 19.2067 26.6602 19.1724 26.6602C16.316 26.6602 13.9998 28.9763 13.9998 31.8327V37.1157C13.9998 38.5869 15.1929 39.7799 16.664 39.7799H41.4988H43.7507H53.1012C54.9974 39.7799 56.6447 38.6959 57.4582 37.1157C57.8034 36.4448 57.9998 35.6851 57.9998 34.8799C57.9998 34.81 57.9327 34.7576 57.865 34.7737ZM27.439 35.9255C26.4878 35.9255 25.7169 35.1546 25.7169 34.2034C25.7169 33.2522 26.4878 32.4813 27.439 32.4813C28.3902 32.4813 29.1611 33.2522 29.1611 34.2034C29.1611 35.1546 28.3902 35.9255 27.439 35.9255ZM34.9235 35.6837C33.9723 35.6837 33.2014 34.9128 33.2014 33.9616C33.2014 33.0104 33.9723 32.2395 34.9235 32.2395C35.8747 32.2395 36.6456 33.0104 36.6456 33.9616C36.6456 34.9128 35.8747 35.6837 34.9235 35.6837ZM42.7191 35.3216C41.7679 35.3216 40.997 34.5507 40.997 33.5995C40.997 32.6483 41.7679 31.8775 42.7191 31.8775C43.6703 31.8775 44.4412 32.6483 44.4412 33.5995C44.4412 34.5507 43.6696 35.3216 42.7191 35.3216Z" fill="#050148"/>
<path d="M29.5426 41.0996L25.157 47.5169C24.7991 48.0404 25.1744 48.7512 25.8083 48.7512H30.2834C30.4407 48.7512 30.5944 48.7044 30.7244 48.6163L41.8747 41.0996H29.5426Z" fill="#2690D4"/>
<path d="M28.3329 27.8813L37.1963 26.4967L30.7042 22.1202C30.5875 22.0419 30.4505 22 30.3101 22H25.6491C25.083 22 24.7475 22.6346 25.0676 23.1022L28.3329 27.8813Z" fill="#2690D4"/>
</g>
<defs>
<clipPath id="clip0_87_1220">
<rect width="44" height="44" fill="white" transform="translate(13.9999 14)"/>
</clipPath>
</defs>
</svg>
