<svg width="72" height="72" viewBox="0 0 72 72" fill="none" xmlns="http://www.w3.org/2000/svg">
<rect width="72" height="72" rx="8" fill="white"/>
<path d="M44.996 14C50.5107 14 55.0001 18.4513 55 23.9235C55 25.7732 54.4873 27.5759 53.5136 29.1351C53.3241 29.4343 52.9234 29.5281 52.6218 29.3445C52.3202 29.1566 52.2255 28.7593 52.4107 28.4603C53.2594 27.1061 53.7074 25.534 53.7074 23.9235C53.7074 19.1604 49.7997 15.2816 44.9959 15.2816C40.1921 15.2816 36.2801 19.1603 36.28 23.9235C36.28 28.6866 40.1921 32.5612 44.9959 32.5612C46.9562 32.5612 48.8045 31.9332 50.3469 30.7414C50.6269 30.5236 51.0319 30.5705 51.2516 30.8525C51.4714 31.1301 51.424 31.5317 51.1396 31.7496C49.7567 32.8219 48.1539 33.4926 46.4434 33.7361C47.0768 34.8083 47.5593 35.9531 47.8738 37.1535H50.3253C51.2559 37.1535 52.0142 37.9054 52.0142 38.828V42.4505C52.0142 43.3732 51.2559 44.1293 50.3253 44.1294H47.8738C47.5594 45.3255 47.0768 46.4746 46.4434 47.5468L48.1754 49.264C48.8389 49.9176 48.8389 50.9813 48.1754 51.6349L45.5946 54.1938C44.9355 54.8516 43.8627 54.8516 43.2036 54.1938L41.4716 52.4807C40.3903 53.1044 39.2356 53.5828 38.025 53.8947V56.3254C38.025 57.2481 37.2667 58 36.3318 58H32.6825C31.7477 58 30.9894 57.2481 30.9894 56.3254V53.8947C29.7788 53.5828 28.6241 53.1044 27.5427 52.4807L25.8108 54.1938C25.1472 54.8517 24.0787 54.8517 23.4195 54.1938L20.8345 51.6349C20.1753 50.9813 20.1753 49.9176 20.8345 49.264L22.5664 47.5468C21.9331 46.4746 21.4549 45.3255 21.1361 44.1294H18.6889C17.7583 44.1294 17 43.3732 17 42.4505V38.828C17 37.9052 17.7584 37.1534 18.6889 37.1534H21.1362C21.455 35.9531 21.9331 34.8082 22.5665 33.736L20.8345 32.0144C20.1754 31.3608 20.1754 30.3013 20.8345 29.6435L23.4196 27.0847C24.0789 26.4311 25.1473 26.4311 25.8109 27.0847L27.5428 28.802C28.6242 28.1741 29.7788 27.6998 30.9895 27.3837V24.9573C30.9895 24.0346 31.7477 23.2828 32.6826 23.2828H35.0091C35.3452 18.1095 39.6967 14 44.996 14ZM34.5051 32.6765C30.0761 32.6765 26.4743 36.2477 26.4743 40.6392C26.4743 45.0307 30.0761 48.6063 34.5051 48.6063C38.9341 48.6063 42.5403 45.0306 42.5403 40.6392C42.5402 36.2478 38.9341 32.6765 34.5051 32.6765Z" fill="#000248"/>
<path d="M38.723 42.0789C38.723 44.3815 36.8316 46.2568 34.5051 46.2568C32.1829 46.2568 30.2915 44.3815 30.2915 42.0789C30.2915 39.9601 33.6219 35.7395 34.001 35.2653C34.2466 34.9578 34.7679 34.9578 35.0135 35.2653C35.3926 35.7396 38.723 39.9601 38.723 42.0789Z" fill="#2690D4"/>
<path d="M49.8602 23.8039L44.9142 30.0536C44.6428 30.391 44.1818 30.5021 43.7854 30.3227C43.3891 30.1432 43.1737 29.7204 43.2555 29.2974L43.9491 25.8202L40.8212 25.6493C40.4766 25.6279 40.1707 25.4228 40.0242 25.111C39.8777 24.7992 39.9165 24.4318 40.1276 24.1584L44.9832 17.7977C45.246 17.4559 45.707 17.3363 46.1034 17.5072C46.504 17.6823 46.7281 18.101 46.6505 18.5239L45.987 22.1507L49.1666 22.3045C49.5199 22.3216 49.8258 22.5266 49.9722 22.847C50.1187 23.1631 50.0756 23.5304 49.8602 23.8039Z" fill="#2690D4"/>
</svg>
